G04 #@! TF.FileFunction,Soldermask,Top*
%FSLAX46Y46*%
G04 Gerber Fmt 4.6, Leading zero omitted, Abs format (unit mm)*
G04 Created by KiCad (PCBNEW 4.0.1-stable) date Fri 18 Dec 2015 10:46:47 AM EET*
%MOMM*%
G01*
G04 APERTURE LIST*
%ADD10C,0.100000*%
G04 APERTURE END LIST*
D10*
G36*
X173120430Y-70503690D02*
X170939570Y-70503690D01*
X170939570Y-68526030D01*
X173120430Y-68526030D01*
X173120430Y-70503690D01*
X173120430Y-70503690D01*
G37*
G36*
X175695430Y-70503690D02*
X173514570Y-70503690D01*
X173514570Y-68526030D01*
X175695430Y-68526030D01*
X175695430Y-70503690D01*
X175695430Y-70503690D01*
G37*
G36*
X178270430Y-70503690D02*
X176089570Y-70503690D01*
X176089570Y-68526030D01*
X178270430Y-68526030D01*
X178270430Y-70503690D01*
X178270430Y-70503690D01*
G37*
G36*
X153994077Y-67926006D02*
X153994100Y-67926013D01*
X153994175Y-67926021D01*
X154197392Y-67988927D01*
X154384520Y-68090107D01*
X154548432Y-68225707D01*
X154682884Y-68390561D01*
X154782755Y-68578391D01*
X154844241Y-68782043D01*
X154865000Y-68993758D01*
X154865000Y-69406314D01*
X154864923Y-69417404D01*
X154864922Y-69417411D01*
X154864894Y-69421461D01*
X154841181Y-69632866D01*
X154776858Y-69835639D01*
X154674374Y-70022056D01*
X154537633Y-70185017D01*
X154371844Y-70318315D01*
X154183321Y-70416872D01*
X153979246Y-70476935D01*
X153979185Y-70476941D01*
X153979156Y-70476949D01*
X153767395Y-70496220D01*
X153555923Y-70473994D01*
X153555900Y-70473987D01*
X153555825Y-70473979D01*
X153352608Y-70411073D01*
X153165480Y-70309893D01*
X153001568Y-70174293D01*
X152867116Y-70009439D01*
X152767245Y-69821609D01*
X152705759Y-69617957D01*
X152685000Y-69406242D01*
X152685000Y-68993686D01*
X152685077Y-68982596D01*
X152685078Y-68982589D01*
X152685106Y-68978539D01*
X152708819Y-68767134D01*
X152773142Y-68564361D01*
X152875626Y-68377944D01*
X153012367Y-68214983D01*
X153178156Y-68081685D01*
X153366679Y-67983128D01*
X153570754Y-67923065D01*
X153570815Y-67923059D01*
X153570844Y-67923051D01*
X153782605Y-67903780D01*
X153994077Y-67926006D01*
X153994077Y-67926006D01*
G37*
G36*
X159494077Y-67926006D02*
X159494100Y-67926013D01*
X159494175Y-67926021D01*
X159697392Y-67988927D01*
X159884520Y-68090107D01*
X160048432Y-68225707D01*
X160182884Y-68390561D01*
X160282755Y-68578391D01*
X160344241Y-68782043D01*
X160365000Y-68993758D01*
X160365000Y-69406314D01*
X160364923Y-69417404D01*
X160364922Y-69417411D01*
X160364894Y-69421461D01*
X160341181Y-69632866D01*
X160276858Y-69835639D01*
X160174374Y-70022056D01*
X160037633Y-70185017D01*
X159871844Y-70318315D01*
X159683321Y-70416872D01*
X159479246Y-70476935D01*
X159479185Y-70476941D01*
X159479156Y-70476949D01*
X159267395Y-70496220D01*
X159055923Y-70473994D01*
X159055900Y-70473987D01*
X159055825Y-70473979D01*
X158852608Y-70411073D01*
X158665480Y-70309893D01*
X158501568Y-70174293D01*
X158367116Y-70009439D01*
X158267245Y-69821609D01*
X158205759Y-69617957D01*
X158185000Y-69406242D01*
X158185000Y-68993686D01*
X158185077Y-68982596D01*
X158185078Y-68982589D01*
X158185106Y-68978539D01*
X158208819Y-68767134D01*
X158273142Y-68564361D01*
X158375626Y-68377944D01*
X158512367Y-68214983D01*
X158678156Y-68081685D01*
X158866679Y-67983128D01*
X159070754Y-67923065D01*
X159070815Y-67923059D01*
X159070844Y-67923051D01*
X159282605Y-67903780D01*
X159494077Y-67926006D01*
X159494077Y-67926006D01*
G37*
G36*
X157965000Y-70052540D02*
X155085000Y-70052540D01*
X155085000Y-68472540D01*
X157965000Y-68472540D01*
X157965000Y-70052540D01*
X157965000Y-70052540D01*
G37*
G36*
X188544495Y-65516393D02*
X188869130Y-65583030D01*
X189174633Y-65711452D01*
X189449377Y-65896769D01*
X189682897Y-66131924D01*
X189866288Y-66407951D01*
X189992577Y-66714350D01*
X190056809Y-67038750D01*
X190056809Y-67038762D01*
X190056943Y-67039440D01*
X190051657Y-67417962D01*
X190051505Y-67418630D01*
X190051505Y-67418649D01*
X189978240Y-67741125D01*
X189843444Y-68043883D01*
X189652417Y-68314680D01*
X189412426Y-68543220D01*
X189132611Y-68720796D01*
X188823641Y-68840638D01*
X188497271Y-68898186D01*
X188165943Y-68891245D01*
X187842274Y-68820083D01*
X187538593Y-68687408D01*
X187266459Y-68498269D01*
X187036250Y-68259881D01*
X186856726Y-67981314D01*
X186734729Y-67673185D01*
X186674905Y-67347229D01*
X186679532Y-67015863D01*
X186748434Y-66691702D01*
X186878988Y-66387096D01*
X187066219Y-66113653D01*
X187302995Y-65881784D01*
X187580298Y-65700322D01*
X187887567Y-65576177D01*
X188213101Y-65514078D01*
X188544495Y-65516393D01*
X188544495Y-65516393D01*
G37*
G36*
X178270430Y-67663970D02*
X176089570Y-67663970D01*
X176089570Y-65686310D01*
X178270430Y-65686310D01*
X178270430Y-67663970D01*
X178270430Y-67663970D01*
G37*
G36*
X175695430Y-67663970D02*
X173514570Y-67663970D01*
X173514570Y-65686310D01*
X175695430Y-65686310D01*
X175695430Y-67663970D01*
X175695430Y-67663970D01*
G37*
G36*
X173120430Y-67663970D02*
X170939570Y-67663970D01*
X170939570Y-65686310D01*
X173120430Y-65686310D01*
X173120430Y-67663970D01*
X173120430Y-67663970D01*
G37*
G36*
X159213015Y-65574637D02*
X159213033Y-65574643D01*
X159213113Y-65574651D01*
X159388365Y-65628901D01*
X159549741Y-65716157D01*
X159691096Y-65833096D01*
X159807046Y-65975264D01*
X159893173Y-66137246D01*
X159946198Y-66312872D01*
X159964100Y-66495452D01*
X159964100Y-66504624D01*
X159964037Y-66513617D01*
X159964036Y-66513622D01*
X159964008Y-66517672D01*
X159943559Y-66699985D01*
X159888087Y-66874853D01*
X159799707Y-67035617D01*
X159681784Y-67176152D01*
X159538809Y-67291106D01*
X159376230Y-67376101D01*
X159200238Y-67427898D01*
X159200178Y-67427903D01*
X159200149Y-67427912D01*
X159017542Y-67444530D01*
X158835185Y-67425363D01*
X158835167Y-67425357D01*
X158835087Y-67425349D01*
X158659835Y-67371099D01*
X158498459Y-67283843D01*
X158377216Y-67183542D01*
X158353853Y-67169218D01*
X158326716Y-67161776D01*
X158298579Y-67162189D01*
X158271672Y-67170424D01*
X158248124Y-67185829D01*
X158229801Y-67207185D01*
X158218152Y-67232800D01*
X158214100Y-67260977D01*
X158214100Y-67365000D01*
X154834100Y-67365000D01*
X154834100Y-67262275D01*
X154830141Y-67234416D01*
X154818577Y-67208762D01*
X154800324Y-67187346D01*
X154776828Y-67171863D01*
X154749948Y-67163539D01*
X154721813Y-67163033D01*
X154694651Y-67170385D01*
X154672070Y-67183962D01*
X154538809Y-67291106D01*
X154376230Y-67376101D01*
X154200238Y-67427898D01*
X154200178Y-67427903D01*
X154200149Y-67427912D01*
X154017542Y-67444530D01*
X153835185Y-67425363D01*
X153835167Y-67425357D01*
X153835087Y-67425349D01*
X153659835Y-67371099D01*
X153498459Y-67283843D01*
X153357104Y-67166904D01*
X153241154Y-67024736D01*
X153155027Y-66862754D01*
X153102002Y-66687128D01*
X153084100Y-66504548D01*
X153084100Y-66495376D01*
X153084163Y-66486383D01*
X153084164Y-66486378D01*
X153084192Y-66482328D01*
X153104641Y-66300015D01*
X153160113Y-66125147D01*
X153248493Y-65964383D01*
X153366416Y-65823848D01*
X153509391Y-65708894D01*
X153671970Y-65623899D01*
X153847962Y-65572102D01*
X153848022Y-65572097D01*
X153848051Y-65572088D01*
X154030658Y-65555470D01*
X154213015Y-65574637D01*
X154213033Y-65574643D01*
X154213113Y-65574651D01*
X154388365Y-65628901D01*
X154549741Y-65716157D01*
X154670984Y-65816458D01*
X154694347Y-65830782D01*
X154721484Y-65838224D01*
X154749621Y-65837811D01*
X154776528Y-65829576D01*
X154800076Y-65814171D01*
X154818399Y-65792815D01*
X154830048Y-65767200D01*
X154834100Y-65739023D01*
X154834100Y-65635000D01*
X158214100Y-65635000D01*
X158214100Y-65737725D01*
X158218059Y-65765584D01*
X158229623Y-65791238D01*
X158247876Y-65812654D01*
X158271372Y-65828137D01*
X158298252Y-65836461D01*
X158326387Y-65836967D01*
X158353549Y-65829615D01*
X158376130Y-65816038D01*
X158509391Y-65708894D01*
X158671970Y-65623899D01*
X158847962Y-65572102D01*
X158848022Y-65572097D01*
X158848051Y-65572088D01*
X159030658Y-65555470D01*
X159213015Y-65574637D01*
X159213015Y-65574637D01*
G37*
G36*
X154260495Y-61681253D02*
X154585130Y-61747890D01*
X154890633Y-61876312D01*
X155165377Y-62061629D01*
X155398897Y-62296784D01*
X155582288Y-62572811D01*
X155708577Y-62879210D01*
X155772809Y-63203610D01*
X155772809Y-63203622D01*
X155772943Y-63204300D01*
X155767657Y-63582822D01*
X155767505Y-63583490D01*
X155767505Y-63583509D01*
X155694240Y-63905985D01*
X155559444Y-64208743D01*
X155368417Y-64479540D01*
X155128426Y-64708080D01*
X154848611Y-64885656D01*
X154539641Y-65005498D01*
X154213271Y-65063046D01*
X153881943Y-65056105D01*
X153558274Y-64984943D01*
X153254593Y-64852268D01*
X152982459Y-64663129D01*
X152752250Y-64424741D01*
X152572726Y-64146174D01*
X152450729Y-63838045D01*
X152390905Y-63512089D01*
X152395532Y-63180723D01*
X152464434Y-62856562D01*
X152594988Y-62551956D01*
X152782219Y-62278513D01*
X153018995Y-62046644D01*
X153296298Y-61865182D01*
X153603567Y-61741037D01*
X153929101Y-61678938D01*
X154260495Y-61681253D01*
X154260495Y-61681253D01*
G37*
G36*
X185814493Y-62559862D02*
X186023881Y-62602843D01*
X186220940Y-62685679D01*
X186398159Y-62805215D01*
X186548780Y-62956891D01*
X186667072Y-63134936D01*
X186748532Y-63332573D01*
X186789914Y-63541567D01*
X186789914Y-63541587D01*
X186790047Y-63542260D01*
X186786637Y-63786414D01*
X186786486Y-63787077D01*
X186786486Y-63787101D01*
X186739283Y-63994864D01*
X186652338Y-64190147D01*
X186529122Y-64364816D01*
X186374322Y-64512230D01*
X186193832Y-64626772D01*
X185994546Y-64704070D01*
X185784027Y-64741191D01*
X185570314Y-64736713D01*
X185361540Y-64690812D01*
X185165658Y-64605233D01*
X184990129Y-64483238D01*
X184841638Y-64329470D01*
X184725841Y-64149789D01*
X184647151Y-63951039D01*
X184608563Y-63740789D01*
X184611547Y-63527053D01*
X184655991Y-63317962D01*
X184740201Y-63121483D01*
X184860967Y-62945111D01*
X185013694Y-62795548D01*
X185192564Y-62678499D01*
X185390755Y-62598425D01*
X185600731Y-62558369D01*
X185814493Y-62559862D01*
X185814493Y-62559862D01*
G37*
G36*
X185814493Y-57987862D02*
X186023881Y-58030843D01*
X186220940Y-58113679D01*
X186398159Y-58233215D01*
X186548780Y-58384891D01*
X186667072Y-58562936D01*
X186748532Y-58760573D01*
X186789914Y-58969567D01*
X186789914Y-58969587D01*
X186790047Y-58970260D01*
X186786637Y-59214414D01*
X186786486Y-59215077D01*
X186786486Y-59215101D01*
X186739283Y-59422864D01*
X186652338Y-59618147D01*
X186529122Y-59792816D01*
X186374322Y-59940229D01*
X186267385Y-60008094D01*
X186245984Y-60026365D01*
X186230521Y-60049874D01*
X186222219Y-60076761D01*
X186221736Y-60104896D01*
X186229110Y-60132052D01*
X186243758Y-60156078D01*
X186265049Y-60175431D01*
X186398158Y-60265215D01*
X186548780Y-60416891D01*
X186667072Y-60594936D01*
X186748532Y-60792573D01*
X186789914Y-61001567D01*
X186789914Y-61001587D01*
X186790047Y-61002260D01*
X186786637Y-61246414D01*
X186786486Y-61247077D01*
X186786486Y-61247101D01*
X186739283Y-61454864D01*
X186652338Y-61650147D01*
X186529122Y-61824816D01*
X186374322Y-61972230D01*
X186193832Y-62086772D01*
X185994546Y-62164070D01*
X185784027Y-62201191D01*
X185570314Y-62196713D01*
X185361540Y-62150812D01*
X185165658Y-62065233D01*
X184990129Y-61943238D01*
X184841638Y-61789470D01*
X184725841Y-61609789D01*
X184647151Y-61411039D01*
X184608563Y-61200789D01*
X184611547Y-60987053D01*
X184655991Y-60777962D01*
X184740201Y-60581483D01*
X184860967Y-60405111D01*
X185013694Y-60255548D01*
X185132659Y-60177700D01*
X185153803Y-60159132D01*
X185168937Y-60135409D01*
X185176863Y-60108409D01*
X185176953Y-60080270D01*
X185169200Y-60053220D01*
X185154218Y-60029401D01*
X185134974Y-60011908D01*
X184990129Y-59911238D01*
X184841638Y-59757470D01*
X184725841Y-59577789D01*
X184647151Y-59379039D01*
X184608563Y-59168789D01*
X184611547Y-58955053D01*
X184655991Y-58745962D01*
X184740201Y-58549483D01*
X184860967Y-58373111D01*
X185013694Y-58223548D01*
X185192564Y-58106499D01*
X185390755Y-58026425D01*
X185600731Y-57986369D01*
X185814493Y-57987862D01*
X185814493Y-57987862D01*
G37*
G36*
X168528969Y-59895416D02*
X168528992Y-59895423D01*
X168529067Y-59895431D01*
X168713640Y-59952565D01*
X168883601Y-60044463D01*
X169032475Y-60167622D01*
X169154592Y-60317352D01*
X169245301Y-60487950D01*
X169301146Y-60672918D01*
X169320000Y-60865210D01*
X169320000Y-60874865D01*
X169319932Y-60884557D01*
X169319931Y-60884562D01*
X169319903Y-60888613D01*
X169298366Y-61080623D01*
X169239944Y-61264792D01*
X169146862Y-61434107D01*
X169022667Y-61582118D01*
X168872088Y-61703187D01*
X168700861Y-61792702D01*
X168515508Y-61847254D01*
X168515447Y-61847260D01*
X168515418Y-61847268D01*
X168323093Y-61864770D01*
X168131031Y-61844584D01*
X168131008Y-61844577D01*
X168130933Y-61844569D01*
X167946360Y-61787435D01*
X167776399Y-61695537D01*
X167627525Y-61572378D01*
X167505408Y-61422648D01*
X167414699Y-61252050D01*
X167358854Y-61067082D01*
X167340000Y-60874790D01*
X167340000Y-60865135D01*
X167340068Y-60855443D01*
X167340069Y-60855438D01*
X167340097Y-60851387D01*
X167361634Y-60659377D01*
X167420056Y-60475208D01*
X167513138Y-60305893D01*
X167637333Y-60157882D01*
X167787912Y-60036813D01*
X167959139Y-59947298D01*
X168144492Y-59892746D01*
X168144553Y-59892740D01*
X168144582Y-59892732D01*
X168336907Y-59875230D01*
X168528969Y-59895416D01*
X168528969Y-59895416D01*
G37*
G36*
X165988969Y-59895416D02*
X165988992Y-59895423D01*
X165989067Y-59895431D01*
X166173640Y-59952565D01*
X166343601Y-60044463D01*
X166492475Y-60167622D01*
X166614592Y-60317352D01*
X166705301Y-60487950D01*
X166761146Y-60672918D01*
X166780000Y-60865210D01*
X166780000Y-60874865D01*
X166779932Y-60884557D01*
X166779931Y-60884562D01*
X166779903Y-60888613D01*
X166758366Y-61080623D01*
X166699944Y-61264792D01*
X166606862Y-61434107D01*
X166482667Y-61582118D01*
X166332088Y-61703187D01*
X166160861Y-61792702D01*
X165975508Y-61847254D01*
X165975447Y-61847260D01*
X165975418Y-61847268D01*
X165783093Y-61864770D01*
X165591031Y-61844584D01*
X165591008Y-61844577D01*
X165590933Y-61844569D01*
X165406360Y-61787435D01*
X165236399Y-61695537D01*
X165087525Y-61572378D01*
X164965408Y-61422648D01*
X164874699Y-61252050D01*
X164818854Y-61067082D01*
X164800000Y-60874790D01*
X164800000Y-60865135D01*
X164800068Y-60855443D01*
X164800069Y-60855438D01*
X164800097Y-60851387D01*
X164821634Y-60659377D01*
X164880056Y-60475208D01*
X164973138Y-60305893D01*
X165097333Y-60157882D01*
X165247912Y-60036813D01*
X165419139Y-59947298D01*
X165604492Y-59892746D01*
X165604553Y-59892740D01*
X165604582Y-59892732D01*
X165796907Y-59875230D01*
X165988969Y-59895416D01*
X165988969Y-59895416D01*
G37*
G36*
X163448969Y-59895416D02*
X163448992Y-59895423D01*
X163449067Y-59895431D01*
X163633640Y-59952565D01*
X163803601Y-60044463D01*
X163952475Y-60167622D01*
X164074592Y-60317352D01*
X164165301Y-60487950D01*
X164221146Y-60672918D01*
X164240000Y-60865210D01*
X164240000Y-60874865D01*
X164239932Y-60884557D01*
X164239931Y-60884562D01*
X164239903Y-60888613D01*
X164218366Y-61080623D01*
X164159944Y-61264792D01*
X164066862Y-61434107D01*
X163942667Y-61582118D01*
X163792088Y-61703187D01*
X163620861Y-61792702D01*
X163435508Y-61847254D01*
X163435447Y-61847260D01*
X163435418Y-61847268D01*
X163243093Y-61864770D01*
X163051031Y-61844584D01*
X163051008Y-61844577D01*
X163050933Y-61844569D01*
X162866360Y-61787435D01*
X162696399Y-61695537D01*
X162547525Y-61572378D01*
X162425408Y-61422648D01*
X162334699Y-61252050D01*
X162278854Y-61067082D01*
X162260000Y-60874790D01*
X162260000Y-60865135D01*
X162260068Y-60855443D01*
X162260069Y-60855438D01*
X162260097Y-60851387D01*
X162281634Y-60659377D01*
X162340056Y-60475208D01*
X162433138Y-60305893D01*
X162557333Y-60157882D01*
X162707912Y-60036813D01*
X162879139Y-59947298D01*
X163064492Y-59892746D01*
X163064553Y-59892740D01*
X163064582Y-59892732D01*
X163256907Y-59875230D01*
X163448969Y-59895416D01*
X163448969Y-59895416D01*
G37*
G36*
X160908969Y-59895416D02*
X160908992Y-59895423D01*
X160909067Y-59895431D01*
X161093640Y-59952565D01*
X161263601Y-60044463D01*
X161412475Y-60167622D01*
X161534592Y-60317352D01*
X161625301Y-60487950D01*
X161681146Y-60672918D01*
X161700000Y-60865210D01*
X161700000Y-60874865D01*
X161699932Y-60884557D01*
X161699931Y-60884562D01*
X161699903Y-60888613D01*
X161678366Y-61080623D01*
X161619944Y-61264792D01*
X161526862Y-61434107D01*
X161402667Y-61582118D01*
X161252088Y-61703187D01*
X161080861Y-61792702D01*
X160895508Y-61847254D01*
X160895447Y-61847260D01*
X160895418Y-61847268D01*
X160703093Y-61864770D01*
X160511031Y-61844584D01*
X160511008Y-61844577D01*
X160510933Y-61844569D01*
X160326360Y-61787435D01*
X160156399Y-61695537D01*
X160007525Y-61572378D01*
X159885408Y-61422648D01*
X159794699Y-61252050D01*
X159738854Y-61067082D01*
X159720000Y-60874790D01*
X159720000Y-60865135D01*
X159720068Y-60855443D01*
X159720069Y-60855438D01*
X159720097Y-60851387D01*
X159741634Y-60659377D01*
X159800056Y-60475208D01*
X159893138Y-60305893D01*
X160017333Y-60157882D01*
X160167912Y-60036813D01*
X160339139Y-59947298D01*
X160524492Y-59892746D01*
X160524553Y-59892740D01*
X160524582Y-59892732D01*
X160716907Y-59875230D01*
X160908969Y-59895416D01*
X160908969Y-59895416D01*
G37*
G36*
X156864493Y-59232722D02*
X157073881Y-59275703D01*
X157270940Y-59358539D01*
X157448159Y-59478075D01*
X157598780Y-59629751D01*
X157717072Y-59807796D01*
X157798532Y-60005433D01*
X157839914Y-60214427D01*
X157839914Y-60214447D01*
X157840047Y-60215120D01*
X157836637Y-60459274D01*
X157836486Y-60459937D01*
X157836486Y-60459961D01*
X157789283Y-60667724D01*
X157702338Y-60863007D01*
X157579122Y-61037676D01*
X157424322Y-61185090D01*
X157243832Y-61299632D01*
X157044546Y-61376930D01*
X156834027Y-61414051D01*
X156620314Y-61409573D01*
X156411540Y-61363672D01*
X156215658Y-61278093D01*
X156040129Y-61156098D01*
X155891638Y-61002330D01*
X155775841Y-60822649D01*
X155697151Y-60623899D01*
X155658563Y-60413649D01*
X155661547Y-60199913D01*
X155705991Y-59990822D01*
X155790201Y-59794343D01*
X155910967Y-59617971D01*
X156063694Y-59468408D01*
X156242564Y-59351359D01*
X156440755Y-59271285D01*
X156650731Y-59231229D01*
X156864493Y-59232722D01*
X156864493Y-59232722D01*
G37*
G36*
X156864493Y-54660722D02*
X157073881Y-54703703D01*
X157270940Y-54786539D01*
X157448159Y-54906075D01*
X157598780Y-55057751D01*
X157717072Y-55235796D01*
X157798532Y-55433433D01*
X157839914Y-55642427D01*
X157839914Y-55642447D01*
X157840047Y-55643120D01*
X157836637Y-55887274D01*
X157836486Y-55887937D01*
X157836486Y-55887961D01*
X157789283Y-56095724D01*
X157702338Y-56291007D01*
X157579122Y-56465676D01*
X157424322Y-56613089D01*
X157317385Y-56680954D01*
X157295984Y-56699225D01*
X157280521Y-56722734D01*
X157272219Y-56749621D01*
X157271736Y-56777756D01*
X157279110Y-56804912D01*
X157293758Y-56828938D01*
X157315049Y-56848291D01*
X157448158Y-56938075D01*
X157598780Y-57089751D01*
X157717072Y-57267796D01*
X157798532Y-57465433D01*
X157839914Y-57674427D01*
X157839914Y-57674447D01*
X157840047Y-57675120D01*
X157836637Y-57919274D01*
X157836486Y-57919937D01*
X157836486Y-57919961D01*
X157789283Y-58127724D01*
X157702338Y-58323007D01*
X157579122Y-58497676D01*
X157424322Y-58645090D01*
X157243832Y-58759632D01*
X157044546Y-58836930D01*
X156834027Y-58874051D01*
X156620314Y-58869573D01*
X156411540Y-58823672D01*
X156215658Y-58738093D01*
X156040129Y-58616098D01*
X155891638Y-58462330D01*
X155775841Y-58282649D01*
X155697151Y-58083899D01*
X155658563Y-57873649D01*
X155661547Y-57659913D01*
X155705991Y-57450822D01*
X155790201Y-57254343D01*
X155910967Y-57077971D01*
X156063694Y-56928408D01*
X156182659Y-56850560D01*
X156203803Y-56831992D01*
X156218937Y-56808269D01*
X156226863Y-56781269D01*
X156226953Y-56753130D01*
X156219200Y-56726080D01*
X156204218Y-56702261D01*
X156184974Y-56684768D01*
X156040129Y-56584098D01*
X155891638Y-56430330D01*
X155775841Y-56250649D01*
X155697151Y-56051899D01*
X155658563Y-55841649D01*
X155661547Y-55627913D01*
X155705991Y-55418822D01*
X155790201Y-55222343D01*
X155910967Y-55045971D01*
X156063694Y-54896408D01*
X156242564Y-54779359D01*
X156440755Y-54699285D01*
X156650731Y-54659229D01*
X156864493Y-54660722D01*
X156864493Y-54660722D01*
G37*
G36*
X185814493Y-55447862D02*
X186023881Y-55490843D01*
X186220940Y-55573679D01*
X186398159Y-55693215D01*
X186548780Y-55844891D01*
X186667072Y-56022936D01*
X186748532Y-56220573D01*
X186789914Y-56429567D01*
X186789914Y-56429587D01*
X186790047Y-56430260D01*
X186786637Y-56674414D01*
X186786486Y-56675077D01*
X186786486Y-56675101D01*
X186739283Y-56882864D01*
X186652338Y-57078147D01*
X186529122Y-57252816D01*
X186374322Y-57400230D01*
X186193832Y-57514772D01*
X185994546Y-57592070D01*
X185784027Y-57629191D01*
X185570314Y-57624713D01*
X185361540Y-57578812D01*
X185165658Y-57493233D01*
X184990129Y-57371238D01*
X184841638Y-57217470D01*
X184725841Y-57037789D01*
X184647151Y-56839039D01*
X184608563Y-56628789D01*
X184611547Y-56415053D01*
X184655991Y-56205962D01*
X184740201Y-56009483D01*
X184860967Y-55833111D01*
X185013694Y-55683548D01*
X185192564Y-55566499D01*
X185390755Y-55486425D01*
X185600731Y-55446369D01*
X185814493Y-55447862D01*
X185814493Y-55447862D01*
G37*
G36*
X182317514Y-54905077D02*
X182450143Y-54932301D01*
X182574952Y-54984766D01*
X182687199Y-55060477D01*
X182782598Y-55156545D01*
X182857521Y-55269314D01*
X182909117Y-55394495D01*
X182935277Y-55526611D01*
X182935277Y-55526637D01*
X182935409Y-55527305D01*
X182933250Y-55681946D01*
X182933098Y-55682614D01*
X182933098Y-55682633D01*
X182903259Y-55813971D01*
X182848188Y-55937661D01*
X182770145Y-56048295D01*
X182672101Y-56141660D01*
X182557783Y-56214210D01*
X182431557Y-56263170D01*
X182298222Y-56286680D01*
X182162859Y-56283844D01*
X182030627Y-56254772D01*
X181906560Y-56200568D01*
X181795385Y-56123299D01*
X181701334Y-56025906D01*
X181627990Y-55912099D01*
X181578149Y-55786215D01*
X181553708Y-55653049D01*
X181555599Y-55517674D01*
X181583748Y-55385240D01*
X181637086Y-55260793D01*
X181713577Y-55149082D01*
X181810310Y-55054354D01*
X181923598Y-54980220D01*
X182049130Y-54929501D01*
X182182125Y-54904131D01*
X182317514Y-54905077D01*
X182317514Y-54905077D01*
G37*
G36*
X188544495Y-51800393D02*
X188869130Y-51867030D01*
X189174633Y-51995452D01*
X189449377Y-52180769D01*
X189682897Y-52415924D01*
X189866288Y-52691951D01*
X189992577Y-52998350D01*
X190056809Y-53322750D01*
X190056809Y-53322762D01*
X190056943Y-53323440D01*
X190051657Y-53701962D01*
X190051505Y-53702630D01*
X190051505Y-53702649D01*
X189978240Y-54025125D01*
X189843444Y-54327883D01*
X189652417Y-54598680D01*
X189412426Y-54827220D01*
X189132611Y-55004796D01*
X188823641Y-55124638D01*
X188497271Y-55182186D01*
X188165943Y-55175245D01*
X187842274Y-55104083D01*
X187538593Y-54971408D01*
X187266459Y-54782269D01*
X187036250Y-54543881D01*
X186856726Y-54265314D01*
X186734729Y-53957185D01*
X186674905Y-53631229D01*
X186679532Y-53299863D01*
X186748434Y-52975702D01*
X186878988Y-52671096D01*
X187066219Y-52397653D01*
X187302995Y-52165784D01*
X187580298Y-51984322D01*
X187887567Y-51860177D01*
X188213101Y-51798078D01*
X188544495Y-51800393D01*
X188544495Y-51800393D01*
G37*
G36*
X181047514Y-53635077D02*
X181180143Y-53662301D01*
X181304952Y-53714766D01*
X181417199Y-53790477D01*
X181512598Y-53886545D01*
X181587521Y-53999314D01*
X181639117Y-54124495D01*
X181665277Y-54256611D01*
X181665277Y-54256637D01*
X181665409Y-54257305D01*
X181663250Y-54411946D01*
X181663098Y-54412614D01*
X181663098Y-54412633D01*
X181633259Y-54543971D01*
X181578188Y-54667661D01*
X181500145Y-54778295D01*
X181402101Y-54871660D01*
X181287783Y-54944210D01*
X181161557Y-54993170D01*
X181028222Y-55016680D01*
X180892859Y-55013844D01*
X180760627Y-54984772D01*
X180636560Y-54930568D01*
X180525385Y-54853299D01*
X180431334Y-54755906D01*
X180357990Y-54642099D01*
X180308149Y-54516215D01*
X180283708Y-54383049D01*
X180285599Y-54247674D01*
X180313748Y-54115240D01*
X180367086Y-53990793D01*
X180443577Y-53879082D01*
X180540310Y-53784354D01*
X180653598Y-53710220D01*
X180779130Y-53659501D01*
X180912125Y-53634131D01*
X181047514Y-53635077D01*
X181047514Y-53635077D01*
G37*
G36*
X156864493Y-52120722D02*
X157073881Y-52163703D01*
X157270940Y-52246539D01*
X157448159Y-52366075D01*
X157598780Y-52517751D01*
X157717072Y-52695796D01*
X157798532Y-52893433D01*
X157839914Y-53102427D01*
X157839914Y-53102447D01*
X157840047Y-53103120D01*
X157836637Y-53347274D01*
X157836486Y-53347937D01*
X157836486Y-53347961D01*
X157789283Y-53555724D01*
X157702338Y-53751007D01*
X157579122Y-53925676D01*
X157424322Y-54073090D01*
X157243832Y-54187632D01*
X157044546Y-54264930D01*
X156834027Y-54302051D01*
X156620314Y-54297573D01*
X156411540Y-54251672D01*
X156215658Y-54166093D01*
X156040129Y-54044098D01*
X155891638Y-53890330D01*
X155775841Y-53710649D01*
X155697151Y-53511899D01*
X155658563Y-53301649D01*
X155661547Y-53087913D01*
X155705991Y-52878822D01*
X155790201Y-52682343D01*
X155910967Y-52505971D01*
X156063694Y-52356408D01*
X156242564Y-52239359D01*
X156440755Y-52159285D01*
X156650731Y-52119229D01*
X156864493Y-52120722D01*
X156864493Y-52120722D01*
G37*
G36*
X163448969Y-52275416D02*
X163448992Y-52275423D01*
X163449067Y-52275431D01*
X163633640Y-52332565D01*
X163803601Y-52424463D01*
X163952475Y-52547622D01*
X164074592Y-52697352D01*
X164165301Y-52867950D01*
X164221146Y-53052918D01*
X164240000Y-53245210D01*
X164240000Y-53254865D01*
X164239932Y-53264557D01*
X164239931Y-53264562D01*
X164239903Y-53268613D01*
X164218366Y-53460623D01*
X164159944Y-53644792D01*
X164066862Y-53814107D01*
X163942667Y-53962118D01*
X163792088Y-54083187D01*
X163620861Y-54172702D01*
X163435508Y-54227254D01*
X163435447Y-54227260D01*
X163435418Y-54227268D01*
X163243093Y-54244770D01*
X163051031Y-54224584D01*
X163051008Y-54224577D01*
X163050933Y-54224569D01*
X162866360Y-54167435D01*
X162696399Y-54075537D01*
X162547525Y-53952378D01*
X162425408Y-53802648D01*
X162334699Y-53632050D01*
X162278854Y-53447082D01*
X162260000Y-53254790D01*
X162260000Y-53245135D01*
X162260068Y-53235443D01*
X162260069Y-53235438D01*
X162260097Y-53231387D01*
X162281634Y-53039377D01*
X162340056Y-52855208D01*
X162433138Y-52685893D01*
X162557333Y-52537882D01*
X162707912Y-52416813D01*
X162879139Y-52327298D01*
X163064492Y-52272746D01*
X163064553Y-52272740D01*
X163064582Y-52272732D01*
X163256907Y-52255230D01*
X163448969Y-52275416D01*
X163448969Y-52275416D01*
G37*
G36*
X168528969Y-52275416D02*
X168528992Y-52275423D01*
X168529067Y-52275431D01*
X168713640Y-52332565D01*
X168883601Y-52424463D01*
X169032475Y-52547622D01*
X169154592Y-52697352D01*
X169245301Y-52867950D01*
X169301146Y-53052918D01*
X169320000Y-53245210D01*
X169320000Y-53254865D01*
X169319932Y-53264557D01*
X169319931Y-53264562D01*
X169319903Y-53268613D01*
X169298366Y-53460623D01*
X169239944Y-53644792D01*
X169146862Y-53814107D01*
X169022667Y-53962118D01*
X168872088Y-54083187D01*
X168700861Y-54172702D01*
X168515508Y-54227254D01*
X168515447Y-54227260D01*
X168515418Y-54227268D01*
X168323093Y-54244770D01*
X168131031Y-54224584D01*
X168131008Y-54224577D01*
X168130933Y-54224569D01*
X167946360Y-54167435D01*
X167776399Y-54075537D01*
X167627525Y-53952378D01*
X167505408Y-53802648D01*
X167414699Y-53632050D01*
X167358854Y-53447082D01*
X167340000Y-53254790D01*
X167340000Y-53245135D01*
X167340068Y-53235443D01*
X167340069Y-53235438D01*
X167340097Y-53231387D01*
X167361634Y-53039377D01*
X167420056Y-52855208D01*
X167513138Y-52685893D01*
X167637333Y-52537882D01*
X167787912Y-52416813D01*
X167959139Y-52327298D01*
X168144492Y-52272746D01*
X168144553Y-52272740D01*
X168144582Y-52272732D01*
X168336907Y-52255230D01*
X168528969Y-52275416D01*
X168528969Y-52275416D01*
G37*
G36*
X165988969Y-52275416D02*
X165988992Y-52275423D01*
X165989067Y-52275431D01*
X166173640Y-52332565D01*
X166343601Y-52424463D01*
X166492475Y-52547622D01*
X166614592Y-52697352D01*
X166705301Y-52867950D01*
X166761146Y-53052918D01*
X166780000Y-53245210D01*
X166780000Y-53254865D01*
X166779932Y-53264557D01*
X166779931Y-53264562D01*
X166779903Y-53268613D01*
X166758366Y-53460623D01*
X166699944Y-53644792D01*
X166606862Y-53814107D01*
X166482667Y-53962118D01*
X166332088Y-54083187D01*
X166160861Y-54172702D01*
X165975508Y-54227254D01*
X165975447Y-54227260D01*
X165975418Y-54227268D01*
X165783093Y-54244770D01*
X165591031Y-54224584D01*
X165591008Y-54224577D01*
X165590933Y-54224569D01*
X165406360Y-54167435D01*
X165236399Y-54075537D01*
X165087525Y-53952378D01*
X164965408Y-53802648D01*
X164874699Y-53632050D01*
X164818854Y-53447082D01*
X164800000Y-53254790D01*
X164800000Y-53245135D01*
X164800068Y-53235443D01*
X164800069Y-53235438D01*
X164800097Y-53231387D01*
X164821634Y-53039377D01*
X164880056Y-52855208D01*
X164973138Y-52685893D01*
X165097333Y-52537882D01*
X165247912Y-52416813D01*
X165419139Y-52327298D01*
X165604492Y-52272746D01*
X165604553Y-52272740D01*
X165604582Y-52272732D01*
X165796907Y-52255230D01*
X165988969Y-52275416D01*
X165988969Y-52275416D01*
G37*
G36*
X160908969Y-52275416D02*
X160908992Y-52275423D01*
X160909067Y-52275431D01*
X161093640Y-52332565D01*
X161263601Y-52424463D01*
X161412475Y-52547622D01*
X161534592Y-52697352D01*
X161625301Y-52867950D01*
X161681146Y-53052918D01*
X161700000Y-53245210D01*
X161700000Y-53254865D01*
X161699932Y-53264557D01*
X161699931Y-53264562D01*
X161699903Y-53268613D01*
X161678366Y-53460623D01*
X161619944Y-53644792D01*
X161526862Y-53814107D01*
X161402667Y-53962118D01*
X161252088Y-54083187D01*
X161080861Y-54172702D01*
X160895508Y-54227254D01*
X160895447Y-54227260D01*
X160895418Y-54227268D01*
X160703093Y-54244770D01*
X160511031Y-54224584D01*
X160511008Y-54224577D01*
X160510933Y-54224569D01*
X160326360Y-54167435D01*
X160156399Y-54075537D01*
X160007525Y-53952378D01*
X159885408Y-53802648D01*
X159794699Y-53632050D01*
X159738854Y-53447082D01*
X159720000Y-53254790D01*
X159720000Y-53245135D01*
X159720068Y-53235443D01*
X159720069Y-53235438D01*
X159720097Y-53231387D01*
X159741634Y-53039377D01*
X159800056Y-52855208D01*
X159893138Y-52685893D01*
X160017333Y-52537882D01*
X160167912Y-52416813D01*
X160339139Y-52327298D01*
X160524492Y-52272746D01*
X160524553Y-52272740D01*
X160524582Y-52272732D01*
X160716907Y-52255230D01*
X160908969Y-52275416D01*
X160908969Y-52275416D01*
G37*
G36*
X182317514Y-52365077D02*
X182450143Y-52392301D01*
X182574952Y-52444766D01*
X182687199Y-52520477D01*
X182782598Y-52616545D01*
X182857521Y-52729314D01*
X182909117Y-52854495D01*
X182935277Y-52986611D01*
X182935277Y-52986637D01*
X182935409Y-52987305D01*
X182933250Y-53141946D01*
X182933098Y-53142614D01*
X182933098Y-53142633D01*
X182903259Y-53273971D01*
X182848188Y-53397661D01*
X182770145Y-53508295D01*
X182672101Y-53601660D01*
X182557783Y-53674210D01*
X182431557Y-53723170D01*
X182298222Y-53746680D01*
X182162859Y-53743844D01*
X182030627Y-53714772D01*
X181906560Y-53660568D01*
X181795385Y-53583299D01*
X181701334Y-53485906D01*
X181627990Y-53372099D01*
X181578149Y-53246215D01*
X181553708Y-53113049D01*
X181555599Y-52977674D01*
X181583748Y-52845240D01*
X181637086Y-52720793D01*
X181713577Y-52609082D01*
X181810310Y-52514354D01*
X181923598Y-52440220D01*
X182049130Y-52389501D01*
X182182125Y-52364131D01*
X182317514Y-52365077D01*
X182317514Y-52365077D01*
G37*
G36*
X190599993Y-49448631D02*
X190782882Y-49486173D01*
X190954985Y-49558517D01*
X191109768Y-49662920D01*
X191241320Y-49795393D01*
X191344635Y-49950896D01*
X191415782Y-50123509D01*
X191451908Y-50305962D01*
X191451908Y-50305979D01*
X191452041Y-50306652D01*
X191449063Y-50519895D01*
X191448912Y-50520558D01*
X191448912Y-50520582D01*
X191407705Y-50701950D01*
X191331766Y-50872511D01*
X191224148Y-51025070D01*
X191088950Y-51153818D01*
X190931310Y-51253859D01*
X190757254Y-51321371D01*
X190573390Y-51353791D01*
X190386733Y-51349881D01*
X190204390Y-51309790D01*
X190033308Y-51235046D01*
X189880003Y-51128497D01*
X189750311Y-50994197D01*
X189649175Y-50837264D01*
X189580447Y-50663676D01*
X189546744Y-50480046D01*
X189549351Y-50293370D01*
X189588168Y-50110751D01*
X189661717Y-49939147D01*
X189767195Y-49785102D01*
X189900584Y-49654477D01*
X190056806Y-49552248D01*
X190229905Y-49482312D01*
X190413299Y-49447327D01*
X190599993Y-49448631D01*
X190599993Y-49448631D01*
G37*
G36*
X154260495Y-47965253D02*
X154585130Y-48031890D01*
X154890633Y-48160312D01*
X155165377Y-48345629D01*
X155398897Y-48580784D01*
X155582288Y-48856811D01*
X155708577Y-49163210D01*
X155772809Y-49487610D01*
X155772809Y-49487622D01*
X155772943Y-49488300D01*
X155767657Y-49866822D01*
X155767505Y-49867490D01*
X155767505Y-49867509D01*
X155694240Y-50189985D01*
X155559444Y-50492743D01*
X155368417Y-50763540D01*
X155128426Y-50992080D01*
X154848611Y-51169656D01*
X154539641Y-51289498D01*
X154213271Y-51347046D01*
X153881943Y-51340105D01*
X153558274Y-51268943D01*
X153254593Y-51136268D01*
X152982459Y-50947129D01*
X152752250Y-50708741D01*
X152572726Y-50430174D01*
X152450729Y-50122045D01*
X152390905Y-49796089D01*
X152395532Y-49464723D01*
X152464434Y-49140562D01*
X152594988Y-48835956D01*
X152782219Y-48562513D01*
X153018995Y-48330644D01*
X153296298Y-48149182D01*
X153603567Y-48025037D01*
X153929101Y-47962938D01*
X154260495Y-47965253D01*
X154260495Y-47965253D01*
G37*
G36*
X175873323Y-47662088D02*
X176044012Y-47697125D01*
X176204638Y-47764646D01*
X176349096Y-47862084D01*
X176471873Y-47985721D01*
X176568297Y-48130852D01*
X176634698Y-48291952D01*
X176668405Y-48462189D01*
X176668405Y-48462205D01*
X176668538Y-48462878D01*
X176665759Y-48661897D01*
X176665608Y-48662560D01*
X176665608Y-48662584D01*
X176627159Y-48831812D01*
X176556287Y-48990996D01*
X176455849Y-49133375D01*
X176329664Y-49253539D01*
X176182545Y-49346903D01*
X176020094Y-49409914D01*
X175848494Y-49440173D01*
X175674288Y-49436523D01*
X175504108Y-49399106D01*
X175344440Y-49329350D01*
X175201356Y-49229903D01*
X175080317Y-49104564D01*
X174985927Y-48958099D01*
X174921781Y-48796087D01*
X174890328Y-48624707D01*
X174892760Y-48450483D01*
X174928988Y-48280044D01*
X174997631Y-48119886D01*
X175096073Y-47976116D01*
X175220566Y-47854204D01*
X175366366Y-47758795D01*
X175527922Y-47693522D01*
X175699082Y-47660871D01*
X175873323Y-47662088D01*
X175873323Y-47662088D01*
G37*
G36*
X178413323Y-47662088D02*
X178584012Y-47697125D01*
X178744638Y-47764646D01*
X178889096Y-47862084D01*
X179011873Y-47985721D01*
X179108297Y-48130852D01*
X179174698Y-48291952D01*
X179208405Y-48462189D01*
X179208405Y-48462205D01*
X179208538Y-48462878D01*
X179205759Y-48661897D01*
X179205608Y-48662560D01*
X179205608Y-48662584D01*
X179167159Y-48831812D01*
X179096287Y-48990996D01*
X178995849Y-49133375D01*
X178869664Y-49253539D01*
X178722545Y-49346903D01*
X178560094Y-49409914D01*
X178388494Y-49440173D01*
X178214288Y-49436523D01*
X178044108Y-49399106D01*
X177884440Y-49329350D01*
X177741356Y-49229903D01*
X177620317Y-49104564D01*
X177525927Y-48958099D01*
X177461781Y-48796087D01*
X177430328Y-48624707D01*
X177432760Y-48450483D01*
X177468988Y-48280044D01*
X177537631Y-48119886D01*
X177636073Y-47976116D01*
X177760566Y-47854204D01*
X177906366Y-47758795D01*
X178067922Y-47693522D01*
X178239082Y-47660871D01*
X178413323Y-47662088D01*
X178413323Y-47662088D01*
G37*
G36*
X183233993Y-46908631D02*
X183416882Y-46946173D01*
X183588985Y-47018517D01*
X183743768Y-47122920D01*
X183875320Y-47255393D01*
X183978635Y-47410896D01*
X184049782Y-47583509D01*
X184085908Y-47765962D01*
X184085908Y-47765979D01*
X184086041Y-47766652D01*
X184083063Y-47979895D01*
X184082912Y-47980558D01*
X184082912Y-47980582D01*
X184041705Y-48161950D01*
X183965766Y-48332511D01*
X183858148Y-48485070D01*
X183722950Y-48613818D01*
X183565310Y-48713859D01*
X183391254Y-48781371D01*
X183207390Y-48813791D01*
X183020733Y-48809881D01*
X182838390Y-48769790D01*
X182667308Y-48695046D01*
X182514003Y-48588497D01*
X182384311Y-48454197D01*
X182283175Y-48297264D01*
X182214447Y-48123676D01*
X182180744Y-47940046D01*
X182183351Y-47753370D01*
X182222168Y-47570751D01*
X182295717Y-47399147D01*
X182401195Y-47245102D01*
X182534584Y-47114477D01*
X182690806Y-47012248D01*
X182863905Y-46942312D01*
X183047299Y-46907327D01*
X183233993Y-46908631D01*
X183233993Y-46908631D01*
G37*
G36*
X195679993Y-46908631D02*
X195862882Y-46946173D01*
X196034985Y-47018517D01*
X196189768Y-47122920D01*
X196321320Y-47255393D01*
X196424635Y-47410896D01*
X196495782Y-47583509D01*
X196531908Y-47765962D01*
X196531908Y-47765979D01*
X196532041Y-47766652D01*
X196529063Y-47979895D01*
X196528912Y-47980558D01*
X196528912Y-47980582D01*
X196487705Y-48161950D01*
X196411766Y-48332511D01*
X196304148Y-48485070D01*
X196168950Y-48613818D01*
X196011310Y-48713859D01*
X195837254Y-48781371D01*
X195653390Y-48813791D01*
X195466733Y-48809881D01*
X195284390Y-48769790D01*
X195113308Y-48695046D01*
X194960003Y-48588497D01*
X194830311Y-48454197D01*
X194729175Y-48297264D01*
X194660447Y-48123676D01*
X194626744Y-47940046D01*
X194629351Y-47753370D01*
X194668168Y-47570751D01*
X194741717Y-47399147D01*
X194847195Y-47245102D01*
X194980584Y-47114477D01*
X195136806Y-47012248D01*
X195309905Y-46942312D01*
X195493299Y-46907327D01*
X195679993Y-46908631D01*
X195679993Y-46908631D01*
G37*
M02*
