M48
;DRILL file {KiCad 4.0.1-stable} date Fri 18 Dec 2015 08:05:17 AM EET
;FORMAT={-:-/ absolute / inch / decimal}
FMAT,2
INCH,TZ
T1C0.012
T2C0.020
T3C0.024
T4C0.030
T5C0.031
T6C0.032
T7C0.039
T8C0.039
T9C0.047
T10C0.091
%
G90
G05
M72
T1
X6.2549Y-2.5492
X6.7728Y-2.6799
X6.7728Y-2.7368
X6.8742Y-2.6799
X6.8742Y-2.7368
X6.9756Y-2.6799
X6.9756Y-2.7368
X7.0128Y-1.9596
T2
X7.4961Y-2.5059
T3
X7.125Y-2.1388
X7.175Y-2.0888
X7.175Y-2.1888
T4
X7.21Y-1.8843
X7.5Y-1.9843
X7.7Y-1.8843
T5
X6.3272Y-2.0965
X6.3272Y-2.3965
X6.4272Y-2.0965
X6.4272Y-2.3965
X6.5272Y-2.0965
X6.5272Y-2.3965
X6.6272Y-2.0965
X6.6272Y-2.3965
T6
X7.0256Y-2.0858
X7.0256Y-2.1858
T8
X6.1713Y-2.0949
X6.1713Y-2.1949
X6.1713Y-2.2749
X6.1713Y-2.3749
X7.311Y-2.2259
X7.311Y-2.3259
X7.311Y-2.4059
X7.311Y-2.5059
T9
X6.0639Y-2.6181
X6.2608Y-2.6181
T10
X6.0663Y-1.9549
X6.0663Y-2.4949
X7.416Y-2.1059
X7.416Y-2.6459
T7
X6.0541Y-2.7402G85X6.0541Y-2.7087
G05
X6.2707Y-2.7402G85X6.2707Y-2.7087
G05
T0
M30
