G04 #@! TF.FileFunction,Copper,L1,Top,Signal*
%FSLAX46Y46*%
G04 Gerber Fmt 4.6, Leading zero omitted, Abs format (unit mm)*
G04 Created by KiCad (PCBNEW 4.0.1-stable) date Fri 18 Dec 2015 10:46:47 AM EET*
%MOMM*%
G01*
G04 APERTURE LIST*
%ADD10C,0.100000*%
%ADD11C,1.397000*%
%ADD12R,1.800860X1.597660*%
%ADD13C,1.000760*%
%ADD14C,1.800000*%
%ADD15C,2.999740*%
%ADD16C,1.524000*%
%ADD17O,1.600000X1.600000*%
%ADD18R,0.400000X1.350000*%
%ADD19O,1.500000X1.500000*%
%ADD20O,1.800000X2.200000*%
%ADD21R,2.500000X1.200000*%
%ADD22C,0.600000*%
%ADD23C,1.000000*%
%ADD24C,0.400000*%
%ADD25C,0.152400*%
%ADD26C,0.500000*%
%ADD27C,0.600000*%
%ADD28C,0.300000*%
%ADD29C,1.000000*%
%ADD30C,0.900000*%
%ADD31C,0.800000*%
%ADD32C,0.200000*%
G04 APERTURE END LIST*
D10*
D11*
X178320000Y-48550000D03*
X175780000Y-48550000D03*
D12*
X177180000Y-66675140D03*
X177180000Y-69514860D03*
X174605000Y-66675140D03*
X174605000Y-69514860D03*
D13*
X180975000Y-54325000D03*
X182245000Y-53055000D03*
X182245000Y-55595000D03*
D12*
X172030000Y-66675140D03*
X172030000Y-69514860D03*
D14*
X156750000Y-60322000D03*
X156750000Y-57782000D03*
X156750000Y-55750000D03*
X156750000Y-53210000D03*
D15*
X154083000Y-63370000D03*
X154083000Y-49654000D03*
D14*
X185700000Y-56537140D03*
X185700000Y-59077140D03*
X185700000Y-61109140D03*
X185700000Y-63649140D03*
D15*
X188367000Y-53489140D03*
X188367000Y-67205140D03*
D16*
X195580000Y-47860000D03*
X190500000Y-50400000D03*
X183134000Y-47860000D03*
D17*
X160710000Y-60870000D03*
X163250000Y-60870000D03*
X165790000Y-60870000D03*
X168330000Y-60870000D03*
X168330000Y-53250000D03*
X165790000Y-53250000D03*
X163250000Y-53250000D03*
X160710000Y-53250000D03*
D18*
X155224100Y-66500000D03*
X155874100Y-66500000D03*
X156524100Y-66500000D03*
X157174100Y-66500000D03*
X157824100Y-66500000D03*
D19*
X154024100Y-66500000D03*
X159024100Y-66500000D03*
D20*
X153775000Y-69200000D03*
X159275000Y-69200000D03*
D21*
X156525000Y-69262540D03*
D22*
X177180000Y-68263628D03*
D23*
X156550000Y-67950000D03*
D22*
X175900000Y-68375000D03*
X173325000Y-68375000D03*
X174605000Y-68263628D03*
X172030000Y-68263628D03*
X179225000Y-52500000D03*
D23*
X190400000Y-63649140D03*
D24*
X177180000Y-68263628D02*
X177180000Y-66675140D01*
X157824100Y-66500000D02*
X157824100Y-67575000D01*
X157824100Y-67575000D02*
X157449100Y-67950000D01*
X157449100Y-67950000D02*
X156550000Y-67950000D01*
D25*
X174605000Y-69514860D02*
X174706600Y-69514860D01*
X174706600Y-69514860D02*
X175846460Y-68375000D01*
X175846460Y-68375000D02*
X175900000Y-68375000D01*
X172030000Y-69514860D02*
X172131600Y-69514860D01*
X172131600Y-69514860D02*
X173271460Y-68375000D01*
X173271460Y-68375000D02*
X173325000Y-68375000D01*
D26*
X182170000Y-52980000D02*
X182245000Y-53055000D01*
D24*
X174605000Y-68263628D02*
X174605000Y-66675140D01*
D27*
X183134000Y-47860000D02*
X181019000Y-49975000D01*
X176478499Y-49248499D02*
X175780000Y-48550000D01*
X177205000Y-49975000D02*
X176478499Y-49248499D01*
X181019000Y-49975000D02*
X177205000Y-49975000D01*
D24*
X172030000Y-68263628D02*
X172030000Y-66675140D01*
D28*
X189525000Y-60361092D02*
X188982049Y-59818141D01*
X188982049Y-59818141D02*
X186441001Y-59818141D01*
X186441001Y-59818141D02*
X185700000Y-59077140D01*
X189525000Y-62938908D02*
X189525000Y-60361092D01*
X156750000Y-57782000D02*
X157491001Y-57040999D01*
X157491001Y-57040999D02*
X176577091Y-57040999D01*
X176577091Y-57040999D02*
X182100000Y-62563908D01*
X182100000Y-62563908D02*
X182100000Y-64463908D01*
X182100000Y-64463908D02*
X183936092Y-66300000D01*
X183936092Y-66300000D02*
X186163908Y-66300000D01*
X186163908Y-66300000D02*
X189525000Y-62938908D01*
X188975000Y-60588908D02*
X188754231Y-60368139D01*
X186441001Y-60368139D02*
X185700000Y-61109140D01*
X188754231Y-60368139D02*
X186441001Y-60368139D01*
X188975000Y-62711092D02*
X188975000Y-60588908D01*
X182650000Y-64236092D02*
X184163908Y-65750000D01*
X157491001Y-56491001D02*
X176804909Y-56491001D01*
X184163908Y-65750000D02*
X185936092Y-65750000D01*
X156750000Y-55750000D02*
X157491001Y-56491001D01*
X176804909Y-56491001D02*
X182650000Y-62336092D01*
X182650000Y-62336092D02*
X182650000Y-64236092D01*
X185936092Y-65750000D02*
X188975000Y-62711092D01*
D29*
X154083000Y-63370000D02*
X152583131Y-61870131D01*
X152583131Y-61870131D02*
X152583131Y-51153869D01*
X152583131Y-51153869D02*
X154083000Y-49654000D01*
X159024100Y-66500000D02*
X159024100Y-68949100D01*
X159024100Y-68949100D02*
X159275000Y-69200000D01*
X159275000Y-69200000D02*
X156587540Y-69200000D01*
X156587540Y-69200000D02*
X156525000Y-69262540D01*
X153775000Y-69200000D02*
X156462460Y-69200000D01*
X156462460Y-69200000D02*
X156525000Y-69262540D01*
X154024100Y-66500000D02*
X154024100Y-68950900D01*
X154024100Y-68950900D02*
X153775000Y-69200000D01*
D27*
X179225000Y-52500000D02*
X179225000Y-57174140D01*
X179225000Y-57174140D02*
X185700000Y-63649140D01*
D29*
X156375000Y-63500000D02*
X178225000Y-63500000D01*
X178225000Y-63500000D02*
X184375000Y-69650000D01*
X184375000Y-69650000D02*
X189800000Y-69650000D01*
X189800000Y-69650000D02*
X191325000Y-68125000D01*
X191325000Y-68125000D02*
X191325000Y-64574140D01*
X191325000Y-64574140D02*
X190400000Y-63649140D01*
X156375000Y-63500000D02*
X156375000Y-62250000D01*
X156375000Y-64274100D02*
X156375000Y-63500000D01*
D30*
X155949100Y-64700000D02*
X156375000Y-64274100D01*
D29*
X156375000Y-62250000D02*
X154550000Y-60425000D01*
X154550000Y-60425000D02*
X154550000Y-54575000D01*
X154550000Y-54575000D02*
X155915000Y-53210000D01*
X155915000Y-53210000D02*
X156750000Y-53210000D01*
D24*
X155224100Y-66500000D02*
X155224100Y-65425000D01*
D31*
X155224100Y-65425000D02*
X155949100Y-64700000D01*
D32*
G36*
X182149479Y-47200920D02*
X181972202Y-47627850D01*
X181971849Y-48032201D01*
X180729050Y-49275000D01*
X177494949Y-49275000D01*
X176973474Y-48753524D01*
X176878406Y-48658456D01*
X176878690Y-48332453D01*
X176711806Y-47928563D01*
X176403063Y-47619280D01*
X175999464Y-47451691D01*
X175562453Y-47451310D01*
X175158563Y-47618194D01*
X174849280Y-47926937D01*
X174681691Y-48330536D01*
X174681310Y-48767547D01*
X174848194Y-49171437D01*
X175156937Y-49480720D01*
X175560536Y-49648309D01*
X175888645Y-49648595D01*
X175983524Y-49743474D01*
X176710023Y-50469972D01*
X176710025Y-50469975D01*
X176781111Y-50517473D01*
X176937121Y-50621716D01*
X177205000Y-50675001D01*
X177205005Y-50675000D01*
X181019000Y-50675000D01*
X181244618Y-50630122D01*
X189337799Y-50630122D01*
X189514330Y-51057360D01*
X189840920Y-51384521D01*
X190267850Y-51561798D01*
X190730122Y-51562201D01*
X191157360Y-51385670D01*
X191484521Y-51059080D01*
X191661798Y-50632150D01*
X191662201Y-50169878D01*
X191485670Y-49742640D01*
X191159080Y-49415479D01*
X190732150Y-49238202D01*
X190269878Y-49237799D01*
X189842640Y-49414330D01*
X189515479Y-49740920D01*
X189338202Y-50167850D01*
X189337799Y-50630122D01*
X181244618Y-50630122D01*
X181286879Y-50621716D01*
X181513975Y-50469975D01*
X182962099Y-49021851D01*
X183364122Y-49022201D01*
X183791360Y-48845670D01*
X184118521Y-48519080D01*
X184295798Y-48092150D01*
X184296201Y-47629878D01*
X184119670Y-47202640D01*
X183992253Y-47075000D01*
X198650000Y-47075000D01*
X198650000Y-70350000D01*
X190341206Y-70350000D01*
X190436396Y-70286396D01*
X191961396Y-68761396D01*
X192156492Y-68469415D01*
X192225000Y-68125000D01*
X192225000Y-64574140D01*
X192156492Y-64229725D01*
X191961396Y-63937744D01*
X191036951Y-63013299D01*
X190910475Y-62886602D01*
X190744416Y-62817649D01*
X190744415Y-62817648D01*
X190744414Y-62817648D01*
X190579806Y-62749297D01*
X190221764Y-62748984D01*
X190075000Y-62809626D01*
X190075000Y-60361097D01*
X190075001Y-60361092D01*
X190033134Y-60150616D01*
X189958493Y-60038908D01*
X189913909Y-59972183D01*
X189913906Y-59972181D01*
X189370958Y-59429232D01*
X189192525Y-59310007D01*
X188982049Y-59268141D01*
X186999834Y-59268141D01*
X187000226Y-58819688D01*
X186802729Y-58341711D01*
X186437353Y-57975696D01*
X185959721Y-57777366D01*
X185442548Y-57776914D01*
X184964571Y-57974411D01*
X184598556Y-58339787D01*
X184400226Y-58817419D01*
X184399774Y-59334592D01*
X184597271Y-59812569D01*
X184877521Y-60093309D01*
X184598556Y-60371787D01*
X184400226Y-60849419D01*
X184399781Y-61358971D01*
X179925000Y-56884190D01*
X179925000Y-54503311D01*
X180074465Y-54503311D01*
X180211250Y-54834358D01*
X180464310Y-55087860D01*
X180795118Y-55225223D01*
X181153311Y-55225535D01*
X181479455Y-55090776D01*
X181344777Y-55415118D01*
X181344465Y-55773311D01*
X181481250Y-56104358D01*
X181734310Y-56357860D01*
X182065118Y-56495223D01*
X182423311Y-56495535D01*
X182754358Y-56358750D01*
X183007860Y-56105690D01*
X183145223Y-55774882D01*
X183145535Y-55416689D01*
X183008750Y-55085642D01*
X182755690Y-54832140D01*
X182424882Y-54694777D01*
X182066689Y-54694465D01*
X181740545Y-54829224D01*
X181875223Y-54504882D01*
X181875535Y-54146689D01*
X181759306Y-53865390D01*
X186466801Y-53865390D01*
X186755429Y-54563924D01*
X187289405Y-55098833D01*
X187987434Y-55388680D01*
X188743250Y-55389339D01*
X189441784Y-55100711D01*
X189976693Y-54566735D01*
X190266540Y-53868706D01*
X190267199Y-53112890D01*
X189978571Y-52414356D01*
X189444595Y-51879447D01*
X188746566Y-51589600D01*
X187990750Y-51588941D01*
X187292216Y-51877569D01*
X186757307Y-52411545D01*
X186467460Y-53109574D01*
X186466801Y-53865390D01*
X181759306Y-53865390D01*
X181738750Y-53815642D01*
X181485690Y-53562140D01*
X181154882Y-53424777D01*
X180796689Y-53424465D01*
X180465642Y-53561250D01*
X180212140Y-53814310D01*
X180074777Y-54145118D01*
X180074465Y-54503311D01*
X179925000Y-54503311D01*
X179925000Y-52500000D01*
X179925121Y-52361372D01*
X179818777Y-52104000D01*
X179622036Y-51906915D01*
X179364850Y-51800122D01*
X179086372Y-51799879D01*
X178829000Y-51906223D01*
X178631915Y-52102964D01*
X178525122Y-52360150D01*
X178524879Y-52638628D01*
X178525000Y-52638921D01*
X178525000Y-57174140D01*
X178578284Y-57442019D01*
X178667971Y-57576245D01*
X177193818Y-56102092D01*
X177015385Y-55982867D01*
X176804909Y-55941001D01*
X158049834Y-55941001D01*
X158050226Y-55492548D01*
X157852729Y-55014571D01*
X157487353Y-54648556D01*
X157081015Y-54479830D01*
X157485429Y-54312729D01*
X157851444Y-53947353D01*
X158049774Y-53469721D01*
X158049986Y-53226491D01*
X159510000Y-53226491D01*
X159510000Y-53273509D01*
X159601345Y-53732729D01*
X159861472Y-54122037D01*
X160250780Y-54382164D01*
X160710000Y-54473509D01*
X161169220Y-54382164D01*
X161558528Y-54122037D01*
X161818655Y-53732729D01*
X161910000Y-53273509D01*
X161910000Y-53226491D01*
X162050000Y-53226491D01*
X162050000Y-53273509D01*
X162141345Y-53732729D01*
X162401472Y-54122037D01*
X162790780Y-54382164D01*
X163250000Y-54473509D01*
X163709220Y-54382164D01*
X164098528Y-54122037D01*
X164358655Y-53732729D01*
X164450000Y-53273509D01*
X164450000Y-53226491D01*
X164590000Y-53226491D01*
X164590000Y-53273509D01*
X164681345Y-53732729D01*
X164941472Y-54122037D01*
X165330780Y-54382164D01*
X165790000Y-54473509D01*
X166249220Y-54382164D01*
X166638528Y-54122037D01*
X166898655Y-53732729D01*
X166990000Y-53273509D01*
X166990000Y-53226491D01*
X167130000Y-53226491D01*
X167130000Y-53273509D01*
X167221345Y-53732729D01*
X167481472Y-54122037D01*
X167870780Y-54382164D01*
X168330000Y-54473509D01*
X168789220Y-54382164D01*
X169178528Y-54122037D01*
X169438655Y-53732729D01*
X169530000Y-53273509D01*
X169530000Y-53226491D01*
X169438655Y-52767271D01*
X169178528Y-52377963D01*
X168789220Y-52117836D01*
X168330000Y-52026491D01*
X167870780Y-52117836D01*
X167481472Y-52377963D01*
X167221345Y-52767271D01*
X167130000Y-53226491D01*
X166990000Y-53226491D01*
X166898655Y-52767271D01*
X166638528Y-52377963D01*
X166249220Y-52117836D01*
X165790000Y-52026491D01*
X165330780Y-52117836D01*
X164941472Y-52377963D01*
X164681345Y-52767271D01*
X164590000Y-53226491D01*
X164450000Y-53226491D01*
X164358655Y-52767271D01*
X164098528Y-52377963D01*
X163709220Y-52117836D01*
X163250000Y-52026491D01*
X162790780Y-52117836D01*
X162401472Y-52377963D01*
X162141345Y-52767271D01*
X162050000Y-53226491D01*
X161910000Y-53226491D01*
X161818655Y-52767271D01*
X161558528Y-52377963D01*
X161169220Y-52117836D01*
X160710000Y-52026491D01*
X160250780Y-52117836D01*
X159861472Y-52377963D01*
X159601345Y-52767271D01*
X159510000Y-53226491D01*
X158049986Y-53226491D01*
X158050226Y-52952548D01*
X157852729Y-52474571D01*
X157487353Y-52108556D01*
X157009721Y-51910226D01*
X156492548Y-51909774D01*
X156014571Y-52107271D01*
X155785729Y-52335713D01*
X155570585Y-52378508D01*
X155278604Y-52573604D01*
X153913604Y-53938604D01*
X153718508Y-54230585D01*
X153650000Y-54575000D01*
X153650000Y-60425000D01*
X153718508Y-60769415D01*
X153913604Y-61061396D01*
X154322546Y-61470338D01*
X153706750Y-61469801D01*
X153529027Y-61543235D01*
X153483131Y-61497339D01*
X153483131Y-51526661D01*
X153528776Y-51481016D01*
X153703434Y-51553540D01*
X154459250Y-51554199D01*
X155157784Y-51265571D01*
X155692693Y-50731595D01*
X155982540Y-50033566D01*
X155983199Y-49277750D01*
X155694571Y-48579216D01*
X155160595Y-48044307D01*
X154462566Y-47754460D01*
X153706750Y-47753801D01*
X153008216Y-48042429D01*
X152473307Y-48576405D01*
X152183460Y-49274434D01*
X152182801Y-50030250D01*
X152256235Y-50207973D01*
X151946735Y-50517473D01*
X151751639Y-50809454D01*
X151683131Y-51153869D01*
X151683131Y-61870131D01*
X151751639Y-62214546D01*
X151946735Y-62506527D01*
X152255984Y-62815776D01*
X152183460Y-62990434D01*
X152182801Y-63746250D01*
X152471429Y-64444784D01*
X153005405Y-64979693D01*
X153703434Y-65269540D01*
X154454893Y-65270195D01*
X154427538Y-65407719D01*
X154024100Y-65327470D01*
X153584014Y-65415009D01*
X153210927Y-65664297D01*
X152961639Y-66037384D01*
X152874100Y-66477470D01*
X152874100Y-66522530D01*
X152961639Y-66962616D01*
X153124100Y-67205757D01*
X153124100Y-67872076D01*
X152855761Y-68051374D01*
X152573957Y-68473125D01*
X152475000Y-68970613D01*
X152475000Y-69429387D01*
X152573957Y-69926875D01*
X152855761Y-70348626D01*
X152857817Y-70350000D01*
X151150000Y-70350000D01*
X151150000Y-47075000D01*
X182275619Y-47075000D01*
X182149479Y-47200920D01*
X182149479Y-47200920D01*
G37*
X182149479Y-47200920D02*
X181972202Y-47627850D01*
X181971849Y-48032201D01*
X180729050Y-49275000D01*
X177494949Y-49275000D01*
X176973474Y-48753524D01*
X176878406Y-48658456D01*
X176878690Y-48332453D01*
X176711806Y-47928563D01*
X176403063Y-47619280D01*
X175999464Y-47451691D01*
X175562453Y-47451310D01*
X175158563Y-47618194D01*
X174849280Y-47926937D01*
X174681691Y-48330536D01*
X174681310Y-48767547D01*
X174848194Y-49171437D01*
X175156937Y-49480720D01*
X175560536Y-49648309D01*
X175888645Y-49648595D01*
X175983524Y-49743474D01*
X176710023Y-50469972D01*
X176710025Y-50469975D01*
X176781111Y-50517473D01*
X176937121Y-50621716D01*
X177205000Y-50675001D01*
X177205005Y-50675000D01*
X181019000Y-50675000D01*
X181244618Y-50630122D01*
X189337799Y-50630122D01*
X189514330Y-51057360D01*
X189840920Y-51384521D01*
X190267850Y-51561798D01*
X190730122Y-51562201D01*
X191157360Y-51385670D01*
X191484521Y-51059080D01*
X191661798Y-50632150D01*
X191662201Y-50169878D01*
X191485670Y-49742640D01*
X191159080Y-49415479D01*
X190732150Y-49238202D01*
X190269878Y-49237799D01*
X189842640Y-49414330D01*
X189515479Y-49740920D01*
X189338202Y-50167850D01*
X189337799Y-50630122D01*
X181244618Y-50630122D01*
X181286879Y-50621716D01*
X181513975Y-50469975D01*
X182962099Y-49021851D01*
X183364122Y-49022201D01*
X183791360Y-48845670D01*
X184118521Y-48519080D01*
X184295798Y-48092150D01*
X184296201Y-47629878D01*
X184119670Y-47202640D01*
X183992253Y-47075000D01*
X198650000Y-47075000D01*
X198650000Y-70350000D01*
X190341206Y-70350000D01*
X190436396Y-70286396D01*
X191961396Y-68761396D01*
X192156492Y-68469415D01*
X192225000Y-68125000D01*
X192225000Y-64574140D01*
X192156492Y-64229725D01*
X191961396Y-63937744D01*
X191036951Y-63013299D01*
X190910475Y-62886602D01*
X190744416Y-62817649D01*
X190744415Y-62817648D01*
X190744414Y-62817648D01*
X190579806Y-62749297D01*
X190221764Y-62748984D01*
X190075000Y-62809626D01*
X190075000Y-60361097D01*
X190075001Y-60361092D01*
X190033134Y-60150616D01*
X189958493Y-60038908D01*
X189913909Y-59972183D01*
X189913906Y-59972181D01*
X189370958Y-59429232D01*
X189192525Y-59310007D01*
X188982049Y-59268141D01*
X186999834Y-59268141D01*
X187000226Y-58819688D01*
X186802729Y-58341711D01*
X186437353Y-57975696D01*
X185959721Y-57777366D01*
X185442548Y-57776914D01*
X184964571Y-57974411D01*
X184598556Y-58339787D01*
X184400226Y-58817419D01*
X184399774Y-59334592D01*
X184597271Y-59812569D01*
X184877521Y-60093309D01*
X184598556Y-60371787D01*
X184400226Y-60849419D01*
X184399781Y-61358971D01*
X179925000Y-56884190D01*
X179925000Y-54503311D01*
X180074465Y-54503311D01*
X180211250Y-54834358D01*
X180464310Y-55087860D01*
X180795118Y-55225223D01*
X181153311Y-55225535D01*
X181479455Y-55090776D01*
X181344777Y-55415118D01*
X181344465Y-55773311D01*
X181481250Y-56104358D01*
X181734310Y-56357860D01*
X182065118Y-56495223D01*
X182423311Y-56495535D01*
X182754358Y-56358750D01*
X183007860Y-56105690D01*
X183145223Y-55774882D01*
X183145535Y-55416689D01*
X183008750Y-55085642D01*
X182755690Y-54832140D01*
X182424882Y-54694777D01*
X182066689Y-54694465D01*
X181740545Y-54829224D01*
X181875223Y-54504882D01*
X181875535Y-54146689D01*
X181759306Y-53865390D01*
X186466801Y-53865390D01*
X186755429Y-54563924D01*
X187289405Y-55098833D01*
X187987434Y-55388680D01*
X188743250Y-55389339D01*
X189441784Y-55100711D01*
X189976693Y-54566735D01*
X190266540Y-53868706D01*
X190267199Y-53112890D01*
X189978571Y-52414356D01*
X189444595Y-51879447D01*
X188746566Y-51589600D01*
X187990750Y-51588941D01*
X187292216Y-51877569D01*
X186757307Y-52411545D01*
X186467460Y-53109574D01*
X186466801Y-53865390D01*
X181759306Y-53865390D01*
X181738750Y-53815642D01*
X181485690Y-53562140D01*
X181154882Y-53424777D01*
X180796689Y-53424465D01*
X180465642Y-53561250D01*
X180212140Y-53814310D01*
X180074777Y-54145118D01*
X180074465Y-54503311D01*
X179925000Y-54503311D01*
X179925000Y-52500000D01*
X179925121Y-52361372D01*
X179818777Y-52104000D01*
X179622036Y-51906915D01*
X179364850Y-51800122D01*
X179086372Y-51799879D01*
X178829000Y-51906223D01*
X178631915Y-52102964D01*
X178525122Y-52360150D01*
X178524879Y-52638628D01*
X178525000Y-52638921D01*
X178525000Y-57174140D01*
X178578284Y-57442019D01*
X178667971Y-57576245D01*
X177193818Y-56102092D01*
X177015385Y-55982867D01*
X176804909Y-55941001D01*
X158049834Y-55941001D01*
X158050226Y-55492548D01*
X157852729Y-55014571D01*
X157487353Y-54648556D01*
X157081015Y-54479830D01*
X157485429Y-54312729D01*
X157851444Y-53947353D01*
X158049774Y-53469721D01*
X158049986Y-53226491D01*
X159510000Y-53226491D01*
X159510000Y-53273509D01*
X159601345Y-53732729D01*
X159861472Y-54122037D01*
X160250780Y-54382164D01*
X160710000Y-54473509D01*
X161169220Y-54382164D01*
X161558528Y-54122037D01*
X161818655Y-53732729D01*
X161910000Y-53273509D01*
X161910000Y-53226491D01*
X162050000Y-53226491D01*
X162050000Y-53273509D01*
X162141345Y-53732729D01*
X162401472Y-54122037D01*
X162790780Y-54382164D01*
X163250000Y-54473509D01*
X163709220Y-54382164D01*
X164098528Y-54122037D01*
X164358655Y-53732729D01*
X164450000Y-53273509D01*
X164450000Y-53226491D01*
X164590000Y-53226491D01*
X164590000Y-53273509D01*
X164681345Y-53732729D01*
X164941472Y-54122037D01*
X165330780Y-54382164D01*
X165790000Y-54473509D01*
X166249220Y-54382164D01*
X166638528Y-54122037D01*
X166898655Y-53732729D01*
X166990000Y-53273509D01*
X166990000Y-53226491D01*
X167130000Y-53226491D01*
X167130000Y-53273509D01*
X167221345Y-53732729D01*
X167481472Y-54122037D01*
X167870780Y-54382164D01*
X168330000Y-54473509D01*
X168789220Y-54382164D01*
X169178528Y-54122037D01*
X169438655Y-53732729D01*
X169530000Y-53273509D01*
X169530000Y-53226491D01*
X169438655Y-52767271D01*
X169178528Y-52377963D01*
X168789220Y-52117836D01*
X168330000Y-52026491D01*
X167870780Y-52117836D01*
X167481472Y-52377963D01*
X167221345Y-52767271D01*
X167130000Y-53226491D01*
X166990000Y-53226491D01*
X166898655Y-52767271D01*
X166638528Y-52377963D01*
X166249220Y-52117836D01*
X165790000Y-52026491D01*
X165330780Y-52117836D01*
X164941472Y-52377963D01*
X164681345Y-52767271D01*
X164590000Y-53226491D01*
X164450000Y-53226491D01*
X164358655Y-52767271D01*
X164098528Y-52377963D01*
X163709220Y-52117836D01*
X163250000Y-52026491D01*
X162790780Y-52117836D01*
X162401472Y-52377963D01*
X162141345Y-52767271D01*
X162050000Y-53226491D01*
X161910000Y-53226491D01*
X161818655Y-52767271D01*
X161558528Y-52377963D01*
X161169220Y-52117836D01*
X160710000Y-52026491D01*
X160250780Y-52117836D01*
X159861472Y-52377963D01*
X159601345Y-52767271D01*
X159510000Y-53226491D01*
X158049986Y-53226491D01*
X158050226Y-52952548D01*
X157852729Y-52474571D01*
X157487353Y-52108556D01*
X157009721Y-51910226D01*
X156492548Y-51909774D01*
X156014571Y-52107271D01*
X155785729Y-52335713D01*
X155570585Y-52378508D01*
X155278604Y-52573604D01*
X153913604Y-53938604D01*
X153718508Y-54230585D01*
X153650000Y-54575000D01*
X153650000Y-60425000D01*
X153718508Y-60769415D01*
X153913604Y-61061396D01*
X154322546Y-61470338D01*
X153706750Y-61469801D01*
X153529027Y-61543235D01*
X153483131Y-61497339D01*
X153483131Y-51526661D01*
X153528776Y-51481016D01*
X153703434Y-51553540D01*
X154459250Y-51554199D01*
X155157784Y-51265571D01*
X155692693Y-50731595D01*
X155982540Y-50033566D01*
X155983199Y-49277750D01*
X155694571Y-48579216D01*
X155160595Y-48044307D01*
X154462566Y-47754460D01*
X153706750Y-47753801D01*
X153008216Y-48042429D01*
X152473307Y-48576405D01*
X152183460Y-49274434D01*
X152182801Y-50030250D01*
X152256235Y-50207973D01*
X151946735Y-50517473D01*
X151751639Y-50809454D01*
X151683131Y-51153869D01*
X151683131Y-61870131D01*
X151751639Y-62214546D01*
X151946735Y-62506527D01*
X152255984Y-62815776D01*
X152183460Y-62990434D01*
X152182801Y-63746250D01*
X152471429Y-64444784D01*
X153005405Y-64979693D01*
X153703434Y-65269540D01*
X154454893Y-65270195D01*
X154427538Y-65407719D01*
X154024100Y-65327470D01*
X153584014Y-65415009D01*
X153210927Y-65664297D01*
X152961639Y-66037384D01*
X152874100Y-66477470D01*
X152874100Y-66522530D01*
X152961639Y-66962616D01*
X153124100Y-67205757D01*
X153124100Y-67872076D01*
X152855761Y-68051374D01*
X152573957Y-68473125D01*
X152475000Y-68970613D01*
X152475000Y-69429387D01*
X152573957Y-69926875D01*
X152855761Y-70348626D01*
X152857817Y-70350000D01*
X151150000Y-70350000D01*
X151150000Y-47075000D01*
X182275619Y-47075000D01*
X182149479Y-47200920D01*
G36*
X183738604Y-70286396D02*
X183833794Y-70350000D01*
X160192183Y-70350000D01*
X160194239Y-70348626D01*
X160476043Y-69926875D01*
X160575000Y-69429387D01*
X160575000Y-68970613D01*
X160476043Y-68473125D01*
X160194239Y-68051374D01*
X159924100Y-67870874D01*
X159924100Y-67205757D01*
X160086561Y-66962616D01*
X160174100Y-66522530D01*
X160174100Y-66477470D01*
X160086561Y-66037384D01*
X159978936Y-65876310D01*
X170721734Y-65876310D01*
X170721734Y-67473970D01*
X170749626Y-67622201D01*
X170837230Y-67758342D01*
X170970899Y-67849674D01*
X171129570Y-67881806D01*
X171430000Y-67881806D01*
X171430000Y-67883245D01*
X171330122Y-68123778D01*
X171329879Y-68402256D01*
X171436223Y-68659628D01*
X171632964Y-68856713D01*
X171890150Y-68963506D01*
X172168628Y-68963749D01*
X172426000Y-68857405D01*
X172623085Y-68660664D01*
X172729878Y-68403478D01*
X172730121Y-68125000D01*
X172630000Y-67882689D01*
X172630000Y-67881806D01*
X172930430Y-67881806D01*
X173078661Y-67853914D01*
X173214802Y-67766310D01*
X173306134Y-67632641D01*
X173316738Y-67580279D01*
X173324626Y-67622201D01*
X173412230Y-67758342D01*
X173545899Y-67849674D01*
X173704570Y-67881806D01*
X174005000Y-67881806D01*
X174005000Y-67883245D01*
X173905122Y-68123778D01*
X173904879Y-68402256D01*
X174011223Y-68659628D01*
X174207964Y-68856713D01*
X174465150Y-68963506D01*
X174743628Y-68963749D01*
X175001000Y-68857405D01*
X175198085Y-68660664D01*
X175304878Y-68403478D01*
X175305121Y-68125000D01*
X175205000Y-67882689D01*
X175205000Y-67881806D01*
X175505430Y-67881806D01*
X175653661Y-67853914D01*
X175789802Y-67766310D01*
X175881134Y-67632641D01*
X175891738Y-67580279D01*
X175899626Y-67622201D01*
X175987230Y-67758342D01*
X176120899Y-67849674D01*
X176279570Y-67881806D01*
X176580000Y-67881806D01*
X176580000Y-67883245D01*
X176480122Y-68123778D01*
X176479879Y-68402256D01*
X176586223Y-68659628D01*
X176782964Y-68856713D01*
X177040150Y-68963506D01*
X177318628Y-68963749D01*
X177576000Y-68857405D01*
X177773085Y-68660664D01*
X177879878Y-68403478D01*
X177880121Y-68125000D01*
X177780000Y-67882689D01*
X177780000Y-67881806D01*
X178080430Y-67881806D01*
X178228661Y-67853914D01*
X178364802Y-67766310D01*
X178456134Y-67632641D01*
X178488266Y-67473970D01*
X178488266Y-65876310D01*
X178460374Y-65728079D01*
X178372770Y-65591938D01*
X178239101Y-65500606D01*
X178080430Y-65468474D01*
X176279570Y-65468474D01*
X176131339Y-65496366D01*
X175995198Y-65583970D01*
X175903866Y-65717639D01*
X175893262Y-65770001D01*
X175885374Y-65728079D01*
X175797770Y-65591938D01*
X175664101Y-65500606D01*
X175505430Y-65468474D01*
X173704570Y-65468474D01*
X173556339Y-65496366D01*
X173420198Y-65583970D01*
X173328866Y-65717639D01*
X173318262Y-65770001D01*
X173310374Y-65728079D01*
X173222770Y-65591938D01*
X173089101Y-65500606D01*
X172930430Y-65468474D01*
X171129570Y-65468474D01*
X170981339Y-65496366D01*
X170845198Y-65583970D01*
X170753866Y-65717639D01*
X170721734Y-65876310D01*
X159978936Y-65876310D01*
X159837273Y-65664297D01*
X159464186Y-65415009D01*
X159024100Y-65327470D01*
X158584014Y-65415009D01*
X158210927Y-65664297D01*
X157961639Y-66037384D01*
X157874100Y-66477470D01*
X157874100Y-66522530D01*
X157961639Y-66962616D01*
X158124100Y-67205757D01*
X158124100Y-68300000D01*
X157952937Y-68300000D01*
X157933671Y-68286836D01*
X157775000Y-68254704D01*
X155275000Y-68254704D01*
X155126769Y-68282596D01*
X155099722Y-68300000D01*
X154924100Y-68300000D01*
X154924100Y-67562585D01*
X155024100Y-67582836D01*
X155424100Y-67582836D01*
X155553689Y-67558452D01*
X155674100Y-67582836D01*
X156074100Y-67582836D01*
X156203689Y-67558452D01*
X156324100Y-67582836D01*
X156724100Y-67582836D01*
X156853689Y-67558452D01*
X156974100Y-67582836D01*
X157374100Y-67582836D01*
X157522331Y-67554944D01*
X157658472Y-67467340D01*
X157749804Y-67333671D01*
X157781936Y-67175000D01*
X157781936Y-65825000D01*
X157754044Y-65676769D01*
X157666440Y-65540628D01*
X157532771Y-65449296D01*
X157374100Y-65417164D01*
X156974100Y-65417164D01*
X156844511Y-65441548D01*
X156724100Y-65417164D01*
X156376351Y-65417164D01*
X156550141Y-65301041D01*
X156798296Y-65052885D01*
X157011396Y-64910496D01*
X157206492Y-64618515D01*
X157249957Y-64400000D01*
X177852208Y-64400000D01*
X183738604Y-70286396D01*
X183738604Y-70286396D01*
G37*
X183738604Y-70286396D02*
X183833794Y-70350000D01*
X160192183Y-70350000D01*
X160194239Y-70348626D01*
X160476043Y-69926875D01*
X160575000Y-69429387D01*
X160575000Y-68970613D01*
X160476043Y-68473125D01*
X160194239Y-68051374D01*
X159924100Y-67870874D01*
X159924100Y-67205757D01*
X160086561Y-66962616D01*
X160174100Y-66522530D01*
X160174100Y-66477470D01*
X160086561Y-66037384D01*
X159978936Y-65876310D01*
X170721734Y-65876310D01*
X170721734Y-67473970D01*
X170749626Y-67622201D01*
X170837230Y-67758342D01*
X170970899Y-67849674D01*
X171129570Y-67881806D01*
X171430000Y-67881806D01*
X171430000Y-67883245D01*
X171330122Y-68123778D01*
X171329879Y-68402256D01*
X171436223Y-68659628D01*
X171632964Y-68856713D01*
X171890150Y-68963506D01*
X172168628Y-68963749D01*
X172426000Y-68857405D01*
X172623085Y-68660664D01*
X172729878Y-68403478D01*
X172730121Y-68125000D01*
X172630000Y-67882689D01*
X172630000Y-67881806D01*
X172930430Y-67881806D01*
X173078661Y-67853914D01*
X173214802Y-67766310D01*
X173306134Y-67632641D01*
X173316738Y-67580279D01*
X173324626Y-67622201D01*
X173412230Y-67758342D01*
X173545899Y-67849674D01*
X173704570Y-67881806D01*
X174005000Y-67881806D01*
X174005000Y-67883245D01*
X173905122Y-68123778D01*
X173904879Y-68402256D01*
X174011223Y-68659628D01*
X174207964Y-68856713D01*
X174465150Y-68963506D01*
X174743628Y-68963749D01*
X175001000Y-68857405D01*
X175198085Y-68660664D01*
X175304878Y-68403478D01*
X175305121Y-68125000D01*
X175205000Y-67882689D01*
X175205000Y-67881806D01*
X175505430Y-67881806D01*
X175653661Y-67853914D01*
X175789802Y-67766310D01*
X175881134Y-67632641D01*
X175891738Y-67580279D01*
X175899626Y-67622201D01*
X175987230Y-67758342D01*
X176120899Y-67849674D01*
X176279570Y-67881806D01*
X176580000Y-67881806D01*
X176580000Y-67883245D01*
X176480122Y-68123778D01*
X176479879Y-68402256D01*
X176586223Y-68659628D01*
X176782964Y-68856713D01*
X177040150Y-68963506D01*
X177318628Y-68963749D01*
X177576000Y-68857405D01*
X177773085Y-68660664D01*
X177879878Y-68403478D01*
X177880121Y-68125000D01*
X177780000Y-67882689D01*
X177780000Y-67881806D01*
X178080430Y-67881806D01*
X178228661Y-67853914D01*
X178364802Y-67766310D01*
X178456134Y-67632641D01*
X178488266Y-67473970D01*
X178488266Y-65876310D01*
X178460374Y-65728079D01*
X178372770Y-65591938D01*
X178239101Y-65500606D01*
X178080430Y-65468474D01*
X176279570Y-65468474D01*
X176131339Y-65496366D01*
X175995198Y-65583970D01*
X175903866Y-65717639D01*
X175893262Y-65770001D01*
X175885374Y-65728079D01*
X175797770Y-65591938D01*
X175664101Y-65500606D01*
X175505430Y-65468474D01*
X173704570Y-65468474D01*
X173556339Y-65496366D01*
X173420198Y-65583970D01*
X173328866Y-65717639D01*
X173318262Y-65770001D01*
X173310374Y-65728079D01*
X173222770Y-65591938D01*
X173089101Y-65500606D01*
X172930430Y-65468474D01*
X171129570Y-65468474D01*
X170981339Y-65496366D01*
X170845198Y-65583970D01*
X170753866Y-65717639D01*
X170721734Y-65876310D01*
X159978936Y-65876310D01*
X159837273Y-65664297D01*
X159464186Y-65415009D01*
X159024100Y-65327470D01*
X158584014Y-65415009D01*
X158210927Y-65664297D01*
X157961639Y-66037384D01*
X157874100Y-66477470D01*
X157874100Y-66522530D01*
X157961639Y-66962616D01*
X158124100Y-67205757D01*
X158124100Y-68300000D01*
X157952937Y-68300000D01*
X157933671Y-68286836D01*
X157775000Y-68254704D01*
X155275000Y-68254704D01*
X155126769Y-68282596D01*
X155099722Y-68300000D01*
X154924100Y-68300000D01*
X154924100Y-67562585D01*
X155024100Y-67582836D01*
X155424100Y-67582836D01*
X155553689Y-67558452D01*
X155674100Y-67582836D01*
X156074100Y-67582836D01*
X156203689Y-67558452D01*
X156324100Y-67582836D01*
X156724100Y-67582836D01*
X156853689Y-67558452D01*
X156974100Y-67582836D01*
X157374100Y-67582836D01*
X157522331Y-67554944D01*
X157658472Y-67467340D01*
X157749804Y-67333671D01*
X157781936Y-67175000D01*
X157781936Y-65825000D01*
X157754044Y-65676769D01*
X157666440Y-65540628D01*
X157532771Y-65449296D01*
X157374100Y-65417164D01*
X156974100Y-65417164D01*
X156844511Y-65441548D01*
X156724100Y-65417164D01*
X156376351Y-65417164D01*
X156550141Y-65301041D01*
X156798296Y-65052885D01*
X157011396Y-64910496D01*
X157206492Y-64618515D01*
X157249957Y-64400000D01*
X177852208Y-64400000D01*
X183738604Y-70286396D01*
G36*
X181550000Y-62791726D02*
X181550000Y-64463908D01*
X181591866Y-64674384D01*
X181711091Y-64852817D01*
X183547183Y-66688909D01*
X183725616Y-66808134D01*
X183936092Y-66850000D01*
X186163908Y-66850000D01*
X186374384Y-66808134D01*
X186513223Y-66715365D01*
X186467460Y-66825574D01*
X186466801Y-67581390D01*
X186755429Y-68279924D01*
X187224685Y-68750000D01*
X184747792Y-68750000D01*
X178861396Y-62863604D01*
X178569415Y-62668508D01*
X178225000Y-62600000D01*
X157275000Y-62600000D01*
X157275000Y-62250000D01*
X157206492Y-61905585D01*
X157011396Y-61613604D01*
X156244283Y-60846491D01*
X159510000Y-60846491D01*
X159510000Y-60893509D01*
X159601345Y-61352729D01*
X159861472Y-61742037D01*
X160250780Y-62002164D01*
X160710000Y-62093509D01*
X161169220Y-62002164D01*
X161558528Y-61742037D01*
X161818655Y-61352729D01*
X161910000Y-60893509D01*
X161910000Y-60846491D01*
X162050000Y-60846491D01*
X162050000Y-60893509D01*
X162141345Y-61352729D01*
X162401472Y-61742037D01*
X162790780Y-62002164D01*
X163250000Y-62093509D01*
X163709220Y-62002164D01*
X164098528Y-61742037D01*
X164358655Y-61352729D01*
X164450000Y-60893509D01*
X164450000Y-60846491D01*
X164590000Y-60846491D01*
X164590000Y-60893509D01*
X164681345Y-61352729D01*
X164941472Y-61742037D01*
X165330780Y-62002164D01*
X165790000Y-62093509D01*
X166249220Y-62002164D01*
X166638528Y-61742037D01*
X166898655Y-61352729D01*
X166990000Y-60893509D01*
X166990000Y-60846491D01*
X166898655Y-60387271D01*
X166638528Y-59997963D01*
X166249220Y-59737836D01*
X165790000Y-59646491D01*
X165330780Y-59737836D01*
X164941472Y-59997963D01*
X164681345Y-60387271D01*
X164590000Y-60846491D01*
X164450000Y-60846491D01*
X164358655Y-60387271D01*
X164098528Y-59997963D01*
X163709220Y-59737836D01*
X163250000Y-59646491D01*
X162790780Y-59737836D01*
X162401472Y-59997963D01*
X162141345Y-60387271D01*
X162050000Y-60846491D01*
X161910000Y-60846491D01*
X161818655Y-60387271D01*
X161558528Y-59997963D01*
X161169220Y-59737836D01*
X160710000Y-59646491D01*
X160250780Y-59737836D01*
X159861472Y-59997963D01*
X159601345Y-60387271D01*
X159510000Y-60846491D01*
X156244283Y-60846491D01*
X155450000Y-60052208D01*
X155450000Y-58039999D01*
X155647271Y-58517429D01*
X156012647Y-58883444D01*
X156490279Y-59081774D01*
X157007452Y-59082226D01*
X157485429Y-58884729D01*
X157851444Y-58519353D01*
X158049774Y-58041721D01*
X158050168Y-57590999D01*
X176349273Y-57590999D01*
X181550000Y-62791726D01*
X181550000Y-62791726D01*
G37*
X181550000Y-62791726D02*
X181550000Y-64463908D01*
X181591866Y-64674384D01*
X181711091Y-64852817D01*
X183547183Y-66688909D01*
X183725616Y-66808134D01*
X183936092Y-66850000D01*
X186163908Y-66850000D01*
X186374384Y-66808134D01*
X186513223Y-66715365D01*
X186467460Y-66825574D01*
X186466801Y-67581390D01*
X186755429Y-68279924D01*
X187224685Y-68750000D01*
X184747792Y-68750000D01*
X178861396Y-62863604D01*
X178569415Y-62668508D01*
X178225000Y-62600000D01*
X157275000Y-62600000D01*
X157275000Y-62250000D01*
X157206492Y-61905585D01*
X157011396Y-61613604D01*
X156244283Y-60846491D01*
X159510000Y-60846491D01*
X159510000Y-60893509D01*
X159601345Y-61352729D01*
X159861472Y-61742037D01*
X160250780Y-62002164D01*
X160710000Y-62093509D01*
X161169220Y-62002164D01*
X161558528Y-61742037D01*
X161818655Y-61352729D01*
X161910000Y-60893509D01*
X161910000Y-60846491D01*
X162050000Y-60846491D01*
X162050000Y-60893509D01*
X162141345Y-61352729D01*
X162401472Y-61742037D01*
X162790780Y-62002164D01*
X163250000Y-62093509D01*
X163709220Y-62002164D01*
X164098528Y-61742037D01*
X164358655Y-61352729D01*
X164450000Y-60893509D01*
X164450000Y-60846491D01*
X164590000Y-60846491D01*
X164590000Y-60893509D01*
X164681345Y-61352729D01*
X164941472Y-61742037D01*
X165330780Y-62002164D01*
X165790000Y-62093509D01*
X166249220Y-62002164D01*
X166638528Y-61742037D01*
X166898655Y-61352729D01*
X166990000Y-60893509D01*
X166990000Y-60846491D01*
X166898655Y-60387271D01*
X166638528Y-59997963D01*
X166249220Y-59737836D01*
X165790000Y-59646491D01*
X165330780Y-59737836D01*
X164941472Y-59997963D01*
X164681345Y-60387271D01*
X164590000Y-60846491D01*
X164450000Y-60846491D01*
X164358655Y-60387271D01*
X164098528Y-59997963D01*
X163709220Y-59737836D01*
X163250000Y-59646491D01*
X162790780Y-59737836D01*
X162401472Y-59997963D01*
X162141345Y-60387271D01*
X162050000Y-60846491D01*
X161910000Y-60846491D01*
X161818655Y-60387271D01*
X161558528Y-59997963D01*
X161169220Y-59737836D01*
X160710000Y-59646491D01*
X160250780Y-59737836D01*
X159861472Y-59997963D01*
X159601345Y-60387271D01*
X159510000Y-60846491D01*
X156244283Y-60846491D01*
X155450000Y-60052208D01*
X155450000Y-58039999D01*
X155647271Y-58517429D01*
X156012647Y-58883444D01*
X156490279Y-59081774D01*
X157007452Y-59082226D01*
X157485429Y-58884729D01*
X157851444Y-58519353D01*
X158049774Y-58041721D01*
X158050168Y-57590999D01*
X176349273Y-57590999D01*
X181550000Y-62791726D01*
M02*
