G04 #@! TF.FileFunction,Soldermask,Bot*
%FSLAX46Y46*%
G04 Gerber Fmt 4.6, Leading zero omitted, Abs format (unit mm)*
G04 Created by KiCad (PCBNEW 4.0.1-stable) date Fri 18 Dec 2015 08:10:57 AM EET*
%MOMM*%
G01*
G04 APERTURE LIST*
%ADD10C,0.100000*%
G04 APERTURE END LIST*
D10*
G36*
X153950845Y-67911567D02*
X153950868Y-67911574D01*
X153950943Y-67911582D01*
X154114076Y-67962080D01*
X154264294Y-68043302D01*
X154395874Y-68152155D01*
X154503806Y-68284492D01*
X154583978Y-68435273D01*
X154633336Y-68598755D01*
X154650000Y-68768710D01*
X154650000Y-69631363D01*
X154649944Y-69639450D01*
X154649943Y-69639457D01*
X154649915Y-69643507D01*
X154630879Y-69813213D01*
X154579243Y-69975989D01*
X154496974Y-70125636D01*
X154387205Y-70256454D01*
X154254118Y-70363459D01*
X154102781Y-70442576D01*
X153938959Y-70490791D01*
X153938898Y-70490797D01*
X153938869Y-70490805D01*
X153768896Y-70506273D01*
X153599155Y-70488433D01*
X153599132Y-70488426D01*
X153599057Y-70488418D01*
X153435924Y-70437920D01*
X153285706Y-70356698D01*
X153154126Y-70247845D01*
X153046194Y-70115508D01*
X152966022Y-69964727D01*
X152916664Y-69801245D01*
X152900000Y-69631290D01*
X152900000Y-68768637D01*
X152900056Y-68760550D01*
X152900057Y-68760543D01*
X152900085Y-68756493D01*
X152919121Y-68586787D01*
X152970757Y-68424011D01*
X153053026Y-68274364D01*
X153162795Y-68143546D01*
X153295882Y-68036541D01*
X153447219Y-67957424D01*
X153611041Y-67909209D01*
X153611102Y-67909203D01*
X153611131Y-67909195D01*
X153781104Y-67893727D01*
X153950845Y-67911567D01*
X153950845Y-67911567D01*
G37*
G36*
X159450845Y-67911567D02*
X159450868Y-67911574D01*
X159450943Y-67911582D01*
X159614076Y-67962080D01*
X159764294Y-68043302D01*
X159895874Y-68152155D01*
X160003806Y-68284492D01*
X160083978Y-68435273D01*
X160133336Y-68598755D01*
X160150000Y-68768710D01*
X160150000Y-69631363D01*
X160149944Y-69639450D01*
X160149943Y-69639457D01*
X160149915Y-69643507D01*
X160130879Y-69813213D01*
X160079243Y-69975989D01*
X159996974Y-70125636D01*
X159887205Y-70256454D01*
X159754118Y-70363459D01*
X159602781Y-70442576D01*
X159438959Y-70490791D01*
X159438898Y-70490797D01*
X159438869Y-70490805D01*
X159268896Y-70506273D01*
X159099155Y-70488433D01*
X159099132Y-70488426D01*
X159099057Y-70488418D01*
X158935924Y-70437920D01*
X158785706Y-70356698D01*
X158654126Y-70247845D01*
X158546194Y-70115508D01*
X158466022Y-69964727D01*
X158416664Y-69801245D01*
X158400000Y-69631290D01*
X158400000Y-68768637D01*
X158400056Y-68760550D01*
X158400057Y-68760543D01*
X158400085Y-68756493D01*
X158419121Y-68586787D01*
X158470757Y-68424011D01*
X158553026Y-68274364D01*
X158662795Y-68143546D01*
X158795882Y-68036541D01*
X158947219Y-67957424D01*
X159111041Y-67909209D01*
X159111102Y-67909203D01*
X159111131Y-67909195D01*
X159281104Y-67893727D01*
X159450845Y-67911567D01*
X159450845Y-67911567D01*
G37*
G36*
X188545544Y-65506399D02*
X188872103Y-65573431D01*
X189179411Y-65702611D01*
X189455786Y-65889028D01*
X189690682Y-66125570D01*
X189875160Y-66403234D01*
X190002197Y-66711445D01*
X190066810Y-67037770D01*
X190066810Y-67037786D01*
X190066943Y-67038459D01*
X190061626Y-67419221D01*
X190061475Y-67419884D01*
X190061475Y-67419908D01*
X189987775Y-67744297D01*
X189852181Y-68048847D01*
X189660024Y-68321246D01*
X189418612Y-68551140D01*
X189137142Y-68729766D01*
X188826344Y-68850317D01*
X188498042Y-68908206D01*
X188164754Y-68901224D01*
X187839167Y-68829639D01*
X187533690Y-68696180D01*
X187259946Y-68505922D01*
X187028374Y-68266123D01*
X186847788Y-67985908D01*
X186725069Y-67675955D01*
X186664891Y-67348069D01*
X186669545Y-67014743D01*
X186738855Y-66688663D01*
X186870182Y-66382254D01*
X187058521Y-66107194D01*
X187296699Y-65873953D01*
X187575643Y-65691417D01*
X187884730Y-65566537D01*
X188212190Y-65504070D01*
X188545544Y-65506399D01*
X188545544Y-65506399D01*
G37*
G36*
X173080000Y-68720000D02*
X170980000Y-68720000D01*
X170980000Y-67420000D01*
X173080000Y-67420000D01*
X173080000Y-68720000D01*
X173080000Y-68720000D01*
G37*
G36*
X175655000Y-68720000D02*
X173555000Y-68720000D01*
X173555000Y-67420000D01*
X175655000Y-67420000D01*
X175655000Y-68720000D01*
X175655000Y-68720000D01*
G37*
G36*
X178230000Y-68720000D02*
X176130000Y-68720000D01*
X176130000Y-67420000D01*
X178230000Y-67420000D01*
X178230000Y-68720000D01*
X178230000Y-68720000D01*
G37*
G36*
X154215026Y-65564792D02*
X154215049Y-65564799D01*
X154215124Y-65564807D01*
X154392240Y-65619633D01*
X154555333Y-65707817D01*
X154698192Y-65826001D01*
X154815375Y-65969681D01*
X154902419Y-66133386D01*
X154956007Y-66310880D01*
X154974100Y-66495403D01*
X154974100Y-66504672D01*
X154974036Y-66513805D01*
X154974035Y-66513810D01*
X154974007Y-66517861D01*
X154953340Y-66702113D01*
X154897279Y-66878842D01*
X154807958Y-67041316D01*
X154688780Y-67183346D01*
X154544285Y-67299523D01*
X154379976Y-67385422D01*
X154202112Y-67437770D01*
X154202051Y-67437776D01*
X154202022Y-67437784D01*
X154017473Y-67454578D01*
X153833174Y-67435208D01*
X153833151Y-67435201D01*
X153833076Y-67435193D01*
X153655960Y-67380367D01*
X153492867Y-67292183D01*
X153350008Y-67173999D01*
X153232825Y-67030319D01*
X153145781Y-66866614D01*
X153092193Y-66689120D01*
X153074100Y-66504597D01*
X153074100Y-66495323D01*
X153074164Y-66486195D01*
X153074165Y-66486190D01*
X153074193Y-66482139D01*
X153094860Y-66297887D01*
X153150921Y-66121158D01*
X153240242Y-65958684D01*
X153359420Y-65816654D01*
X153503915Y-65700477D01*
X153668224Y-65614578D01*
X153846088Y-65562230D01*
X153846149Y-65562224D01*
X153846178Y-65562216D01*
X154030727Y-65545422D01*
X154215026Y-65564792D01*
X154215026Y-65564792D01*
G37*
G36*
X159215026Y-65564792D02*
X159215049Y-65564799D01*
X159215124Y-65564807D01*
X159392240Y-65619633D01*
X159555333Y-65707817D01*
X159698192Y-65826001D01*
X159815375Y-65969681D01*
X159902419Y-66133386D01*
X159956007Y-66310880D01*
X159974100Y-66495403D01*
X159974100Y-66504672D01*
X159974036Y-66513805D01*
X159974035Y-66513810D01*
X159974007Y-66517861D01*
X159953340Y-66702113D01*
X159897279Y-66878842D01*
X159807958Y-67041316D01*
X159688780Y-67183346D01*
X159544285Y-67299523D01*
X159379976Y-67385422D01*
X159202112Y-67437770D01*
X159202051Y-67437776D01*
X159202022Y-67437784D01*
X159017473Y-67454578D01*
X158833174Y-67435208D01*
X158833151Y-67435201D01*
X158833076Y-67435193D01*
X158655960Y-67380367D01*
X158492867Y-67292183D01*
X158350008Y-67173999D01*
X158232825Y-67030319D01*
X158145781Y-66866614D01*
X158092193Y-66689120D01*
X158074100Y-66504597D01*
X158074100Y-66495323D01*
X158074164Y-66486195D01*
X158074165Y-66486190D01*
X158074193Y-66482139D01*
X158094860Y-66297887D01*
X158150921Y-66121158D01*
X158240242Y-65958684D01*
X158359420Y-65816654D01*
X158503915Y-65700477D01*
X158668224Y-65614578D01*
X158846088Y-65562230D01*
X158846149Y-65562224D01*
X158846178Y-65562216D01*
X159030727Y-65545422D01*
X159215026Y-65564792D01*
X159215026Y-65564792D01*
G37*
G36*
X167925000Y-66600000D02*
X165825000Y-66600000D01*
X165825000Y-65300000D01*
X167925000Y-65300000D01*
X167925000Y-66600000D01*
X167925000Y-66600000D01*
G37*
G36*
X165450000Y-66600000D02*
X163350000Y-66600000D01*
X163350000Y-65300000D01*
X165450000Y-65300000D01*
X165450000Y-66600000D01*
X165450000Y-66600000D01*
G37*
G36*
X172630810Y-64420000D02*
X172634769Y-64447859D01*
X172646333Y-64473513D01*
X172664586Y-64494929D01*
X172688082Y-64510412D01*
X172714962Y-64518736D01*
X172730810Y-64520000D01*
X173080000Y-64520000D01*
X173080000Y-65820000D01*
X170980000Y-65820000D01*
X170980000Y-64520000D01*
X171330710Y-64520000D01*
X171358569Y-64516041D01*
X171384223Y-64504477D01*
X171405639Y-64486224D01*
X171421122Y-64462728D01*
X171429446Y-64435848D01*
X171430710Y-64420000D01*
X171430710Y-63319950D01*
X172630810Y-63319950D01*
X172630810Y-64420000D01*
X172630810Y-64420000D01*
G37*
G36*
X177775810Y-64420000D02*
X177779769Y-64447859D01*
X177791333Y-64473513D01*
X177809586Y-64494929D01*
X177833082Y-64510412D01*
X177859962Y-64518736D01*
X177875810Y-64520000D01*
X178230000Y-64520000D01*
X178230000Y-65820000D01*
X176130000Y-65820000D01*
X176130000Y-64520000D01*
X176475710Y-64520000D01*
X176503569Y-64516041D01*
X176529223Y-64504477D01*
X176550639Y-64486224D01*
X176566122Y-64462728D01*
X176574446Y-64435848D01*
X176575710Y-64420000D01*
X176575710Y-63280990D01*
X177775810Y-63280990D01*
X177775810Y-64420000D01*
X177775810Y-64420000D01*
G37*
G36*
X175655000Y-65820000D02*
X173555000Y-65820000D01*
X173555000Y-64520000D01*
X175655000Y-64520000D01*
X175655000Y-65820000D01*
X175655000Y-65820000D01*
G37*
G36*
X154261544Y-61671259D02*
X154588103Y-61738291D01*
X154895411Y-61867471D01*
X155171786Y-62053888D01*
X155406682Y-62290430D01*
X155591160Y-62568094D01*
X155718197Y-62876305D01*
X155782810Y-63202630D01*
X155782810Y-63202646D01*
X155782943Y-63203319D01*
X155777626Y-63584081D01*
X155777475Y-63584744D01*
X155777475Y-63584768D01*
X155703775Y-63909157D01*
X155568181Y-64213707D01*
X155376024Y-64486106D01*
X155134612Y-64716000D01*
X154853142Y-64894626D01*
X154542344Y-65015177D01*
X154214042Y-65073066D01*
X153880754Y-65066084D01*
X153555167Y-64994499D01*
X153249690Y-64861040D01*
X152975946Y-64670782D01*
X152744374Y-64430983D01*
X152563788Y-64150768D01*
X152441069Y-63840815D01*
X152380891Y-63512929D01*
X152385545Y-63179603D01*
X152454855Y-62853523D01*
X152586182Y-62547114D01*
X152774521Y-62272054D01*
X153012699Y-62038813D01*
X153291643Y-61856277D01*
X153600730Y-61731397D01*
X153928190Y-61668930D01*
X154261544Y-61671259D01*
X154261544Y-61671259D01*
G37*
G36*
X185799848Y-62699200D02*
X185982453Y-62736684D01*
X186154301Y-62808921D01*
X186308852Y-62913167D01*
X186440206Y-63045441D01*
X186543366Y-63200711D01*
X186614407Y-63373069D01*
X186650478Y-63555239D01*
X186650478Y-63555264D01*
X186650610Y-63555932D01*
X186647637Y-63768854D01*
X186647486Y-63769517D01*
X186647486Y-63769541D01*
X186606341Y-63950642D01*
X186530519Y-64120941D01*
X186423063Y-64273268D01*
X186288065Y-64401826D01*
X186130662Y-64501716D01*
X185956869Y-64569126D01*
X185773279Y-64601499D01*
X185586902Y-64597594D01*
X185404835Y-64557565D01*
X185234012Y-64482934D01*
X185080932Y-64376540D01*
X184951438Y-64242445D01*
X184850453Y-64085747D01*
X184781828Y-63912420D01*
X184748176Y-63729066D01*
X184750779Y-63542670D01*
X184789538Y-63360320D01*
X184862973Y-63188983D01*
X184968295Y-63035165D01*
X185101485Y-62904737D01*
X185257470Y-62802663D01*
X185430312Y-62732829D01*
X185613429Y-62697898D01*
X185799848Y-62699200D01*
X185799848Y-62699200D01*
G37*
G36*
X170631830Y-63819010D02*
X169431730Y-63819010D01*
X169431730Y-62618910D01*
X170631830Y-62618910D01*
X170631830Y-63819010D01*
X170631830Y-63819010D01*
G37*
G36*
X175776830Y-63780050D02*
X174576730Y-63780050D01*
X174576730Y-62579950D01*
X175776830Y-62579950D01*
X175776830Y-63780050D01*
X175776830Y-63780050D01*
G37*
G36*
X167925000Y-63700000D02*
X165825000Y-63700000D01*
X165825000Y-62400000D01*
X167925000Y-62400000D01*
X167925000Y-63700000D01*
X167925000Y-63700000D01*
G37*
G36*
X165450000Y-63700000D02*
X163350000Y-63700000D01*
X163350000Y-62400000D01*
X165450000Y-62400000D01*
X165450000Y-63700000D01*
X165450000Y-63700000D01*
G37*
G36*
X172630810Y-63117970D02*
X171430710Y-63117970D01*
X171430710Y-61917870D01*
X172630810Y-61917870D01*
X172630810Y-63117970D01*
X172630810Y-63117970D01*
G37*
G36*
X177775810Y-63079010D02*
X176575710Y-63079010D01*
X176575710Y-61878910D01*
X177775810Y-61878910D01*
X177775810Y-63079010D01*
X177775810Y-63079010D01*
G37*
G36*
X183175000Y-62650000D02*
X181525000Y-62650000D01*
X181525000Y-61250000D01*
X183175000Y-61250000D01*
X183175000Y-62650000D01*
X183175000Y-62650000D01*
G37*
G36*
X185799848Y-58127200D02*
X185982453Y-58164684D01*
X186154301Y-58236921D01*
X186308852Y-58341167D01*
X186440206Y-58473441D01*
X186543366Y-58628711D01*
X186614407Y-58801069D01*
X186650478Y-58983239D01*
X186650478Y-58983264D01*
X186650610Y-58983932D01*
X186647637Y-59196854D01*
X186647486Y-59197517D01*
X186647486Y-59197541D01*
X186606341Y-59378642D01*
X186530519Y-59548941D01*
X186423063Y-59701268D01*
X186288065Y-59829826D01*
X186130662Y-59929716D01*
X185947724Y-60000673D01*
X185947897Y-60001119D01*
X185937167Y-60004626D01*
X185913914Y-60020473D01*
X185895997Y-60042171D01*
X185884834Y-60068001D01*
X185881309Y-60095919D01*
X185885701Y-60123713D01*
X185897663Y-60149183D01*
X185916247Y-60170313D01*
X185939982Y-60185428D01*
X185961190Y-60192320D01*
X185982457Y-60196685D01*
X186154301Y-60268921D01*
X186308852Y-60373167D01*
X186440206Y-60505441D01*
X186543366Y-60660711D01*
X186614407Y-60833069D01*
X186650478Y-61015239D01*
X186650478Y-61015264D01*
X186650610Y-61015932D01*
X186647637Y-61228854D01*
X186647486Y-61229517D01*
X186647486Y-61229541D01*
X186606341Y-61410642D01*
X186530519Y-61580941D01*
X186423063Y-61733268D01*
X186288065Y-61861826D01*
X186130662Y-61961716D01*
X185956869Y-62029126D01*
X185773279Y-62061499D01*
X185586902Y-62057594D01*
X185404835Y-62017565D01*
X185234012Y-61942934D01*
X185080932Y-61836540D01*
X184951438Y-61702445D01*
X184850453Y-61545747D01*
X184781828Y-61372420D01*
X184748176Y-61189066D01*
X184750779Y-61002670D01*
X184789538Y-60820320D01*
X184862973Y-60648983D01*
X184968295Y-60495165D01*
X185101485Y-60364737D01*
X185257470Y-60262663D01*
X185430312Y-60192829D01*
X185442894Y-60190429D01*
X185469518Y-60181319D01*
X185492550Y-60165153D01*
X185510166Y-60143210D01*
X185520972Y-60117229D01*
X185524112Y-60089265D01*
X185519337Y-60061534D01*
X185507025Y-60036231D01*
X185488152Y-60015360D01*
X185464211Y-60000573D01*
X185445627Y-59994533D01*
X185404836Y-59985565D01*
X185234012Y-59910934D01*
X185080932Y-59804540D01*
X184951438Y-59670445D01*
X184850453Y-59513747D01*
X184781828Y-59340420D01*
X184748176Y-59157066D01*
X184750779Y-58970670D01*
X184789538Y-58788320D01*
X184862973Y-58616983D01*
X184968295Y-58463165D01*
X185101485Y-58332737D01*
X185257470Y-58230663D01*
X185430312Y-58160829D01*
X185613429Y-58125898D01*
X185799848Y-58127200D01*
X185799848Y-58127200D01*
G37*
G36*
X160910980Y-59885572D02*
X160910998Y-59885578D01*
X160911078Y-59885586D01*
X161097516Y-59943298D01*
X161269193Y-60036123D01*
X161419571Y-60160527D01*
X161542921Y-60311769D01*
X161634546Y-60484091D01*
X161690955Y-60670927D01*
X161710000Y-60865161D01*
X161710000Y-60874912D01*
X161709932Y-60884744D01*
X161709931Y-60884752D01*
X161709903Y-60888801D01*
X161688148Y-61082751D01*
X161629135Y-61268781D01*
X161535113Y-61439806D01*
X161409663Y-61589312D01*
X161257563Y-61711603D01*
X161084607Y-61802023D01*
X160897381Y-61857126D01*
X160897315Y-61857132D01*
X160897291Y-61857139D01*
X160703024Y-61874818D01*
X160509020Y-61854428D01*
X160509002Y-61854422D01*
X160508922Y-61854414D01*
X160322484Y-61796702D01*
X160150807Y-61703877D01*
X160000429Y-61579473D01*
X159877079Y-61428231D01*
X159785454Y-61255909D01*
X159729045Y-61069073D01*
X159710000Y-60874839D01*
X159710000Y-60865088D01*
X159710068Y-60855256D01*
X159710069Y-60855248D01*
X159710097Y-60851199D01*
X159731852Y-60657249D01*
X159790865Y-60471219D01*
X159884887Y-60300194D01*
X160010337Y-60150688D01*
X160162437Y-60028397D01*
X160335393Y-59937977D01*
X160522619Y-59882874D01*
X160522685Y-59882868D01*
X160522709Y-59882861D01*
X160716976Y-59865182D01*
X160910980Y-59885572D01*
X160910980Y-59885572D01*
G37*
G36*
X163450980Y-59885572D02*
X163450998Y-59885578D01*
X163451078Y-59885586D01*
X163637516Y-59943298D01*
X163809193Y-60036123D01*
X163959571Y-60160527D01*
X164082921Y-60311769D01*
X164174546Y-60484091D01*
X164230955Y-60670927D01*
X164250000Y-60865161D01*
X164250000Y-60874912D01*
X164249932Y-60884744D01*
X164249931Y-60884752D01*
X164249903Y-60888801D01*
X164228148Y-61082751D01*
X164169135Y-61268781D01*
X164075113Y-61439806D01*
X163949663Y-61589312D01*
X163797563Y-61711603D01*
X163624607Y-61802023D01*
X163437381Y-61857126D01*
X163437315Y-61857132D01*
X163437291Y-61857139D01*
X163243024Y-61874818D01*
X163049020Y-61854428D01*
X163049002Y-61854422D01*
X163048922Y-61854414D01*
X162862484Y-61796702D01*
X162690807Y-61703877D01*
X162540429Y-61579473D01*
X162417079Y-61428231D01*
X162325454Y-61255909D01*
X162269045Y-61069073D01*
X162250000Y-60874839D01*
X162250000Y-60865088D01*
X162250068Y-60855256D01*
X162250069Y-60855248D01*
X162250097Y-60851199D01*
X162271852Y-60657249D01*
X162330865Y-60471219D01*
X162424887Y-60300194D01*
X162550337Y-60150688D01*
X162702437Y-60028397D01*
X162875393Y-59937977D01*
X163062619Y-59882874D01*
X163062685Y-59882868D01*
X163062709Y-59882861D01*
X163256976Y-59865182D01*
X163450980Y-59885572D01*
X163450980Y-59885572D01*
G37*
G36*
X168530980Y-59885572D02*
X168530998Y-59885578D01*
X168531078Y-59885586D01*
X168717516Y-59943298D01*
X168889193Y-60036123D01*
X169039571Y-60160527D01*
X169162921Y-60311769D01*
X169254546Y-60484091D01*
X169310955Y-60670927D01*
X169330000Y-60865161D01*
X169330000Y-60874912D01*
X169329932Y-60884744D01*
X169329931Y-60884752D01*
X169329903Y-60888801D01*
X169308148Y-61082751D01*
X169249135Y-61268781D01*
X169155113Y-61439806D01*
X169029663Y-61589312D01*
X168877563Y-61711603D01*
X168704607Y-61802023D01*
X168517381Y-61857126D01*
X168517315Y-61857132D01*
X168517291Y-61857139D01*
X168323024Y-61874818D01*
X168129020Y-61854428D01*
X168129002Y-61854422D01*
X168128922Y-61854414D01*
X167942484Y-61796702D01*
X167770807Y-61703877D01*
X167620429Y-61579473D01*
X167497079Y-61428231D01*
X167405454Y-61255909D01*
X167349045Y-61069073D01*
X167330000Y-60874839D01*
X167330000Y-60865088D01*
X167330068Y-60855256D01*
X167330069Y-60855248D01*
X167330097Y-60851199D01*
X167351852Y-60657249D01*
X167410865Y-60471219D01*
X167504887Y-60300194D01*
X167630337Y-60150688D01*
X167782437Y-60028397D01*
X167955393Y-59937977D01*
X168142619Y-59882874D01*
X168142685Y-59882868D01*
X168142709Y-59882861D01*
X168336976Y-59865182D01*
X168530980Y-59885572D01*
X168530980Y-59885572D01*
G37*
G36*
X165990980Y-59885572D02*
X165990998Y-59885578D01*
X165991078Y-59885586D01*
X166177516Y-59943298D01*
X166349193Y-60036123D01*
X166499571Y-60160527D01*
X166622921Y-60311769D01*
X166714546Y-60484091D01*
X166770955Y-60670927D01*
X166790000Y-60865161D01*
X166790000Y-60874912D01*
X166789932Y-60884744D01*
X166789931Y-60884752D01*
X166789903Y-60888801D01*
X166768148Y-61082751D01*
X166709135Y-61268781D01*
X166615113Y-61439806D01*
X166489663Y-61589312D01*
X166337563Y-61711603D01*
X166164607Y-61802023D01*
X165977381Y-61857126D01*
X165977315Y-61857132D01*
X165977291Y-61857139D01*
X165783024Y-61874818D01*
X165589020Y-61854428D01*
X165589002Y-61854422D01*
X165588922Y-61854414D01*
X165402484Y-61796702D01*
X165230807Y-61703877D01*
X165080429Y-61579473D01*
X164957079Y-61428231D01*
X164865454Y-61255909D01*
X164809045Y-61069073D01*
X164790000Y-60874839D01*
X164790000Y-60865088D01*
X164790068Y-60855256D01*
X164790069Y-60855248D01*
X164790097Y-60851199D01*
X164811852Y-60657249D01*
X164870865Y-60471219D01*
X164964887Y-60300194D01*
X165090337Y-60150688D01*
X165242437Y-60028397D01*
X165415393Y-59937977D01*
X165602619Y-59882874D01*
X165602685Y-59882868D01*
X165602709Y-59882861D01*
X165796976Y-59865182D01*
X165990980Y-59885572D01*
X165990980Y-59885572D01*
G37*
G36*
X156849848Y-59372060D02*
X157032453Y-59409544D01*
X157204301Y-59481781D01*
X157358852Y-59586027D01*
X157490206Y-59718301D01*
X157593366Y-59873571D01*
X157664407Y-60045929D01*
X157700478Y-60228099D01*
X157700478Y-60228124D01*
X157700610Y-60228792D01*
X157697637Y-60441714D01*
X157697486Y-60442377D01*
X157697486Y-60442401D01*
X157656341Y-60623502D01*
X157580519Y-60793801D01*
X157473063Y-60946128D01*
X157338065Y-61074686D01*
X157180662Y-61174576D01*
X157006869Y-61241986D01*
X156823279Y-61274359D01*
X156636902Y-61270454D01*
X156454835Y-61230425D01*
X156284012Y-61155794D01*
X156130932Y-61049400D01*
X156001438Y-60915305D01*
X155900453Y-60758607D01*
X155831828Y-60585280D01*
X155798176Y-60401926D01*
X155800779Y-60215530D01*
X155839538Y-60033180D01*
X155912973Y-59861843D01*
X156018295Y-59708025D01*
X156151485Y-59577597D01*
X156307470Y-59475523D01*
X156480312Y-59405689D01*
X156663429Y-59370758D01*
X156849848Y-59372060D01*
X156849848Y-59372060D01*
G37*
G36*
X183175000Y-60650000D02*
X181525000Y-60650000D01*
X181525000Y-59250000D01*
X183175000Y-59250000D01*
X183175000Y-60650000D01*
X183175000Y-60650000D01*
G37*
G36*
X180350000Y-60575000D02*
X178700000Y-60575000D01*
X178700000Y-59175000D01*
X180350000Y-59175000D01*
X180350000Y-60575000D01*
X180350000Y-60575000D01*
G37*
G36*
X168399090Y-59665000D02*
X168340486Y-59665000D01*
X168337790Y-59665383D01*
X168334437Y-59665000D01*
X167099090Y-59665000D01*
X167099090Y-57565000D01*
X168399090Y-57565000D01*
X168399090Y-59665000D01*
X168399090Y-59665000D01*
G37*
G36*
X165499090Y-59665000D02*
X164199090Y-59665000D01*
X164199090Y-57565000D01*
X165499090Y-57565000D01*
X165499090Y-59665000D01*
X165499090Y-59665000D01*
G37*
G36*
X169964090Y-59665000D02*
X168664090Y-59665000D01*
X168664090Y-57565000D01*
X169964090Y-57565000D01*
X169964090Y-59665000D01*
X169964090Y-59665000D01*
G37*
G36*
X172864090Y-59665000D02*
X171564090Y-59665000D01*
X171564090Y-57565000D01*
X172864090Y-57565000D01*
X172864090Y-59665000D01*
X172864090Y-59665000D01*
G37*
G36*
X184100000Y-58900000D02*
X182700000Y-58900000D01*
X182700000Y-57250000D01*
X184100000Y-57250000D01*
X184100000Y-58900000D01*
X184100000Y-58900000D01*
G37*
G36*
X182100000Y-58900000D02*
X180700000Y-58900000D01*
X180700000Y-57250000D01*
X182100000Y-57250000D01*
X182100000Y-58900000D01*
X182100000Y-58900000D01*
G37*
G36*
X156849848Y-54800060D02*
X157032453Y-54837544D01*
X157204301Y-54909781D01*
X157358852Y-55014027D01*
X157490206Y-55146301D01*
X157593366Y-55301571D01*
X157664407Y-55473929D01*
X157700478Y-55656099D01*
X157700478Y-55656124D01*
X157700610Y-55656792D01*
X157697637Y-55869714D01*
X157697486Y-55870377D01*
X157697486Y-55870401D01*
X157656341Y-56051502D01*
X157580519Y-56221801D01*
X157473063Y-56374128D01*
X157338065Y-56502686D01*
X157180662Y-56602576D01*
X156997724Y-56673533D01*
X156997897Y-56673979D01*
X156987167Y-56677486D01*
X156963914Y-56693333D01*
X156945997Y-56715031D01*
X156934834Y-56740861D01*
X156931309Y-56768779D01*
X156935701Y-56796573D01*
X156947663Y-56822043D01*
X156966247Y-56843173D01*
X156989982Y-56858288D01*
X157011190Y-56865180D01*
X157032457Y-56869545D01*
X157204301Y-56941781D01*
X157358852Y-57046027D01*
X157490206Y-57178301D01*
X157593366Y-57333571D01*
X157664407Y-57505929D01*
X157700478Y-57688099D01*
X157700478Y-57688124D01*
X157700610Y-57688792D01*
X157697637Y-57901714D01*
X157697486Y-57902377D01*
X157697486Y-57902401D01*
X157656341Y-58083502D01*
X157580519Y-58253801D01*
X157473063Y-58406128D01*
X157338065Y-58534686D01*
X157180662Y-58634576D01*
X157006869Y-58701986D01*
X156823279Y-58734359D01*
X156636902Y-58730454D01*
X156454835Y-58690425D01*
X156284012Y-58615794D01*
X156130932Y-58509400D01*
X156001438Y-58375305D01*
X155900453Y-58218607D01*
X155831828Y-58045280D01*
X155798176Y-57861926D01*
X155800779Y-57675530D01*
X155839538Y-57493180D01*
X155912973Y-57321843D01*
X156018295Y-57168025D01*
X156151485Y-57037597D01*
X156307470Y-56935523D01*
X156480312Y-56865689D01*
X156492894Y-56863289D01*
X156519518Y-56854179D01*
X156542550Y-56838013D01*
X156560166Y-56816070D01*
X156570972Y-56790089D01*
X156574112Y-56762125D01*
X156569337Y-56734394D01*
X156557025Y-56709091D01*
X156538152Y-56688220D01*
X156514211Y-56673433D01*
X156495627Y-56667393D01*
X156454836Y-56658425D01*
X156284012Y-56583794D01*
X156130932Y-56477400D01*
X156001438Y-56343305D01*
X155900453Y-56186607D01*
X155831828Y-56013280D01*
X155798176Y-55829926D01*
X155800779Y-55643530D01*
X155839538Y-55461180D01*
X155912973Y-55289843D01*
X156018295Y-55136025D01*
X156151485Y-55005597D01*
X156307470Y-54903523D01*
X156480312Y-54833689D01*
X156663429Y-54798758D01*
X156849848Y-54800060D01*
X156849848Y-54800060D01*
G37*
G36*
X180350000Y-58575000D02*
X178700000Y-58575000D01*
X178700000Y-57175000D01*
X180350000Y-57175000D01*
X180350000Y-58575000D01*
X180350000Y-58575000D01*
G37*
G36*
X185799848Y-55587200D02*
X185982453Y-55624684D01*
X186154301Y-55696921D01*
X186308852Y-55801167D01*
X186440206Y-55933441D01*
X186543366Y-56088711D01*
X186614407Y-56261069D01*
X186650478Y-56443239D01*
X186650478Y-56443264D01*
X186650610Y-56443932D01*
X186647637Y-56656854D01*
X186647486Y-56657517D01*
X186647486Y-56657541D01*
X186606341Y-56838642D01*
X186530519Y-57008941D01*
X186423063Y-57161268D01*
X186288065Y-57289826D01*
X186130662Y-57389716D01*
X185956869Y-57457126D01*
X185773279Y-57489499D01*
X185586902Y-57485594D01*
X185404835Y-57445565D01*
X185234012Y-57370934D01*
X185080932Y-57264540D01*
X184951438Y-57130445D01*
X184850453Y-56973747D01*
X184781828Y-56800420D01*
X184748176Y-56617066D01*
X184750779Y-56430670D01*
X184789538Y-56248320D01*
X184862973Y-56076983D01*
X184968295Y-55923165D01*
X185101485Y-55792737D01*
X185257470Y-55690663D01*
X185430312Y-55620829D01*
X185613429Y-55585898D01*
X185799848Y-55587200D01*
X185799848Y-55587200D01*
G37*
G36*
X165499090Y-57190000D02*
X164199090Y-57190000D01*
X164199090Y-55090000D01*
X165499090Y-55090000D01*
X165499090Y-57190000D01*
X165499090Y-57190000D01*
G37*
G36*
X169964090Y-57190000D02*
X168664090Y-57190000D01*
X168664090Y-55090000D01*
X169964090Y-55090000D01*
X169964090Y-57190000D01*
X169964090Y-57190000D01*
G37*
G36*
X172864090Y-57190000D02*
X171564090Y-57190000D01*
X171564090Y-55090000D01*
X172864090Y-55090000D01*
X172864090Y-57190000D01*
X172864090Y-57190000D01*
G37*
G36*
X168399090Y-57190000D02*
X167099090Y-57190000D01*
X167099090Y-55090000D01*
X168399090Y-55090000D01*
X168399090Y-57190000D01*
X168399090Y-57190000D01*
G37*
G36*
X174679174Y-57155186D02*
X173379174Y-57155186D01*
X173379174Y-55055186D01*
X174679174Y-55055186D01*
X174679174Y-57155186D01*
X174679174Y-57155186D01*
G37*
G36*
X178544378Y-54622095D02*
X178716981Y-54657525D01*
X178879414Y-54725805D01*
X179025500Y-54824342D01*
X179149662Y-54949373D01*
X179247169Y-55096135D01*
X179314318Y-55259051D01*
X179348406Y-55431204D01*
X179348406Y-55431230D01*
X179348538Y-55431898D01*
X179345728Y-55633157D01*
X179345576Y-55633825D01*
X179345576Y-55633844D01*
X179306694Y-55804986D01*
X179235026Y-55965953D01*
X179133453Y-56109943D01*
X179005850Y-56231457D01*
X178857075Y-56325872D01*
X178692797Y-56389592D01*
X178519265Y-56420191D01*
X178343099Y-56416500D01*
X178171001Y-56378662D01*
X178009537Y-56308121D01*
X177864845Y-56207557D01*
X177751108Y-56089779D01*
X177728907Y-56072489D01*
X177702769Y-56062068D01*
X177674762Y-56059342D01*
X177647104Y-56064527D01*
X177621986Y-56077211D01*
X177601396Y-56096391D01*
X177586965Y-56120548D01*
X177579174Y-56159245D01*
X177579174Y-57155186D01*
X176279174Y-57155186D01*
X176279174Y-55055186D01*
X177626548Y-55055186D01*
X177654407Y-55051227D01*
X177680061Y-55039663D01*
X177709059Y-55011683D01*
X177758377Y-54939657D01*
X177884270Y-54816373D01*
X178031709Y-54719891D01*
X178195088Y-54653883D01*
X178368172Y-54620864D01*
X178544378Y-54622095D01*
X178544378Y-54622095D01*
G37*
G36*
X182318569Y-54895083D02*
X182453112Y-54922701D01*
X182579729Y-54975925D01*
X182693603Y-55052734D01*
X182790385Y-55150194D01*
X182866394Y-55264596D01*
X182918737Y-55391591D01*
X182945278Y-55525631D01*
X182945278Y-55525656D01*
X182945410Y-55526324D01*
X182943220Y-55683206D01*
X182943068Y-55683874D01*
X182943068Y-55683893D01*
X182912794Y-55817143D01*
X182856926Y-55942624D01*
X182777752Y-56054861D01*
X182678288Y-56149580D01*
X182562312Y-56223180D01*
X182434263Y-56272847D01*
X182298992Y-56296700D01*
X182161669Y-56293822D01*
X182027522Y-56264329D01*
X181901660Y-56209341D01*
X181788870Y-56130949D01*
X181693458Y-56032148D01*
X181619053Y-55916693D01*
X181568488Y-55788982D01*
X181543695Y-55653890D01*
X181545612Y-55516555D01*
X181574171Y-55382200D01*
X181628280Y-55255953D01*
X181705880Y-55142621D01*
X181804013Y-55046522D01*
X181918943Y-54971314D01*
X182046293Y-54919861D01*
X182181214Y-54894123D01*
X182318569Y-54895083D01*
X182318569Y-54895083D01*
G37*
G36*
X188545544Y-51790399D02*
X188872103Y-51857431D01*
X189179411Y-51986611D01*
X189455786Y-52173028D01*
X189690682Y-52409570D01*
X189875160Y-52687234D01*
X190002197Y-52995445D01*
X190066810Y-53321770D01*
X190066810Y-53321786D01*
X190066943Y-53322459D01*
X190061626Y-53703221D01*
X190061475Y-53703884D01*
X190061475Y-53703908D01*
X189987775Y-54028297D01*
X189852181Y-54332847D01*
X189660024Y-54605246D01*
X189418612Y-54835140D01*
X189137142Y-55013766D01*
X188826344Y-55134317D01*
X188498042Y-55192206D01*
X188164754Y-55185224D01*
X187839167Y-55113639D01*
X187533690Y-54980180D01*
X187259946Y-54789922D01*
X187028374Y-54550123D01*
X186847788Y-54269908D01*
X186725069Y-53959955D01*
X186664891Y-53632069D01*
X186669545Y-53298743D01*
X186738855Y-52972663D01*
X186870182Y-52666254D01*
X187058521Y-52391194D01*
X187296699Y-52157953D01*
X187575643Y-51975417D01*
X187884730Y-51850537D01*
X188212190Y-51788070D01*
X188545544Y-51790399D01*
X188545544Y-51790399D01*
G37*
G36*
X181048569Y-53625083D02*
X181183112Y-53652701D01*
X181309729Y-53705925D01*
X181423603Y-53782734D01*
X181520385Y-53880194D01*
X181596394Y-53994596D01*
X181648737Y-54121591D01*
X181675278Y-54255631D01*
X181675278Y-54255656D01*
X181675410Y-54256324D01*
X181673220Y-54413206D01*
X181673068Y-54413874D01*
X181673068Y-54413893D01*
X181642794Y-54547143D01*
X181586926Y-54672624D01*
X181507752Y-54784861D01*
X181408288Y-54879580D01*
X181292312Y-54953180D01*
X181164263Y-55002847D01*
X181028992Y-55026700D01*
X180891669Y-55023822D01*
X180757522Y-54994329D01*
X180631660Y-54939341D01*
X180518870Y-54860949D01*
X180423458Y-54762148D01*
X180349053Y-54646693D01*
X180298488Y-54518982D01*
X180273695Y-54383890D01*
X180275612Y-54246555D01*
X180304171Y-54112200D01*
X180358280Y-53985953D01*
X180435880Y-53872621D01*
X180534013Y-53776522D01*
X180648943Y-53701314D01*
X180776293Y-53649861D01*
X180911214Y-53624123D01*
X181048569Y-53625083D01*
X181048569Y-53625083D01*
G37*
G36*
X174679174Y-54680186D02*
X173379174Y-54680186D01*
X173379174Y-52580186D01*
X174679174Y-52580186D01*
X174679174Y-54680186D01*
X174679174Y-54680186D01*
G37*
G36*
X178544378Y-52082095D02*
X178716981Y-52117525D01*
X178879414Y-52185805D01*
X179025500Y-52284342D01*
X179149662Y-52409373D01*
X179247169Y-52556135D01*
X179314318Y-52719051D01*
X179348406Y-52891204D01*
X179348406Y-52891230D01*
X179348538Y-52891898D01*
X179345728Y-53093157D01*
X179345576Y-53093825D01*
X179345576Y-53093844D01*
X179306694Y-53264986D01*
X179235026Y-53425953D01*
X179133453Y-53569943D01*
X179005850Y-53691457D01*
X178857075Y-53785872D01*
X178692797Y-53849592D01*
X178519265Y-53880191D01*
X178343099Y-53876500D01*
X178171001Y-53838662D01*
X178009537Y-53768121D01*
X177864845Y-53667557D01*
X177751108Y-53549779D01*
X177728907Y-53532489D01*
X177702769Y-53522068D01*
X177674762Y-53519342D01*
X177647104Y-53524527D01*
X177621986Y-53537211D01*
X177601396Y-53556391D01*
X177586965Y-53580548D01*
X177579174Y-53619245D01*
X177579174Y-54680186D01*
X176279174Y-54680186D01*
X176279174Y-52580186D01*
X177582042Y-52580186D01*
X177609901Y-52576227D01*
X177635555Y-52564663D01*
X177664553Y-52536683D01*
X177758377Y-52399657D01*
X177884270Y-52276373D01*
X178031709Y-52179891D01*
X178195088Y-52113883D01*
X178368172Y-52080864D01*
X178544378Y-52082095D01*
X178544378Y-52082095D01*
G37*
G36*
X163450980Y-52265572D02*
X163450998Y-52265578D01*
X163451078Y-52265586D01*
X163637516Y-52323298D01*
X163809193Y-52416123D01*
X163959571Y-52540527D01*
X164082921Y-52691769D01*
X164174546Y-52864091D01*
X164230955Y-53050927D01*
X164250000Y-53245161D01*
X164250000Y-53254912D01*
X164249932Y-53264744D01*
X164249931Y-53264752D01*
X164249903Y-53268801D01*
X164228148Y-53462751D01*
X164169135Y-53648781D01*
X164075113Y-53819806D01*
X163949663Y-53969312D01*
X163797563Y-54091603D01*
X163624607Y-54182023D01*
X163437381Y-54237126D01*
X163437315Y-54237132D01*
X163437291Y-54237139D01*
X163243024Y-54254818D01*
X163049020Y-54234428D01*
X163049002Y-54234422D01*
X163048922Y-54234414D01*
X162862484Y-54176702D01*
X162690807Y-54083877D01*
X162540429Y-53959473D01*
X162417079Y-53808231D01*
X162325454Y-53635909D01*
X162269045Y-53449073D01*
X162250000Y-53254839D01*
X162250000Y-53245088D01*
X162250068Y-53235256D01*
X162250069Y-53235248D01*
X162250097Y-53231199D01*
X162271852Y-53037249D01*
X162330865Y-52851219D01*
X162424887Y-52680194D01*
X162550337Y-52530688D01*
X162702437Y-52408397D01*
X162875393Y-52317977D01*
X163062619Y-52262874D01*
X163062685Y-52262868D01*
X163062709Y-52262861D01*
X163256976Y-52245182D01*
X163450980Y-52265572D01*
X163450980Y-52265572D01*
G37*
G36*
X165990980Y-52265572D02*
X165990998Y-52265578D01*
X165991078Y-52265586D01*
X166177516Y-52323298D01*
X166349193Y-52416123D01*
X166499571Y-52540527D01*
X166622921Y-52691769D01*
X166714546Y-52864091D01*
X166770955Y-53050927D01*
X166790000Y-53245161D01*
X166790000Y-53254912D01*
X166789932Y-53264744D01*
X166789931Y-53264752D01*
X166789903Y-53268801D01*
X166768148Y-53462751D01*
X166709135Y-53648781D01*
X166615113Y-53819806D01*
X166489663Y-53969312D01*
X166337563Y-54091603D01*
X166164607Y-54182023D01*
X165977381Y-54237126D01*
X165977315Y-54237132D01*
X165977291Y-54237139D01*
X165783024Y-54254818D01*
X165589020Y-54234428D01*
X165589002Y-54234422D01*
X165588922Y-54234414D01*
X165402484Y-54176702D01*
X165230807Y-54083877D01*
X165080429Y-53959473D01*
X164957079Y-53808231D01*
X164865454Y-53635909D01*
X164809045Y-53449073D01*
X164790000Y-53254839D01*
X164790000Y-53245088D01*
X164790068Y-53235256D01*
X164790069Y-53235248D01*
X164790097Y-53231199D01*
X164811852Y-53037249D01*
X164870865Y-52851219D01*
X164964887Y-52680194D01*
X165090337Y-52530688D01*
X165242437Y-52408397D01*
X165415393Y-52317977D01*
X165602619Y-52262874D01*
X165602685Y-52262868D01*
X165602709Y-52262861D01*
X165796976Y-52245182D01*
X165990980Y-52265572D01*
X165990980Y-52265572D01*
G37*
G36*
X170575000Y-52250000D02*
X168965980Y-52250000D01*
X168938121Y-52253959D01*
X168912467Y-52265523D01*
X168891051Y-52283776D01*
X168875568Y-52307272D01*
X168867244Y-52334152D01*
X168866738Y-52362287D01*
X168874090Y-52389449D01*
X168888718Y-52413487D01*
X168901464Y-52426275D01*
X169039571Y-52540527D01*
X169162921Y-52691769D01*
X169254546Y-52864091D01*
X169310955Y-53050927D01*
X169330000Y-53245161D01*
X169330000Y-53254912D01*
X169329932Y-53264744D01*
X169329931Y-53264752D01*
X169329903Y-53268801D01*
X169308148Y-53462751D01*
X169249135Y-53648781D01*
X169155113Y-53819806D01*
X169029663Y-53969312D01*
X168877563Y-54091603D01*
X168704607Y-54182023D01*
X168517381Y-54237126D01*
X168517315Y-54237132D01*
X168517291Y-54237139D01*
X168323024Y-54254818D01*
X168129020Y-54234428D01*
X168129002Y-54234422D01*
X168128922Y-54234414D01*
X167942484Y-54176702D01*
X167770807Y-54083877D01*
X167620429Y-53959473D01*
X167497079Y-53808231D01*
X167405454Y-53635909D01*
X167349045Y-53449073D01*
X167330000Y-53254839D01*
X167330000Y-53245088D01*
X167330068Y-53235256D01*
X167330069Y-53235248D01*
X167330097Y-53231199D01*
X167351852Y-53037249D01*
X167410865Y-52851219D01*
X167504887Y-52680194D01*
X167630337Y-52530688D01*
X167782437Y-52408397D01*
X167955393Y-52317977D01*
X168142619Y-52262874D01*
X168142685Y-52262868D01*
X168142709Y-52262861D01*
X168336975Y-52245182D01*
X168364546Y-52248080D01*
X168392667Y-52247055D01*
X168419388Y-52238236D01*
X168442595Y-52222322D01*
X168460450Y-52200573D01*
X168471538Y-52174711D01*
X168475000Y-52148628D01*
X168475000Y-50950000D01*
X170575000Y-50950000D01*
X170575000Y-52250000D01*
X170575000Y-52250000D01*
G37*
G36*
X160910980Y-52265572D02*
X160910998Y-52265578D01*
X160911078Y-52265586D01*
X161097516Y-52323298D01*
X161269193Y-52416123D01*
X161419571Y-52540527D01*
X161542921Y-52691769D01*
X161634546Y-52864091D01*
X161690955Y-53050927D01*
X161710000Y-53245161D01*
X161710000Y-53254912D01*
X161709932Y-53264744D01*
X161709931Y-53264752D01*
X161709903Y-53268801D01*
X161688148Y-53462751D01*
X161629135Y-53648781D01*
X161535113Y-53819806D01*
X161409663Y-53969312D01*
X161257563Y-54091603D01*
X161084607Y-54182023D01*
X160897381Y-54237126D01*
X160897315Y-54237132D01*
X160897291Y-54237139D01*
X160703024Y-54254818D01*
X160509020Y-54234428D01*
X160509002Y-54234422D01*
X160508922Y-54234414D01*
X160322484Y-54176702D01*
X160150807Y-54083877D01*
X160000429Y-53959473D01*
X159877079Y-53808231D01*
X159785454Y-53635909D01*
X159729045Y-53449073D01*
X159710000Y-53254839D01*
X159710000Y-53245088D01*
X159710068Y-53235256D01*
X159710069Y-53235248D01*
X159710097Y-53231199D01*
X159731852Y-53037249D01*
X159790865Y-52851219D01*
X159884887Y-52680194D01*
X160010337Y-52530688D01*
X160162437Y-52408397D01*
X160335393Y-52317977D01*
X160522619Y-52262874D01*
X160522685Y-52262868D01*
X160522709Y-52262861D01*
X160716976Y-52245182D01*
X160910980Y-52265572D01*
X160910980Y-52265572D01*
G37*
G36*
X156849848Y-52260060D02*
X157032453Y-52297544D01*
X157204301Y-52369781D01*
X157358852Y-52474027D01*
X157490206Y-52606301D01*
X157593366Y-52761571D01*
X157664407Y-52933929D01*
X157700478Y-53116099D01*
X157700478Y-53116124D01*
X157700610Y-53116792D01*
X157697637Y-53329714D01*
X157697486Y-53330377D01*
X157697486Y-53330401D01*
X157656341Y-53511502D01*
X157580519Y-53681801D01*
X157473063Y-53834128D01*
X157338065Y-53962686D01*
X157180662Y-54062576D01*
X157006869Y-54129986D01*
X156823279Y-54162359D01*
X156636902Y-54158454D01*
X156454835Y-54118425D01*
X156284012Y-54043794D01*
X156130932Y-53937400D01*
X156001438Y-53803305D01*
X155900453Y-53646607D01*
X155831828Y-53473280D01*
X155798176Y-53289926D01*
X155800779Y-53103530D01*
X155839538Y-52921180D01*
X155912973Y-52749843D01*
X156018295Y-52596025D01*
X156151485Y-52465597D01*
X156307470Y-52363523D01*
X156480312Y-52293689D01*
X156663429Y-52258758D01*
X156849848Y-52260060D01*
X156849848Y-52260060D01*
G37*
G36*
X182318569Y-52355083D02*
X182453112Y-52382701D01*
X182579729Y-52435925D01*
X182693603Y-52512734D01*
X182790385Y-52610194D01*
X182866394Y-52724596D01*
X182918737Y-52851591D01*
X182945278Y-52985631D01*
X182945278Y-52985656D01*
X182945410Y-52986324D01*
X182943220Y-53143206D01*
X182943068Y-53143874D01*
X182943068Y-53143893D01*
X182912794Y-53277143D01*
X182856926Y-53402624D01*
X182777752Y-53514861D01*
X182678288Y-53609580D01*
X182562312Y-53683180D01*
X182434263Y-53732847D01*
X182298992Y-53756700D01*
X182161669Y-53753822D01*
X182027522Y-53724329D01*
X181901660Y-53669341D01*
X181788870Y-53590949D01*
X181693458Y-53492148D01*
X181619053Y-53376693D01*
X181568488Y-53248982D01*
X181543695Y-53113890D01*
X181545612Y-52976555D01*
X181574171Y-52842200D01*
X181628280Y-52715953D01*
X181705880Y-52602621D01*
X181804013Y-52506522D01*
X181918943Y-52431314D01*
X182046293Y-52379861D01*
X182181214Y-52354123D01*
X182318569Y-52355083D01*
X182318569Y-52355083D01*
G37*
G36*
X173050000Y-52250000D02*
X170950000Y-52250000D01*
X170950000Y-50950000D01*
X173050000Y-50950000D01*
X173050000Y-52250000D01*
X173050000Y-52250000D01*
G37*
G36*
X174679174Y-52205186D02*
X173379174Y-52205186D01*
X173379174Y-50105186D01*
X174679174Y-50105186D01*
X174679174Y-52205186D01*
X174679174Y-52205186D01*
G37*
G36*
X177579174Y-52205186D02*
X176279174Y-52205186D01*
X176279174Y-50105186D01*
X177579174Y-50105186D01*
X177579174Y-52205186D01*
X177579174Y-52205186D01*
G37*
G36*
X166275000Y-51975000D02*
X164975000Y-51975000D01*
X164975000Y-49875000D01*
X166275000Y-49875000D01*
X166275000Y-51975000D01*
X166275000Y-51975000D01*
G37*
G36*
X163375000Y-51975000D02*
X162075000Y-51975000D01*
X162075000Y-49875000D01*
X163375000Y-49875000D01*
X163375000Y-51975000D01*
X163375000Y-51975000D01*
G37*
G36*
X158873000Y-51950328D02*
X157573000Y-51950328D01*
X157573000Y-49850328D01*
X158873000Y-49850328D01*
X158873000Y-51950328D01*
X158873000Y-51950328D01*
G37*
G36*
X161773000Y-51950328D02*
X160473000Y-51950328D01*
X160473000Y-49850328D01*
X161773000Y-49850328D01*
X161773000Y-51950328D01*
X161773000Y-51950328D01*
G37*
G36*
X180875000Y-51450000D02*
X179575000Y-51450000D01*
X179575000Y-49350000D01*
X180875000Y-49350000D01*
X180875000Y-51450000D01*
X180875000Y-51450000D01*
G37*
G36*
X183775000Y-51450000D02*
X182475000Y-51450000D01*
X182475000Y-49350000D01*
X183775000Y-49350000D01*
X183775000Y-51450000D01*
X183775000Y-51450000D01*
G37*
G36*
X190601043Y-49438637D02*
X190785852Y-49476572D01*
X190959766Y-49549679D01*
X191116174Y-49655177D01*
X191249107Y-49789042D01*
X191353508Y-49946179D01*
X191425402Y-50120605D01*
X191461909Y-50304981D01*
X191461909Y-50304998D01*
X191462042Y-50305671D01*
X191459033Y-50521154D01*
X191458881Y-50521822D01*
X191458881Y-50521841D01*
X191417241Y-50705123D01*
X191340503Y-50877479D01*
X191231758Y-51031634D01*
X191095136Y-51161736D01*
X190935841Y-51262828D01*
X190759958Y-51331049D01*
X190574160Y-51363811D01*
X190385544Y-51359859D01*
X190201285Y-51319347D01*
X190028406Y-51243818D01*
X189873490Y-51136149D01*
X189742436Y-51000439D01*
X189640237Y-50841857D01*
X189570787Y-50666446D01*
X189536731Y-50480887D01*
X189539364Y-50292250D01*
X189578590Y-50107707D01*
X189652908Y-49934310D01*
X189759497Y-49778642D01*
X189894285Y-49646648D01*
X190052153Y-49543342D01*
X190227069Y-49472671D01*
X190412388Y-49437319D01*
X190601043Y-49438637D01*
X190601043Y-49438637D01*
G37*
G36*
X154261544Y-47955259D02*
X154588103Y-48022291D01*
X154895411Y-48151471D01*
X155171786Y-48337888D01*
X155406682Y-48574430D01*
X155591160Y-48852094D01*
X155718197Y-49160305D01*
X155782810Y-49486630D01*
X155782810Y-49486646D01*
X155782943Y-49487319D01*
X155777626Y-49868081D01*
X155777475Y-49868744D01*
X155777475Y-49868768D01*
X155703775Y-50193157D01*
X155568181Y-50497707D01*
X155376024Y-50770106D01*
X155134612Y-51000000D01*
X154853142Y-51178626D01*
X154542344Y-51299177D01*
X154214042Y-51357066D01*
X153880754Y-51350084D01*
X153555167Y-51278499D01*
X153249690Y-51145040D01*
X152975946Y-50954782D01*
X152744374Y-50714983D01*
X152563788Y-50434768D01*
X152441069Y-50124815D01*
X152380891Y-49796929D01*
X152385545Y-49463603D01*
X152454855Y-49137523D01*
X152586182Y-48831114D01*
X152774521Y-48556054D01*
X153012699Y-48322813D01*
X153291643Y-48140277D01*
X153600730Y-48015397D01*
X153928190Y-47952930D01*
X154261544Y-47955259D01*
X154261544Y-47955259D01*
G37*
G36*
X161773000Y-49475328D02*
X160473000Y-49475328D01*
X160473000Y-47375328D01*
X161773000Y-47375328D01*
X161773000Y-49475328D01*
X161773000Y-49475328D01*
G37*
G36*
X158873000Y-49475328D02*
X157573000Y-49475328D01*
X157573000Y-47375328D01*
X158873000Y-47375328D01*
X158873000Y-49475328D01*
X158873000Y-49475328D01*
G37*
G36*
X170575000Y-49350000D02*
X168475000Y-49350000D01*
X168475000Y-48050000D01*
X170575000Y-48050000D01*
X170575000Y-49350000D01*
X170575000Y-49350000D01*
G37*
G36*
X173050000Y-49350000D02*
X170950000Y-49350000D01*
X170950000Y-48050000D01*
X173050000Y-48050000D01*
X173050000Y-49350000D01*
X173050000Y-49350000D01*
G37*
G36*
X183235043Y-46898637D02*
X183419852Y-46936572D01*
X183593766Y-47009679D01*
X183750174Y-47115177D01*
X183883107Y-47249042D01*
X183987508Y-47406179D01*
X184059402Y-47580605D01*
X184095909Y-47764981D01*
X184095909Y-47764998D01*
X184096042Y-47765671D01*
X184093033Y-47981154D01*
X184092881Y-47981822D01*
X184092881Y-47981841D01*
X184051241Y-48165123D01*
X183974503Y-48337479D01*
X183865758Y-48491634D01*
X183729136Y-48621736D01*
X183569841Y-48722828D01*
X183393958Y-48791049D01*
X183208160Y-48823811D01*
X183019544Y-48819859D01*
X182835285Y-48779347D01*
X182662406Y-48703818D01*
X182507490Y-48596149D01*
X182376436Y-48460439D01*
X182274237Y-48301857D01*
X182204787Y-48126446D01*
X182170731Y-47940887D01*
X182173364Y-47752250D01*
X182212590Y-47567707D01*
X182286908Y-47394310D01*
X182393497Y-47238642D01*
X182528285Y-47106648D01*
X182686153Y-47003342D01*
X182861069Y-46932671D01*
X183046388Y-46897319D01*
X183235043Y-46898637D01*
X183235043Y-46898637D01*
G37*
G36*
X195681043Y-46898637D02*
X195865852Y-46936572D01*
X196039766Y-47009679D01*
X196196174Y-47115177D01*
X196329107Y-47249042D01*
X196433508Y-47406179D01*
X196505402Y-47580605D01*
X196541909Y-47764981D01*
X196541909Y-47764998D01*
X196542042Y-47765671D01*
X196539033Y-47981154D01*
X196538881Y-47981822D01*
X196538881Y-47981841D01*
X196497241Y-48165123D01*
X196420503Y-48337479D01*
X196311758Y-48491634D01*
X196175136Y-48621736D01*
X196015841Y-48722828D01*
X195839958Y-48791049D01*
X195654160Y-48823811D01*
X195465544Y-48819859D01*
X195281285Y-48779347D01*
X195108406Y-48703818D01*
X194953490Y-48596149D01*
X194822436Y-48460439D01*
X194720237Y-48301857D01*
X194650787Y-48126446D01*
X194616731Y-47940887D01*
X194619364Y-47752250D01*
X194658590Y-47567707D01*
X194732908Y-47394310D01*
X194839497Y-47238642D01*
X194974285Y-47106648D01*
X195132153Y-47003342D01*
X195307069Y-46932671D01*
X195492388Y-46897319D01*
X195681043Y-46898637D01*
X195681043Y-46898637D01*
G37*
M02*
