G04 #@! TF.FileFunction,Copper,L1,Top,Signal*
%FSLAX46Y46*%
G04 Gerber Fmt 4.6, Leading zero omitted, Abs format (unit mm)*
G04 Created by KiCad (PCBNEW 4.0.1-stable) date Fri 18 Dec 2015 08:10:57 AM EET*
%MOMM*%
G01*
G04 APERTURE LIST*
%ADD10C,0.100000*%
%ADD11C,1.397000*%
%ADD12R,1.800860X1.597660*%
%ADD13C,1.000760*%
%ADD14C,1.501140*%
%ADD15C,2.999740*%
%ADD16C,1.524000*%
%ADD17O,1.600000X1.600000*%
%ADD18R,0.400000X1.350000*%
%ADD19O,1.500000X1.500000*%
%ADD20O,1.350000X2.200000*%
%ADD21R,2.500000X1.200000*%
%ADD22C,0.600000*%
%ADD23C,1.000000*%
%ADD24C,0.600000*%
%ADD25C,0.152400*%
%ADD26C,0.500000*%
%ADD27C,0.200000*%
%ADD28C,1.000000*%
%ADD29C,0.900000*%
%ADD30C,0.400000*%
%ADD31C,0.800000*%
G04 APERTURE END LIST*
D10*
D11*
X178450000Y-52980000D03*
X178450000Y-55520000D03*
D12*
X177180000Y-66675140D03*
X177180000Y-69514860D03*
X174605000Y-66675140D03*
X174605000Y-69514860D03*
D13*
X180975000Y-54325000D03*
X182245000Y-53055000D03*
X182245000Y-55595000D03*
D12*
X172030000Y-66675140D03*
X172030000Y-69514860D03*
D14*
X156750000Y-60322000D03*
X156750000Y-57782000D03*
X156750000Y-55750000D03*
X156750000Y-53210000D03*
D15*
X154083000Y-63370000D03*
X154083000Y-49654000D03*
D14*
X185700000Y-56537140D03*
X185700000Y-59077140D03*
X185700000Y-61109140D03*
X185700000Y-63649140D03*
D15*
X188367000Y-53489140D03*
X188367000Y-67205140D03*
D16*
X195580000Y-47860000D03*
X190500000Y-50400000D03*
X183134000Y-47860000D03*
D17*
X160710000Y-60870000D03*
X163250000Y-60870000D03*
X165790000Y-60870000D03*
X168330000Y-60870000D03*
X168330000Y-53250000D03*
X165790000Y-53250000D03*
X163250000Y-53250000D03*
X160710000Y-53250000D03*
D18*
X155224100Y-66500000D03*
X155874100Y-66500000D03*
X156524100Y-66500000D03*
X157174100Y-66500000D03*
X157824100Y-66500000D03*
D19*
X154024100Y-66500000D03*
X159024100Y-66500000D03*
D20*
X153775000Y-69200000D03*
X159275000Y-69200000D03*
D21*
X156525000Y-69262540D03*
D22*
X177180000Y-68070000D03*
X177180000Y-69514860D03*
X174605000Y-69514860D03*
X172030000Y-69514860D03*
X158875000Y-64750000D03*
X174605000Y-68070000D03*
X172030000Y-68070000D03*
X178125000Y-49775000D03*
D23*
X190400000Y-63649140D03*
D24*
X177180000Y-68070000D02*
X177180000Y-66675140D01*
D25*
X157824100Y-65100900D02*
X158175000Y-64750000D01*
X158175000Y-64750000D02*
X158875000Y-64750000D01*
X157824100Y-66500000D02*
X157824100Y-65100900D01*
D26*
X182170000Y-52980000D02*
X182245000Y-53055000D01*
D24*
X174605000Y-66675140D02*
X174605000Y-68070000D01*
X172030000Y-68070000D02*
X172030000Y-66675140D01*
D27*
X189350000Y-60692158D02*
X188550983Y-59893141D01*
X188550983Y-59893141D02*
X186516001Y-59893141D01*
X186516001Y-59893141D02*
X185700000Y-59077140D01*
X189350000Y-63182842D02*
X189350000Y-60692158D01*
X186632842Y-65900000D02*
X189350000Y-63182842D01*
X183867158Y-65900000D02*
X186632842Y-65900000D01*
X182550000Y-64582842D02*
X183867158Y-65900000D01*
X182550000Y-61432842D02*
X182550000Y-64582842D01*
X178083157Y-56965999D02*
X182550000Y-61432842D01*
X156750000Y-57782000D02*
X157566001Y-56965999D01*
X157566001Y-56965999D02*
X178083157Y-56965999D01*
X188950000Y-60857842D02*
X188385297Y-60293139D01*
X188385297Y-60293139D02*
X186516001Y-60293139D01*
X186516001Y-60293139D02*
X185700000Y-61109140D01*
X188950000Y-63017158D02*
X188950000Y-60857842D01*
X186467158Y-65500000D02*
X188950000Y-63017158D01*
X184032842Y-65500000D02*
X186467158Y-65500000D01*
X182950000Y-64417158D02*
X184032842Y-65500000D01*
X182950000Y-61267158D02*
X182950000Y-64417158D01*
X178248843Y-56566001D02*
X182950000Y-61267158D01*
X156750000Y-55750000D02*
X157566001Y-56566001D01*
X157566001Y-56566001D02*
X178248843Y-56566001D01*
D28*
X154083000Y-63370000D02*
X152583131Y-61870131D01*
X152583131Y-61870131D02*
X152583131Y-51153869D01*
X152583131Y-51153869D02*
X154083000Y-49654000D01*
D26*
X178125000Y-49775000D02*
X181250000Y-49775000D01*
X181250000Y-49775000D02*
X190400000Y-58925000D01*
X190400000Y-58925000D02*
X190400000Y-63649140D01*
D28*
X156375000Y-63500000D02*
X178225000Y-63500000D01*
X178225000Y-63500000D02*
X184375000Y-69650000D01*
X184375000Y-69650000D02*
X189800000Y-69650000D01*
X189800000Y-69650000D02*
X191325000Y-68125000D01*
X191325000Y-68125000D02*
X191325000Y-64574140D01*
X191325000Y-64574140D02*
X190400000Y-63649140D01*
X156375000Y-63500000D02*
X156375000Y-62250000D01*
X156375000Y-64274100D02*
X156375000Y-63500000D01*
D29*
X155949100Y-64700000D02*
X156375000Y-64274100D01*
D28*
X156375000Y-62250000D02*
X154550000Y-60425000D01*
X154550000Y-60425000D02*
X154550000Y-54575000D01*
X154550000Y-54575000D02*
X155915000Y-53210000D01*
X155915000Y-53210000D02*
X156750000Y-53210000D01*
D30*
X155224100Y-66500000D02*
X155224100Y-65425000D01*
D31*
X155224100Y-65425000D02*
X155949100Y-64700000D01*
D28*
X159024100Y-66500000D02*
X159024100Y-68949100D01*
X159024100Y-68949100D02*
X159275000Y-69200000D01*
X159275000Y-69200000D02*
X156587540Y-69200000D01*
X156587540Y-69200000D02*
X156525000Y-69262540D01*
X153775000Y-69200000D02*
X156462460Y-69200000D01*
X156462460Y-69200000D02*
X156525000Y-69262540D01*
X154024100Y-66500000D02*
X154024100Y-68950900D01*
X154024100Y-68950900D02*
X153775000Y-69200000D01*
D27*
G36*
X183738604Y-70286396D02*
X183833794Y-70350000D01*
X178688430Y-70350000D01*
X178688430Y-69820860D01*
X178536430Y-69668860D01*
X177334000Y-69668860D01*
X177334000Y-69688860D01*
X177026000Y-69688860D01*
X177026000Y-69668860D01*
X174759000Y-69668860D01*
X174759000Y-69688860D01*
X174451000Y-69688860D01*
X174451000Y-69668860D01*
X172184000Y-69668860D01*
X172184000Y-69688860D01*
X171876000Y-69688860D01*
X171876000Y-69668860D01*
X170673570Y-69668860D01*
X170521570Y-69820860D01*
X170521570Y-70350000D01*
X160078255Y-70350000D01*
X160268170Y-70065772D01*
X160350000Y-69654387D01*
X160350000Y-68745613D01*
X160320060Y-68595091D01*
X170521570Y-68595091D01*
X170521570Y-69208860D01*
X170673570Y-69360860D01*
X171876000Y-69360860D01*
X171876000Y-69340860D01*
X172184000Y-69340860D01*
X172184000Y-69360860D01*
X174451000Y-69360860D01*
X174451000Y-69340860D01*
X174759000Y-69340860D01*
X174759000Y-69360860D01*
X177026000Y-69360860D01*
X177026000Y-69340860D01*
X177334000Y-69340860D01*
X177334000Y-69360860D01*
X178536430Y-69360860D01*
X178688430Y-69208860D01*
X178688430Y-68595091D01*
X178595867Y-68371625D01*
X178424834Y-68200592D01*
X178201368Y-68108030D01*
X177879967Y-68108030D01*
X177880121Y-67931372D01*
X177880000Y-67931079D01*
X177880000Y-67881806D01*
X178080430Y-67881806D01*
X178228661Y-67853914D01*
X178364802Y-67766310D01*
X178456134Y-67632641D01*
X178488266Y-67473970D01*
X178488266Y-65876310D01*
X178460374Y-65728079D01*
X178372770Y-65591938D01*
X178239101Y-65500606D01*
X178080430Y-65468474D01*
X176279570Y-65468474D01*
X176131339Y-65496366D01*
X175995198Y-65583970D01*
X175903866Y-65717639D01*
X175893262Y-65770001D01*
X175885374Y-65728079D01*
X175797770Y-65591938D01*
X175664101Y-65500606D01*
X175505430Y-65468474D01*
X173704570Y-65468474D01*
X173556339Y-65496366D01*
X173420198Y-65583970D01*
X173328866Y-65717639D01*
X173318262Y-65770001D01*
X173310374Y-65728079D01*
X173222770Y-65591938D01*
X173089101Y-65500606D01*
X172930430Y-65468474D01*
X171129570Y-65468474D01*
X170981339Y-65496366D01*
X170845198Y-65583970D01*
X170753866Y-65717639D01*
X170721734Y-65876310D01*
X170721734Y-67473970D01*
X170749626Y-67622201D01*
X170837230Y-67758342D01*
X170970899Y-67849674D01*
X171129570Y-67881806D01*
X171330000Y-67881806D01*
X171330000Y-68069962D01*
X171329967Y-68108030D01*
X171008632Y-68108030D01*
X170785166Y-68200592D01*
X170614133Y-68371625D01*
X170521570Y-68595091D01*
X160320060Y-68595091D01*
X160268170Y-68334228D01*
X160035140Y-67985473D01*
X159924100Y-67911279D01*
X159924100Y-67205757D01*
X160086561Y-66962616D01*
X160174100Y-66522530D01*
X160174100Y-66477470D01*
X160086561Y-66037384D01*
X159837273Y-65664297D01*
X159464186Y-65415009D01*
X159024100Y-65327470D01*
X158584014Y-65415009D01*
X158518036Y-65459094D01*
X158368504Y-65309562D01*
X158145038Y-65217000D01*
X158076100Y-65217000D01*
X157924100Y-65369000D01*
X157924100Y-66226104D01*
X157874100Y-66477470D01*
X157874100Y-66522530D01*
X157924100Y-66773896D01*
X157924100Y-67631000D01*
X158076100Y-67783000D01*
X158124100Y-67783000D01*
X158124100Y-68300000D01*
X157952937Y-68300000D01*
X157933671Y-68286836D01*
X157775000Y-68254704D01*
X155275000Y-68254704D01*
X155126769Y-68282596D01*
X155099722Y-68300000D01*
X154924100Y-68300000D01*
X154924100Y-67562585D01*
X155024100Y-67582836D01*
X155424100Y-67582836D01*
X155553689Y-67558452D01*
X155674100Y-67582836D01*
X156074100Y-67582836D01*
X156203689Y-67558452D01*
X156324100Y-67582836D01*
X156724100Y-67582836D01*
X156853689Y-67558452D01*
X156974100Y-67582836D01*
X157172094Y-67582836D01*
X157279696Y-67690438D01*
X157503162Y-67783000D01*
X157572100Y-67783000D01*
X157724100Y-67631000D01*
X157724100Y-67371290D01*
X157749804Y-67333671D01*
X157781936Y-67175000D01*
X157781936Y-65825000D01*
X157754044Y-65676769D01*
X157724100Y-65630235D01*
X157724100Y-65369000D01*
X157572100Y-65217000D01*
X157503162Y-65217000D01*
X157279696Y-65309562D01*
X157172094Y-65417164D01*
X156974100Y-65417164D01*
X156844511Y-65441548D01*
X156724100Y-65417164D01*
X156376351Y-65417164D01*
X156550141Y-65301041D01*
X156798296Y-65052885D01*
X157011396Y-64910496D01*
X157206492Y-64618515D01*
X157249957Y-64400000D01*
X177852208Y-64400000D01*
X183738604Y-70286396D01*
X183738604Y-70286396D01*
G37*
X183738604Y-70286396D02*
X183833794Y-70350000D01*
X178688430Y-70350000D01*
X178688430Y-69820860D01*
X178536430Y-69668860D01*
X177334000Y-69668860D01*
X177334000Y-69688860D01*
X177026000Y-69688860D01*
X177026000Y-69668860D01*
X174759000Y-69668860D01*
X174759000Y-69688860D01*
X174451000Y-69688860D01*
X174451000Y-69668860D01*
X172184000Y-69668860D01*
X172184000Y-69688860D01*
X171876000Y-69688860D01*
X171876000Y-69668860D01*
X170673570Y-69668860D01*
X170521570Y-69820860D01*
X170521570Y-70350000D01*
X160078255Y-70350000D01*
X160268170Y-70065772D01*
X160350000Y-69654387D01*
X160350000Y-68745613D01*
X160320060Y-68595091D01*
X170521570Y-68595091D01*
X170521570Y-69208860D01*
X170673570Y-69360860D01*
X171876000Y-69360860D01*
X171876000Y-69340860D01*
X172184000Y-69340860D01*
X172184000Y-69360860D01*
X174451000Y-69360860D01*
X174451000Y-69340860D01*
X174759000Y-69340860D01*
X174759000Y-69360860D01*
X177026000Y-69360860D01*
X177026000Y-69340860D01*
X177334000Y-69340860D01*
X177334000Y-69360860D01*
X178536430Y-69360860D01*
X178688430Y-69208860D01*
X178688430Y-68595091D01*
X178595867Y-68371625D01*
X178424834Y-68200592D01*
X178201368Y-68108030D01*
X177879967Y-68108030D01*
X177880121Y-67931372D01*
X177880000Y-67931079D01*
X177880000Y-67881806D01*
X178080430Y-67881806D01*
X178228661Y-67853914D01*
X178364802Y-67766310D01*
X178456134Y-67632641D01*
X178488266Y-67473970D01*
X178488266Y-65876310D01*
X178460374Y-65728079D01*
X178372770Y-65591938D01*
X178239101Y-65500606D01*
X178080430Y-65468474D01*
X176279570Y-65468474D01*
X176131339Y-65496366D01*
X175995198Y-65583970D01*
X175903866Y-65717639D01*
X175893262Y-65770001D01*
X175885374Y-65728079D01*
X175797770Y-65591938D01*
X175664101Y-65500606D01*
X175505430Y-65468474D01*
X173704570Y-65468474D01*
X173556339Y-65496366D01*
X173420198Y-65583970D01*
X173328866Y-65717639D01*
X173318262Y-65770001D01*
X173310374Y-65728079D01*
X173222770Y-65591938D01*
X173089101Y-65500606D01*
X172930430Y-65468474D01*
X171129570Y-65468474D01*
X170981339Y-65496366D01*
X170845198Y-65583970D01*
X170753866Y-65717639D01*
X170721734Y-65876310D01*
X170721734Y-67473970D01*
X170749626Y-67622201D01*
X170837230Y-67758342D01*
X170970899Y-67849674D01*
X171129570Y-67881806D01*
X171330000Y-67881806D01*
X171330000Y-68069962D01*
X171329967Y-68108030D01*
X171008632Y-68108030D01*
X170785166Y-68200592D01*
X170614133Y-68371625D01*
X170521570Y-68595091D01*
X160320060Y-68595091D01*
X160268170Y-68334228D01*
X160035140Y-67985473D01*
X159924100Y-67911279D01*
X159924100Y-67205757D01*
X160086561Y-66962616D01*
X160174100Y-66522530D01*
X160174100Y-66477470D01*
X160086561Y-66037384D01*
X159837273Y-65664297D01*
X159464186Y-65415009D01*
X159024100Y-65327470D01*
X158584014Y-65415009D01*
X158518036Y-65459094D01*
X158368504Y-65309562D01*
X158145038Y-65217000D01*
X158076100Y-65217000D01*
X157924100Y-65369000D01*
X157924100Y-66226104D01*
X157874100Y-66477470D01*
X157874100Y-66522530D01*
X157924100Y-66773896D01*
X157924100Y-67631000D01*
X158076100Y-67783000D01*
X158124100Y-67783000D01*
X158124100Y-68300000D01*
X157952937Y-68300000D01*
X157933671Y-68286836D01*
X157775000Y-68254704D01*
X155275000Y-68254704D01*
X155126769Y-68282596D01*
X155099722Y-68300000D01*
X154924100Y-68300000D01*
X154924100Y-67562585D01*
X155024100Y-67582836D01*
X155424100Y-67582836D01*
X155553689Y-67558452D01*
X155674100Y-67582836D01*
X156074100Y-67582836D01*
X156203689Y-67558452D01*
X156324100Y-67582836D01*
X156724100Y-67582836D01*
X156853689Y-67558452D01*
X156974100Y-67582836D01*
X157172094Y-67582836D01*
X157279696Y-67690438D01*
X157503162Y-67783000D01*
X157572100Y-67783000D01*
X157724100Y-67631000D01*
X157724100Y-67371290D01*
X157749804Y-67333671D01*
X157781936Y-67175000D01*
X157781936Y-65825000D01*
X157754044Y-65676769D01*
X157724100Y-65630235D01*
X157724100Y-65369000D01*
X157572100Y-65217000D01*
X157503162Y-65217000D01*
X157279696Y-65309562D01*
X157172094Y-65417164D01*
X156974100Y-65417164D01*
X156844511Y-65441548D01*
X156724100Y-65417164D01*
X156376351Y-65417164D01*
X156550141Y-65301041D01*
X156798296Y-65052885D01*
X157011396Y-64910496D01*
X157206492Y-64618515D01*
X157249957Y-64400000D01*
X177852208Y-64400000D01*
X183738604Y-70286396D01*
G36*
X182149479Y-47200920D02*
X181972202Y-47627850D01*
X181971799Y-48090122D01*
X182148330Y-48517360D01*
X182474920Y-48844521D01*
X182901850Y-49021798D01*
X183364122Y-49022201D01*
X183791360Y-48845670D01*
X183794667Y-48842368D01*
X194815421Y-48842368D01*
X194888551Y-49073698D01*
X195405647Y-49245917D01*
X195949287Y-49207142D01*
X196271449Y-49073698D01*
X196344579Y-48842368D01*
X195580000Y-48077789D01*
X194815421Y-48842368D01*
X183794667Y-48842368D01*
X184118521Y-48519080D01*
X184295798Y-48092150D01*
X184296201Y-47629878D01*
X184119670Y-47202640D01*
X183992253Y-47075000D01*
X194577208Y-47075000D01*
X194597630Y-47095422D01*
X194366302Y-47168551D01*
X194194083Y-47685647D01*
X194232858Y-48229287D01*
X194366302Y-48551449D01*
X194597632Y-48624579D01*
X195362211Y-47860000D01*
X195348069Y-47845858D01*
X195565858Y-47628069D01*
X195580000Y-47642211D01*
X195594142Y-47628069D01*
X195811931Y-47845858D01*
X195797789Y-47860000D01*
X196562368Y-48624579D01*
X196793698Y-48551449D01*
X196965917Y-48034353D01*
X196927142Y-47490713D01*
X196793698Y-47168551D01*
X196562370Y-47095422D01*
X196582792Y-47075000D01*
X198650000Y-47075000D01*
X198650000Y-70350000D01*
X190341206Y-70350000D01*
X190436396Y-70286396D01*
X191961396Y-68761396D01*
X192156492Y-68469415D01*
X192225000Y-68125000D01*
X192225000Y-64574140D01*
X192156492Y-64229725D01*
X191961396Y-63937744D01*
X191050000Y-63026348D01*
X191050000Y-58925000D01*
X191000522Y-58676256D01*
X191000522Y-58676255D01*
X190859619Y-58465381D01*
X187637693Y-55243455D01*
X187987434Y-55388680D01*
X188743250Y-55389339D01*
X189441784Y-55100711D01*
X189976693Y-54566735D01*
X190266540Y-53868706D01*
X190267199Y-53112890D01*
X189978571Y-52414356D01*
X189444595Y-51879447D01*
X188746566Y-51589600D01*
X187990750Y-51588941D01*
X187292216Y-51877569D01*
X186757307Y-52411545D01*
X186467460Y-53109574D01*
X186466801Y-53865390D01*
X186612678Y-54218440D01*
X183024360Y-50630122D01*
X189337799Y-50630122D01*
X189514330Y-51057360D01*
X189840920Y-51384521D01*
X190267850Y-51561798D01*
X190730122Y-51562201D01*
X191157360Y-51385670D01*
X191484521Y-51059080D01*
X191661798Y-50632150D01*
X191662201Y-50169878D01*
X191485670Y-49742640D01*
X191159080Y-49415479D01*
X190732150Y-49238202D01*
X190269878Y-49237799D01*
X189842640Y-49414330D01*
X189515479Y-49740920D01*
X189338202Y-50167850D01*
X189337799Y-50630122D01*
X183024360Y-50630122D01*
X181709619Y-49315381D01*
X181498745Y-49174478D01*
X181457476Y-49166269D01*
X181250000Y-49125000D01*
X178384970Y-49125000D01*
X178264850Y-49075122D01*
X177986372Y-49074879D01*
X177729000Y-49181223D01*
X177531915Y-49377964D01*
X177425122Y-49635150D01*
X177424879Y-49913628D01*
X177531223Y-50171000D01*
X177727964Y-50368085D01*
X177985150Y-50474878D01*
X178263628Y-50475121D01*
X178384930Y-50425000D01*
X180980762Y-50425000D01*
X182542835Y-51987073D01*
X182356608Y-51930430D01*
X181917759Y-51973322D01*
X181711532Y-52058744D01*
X181670904Y-52263115D01*
X182245000Y-52837211D01*
X182259142Y-52823069D01*
X182476931Y-53040858D01*
X182462789Y-53055000D01*
X183036885Y-53629096D01*
X183241256Y-53588468D01*
X183369570Y-53166608D01*
X183331353Y-52775591D01*
X185728714Y-55172952D01*
X185332548Y-55201580D01*
X185015444Y-55332929D01*
X184943727Y-55563078D01*
X185700000Y-56319351D01*
X185714142Y-56305209D01*
X185931931Y-56522998D01*
X185917789Y-56537140D01*
X186674062Y-57293413D01*
X186904211Y-57221696D01*
X187074514Y-56708756D01*
X187059715Y-56503953D01*
X189750000Y-59194238D01*
X189750000Y-60408117D01*
X189741838Y-60395902D01*
X189703554Y-60338605D01*
X188904536Y-59539588D01*
X188742325Y-59431201D01*
X188739771Y-59430693D01*
X188550983Y-59393141D01*
X186814604Y-59393141D01*
X186850370Y-59307007D01*
X186850769Y-58849282D01*
X186675975Y-58426246D01*
X186352597Y-58102303D01*
X185929867Y-57926770D01*
X185472142Y-57926371D01*
X185049106Y-58101165D01*
X184725163Y-58424543D01*
X184549630Y-58847273D01*
X184549231Y-59304998D01*
X184724025Y-59728034D01*
X185047403Y-60051977D01*
X185146255Y-60093024D01*
X185049106Y-60133165D01*
X184725163Y-60456543D01*
X184549630Y-60879273D01*
X184549231Y-61336998D01*
X184724025Y-61760034D01*
X185047403Y-62083977D01*
X185470133Y-62259510D01*
X185927858Y-62259909D01*
X186350894Y-62085115D01*
X186674837Y-61761737D01*
X186850370Y-61339007D01*
X186850769Y-60881282D01*
X186814349Y-60793139D01*
X188178191Y-60793139D01*
X188450000Y-61064949D01*
X188450000Y-62810051D01*
X186260052Y-65000000D01*
X184239949Y-65000000D01*
X183450000Y-64210052D01*
X183450000Y-63876998D01*
X184549231Y-63876998D01*
X184724025Y-64300034D01*
X185047403Y-64623977D01*
X185470133Y-64799510D01*
X185927858Y-64799909D01*
X186350894Y-64625115D01*
X186674837Y-64301737D01*
X186850370Y-63879007D01*
X186850769Y-63421282D01*
X186675975Y-62998246D01*
X186352597Y-62674303D01*
X185929867Y-62498770D01*
X185472142Y-62498371D01*
X185049106Y-62673165D01*
X184725163Y-62996543D01*
X184549630Y-63419273D01*
X184549231Y-63876998D01*
X183450000Y-63876998D01*
X183450000Y-61267158D01*
X183411940Y-61075816D01*
X183303553Y-60913605D01*
X179901150Y-57511202D01*
X184943727Y-57511202D01*
X185015444Y-57741351D01*
X185528384Y-57911654D01*
X186067452Y-57872700D01*
X186384556Y-57741351D01*
X186456273Y-57511202D01*
X185700000Y-56754929D01*
X184943727Y-57511202D01*
X179901150Y-57511202D01*
X178908909Y-56518961D01*
X179071437Y-56451806D01*
X179380720Y-56143063D01*
X179548309Y-55739464D01*
X179548690Y-55302453D01*
X179381806Y-54898563D01*
X179073063Y-54589280D01*
X178866027Y-54503311D01*
X180074465Y-54503311D01*
X180211250Y-54834358D01*
X180464310Y-55087860D01*
X180795118Y-55225223D01*
X181153311Y-55225535D01*
X181479455Y-55090776D01*
X181344777Y-55415118D01*
X181344465Y-55773311D01*
X181481250Y-56104358D01*
X181734310Y-56357860D01*
X182065118Y-56495223D01*
X182423311Y-56495535D01*
X182737963Y-56365524D01*
X184325486Y-56365524D01*
X184364440Y-56904592D01*
X184495789Y-57221696D01*
X184725938Y-57293413D01*
X185482211Y-56537140D01*
X184725938Y-55780867D01*
X184495789Y-55852584D01*
X184325486Y-56365524D01*
X182737963Y-56365524D01*
X182754358Y-56358750D01*
X183007860Y-56105690D01*
X183145223Y-55774882D01*
X183145535Y-55416689D01*
X183008750Y-55085642D01*
X182755690Y-54832140D01*
X182424882Y-54694777D01*
X182066689Y-54694465D01*
X181740545Y-54829224D01*
X181875223Y-54504882D01*
X181875535Y-54146689D01*
X181854009Y-54094592D01*
X182133392Y-54179570D01*
X182572241Y-54136678D01*
X182778468Y-54051256D01*
X182819096Y-53846885D01*
X182245000Y-53272789D01*
X182230858Y-53286931D01*
X182013069Y-53069142D01*
X182027211Y-53055000D01*
X181453115Y-52480904D01*
X181248744Y-52521532D01*
X181120430Y-52943392D01*
X181163322Y-53382241D01*
X181186354Y-53437845D01*
X181154882Y-53424777D01*
X180796689Y-53424465D01*
X180465642Y-53561250D01*
X180212140Y-53814310D01*
X180074777Y-54145118D01*
X180074465Y-54503311D01*
X178866027Y-54503311D01*
X178669464Y-54421691D01*
X178232453Y-54421310D01*
X177828563Y-54588194D01*
X177519280Y-54896937D01*
X177351691Y-55300536D01*
X177351310Y-55737547D01*
X177487024Y-56066001D01*
X157864604Y-56066001D01*
X157900370Y-55979867D01*
X157900769Y-55522142D01*
X157725975Y-55099106D01*
X157402597Y-54775163D01*
X156979867Y-54599630D01*
X156522142Y-54599231D01*
X156099106Y-54774025D01*
X155775163Y-55097403D01*
X155599630Y-55520133D01*
X155599231Y-55977858D01*
X155774025Y-56400894D01*
X156097403Y-56724837D01*
X156196255Y-56765884D01*
X156099106Y-56806025D01*
X155775163Y-57129403D01*
X155599630Y-57552133D01*
X155599231Y-58009858D01*
X155774025Y-58432894D01*
X156097403Y-58756837D01*
X156520133Y-58932370D01*
X156977858Y-58932769D01*
X157400894Y-58757975D01*
X157724837Y-58434597D01*
X157900370Y-58011867D01*
X157900769Y-57554142D01*
X157864349Y-57465999D01*
X177876051Y-57465999D01*
X182050000Y-61639948D01*
X182050000Y-64582842D01*
X182058409Y-64625115D01*
X182088060Y-64774184D01*
X182196447Y-64936395D01*
X183513605Y-66253554D01*
X183610844Y-66318526D01*
X183675816Y-66361940D01*
X183867158Y-66400000D01*
X186632842Y-66400000D01*
X186645194Y-66397543D01*
X186467460Y-66825574D01*
X186466801Y-67581390D01*
X186755429Y-68279924D01*
X187224685Y-68750000D01*
X184747792Y-68750000D01*
X178861396Y-62863604D01*
X178569415Y-62668508D01*
X178225000Y-62600000D01*
X157275000Y-62600000D01*
X157275000Y-62250000D01*
X157206492Y-61905585D01*
X157044299Y-61662846D01*
X157117452Y-61657560D01*
X157434556Y-61526211D01*
X157506273Y-61296062D01*
X156750000Y-60539789D01*
X156735858Y-60553931D01*
X156518069Y-60336142D01*
X156532211Y-60322000D01*
X156967789Y-60322000D01*
X157724062Y-61078273D01*
X157954211Y-61006556D01*
X158007354Y-60846491D01*
X159510000Y-60846491D01*
X159510000Y-60893509D01*
X159601345Y-61352729D01*
X159861472Y-61742037D01*
X160250780Y-62002164D01*
X160710000Y-62093509D01*
X161169220Y-62002164D01*
X161558528Y-61742037D01*
X161818655Y-61352729D01*
X161910000Y-60893509D01*
X161910000Y-60846491D01*
X162050000Y-60846491D01*
X162050000Y-60893509D01*
X162141345Y-61352729D01*
X162401472Y-61742037D01*
X162790780Y-62002164D01*
X163250000Y-62093509D01*
X163709220Y-62002164D01*
X164098528Y-61742037D01*
X164358655Y-61352729D01*
X164450000Y-60893509D01*
X164450000Y-60846491D01*
X164590000Y-60846491D01*
X164590000Y-60893509D01*
X164681345Y-61352729D01*
X164941472Y-61742037D01*
X165330780Y-62002164D01*
X165790000Y-62093509D01*
X166249220Y-62002164D01*
X166638528Y-61742037D01*
X166898655Y-61352729D01*
X166964043Y-61024002D01*
X167082434Y-61024002D01*
X166971757Y-61241044D01*
X167217139Y-61732577D01*
X167631944Y-62092791D01*
X167958958Y-62228231D01*
X168176000Y-62116523D01*
X168176000Y-61024000D01*
X168484000Y-61024000D01*
X168484000Y-62116523D01*
X168701042Y-62228231D01*
X169028056Y-62092791D01*
X169442861Y-61732577D01*
X169688243Y-61241044D01*
X169577565Y-61024000D01*
X168484000Y-61024000D01*
X168176000Y-61024000D01*
X168156000Y-61024000D01*
X168156000Y-60716000D01*
X168176000Y-60716000D01*
X168176000Y-59623477D01*
X168484000Y-59623477D01*
X168484000Y-60716000D01*
X169577565Y-60716000D01*
X169688243Y-60498956D01*
X169442861Y-60007423D01*
X169028056Y-59647209D01*
X168701042Y-59511769D01*
X168484000Y-59623477D01*
X168176000Y-59623477D01*
X167958958Y-59511769D01*
X167631944Y-59647209D01*
X167217139Y-60007423D01*
X166971757Y-60498956D01*
X167082434Y-60715998D01*
X166964043Y-60715998D01*
X166898655Y-60387271D01*
X166638528Y-59997963D01*
X166249220Y-59737836D01*
X165790000Y-59646491D01*
X165330780Y-59737836D01*
X164941472Y-59997963D01*
X164681345Y-60387271D01*
X164590000Y-60846491D01*
X164450000Y-60846491D01*
X164358655Y-60387271D01*
X164098528Y-59997963D01*
X163709220Y-59737836D01*
X163250000Y-59646491D01*
X162790780Y-59737836D01*
X162401472Y-59997963D01*
X162141345Y-60387271D01*
X162050000Y-60846491D01*
X161910000Y-60846491D01*
X161818655Y-60387271D01*
X161558528Y-59997963D01*
X161169220Y-59737836D01*
X160710000Y-59646491D01*
X160250780Y-59737836D01*
X159861472Y-59997963D01*
X159601345Y-60387271D01*
X159510000Y-60846491D01*
X158007354Y-60846491D01*
X158124514Y-60493616D01*
X158085560Y-59954548D01*
X157954211Y-59637444D01*
X157724062Y-59565727D01*
X156967789Y-60322000D01*
X156532211Y-60322000D01*
X155775938Y-59565727D01*
X155545789Y-59637444D01*
X155450000Y-59925953D01*
X155450000Y-59347938D01*
X155993727Y-59347938D01*
X156750000Y-60104211D01*
X157506273Y-59347938D01*
X157434556Y-59117789D01*
X156921616Y-58947486D01*
X156382548Y-58986440D01*
X156065444Y-59117789D01*
X155993727Y-59347938D01*
X155450000Y-59347938D01*
X155450000Y-54947792D01*
X156179052Y-54218740D01*
X156520133Y-54360370D01*
X156977858Y-54360769D01*
X157400894Y-54185975D01*
X157724837Y-53862597D01*
X157900370Y-53439867D01*
X157900556Y-53226491D01*
X159510000Y-53226491D01*
X159510000Y-53273509D01*
X159601345Y-53732729D01*
X159861472Y-54122037D01*
X160250780Y-54382164D01*
X160710000Y-54473509D01*
X161169220Y-54382164D01*
X161558528Y-54122037D01*
X161818655Y-53732729D01*
X161910000Y-53273509D01*
X161910000Y-53226491D01*
X162050000Y-53226491D01*
X162050000Y-53273509D01*
X162141345Y-53732729D01*
X162401472Y-54122037D01*
X162790780Y-54382164D01*
X163250000Y-54473509D01*
X163709220Y-54382164D01*
X164098528Y-54122037D01*
X164358655Y-53732729D01*
X164450000Y-53273509D01*
X164450000Y-53226491D01*
X164590000Y-53226491D01*
X164590000Y-53273509D01*
X164681345Y-53732729D01*
X164941472Y-54122037D01*
X165330780Y-54382164D01*
X165790000Y-54473509D01*
X166249220Y-54382164D01*
X166638528Y-54122037D01*
X166898655Y-53732729D01*
X166990000Y-53273509D01*
X166990000Y-53226491D01*
X167130000Y-53226491D01*
X167130000Y-53273509D01*
X167221345Y-53732729D01*
X167481472Y-54122037D01*
X167870780Y-54382164D01*
X168330000Y-54473509D01*
X168789220Y-54382164D01*
X169178528Y-54122037D01*
X169316055Y-53916213D01*
X177731576Y-53916213D01*
X177796852Y-54140981D01*
X178290859Y-54302556D01*
X178809092Y-54262783D01*
X179103148Y-54140981D01*
X179168424Y-53916213D01*
X178450000Y-53197789D01*
X177731576Y-53916213D01*
X169316055Y-53916213D01*
X169438655Y-53732729D01*
X169530000Y-53273509D01*
X169530000Y-53226491D01*
X169449315Y-52820859D01*
X177127444Y-52820859D01*
X177167217Y-53339092D01*
X177289019Y-53633148D01*
X177513787Y-53698424D01*
X178232211Y-52980000D01*
X178667789Y-52980000D01*
X179386213Y-53698424D01*
X179610981Y-53633148D01*
X179772556Y-53139141D01*
X179732783Y-52620908D01*
X179610981Y-52326852D01*
X179386213Y-52261576D01*
X178667789Y-52980000D01*
X178232211Y-52980000D01*
X177513787Y-52261576D01*
X177289019Y-52326852D01*
X177127444Y-52820859D01*
X169449315Y-52820859D01*
X169438655Y-52767271D01*
X169178528Y-52377963D01*
X168789220Y-52117836D01*
X168416953Y-52043787D01*
X177731576Y-52043787D01*
X178450000Y-52762211D01*
X179168424Y-52043787D01*
X179103148Y-51819019D01*
X178609141Y-51657444D01*
X178090908Y-51697217D01*
X177796852Y-51819019D01*
X177731576Y-52043787D01*
X168416953Y-52043787D01*
X168330000Y-52026491D01*
X167870780Y-52117836D01*
X167481472Y-52377963D01*
X167221345Y-52767271D01*
X167130000Y-53226491D01*
X166990000Y-53226491D01*
X166898655Y-52767271D01*
X166638528Y-52377963D01*
X166249220Y-52117836D01*
X165790000Y-52026491D01*
X165330780Y-52117836D01*
X164941472Y-52377963D01*
X164681345Y-52767271D01*
X164590000Y-53226491D01*
X164450000Y-53226491D01*
X164358655Y-52767271D01*
X164098528Y-52377963D01*
X163709220Y-52117836D01*
X163250000Y-52026491D01*
X162790780Y-52117836D01*
X162401472Y-52377963D01*
X162141345Y-52767271D01*
X162050000Y-53226491D01*
X161910000Y-53226491D01*
X161818655Y-52767271D01*
X161558528Y-52377963D01*
X161169220Y-52117836D01*
X160710000Y-52026491D01*
X160250780Y-52117836D01*
X159861472Y-52377963D01*
X159601345Y-52767271D01*
X159510000Y-53226491D01*
X157900556Y-53226491D01*
X157900769Y-52982142D01*
X157725975Y-52559106D01*
X157402597Y-52235163D01*
X156979867Y-52059630D01*
X156522142Y-52059231D01*
X156099106Y-52234025D01*
X156022998Y-52310000D01*
X155915000Y-52310000D01*
X155570585Y-52378508D01*
X155278604Y-52573604D01*
X153913604Y-53938604D01*
X153718508Y-54230585D01*
X153650000Y-54575000D01*
X153650000Y-60425000D01*
X153718508Y-60769415D01*
X153913604Y-61061396D01*
X154322546Y-61470338D01*
X153706750Y-61469801D01*
X153529027Y-61543235D01*
X153483131Y-61497339D01*
X153483131Y-51526661D01*
X153528776Y-51481016D01*
X153703434Y-51553540D01*
X154459250Y-51554199D01*
X155157784Y-51265571D01*
X155692693Y-50731595D01*
X155982540Y-50033566D01*
X155983199Y-49277750D01*
X155694571Y-48579216D01*
X155160595Y-48044307D01*
X154462566Y-47754460D01*
X153706750Y-47753801D01*
X153008216Y-48042429D01*
X152473307Y-48576405D01*
X152183460Y-49274434D01*
X152182801Y-50030250D01*
X152256235Y-50207973D01*
X151946735Y-50517473D01*
X151751639Y-50809454D01*
X151683131Y-51153869D01*
X151683131Y-61870131D01*
X151751639Y-62214546D01*
X151946735Y-62506527D01*
X152255984Y-62815776D01*
X152183460Y-62990434D01*
X152182801Y-63746250D01*
X152471429Y-64444784D01*
X153005405Y-64979693D01*
X153703434Y-65269540D01*
X154454893Y-65270195D01*
X154427538Y-65407719D01*
X154024100Y-65327470D01*
X153584014Y-65415009D01*
X153210927Y-65664297D01*
X152961639Y-66037384D01*
X152874100Y-66477470D01*
X152874100Y-66522530D01*
X152961639Y-66962616D01*
X153124100Y-67205757D01*
X153124100Y-67912481D01*
X153014860Y-67985473D01*
X152781830Y-68334228D01*
X152700000Y-68745613D01*
X152700000Y-69654387D01*
X152781830Y-70065772D01*
X152971745Y-70350000D01*
X151150000Y-70350000D01*
X151150000Y-47075000D01*
X182275619Y-47075000D01*
X182149479Y-47200920D01*
X182149479Y-47200920D01*
G37*
X182149479Y-47200920D02*
X181972202Y-47627850D01*
X181971799Y-48090122D01*
X182148330Y-48517360D01*
X182474920Y-48844521D01*
X182901850Y-49021798D01*
X183364122Y-49022201D01*
X183791360Y-48845670D01*
X183794667Y-48842368D01*
X194815421Y-48842368D01*
X194888551Y-49073698D01*
X195405647Y-49245917D01*
X195949287Y-49207142D01*
X196271449Y-49073698D01*
X196344579Y-48842368D01*
X195580000Y-48077789D01*
X194815421Y-48842368D01*
X183794667Y-48842368D01*
X184118521Y-48519080D01*
X184295798Y-48092150D01*
X184296201Y-47629878D01*
X184119670Y-47202640D01*
X183992253Y-47075000D01*
X194577208Y-47075000D01*
X194597630Y-47095422D01*
X194366302Y-47168551D01*
X194194083Y-47685647D01*
X194232858Y-48229287D01*
X194366302Y-48551449D01*
X194597632Y-48624579D01*
X195362211Y-47860000D01*
X195348069Y-47845858D01*
X195565858Y-47628069D01*
X195580000Y-47642211D01*
X195594142Y-47628069D01*
X195811931Y-47845858D01*
X195797789Y-47860000D01*
X196562368Y-48624579D01*
X196793698Y-48551449D01*
X196965917Y-48034353D01*
X196927142Y-47490713D01*
X196793698Y-47168551D01*
X196562370Y-47095422D01*
X196582792Y-47075000D01*
X198650000Y-47075000D01*
X198650000Y-70350000D01*
X190341206Y-70350000D01*
X190436396Y-70286396D01*
X191961396Y-68761396D01*
X192156492Y-68469415D01*
X192225000Y-68125000D01*
X192225000Y-64574140D01*
X192156492Y-64229725D01*
X191961396Y-63937744D01*
X191050000Y-63026348D01*
X191050000Y-58925000D01*
X191000522Y-58676256D01*
X191000522Y-58676255D01*
X190859619Y-58465381D01*
X187637693Y-55243455D01*
X187987434Y-55388680D01*
X188743250Y-55389339D01*
X189441784Y-55100711D01*
X189976693Y-54566735D01*
X190266540Y-53868706D01*
X190267199Y-53112890D01*
X189978571Y-52414356D01*
X189444595Y-51879447D01*
X188746566Y-51589600D01*
X187990750Y-51588941D01*
X187292216Y-51877569D01*
X186757307Y-52411545D01*
X186467460Y-53109574D01*
X186466801Y-53865390D01*
X186612678Y-54218440D01*
X183024360Y-50630122D01*
X189337799Y-50630122D01*
X189514330Y-51057360D01*
X189840920Y-51384521D01*
X190267850Y-51561798D01*
X190730122Y-51562201D01*
X191157360Y-51385670D01*
X191484521Y-51059080D01*
X191661798Y-50632150D01*
X191662201Y-50169878D01*
X191485670Y-49742640D01*
X191159080Y-49415479D01*
X190732150Y-49238202D01*
X190269878Y-49237799D01*
X189842640Y-49414330D01*
X189515479Y-49740920D01*
X189338202Y-50167850D01*
X189337799Y-50630122D01*
X183024360Y-50630122D01*
X181709619Y-49315381D01*
X181498745Y-49174478D01*
X181457476Y-49166269D01*
X181250000Y-49125000D01*
X178384970Y-49125000D01*
X178264850Y-49075122D01*
X177986372Y-49074879D01*
X177729000Y-49181223D01*
X177531915Y-49377964D01*
X177425122Y-49635150D01*
X177424879Y-49913628D01*
X177531223Y-50171000D01*
X177727964Y-50368085D01*
X177985150Y-50474878D01*
X178263628Y-50475121D01*
X178384930Y-50425000D01*
X180980762Y-50425000D01*
X182542835Y-51987073D01*
X182356608Y-51930430D01*
X181917759Y-51973322D01*
X181711532Y-52058744D01*
X181670904Y-52263115D01*
X182245000Y-52837211D01*
X182259142Y-52823069D01*
X182476931Y-53040858D01*
X182462789Y-53055000D01*
X183036885Y-53629096D01*
X183241256Y-53588468D01*
X183369570Y-53166608D01*
X183331353Y-52775591D01*
X185728714Y-55172952D01*
X185332548Y-55201580D01*
X185015444Y-55332929D01*
X184943727Y-55563078D01*
X185700000Y-56319351D01*
X185714142Y-56305209D01*
X185931931Y-56522998D01*
X185917789Y-56537140D01*
X186674062Y-57293413D01*
X186904211Y-57221696D01*
X187074514Y-56708756D01*
X187059715Y-56503953D01*
X189750000Y-59194238D01*
X189750000Y-60408117D01*
X189741838Y-60395902D01*
X189703554Y-60338605D01*
X188904536Y-59539588D01*
X188742325Y-59431201D01*
X188739771Y-59430693D01*
X188550983Y-59393141D01*
X186814604Y-59393141D01*
X186850370Y-59307007D01*
X186850769Y-58849282D01*
X186675975Y-58426246D01*
X186352597Y-58102303D01*
X185929867Y-57926770D01*
X185472142Y-57926371D01*
X185049106Y-58101165D01*
X184725163Y-58424543D01*
X184549630Y-58847273D01*
X184549231Y-59304998D01*
X184724025Y-59728034D01*
X185047403Y-60051977D01*
X185146255Y-60093024D01*
X185049106Y-60133165D01*
X184725163Y-60456543D01*
X184549630Y-60879273D01*
X184549231Y-61336998D01*
X184724025Y-61760034D01*
X185047403Y-62083977D01*
X185470133Y-62259510D01*
X185927858Y-62259909D01*
X186350894Y-62085115D01*
X186674837Y-61761737D01*
X186850370Y-61339007D01*
X186850769Y-60881282D01*
X186814349Y-60793139D01*
X188178191Y-60793139D01*
X188450000Y-61064949D01*
X188450000Y-62810051D01*
X186260052Y-65000000D01*
X184239949Y-65000000D01*
X183450000Y-64210052D01*
X183450000Y-63876998D01*
X184549231Y-63876998D01*
X184724025Y-64300034D01*
X185047403Y-64623977D01*
X185470133Y-64799510D01*
X185927858Y-64799909D01*
X186350894Y-64625115D01*
X186674837Y-64301737D01*
X186850370Y-63879007D01*
X186850769Y-63421282D01*
X186675975Y-62998246D01*
X186352597Y-62674303D01*
X185929867Y-62498770D01*
X185472142Y-62498371D01*
X185049106Y-62673165D01*
X184725163Y-62996543D01*
X184549630Y-63419273D01*
X184549231Y-63876998D01*
X183450000Y-63876998D01*
X183450000Y-61267158D01*
X183411940Y-61075816D01*
X183303553Y-60913605D01*
X179901150Y-57511202D01*
X184943727Y-57511202D01*
X185015444Y-57741351D01*
X185528384Y-57911654D01*
X186067452Y-57872700D01*
X186384556Y-57741351D01*
X186456273Y-57511202D01*
X185700000Y-56754929D01*
X184943727Y-57511202D01*
X179901150Y-57511202D01*
X178908909Y-56518961D01*
X179071437Y-56451806D01*
X179380720Y-56143063D01*
X179548309Y-55739464D01*
X179548690Y-55302453D01*
X179381806Y-54898563D01*
X179073063Y-54589280D01*
X178866027Y-54503311D01*
X180074465Y-54503311D01*
X180211250Y-54834358D01*
X180464310Y-55087860D01*
X180795118Y-55225223D01*
X181153311Y-55225535D01*
X181479455Y-55090776D01*
X181344777Y-55415118D01*
X181344465Y-55773311D01*
X181481250Y-56104358D01*
X181734310Y-56357860D01*
X182065118Y-56495223D01*
X182423311Y-56495535D01*
X182737963Y-56365524D01*
X184325486Y-56365524D01*
X184364440Y-56904592D01*
X184495789Y-57221696D01*
X184725938Y-57293413D01*
X185482211Y-56537140D01*
X184725938Y-55780867D01*
X184495789Y-55852584D01*
X184325486Y-56365524D01*
X182737963Y-56365524D01*
X182754358Y-56358750D01*
X183007860Y-56105690D01*
X183145223Y-55774882D01*
X183145535Y-55416689D01*
X183008750Y-55085642D01*
X182755690Y-54832140D01*
X182424882Y-54694777D01*
X182066689Y-54694465D01*
X181740545Y-54829224D01*
X181875223Y-54504882D01*
X181875535Y-54146689D01*
X181854009Y-54094592D01*
X182133392Y-54179570D01*
X182572241Y-54136678D01*
X182778468Y-54051256D01*
X182819096Y-53846885D01*
X182245000Y-53272789D01*
X182230858Y-53286931D01*
X182013069Y-53069142D01*
X182027211Y-53055000D01*
X181453115Y-52480904D01*
X181248744Y-52521532D01*
X181120430Y-52943392D01*
X181163322Y-53382241D01*
X181186354Y-53437845D01*
X181154882Y-53424777D01*
X180796689Y-53424465D01*
X180465642Y-53561250D01*
X180212140Y-53814310D01*
X180074777Y-54145118D01*
X180074465Y-54503311D01*
X178866027Y-54503311D01*
X178669464Y-54421691D01*
X178232453Y-54421310D01*
X177828563Y-54588194D01*
X177519280Y-54896937D01*
X177351691Y-55300536D01*
X177351310Y-55737547D01*
X177487024Y-56066001D01*
X157864604Y-56066001D01*
X157900370Y-55979867D01*
X157900769Y-55522142D01*
X157725975Y-55099106D01*
X157402597Y-54775163D01*
X156979867Y-54599630D01*
X156522142Y-54599231D01*
X156099106Y-54774025D01*
X155775163Y-55097403D01*
X155599630Y-55520133D01*
X155599231Y-55977858D01*
X155774025Y-56400894D01*
X156097403Y-56724837D01*
X156196255Y-56765884D01*
X156099106Y-56806025D01*
X155775163Y-57129403D01*
X155599630Y-57552133D01*
X155599231Y-58009858D01*
X155774025Y-58432894D01*
X156097403Y-58756837D01*
X156520133Y-58932370D01*
X156977858Y-58932769D01*
X157400894Y-58757975D01*
X157724837Y-58434597D01*
X157900370Y-58011867D01*
X157900769Y-57554142D01*
X157864349Y-57465999D01*
X177876051Y-57465999D01*
X182050000Y-61639948D01*
X182050000Y-64582842D01*
X182058409Y-64625115D01*
X182088060Y-64774184D01*
X182196447Y-64936395D01*
X183513605Y-66253554D01*
X183610844Y-66318526D01*
X183675816Y-66361940D01*
X183867158Y-66400000D01*
X186632842Y-66400000D01*
X186645194Y-66397543D01*
X186467460Y-66825574D01*
X186466801Y-67581390D01*
X186755429Y-68279924D01*
X187224685Y-68750000D01*
X184747792Y-68750000D01*
X178861396Y-62863604D01*
X178569415Y-62668508D01*
X178225000Y-62600000D01*
X157275000Y-62600000D01*
X157275000Y-62250000D01*
X157206492Y-61905585D01*
X157044299Y-61662846D01*
X157117452Y-61657560D01*
X157434556Y-61526211D01*
X157506273Y-61296062D01*
X156750000Y-60539789D01*
X156735858Y-60553931D01*
X156518069Y-60336142D01*
X156532211Y-60322000D01*
X156967789Y-60322000D01*
X157724062Y-61078273D01*
X157954211Y-61006556D01*
X158007354Y-60846491D01*
X159510000Y-60846491D01*
X159510000Y-60893509D01*
X159601345Y-61352729D01*
X159861472Y-61742037D01*
X160250780Y-62002164D01*
X160710000Y-62093509D01*
X161169220Y-62002164D01*
X161558528Y-61742037D01*
X161818655Y-61352729D01*
X161910000Y-60893509D01*
X161910000Y-60846491D01*
X162050000Y-60846491D01*
X162050000Y-60893509D01*
X162141345Y-61352729D01*
X162401472Y-61742037D01*
X162790780Y-62002164D01*
X163250000Y-62093509D01*
X163709220Y-62002164D01*
X164098528Y-61742037D01*
X164358655Y-61352729D01*
X164450000Y-60893509D01*
X164450000Y-60846491D01*
X164590000Y-60846491D01*
X164590000Y-60893509D01*
X164681345Y-61352729D01*
X164941472Y-61742037D01*
X165330780Y-62002164D01*
X165790000Y-62093509D01*
X166249220Y-62002164D01*
X166638528Y-61742037D01*
X166898655Y-61352729D01*
X166964043Y-61024002D01*
X167082434Y-61024002D01*
X166971757Y-61241044D01*
X167217139Y-61732577D01*
X167631944Y-62092791D01*
X167958958Y-62228231D01*
X168176000Y-62116523D01*
X168176000Y-61024000D01*
X168484000Y-61024000D01*
X168484000Y-62116523D01*
X168701042Y-62228231D01*
X169028056Y-62092791D01*
X169442861Y-61732577D01*
X169688243Y-61241044D01*
X169577565Y-61024000D01*
X168484000Y-61024000D01*
X168176000Y-61024000D01*
X168156000Y-61024000D01*
X168156000Y-60716000D01*
X168176000Y-60716000D01*
X168176000Y-59623477D01*
X168484000Y-59623477D01*
X168484000Y-60716000D01*
X169577565Y-60716000D01*
X169688243Y-60498956D01*
X169442861Y-60007423D01*
X169028056Y-59647209D01*
X168701042Y-59511769D01*
X168484000Y-59623477D01*
X168176000Y-59623477D01*
X167958958Y-59511769D01*
X167631944Y-59647209D01*
X167217139Y-60007423D01*
X166971757Y-60498956D01*
X167082434Y-60715998D01*
X166964043Y-60715998D01*
X166898655Y-60387271D01*
X166638528Y-59997963D01*
X166249220Y-59737836D01*
X165790000Y-59646491D01*
X165330780Y-59737836D01*
X164941472Y-59997963D01*
X164681345Y-60387271D01*
X164590000Y-60846491D01*
X164450000Y-60846491D01*
X164358655Y-60387271D01*
X164098528Y-59997963D01*
X163709220Y-59737836D01*
X163250000Y-59646491D01*
X162790780Y-59737836D01*
X162401472Y-59997963D01*
X162141345Y-60387271D01*
X162050000Y-60846491D01*
X161910000Y-60846491D01*
X161818655Y-60387271D01*
X161558528Y-59997963D01*
X161169220Y-59737836D01*
X160710000Y-59646491D01*
X160250780Y-59737836D01*
X159861472Y-59997963D01*
X159601345Y-60387271D01*
X159510000Y-60846491D01*
X158007354Y-60846491D01*
X158124514Y-60493616D01*
X158085560Y-59954548D01*
X157954211Y-59637444D01*
X157724062Y-59565727D01*
X156967789Y-60322000D01*
X156532211Y-60322000D01*
X155775938Y-59565727D01*
X155545789Y-59637444D01*
X155450000Y-59925953D01*
X155450000Y-59347938D01*
X155993727Y-59347938D01*
X156750000Y-60104211D01*
X157506273Y-59347938D01*
X157434556Y-59117789D01*
X156921616Y-58947486D01*
X156382548Y-58986440D01*
X156065444Y-59117789D01*
X155993727Y-59347938D01*
X155450000Y-59347938D01*
X155450000Y-54947792D01*
X156179052Y-54218740D01*
X156520133Y-54360370D01*
X156977858Y-54360769D01*
X157400894Y-54185975D01*
X157724837Y-53862597D01*
X157900370Y-53439867D01*
X157900556Y-53226491D01*
X159510000Y-53226491D01*
X159510000Y-53273509D01*
X159601345Y-53732729D01*
X159861472Y-54122037D01*
X160250780Y-54382164D01*
X160710000Y-54473509D01*
X161169220Y-54382164D01*
X161558528Y-54122037D01*
X161818655Y-53732729D01*
X161910000Y-53273509D01*
X161910000Y-53226491D01*
X162050000Y-53226491D01*
X162050000Y-53273509D01*
X162141345Y-53732729D01*
X162401472Y-54122037D01*
X162790780Y-54382164D01*
X163250000Y-54473509D01*
X163709220Y-54382164D01*
X164098528Y-54122037D01*
X164358655Y-53732729D01*
X164450000Y-53273509D01*
X164450000Y-53226491D01*
X164590000Y-53226491D01*
X164590000Y-53273509D01*
X164681345Y-53732729D01*
X164941472Y-54122037D01*
X165330780Y-54382164D01*
X165790000Y-54473509D01*
X166249220Y-54382164D01*
X166638528Y-54122037D01*
X166898655Y-53732729D01*
X166990000Y-53273509D01*
X166990000Y-53226491D01*
X167130000Y-53226491D01*
X167130000Y-53273509D01*
X167221345Y-53732729D01*
X167481472Y-54122037D01*
X167870780Y-54382164D01*
X168330000Y-54473509D01*
X168789220Y-54382164D01*
X169178528Y-54122037D01*
X169316055Y-53916213D01*
X177731576Y-53916213D01*
X177796852Y-54140981D01*
X178290859Y-54302556D01*
X178809092Y-54262783D01*
X179103148Y-54140981D01*
X179168424Y-53916213D01*
X178450000Y-53197789D01*
X177731576Y-53916213D01*
X169316055Y-53916213D01*
X169438655Y-53732729D01*
X169530000Y-53273509D01*
X169530000Y-53226491D01*
X169449315Y-52820859D01*
X177127444Y-52820859D01*
X177167217Y-53339092D01*
X177289019Y-53633148D01*
X177513787Y-53698424D01*
X178232211Y-52980000D01*
X178667789Y-52980000D01*
X179386213Y-53698424D01*
X179610981Y-53633148D01*
X179772556Y-53139141D01*
X179732783Y-52620908D01*
X179610981Y-52326852D01*
X179386213Y-52261576D01*
X178667789Y-52980000D01*
X178232211Y-52980000D01*
X177513787Y-52261576D01*
X177289019Y-52326852D01*
X177127444Y-52820859D01*
X169449315Y-52820859D01*
X169438655Y-52767271D01*
X169178528Y-52377963D01*
X168789220Y-52117836D01*
X168416953Y-52043787D01*
X177731576Y-52043787D01*
X178450000Y-52762211D01*
X179168424Y-52043787D01*
X179103148Y-51819019D01*
X178609141Y-51657444D01*
X178090908Y-51697217D01*
X177796852Y-51819019D01*
X177731576Y-52043787D01*
X168416953Y-52043787D01*
X168330000Y-52026491D01*
X167870780Y-52117836D01*
X167481472Y-52377963D01*
X167221345Y-52767271D01*
X167130000Y-53226491D01*
X166990000Y-53226491D01*
X166898655Y-52767271D01*
X166638528Y-52377963D01*
X166249220Y-52117836D01*
X165790000Y-52026491D01*
X165330780Y-52117836D01*
X164941472Y-52377963D01*
X164681345Y-52767271D01*
X164590000Y-53226491D01*
X164450000Y-53226491D01*
X164358655Y-52767271D01*
X164098528Y-52377963D01*
X163709220Y-52117836D01*
X163250000Y-52026491D01*
X162790780Y-52117836D01*
X162401472Y-52377963D01*
X162141345Y-52767271D01*
X162050000Y-53226491D01*
X161910000Y-53226491D01*
X161818655Y-52767271D01*
X161558528Y-52377963D01*
X161169220Y-52117836D01*
X160710000Y-52026491D01*
X160250780Y-52117836D01*
X159861472Y-52377963D01*
X159601345Y-52767271D01*
X159510000Y-53226491D01*
X157900556Y-53226491D01*
X157900769Y-52982142D01*
X157725975Y-52559106D01*
X157402597Y-52235163D01*
X156979867Y-52059630D01*
X156522142Y-52059231D01*
X156099106Y-52234025D01*
X156022998Y-52310000D01*
X155915000Y-52310000D01*
X155570585Y-52378508D01*
X155278604Y-52573604D01*
X153913604Y-53938604D01*
X153718508Y-54230585D01*
X153650000Y-54575000D01*
X153650000Y-60425000D01*
X153718508Y-60769415D01*
X153913604Y-61061396D01*
X154322546Y-61470338D01*
X153706750Y-61469801D01*
X153529027Y-61543235D01*
X153483131Y-61497339D01*
X153483131Y-51526661D01*
X153528776Y-51481016D01*
X153703434Y-51553540D01*
X154459250Y-51554199D01*
X155157784Y-51265571D01*
X155692693Y-50731595D01*
X155982540Y-50033566D01*
X155983199Y-49277750D01*
X155694571Y-48579216D01*
X155160595Y-48044307D01*
X154462566Y-47754460D01*
X153706750Y-47753801D01*
X153008216Y-48042429D01*
X152473307Y-48576405D01*
X152183460Y-49274434D01*
X152182801Y-50030250D01*
X152256235Y-50207973D01*
X151946735Y-50517473D01*
X151751639Y-50809454D01*
X151683131Y-51153869D01*
X151683131Y-61870131D01*
X151751639Y-62214546D01*
X151946735Y-62506527D01*
X152255984Y-62815776D01*
X152183460Y-62990434D01*
X152182801Y-63746250D01*
X152471429Y-64444784D01*
X153005405Y-64979693D01*
X153703434Y-65269540D01*
X154454893Y-65270195D01*
X154427538Y-65407719D01*
X154024100Y-65327470D01*
X153584014Y-65415009D01*
X153210927Y-65664297D01*
X152961639Y-66037384D01*
X152874100Y-66477470D01*
X152874100Y-66522530D01*
X152961639Y-66962616D01*
X153124100Y-67205757D01*
X153124100Y-67912481D01*
X153014860Y-67985473D01*
X152781830Y-68334228D01*
X152700000Y-68745613D01*
X152700000Y-69654387D01*
X152781830Y-70065772D01*
X152971745Y-70350000D01*
X151150000Y-70350000D01*
X151150000Y-47075000D01*
X182275619Y-47075000D01*
X182149479Y-47200920D01*
M02*
