G04 #@! TF.FileFunction,Copper,L2,Bot,Signal*
%FSLAX46Y46*%
G04 Gerber Fmt 4.6, Leading zero omitted, Abs format (unit mm)*
G04 Created by KiCad (PCBNEW 4.0.1-stable) date Fri 18 Dec 2015 08:10:57 AM EET*
%MOMM*%
G01*
G04 APERTURE LIST*
%ADD10C,0.100000*%
%ADD11R,0.800100X0.800100*%
%ADD12C,1.397000*%
%ADD13R,1.250000X1.000000*%
%ADD14R,1.000000X1.250000*%
%ADD15C,1.000760*%
%ADD16C,1.501140*%
%ADD17C,2.999740*%
%ADD18R,0.900000X1.700000*%
%ADD19R,1.700000X0.900000*%
%ADD20C,1.524000*%
%ADD21O,1.600000X1.600000*%
%ADD22O,1.500000X1.500000*%
%ADD23O,1.350000X2.200000*%
%ADD24C,0.600000*%
%ADD25C,1.000000*%
%ADD26C,0.300000*%
%ADD27C,0.900000*%
%ADD28C,0.500000*%
%ADD29C,0.800000*%
%ADD30C,0.400000*%
%ADD31C,1.000000*%
%ADD32C,0.200000*%
G04 APERTURE END LIST*
D10*
D11*
X172030760Y-62517920D03*
X172030760Y-63920000D03*
X170031780Y-63218960D03*
D12*
X178450000Y-52980000D03*
X178450000Y-55520000D03*
D13*
X179525000Y-57875000D03*
X179525000Y-59875000D03*
X182350000Y-59950000D03*
X182350000Y-61950000D03*
D14*
X181400000Y-58075000D03*
X183400000Y-58075000D03*
D15*
X180975000Y-54325000D03*
X182245000Y-53055000D03*
X182245000Y-55595000D03*
D16*
X156750000Y-60322000D03*
X156750000Y-57782000D03*
X156750000Y-55750000D03*
X156750000Y-53210000D03*
D17*
X154083000Y-63370000D03*
X154083000Y-49654000D03*
D16*
X185700000Y-56537140D03*
X185700000Y-59077140D03*
X185700000Y-61109140D03*
X185700000Y-63649140D03*
D17*
X188367000Y-53489140D03*
X188367000Y-67205140D03*
D11*
X177175760Y-62478960D03*
X177175760Y-63881040D03*
X175176780Y-63180000D03*
D18*
X172214090Y-56140000D03*
X169314090Y-56140000D03*
X172214090Y-58615000D03*
X169314090Y-58615000D03*
X180225000Y-50400000D03*
X183125000Y-50400000D03*
D19*
X174605000Y-68070000D03*
X174605000Y-65170000D03*
D18*
X167749090Y-56140000D03*
X164849090Y-56140000D03*
X167749090Y-58615000D03*
X164849090Y-58615000D03*
D19*
X164400000Y-65950000D03*
X164400000Y-63050000D03*
X177180000Y-68070000D03*
X177180000Y-65170000D03*
D18*
X165625000Y-50925000D03*
X162725000Y-50925000D03*
X174029174Y-51155186D03*
X176929174Y-51155186D03*
X174029174Y-53630186D03*
X176929174Y-53630186D03*
X174029174Y-56105186D03*
X176929174Y-56105186D03*
D19*
X169525000Y-48700000D03*
X169525000Y-51600000D03*
X172000000Y-48700000D03*
X172000000Y-51600000D03*
X166875000Y-65950000D03*
X166875000Y-63050000D03*
D18*
X161123000Y-48425328D03*
X158223000Y-48425328D03*
X161123000Y-50900328D03*
X158223000Y-50900328D03*
D19*
X172030000Y-68070000D03*
X172030000Y-65170000D03*
D20*
X195580000Y-47860000D03*
X190500000Y-50400000D03*
X183134000Y-47860000D03*
D21*
X160710000Y-60870000D03*
X163250000Y-60870000D03*
X165790000Y-60870000D03*
X168330000Y-60870000D03*
X168330000Y-53250000D03*
X165790000Y-53250000D03*
X163250000Y-53250000D03*
X160710000Y-53250000D03*
D22*
X154024100Y-66500000D03*
X159024100Y-66500000D03*
D23*
X153775000Y-69200000D03*
X159275000Y-69200000D03*
D24*
X177180000Y-68070000D03*
X177180000Y-69514860D03*
X174605000Y-69514860D03*
X172030000Y-69514860D03*
X158875000Y-64750000D03*
X174605000Y-68070000D03*
X172030000Y-68070000D03*
X178125000Y-49775000D03*
D25*
X190400000Y-63649140D03*
D26*
X166875000Y-63050000D02*
X164400000Y-63050000D01*
D27*
X164849090Y-58615000D02*
X164849090Y-56140000D01*
X176929174Y-53630186D02*
X176929174Y-51155186D01*
X176929174Y-56105186D02*
X176929174Y-53630186D01*
D26*
X168330000Y-61420000D02*
X168330000Y-60870000D01*
D28*
X172000000Y-48700000D02*
X182294000Y-48700000D01*
X182294000Y-48700000D02*
X183134000Y-47860000D01*
D29*
X182350000Y-59950000D02*
X182350000Y-59025000D01*
X182350000Y-59025000D02*
X181400000Y-58075000D01*
X179525000Y-57875000D02*
X181200000Y-57875000D01*
X181200000Y-57875000D02*
X181400000Y-58075000D01*
X178450000Y-55520000D02*
X178450000Y-56800000D01*
X178450000Y-56800000D02*
X179525000Y-57875000D01*
X179525000Y-57875000D02*
X172954090Y-57875000D01*
X172954090Y-57875000D02*
X172214090Y-58615000D01*
D27*
X172000000Y-48700000D02*
X169525000Y-48700000D01*
D28*
X180975000Y-54325000D02*
X179645000Y-54325000D01*
X179645000Y-54325000D02*
X178450000Y-55520000D01*
D26*
X183125000Y-50400000D02*
X182775000Y-50400000D01*
D28*
X182775000Y-50400000D02*
X180975000Y-52200000D01*
X180975000Y-53617356D02*
X180975000Y-54325000D01*
X180975000Y-52200000D02*
X180975000Y-53617356D01*
D27*
X183125000Y-50400000D02*
X183125000Y-47869000D01*
X183125000Y-47869000D02*
X183134000Y-47860000D01*
X172214090Y-58615000D02*
X172214090Y-56140000D01*
D28*
X182245000Y-55595000D02*
X187440000Y-50400000D01*
X187440000Y-50400000D02*
X190500000Y-50400000D01*
D30*
X175900000Y-66600000D02*
X175525000Y-66975000D01*
X177175760Y-62478960D02*
X176575710Y-62478960D01*
X176575710Y-62478960D02*
X176275000Y-62779670D01*
X176275000Y-62779670D02*
X176275000Y-63675000D01*
X176275000Y-63675000D02*
X175900000Y-64050000D01*
X175900000Y-64050000D02*
X175900000Y-66600000D01*
X175525000Y-66975000D02*
X164575000Y-66975000D01*
X164575000Y-66975000D02*
X164400000Y-66800000D01*
X164400000Y-66800000D02*
X164400000Y-65950000D01*
X160710000Y-63085000D02*
X160710000Y-63710000D01*
X160710000Y-60870000D02*
X160710000Y-63085000D01*
X162950000Y-65950000D02*
X164400000Y-65950000D01*
X160710000Y-63710000D02*
X162950000Y-65950000D01*
D29*
X177175760Y-63881040D02*
X177175760Y-65165760D01*
X177175760Y-65165760D02*
X177180000Y-65170000D01*
D28*
X180225000Y-50400000D02*
X178750000Y-50400000D01*
X178750000Y-50400000D02*
X178125000Y-49775000D01*
D31*
X190400000Y-63649140D02*
X185700000Y-63649140D01*
X156750000Y-53210000D02*
X160670000Y-53210000D01*
X160670000Y-53210000D02*
X160710000Y-53250000D01*
D28*
X162725000Y-50925000D02*
X162725000Y-51675000D01*
X162725000Y-51675000D02*
X161150000Y-53250000D01*
X161150000Y-53250000D02*
X160710000Y-53250000D01*
D29*
X174605000Y-63620000D02*
X174605000Y-65170000D01*
X177925000Y-60925000D02*
X180649140Y-63649140D01*
X180649140Y-63649140D02*
X185700000Y-63649140D01*
X176025000Y-60925000D02*
X177925000Y-60925000D01*
D26*
X160710000Y-53250000D02*
X160710000Y-52765000D01*
D29*
X170031780Y-63218960D02*
X170031780Y-62018910D01*
X171125690Y-60925000D02*
X176025000Y-60925000D01*
X170031780Y-62018910D02*
X171125690Y-60925000D01*
X176025000Y-60925000D02*
X175176780Y-61773220D01*
X175176780Y-61773220D02*
X175176780Y-63180000D01*
X175045000Y-63180000D02*
X174605000Y-63620000D01*
X175176780Y-63180000D02*
X175045000Y-63180000D01*
D30*
X163250000Y-53250000D02*
X161975000Y-54525000D01*
X161975000Y-54525000D02*
X161975000Y-63050000D01*
X163500000Y-64575000D02*
X166975000Y-64575000D01*
X161975000Y-63050000D02*
X163500000Y-64575000D01*
D26*
X166875000Y-64675000D02*
X166975000Y-64575000D01*
D30*
X166975000Y-64575000D02*
X170325000Y-64575000D01*
D26*
X166875000Y-65950000D02*
X166875000Y-64675000D01*
D30*
X171430710Y-62517920D02*
X172030760Y-62517920D01*
X170325000Y-64575000D02*
X171025000Y-63875000D01*
X171025000Y-62923630D02*
X171430710Y-62517920D01*
X171025000Y-63875000D02*
X171025000Y-62923630D01*
D29*
X172030760Y-63920000D02*
X172030760Y-65169240D01*
X172030760Y-65169240D02*
X172030000Y-65170000D01*
D26*
X167749090Y-58615000D02*
X167749090Y-59015000D01*
D28*
X167749090Y-59015000D02*
X165894090Y-60870000D01*
D26*
X165894090Y-60870000D02*
X165790000Y-60870000D01*
X165790000Y-60699090D02*
X165790000Y-60870000D01*
D27*
X169314090Y-58615000D02*
X167749090Y-58615000D01*
X169314090Y-56140000D02*
X167749090Y-56140000D01*
X167749090Y-58615000D02*
X167749090Y-56140000D01*
X169314090Y-58615000D02*
X169314090Y-56140000D01*
D28*
X165625000Y-50925000D02*
X166575000Y-50925000D01*
X172725000Y-50200000D02*
X173550000Y-49375000D01*
X166575000Y-50925000D02*
X167300000Y-50200000D01*
X167300000Y-50200000D02*
X172725000Y-50200000D01*
X173550000Y-49375000D02*
X175175000Y-49375000D01*
X175175000Y-49375000D02*
X175575000Y-49775000D01*
X175575000Y-49775000D02*
X175575000Y-53034360D01*
X175575000Y-53034360D02*
X174979174Y-53630186D01*
X174979174Y-53630186D02*
X174029174Y-53630186D01*
X174029174Y-50755186D02*
X174029174Y-51155186D01*
D29*
X174029174Y-53630186D02*
X168710186Y-53630186D01*
X168710186Y-53630186D02*
X168330000Y-53250000D01*
D27*
X174029174Y-53630186D02*
X174029174Y-51155186D01*
X174029174Y-56105186D02*
X174029174Y-53630186D01*
D28*
X163556554Y-54575000D02*
X167005000Y-54575000D01*
X163250000Y-54881554D02*
X163556554Y-54575000D01*
X163250000Y-60870000D02*
X163250000Y-54881554D01*
X167005000Y-54575000D02*
X168330000Y-53250000D01*
D27*
X168325000Y-53245000D02*
X168330000Y-53250000D01*
D28*
X164175000Y-49875000D02*
X162725328Y-48425328D01*
X162725328Y-48425328D02*
X161123000Y-48425328D01*
X164175000Y-51635000D02*
X164175000Y-49875000D01*
X165790000Y-53250000D02*
X164175000Y-51635000D01*
D27*
X161123000Y-48425328D02*
X161123000Y-50900328D01*
D28*
X169525000Y-51600000D02*
X167440000Y-51600000D01*
X167440000Y-51600000D02*
X165790000Y-53250000D01*
D27*
X172000000Y-51600000D02*
X169525000Y-51600000D01*
D31*
X188367000Y-53489140D02*
X192039140Y-53489140D01*
X192039140Y-53489140D02*
X193250000Y-54700000D01*
X193250000Y-54700000D02*
X193250000Y-65650000D01*
X193250000Y-65650000D02*
X191694860Y-67205140D01*
X191694860Y-67205140D02*
X188367000Y-67205140D01*
D32*
G36*
X157257562Y-47230924D02*
X157165000Y-47454390D01*
X157165000Y-48119328D01*
X157317000Y-48271328D01*
X158069000Y-48271328D01*
X158069000Y-48251328D01*
X158377000Y-48251328D01*
X158377000Y-48271328D01*
X159129000Y-48271328D01*
X159281000Y-48119328D01*
X159281000Y-47454390D01*
X159188438Y-47230924D01*
X159032514Y-47075000D01*
X182275619Y-47075000D01*
X182149479Y-47200920D01*
X181972202Y-47627850D01*
X181971834Y-48050000D01*
X173196632Y-48050000D01*
X173142340Y-47965628D01*
X173008671Y-47874296D01*
X172850000Y-47842164D01*
X171150000Y-47842164D01*
X171108356Y-47850000D01*
X170413695Y-47850000D01*
X170375000Y-47842164D01*
X168675000Y-47842164D01*
X168526769Y-47870056D01*
X168390628Y-47957660D01*
X168299296Y-48091329D01*
X168267164Y-48250000D01*
X168267164Y-49150000D01*
X168295056Y-49298231D01*
X168382660Y-49434372D01*
X168516329Y-49525704D01*
X168636305Y-49550000D01*
X167300000Y-49550000D01*
X167051256Y-49599478D01*
X166840381Y-49740380D01*
X166482836Y-50097925D01*
X166482836Y-50075000D01*
X166454944Y-49926769D01*
X166367340Y-49790628D01*
X166233671Y-49699296D01*
X166075000Y-49667164D01*
X165175000Y-49667164D01*
X165026769Y-49695056D01*
X164890628Y-49782660D01*
X164825000Y-49878710D01*
X164825000Y-49875000D01*
X164775522Y-49626256D01*
X164771163Y-49619732D01*
X164634620Y-49415381D01*
X163184947Y-47965709D01*
X162974073Y-47824806D01*
X162932804Y-47816597D01*
X162725328Y-47775328D01*
X161980836Y-47775328D01*
X161980836Y-47575328D01*
X161952944Y-47427097D01*
X161865340Y-47290956D01*
X161731671Y-47199624D01*
X161573000Y-47167492D01*
X160673000Y-47167492D01*
X160524769Y-47195384D01*
X160388628Y-47282988D01*
X160297296Y-47416657D01*
X160265164Y-47575328D01*
X160265164Y-49275328D01*
X160273000Y-49316972D01*
X160273000Y-50011633D01*
X160265164Y-50050328D01*
X160265164Y-51750328D01*
X160293056Y-51898559D01*
X160380660Y-52034700D01*
X160445614Y-52079081D01*
X160250780Y-52117836D01*
X159963186Y-52310000D01*
X158910613Y-52310000D01*
X159017405Y-52265765D01*
X159188438Y-52094732D01*
X159281000Y-51871266D01*
X159281000Y-51206328D01*
X159129000Y-51054328D01*
X158377000Y-51054328D01*
X158377000Y-51074328D01*
X158069000Y-51074328D01*
X158069000Y-51054328D01*
X157317000Y-51054328D01*
X157165000Y-51206328D01*
X157165000Y-51871266D01*
X157257562Y-52094732D01*
X157394724Y-52231894D01*
X156979867Y-52059630D01*
X156522142Y-52059231D01*
X156099106Y-52234025D01*
X155775163Y-52557403D01*
X155599630Y-52980133D01*
X155599231Y-53437858D01*
X155774025Y-53860894D01*
X156097403Y-54184837D01*
X156520133Y-54360370D01*
X156977858Y-54360769D01*
X157400894Y-54185975D01*
X157477002Y-54110000D01*
X159853429Y-54110000D01*
X159861472Y-54122037D01*
X160250780Y-54382164D01*
X160710000Y-54473509D01*
X161169220Y-54382164D01*
X161518739Y-54148623D01*
X161420672Y-54295390D01*
X161375000Y-54525000D01*
X161375000Y-59875334D01*
X161169220Y-59737836D01*
X160710000Y-59646491D01*
X160250780Y-59737836D01*
X159861472Y-59997963D01*
X159601345Y-60387271D01*
X159510000Y-60846491D01*
X159510000Y-60893509D01*
X159601345Y-61352729D01*
X159861472Y-61742037D01*
X160110000Y-61908098D01*
X160110000Y-63710000D01*
X160155672Y-63939610D01*
X160285736Y-64134264D01*
X162525736Y-66374264D01*
X162720389Y-66504328D01*
X162950000Y-66550000D01*
X163171194Y-66550000D01*
X163257660Y-66684372D01*
X163391329Y-66775704D01*
X163550000Y-66807836D01*
X163801559Y-66807836D01*
X163845672Y-67029610D01*
X163975736Y-67224264D01*
X164150736Y-67399264D01*
X164345389Y-67529328D01*
X164575000Y-67575000D01*
X170781277Y-67575000D01*
X170772164Y-67620000D01*
X170772164Y-68520000D01*
X170800056Y-68668231D01*
X170887660Y-68804372D01*
X171021329Y-68895704D01*
X171180000Y-68927836D01*
X172880000Y-68927836D01*
X173028231Y-68899944D01*
X173164372Y-68812340D01*
X173255704Y-68678671D01*
X173287836Y-68520000D01*
X173287836Y-67620000D01*
X173279369Y-67575000D01*
X173356277Y-67575000D01*
X173347164Y-67620000D01*
X173347164Y-68520000D01*
X173375056Y-68668231D01*
X173462660Y-68804372D01*
X173596329Y-68895704D01*
X173755000Y-68927836D01*
X175455000Y-68927836D01*
X175603231Y-68899944D01*
X175739372Y-68812340D01*
X175830704Y-68678671D01*
X175862836Y-68520000D01*
X175862836Y-67620000D01*
X175922164Y-67620000D01*
X175922164Y-68520000D01*
X175950056Y-68668231D01*
X176037660Y-68804372D01*
X176171329Y-68895704D01*
X176330000Y-68927836D01*
X178030000Y-68927836D01*
X178178231Y-68899944D01*
X178314372Y-68812340D01*
X178405704Y-68678671D01*
X178437836Y-68520000D01*
X178437836Y-67620000D01*
X178409944Y-67471769D01*
X178322340Y-67335628D01*
X178188671Y-67244296D01*
X178030000Y-67212164D01*
X176330000Y-67212164D01*
X176181769Y-67240056D01*
X176045628Y-67327660D01*
X175954296Y-67461329D01*
X175922164Y-67620000D01*
X175862836Y-67620000D01*
X175835593Y-67475217D01*
X175949264Y-67399264D01*
X176324264Y-67024264D01*
X176454328Y-66829610D01*
X176500000Y-66600000D01*
X176500000Y-66027836D01*
X178030000Y-66027836D01*
X178178231Y-65999944D01*
X178314372Y-65912340D01*
X178405704Y-65778671D01*
X178437836Y-65620000D01*
X178437836Y-64720000D01*
X178409944Y-64571769D01*
X178322340Y-64435628D01*
X178188671Y-64344296D01*
X178030000Y-64312164D01*
X177977353Y-64312164D01*
X177983646Y-64281090D01*
X177983646Y-63480990D01*
X177955754Y-63332759D01*
X177868150Y-63196618D01*
X177845240Y-63180965D01*
X177860182Y-63171350D01*
X177951514Y-63037681D01*
X177983646Y-62879010D01*
X177983646Y-62115016D01*
X180083455Y-64214826D01*
X180342993Y-64388244D01*
X180649140Y-64449140D01*
X184872871Y-64449140D01*
X185047403Y-64623977D01*
X185470133Y-64799510D01*
X185927858Y-64799909D01*
X186350894Y-64625115D01*
X186427002Y-64549140D01*
X190399787Y-64549140D01*
X190578236Y-64549296D01*
X190909143Y-64412568D01*
X191162538Y-64159615D01*
X191299843Y-63828946D01*
X191300156Y-63470904D01*
X191163428Y-63139997D01*
X190910475Y-62886602D01*
X190744416Y-62817649D01*
X190744415Y-62817648D01*
X190744414Y-62817648D01*
X190579806Y-62749297D01*
X190221764Y-62748984D01*
X190221386Y-62749140D01*
X186427303Y-62749140D01*
X186352597Y-62674303D01*
X185929867Y-62498770D01*
X185472142Y-62498371D01*
X185049106Y-62673165D01*
X184872824Y-62849140D01*
X183435702Y-62849140D01*
X183490437Y-62794405D01*
X183583000Y-62570939D01*
X183583000Y-62256000D01*
X183431000Y-62104000D01*
X182504000Y-62104000D01*
X182504000Y-62124000D01*
X182196000Y-62124000D01*
X182196000Y-62104000D01*
X181269000Y-62104000D01*
X181117000Y-62256000D01*
X181117000Y-62570939D01*
X181209563Y-62794405D01*
X181264298Y-62849140D01*
X180980511Y-62849140D01*
X179114370Y-60983000D01*
X179219000Y-60983000D01*
X179371000Y-60831000D01*
X179371000Y-60029000D01*
X179679000Y-60029000D01*
X179679000Y-60831000D01*
X179831000Y-60983000D01*
X180270938Y-60983000D01*
X180494404Y-60890438D01*
X180665437Y-60719405D01*
X180758000Y-60495939D01*
X180758000Y-60181000D01*
X180606000Y-60029000D01*
X179679000Y-60029000D01*
X179371000Y-60029000D01*
X178444000Y-60029000D01*
X178292000Y-60181000D01*
X178292000Y-60226557D01*
X178231147Y-60185896D01*
X178206533Y-60181000D01*
X177925000Y-60125000D01*
X171125690Y-60125000D01*
X170844157Y-60181000D01*
X170819543Y-60185896D01*
X170560004Y-60359315D01*
X169684877Y-61234443D01*
X169577565Y-61024000D01*
X168484000Y-61024000D01*
X168484000Y-62116523D01*
X168701042Y-62228231D01*
X169028056Y-62092791D01*
X169256553Y-61894365D01*
X169231780Y-62018910D01*
X169231780Y-62779968D01*
X169223894Y-62818910D01*
X169223894Y-63619010D01*
X169251786Y-63767241D01*
X169339390Y-63903382D01*
X169444207Y-63975000D01*
X168109842Y-63975000D01*
X168240437Y-63844405D01*
X168333000Y-63620939D01*
X168333000Y-63356000D01*
X168181000Y-63204000D01*
X167029000Y-63204000D01*
X167029000Y-63224000D01*
X166721000Y-63224000D01*
X166721000Y-63204000D01*
X164554000Y-63204000D01*
X164554000Y-63224000D01*
X164246000Y-63224000D01*
X164246000Y-63204000D01*
X163094000Y-63204000D01*
X163035764Y-63262236D01*
X162575000Y-62801472D01*
X162575000Y-61857985D01*
X162790780Y-62002164D01*
X163205501Y-62084657D01*
X163034563Y-62255595D01*
X162942000Y-62479061D01*
X162942000Y-62744000D01*
X163094000Y-62896000D01*
X164246000Y-62896000D01*
X164246000Y-62144000D01*
X164094000Y-61992000D01*
X163724432Y-61992000D01*
X164098528Y-61742037D01*
X164358655Y-61352729D01*
X164450000Y-60893509D01*
X164450000Y-60846491D01*
X164358655Y-60387271D01*
X164099114Y-59998840D01*
X164278151Y-60073000D01*
X164543090Y-60073000D01*
X164695090Y-59921000D01*
X164695090Y-58769000D01*
X164675090Y-58769000D01*
X164675090Y-58461000D01*
X164695090Y-58461000D01*
X164695090Y-56294000D01*
X165003090Y-56294000D01*
X165003090Y-58461000D01*
X165755090Y-58461000D01*
X165907090Y-58309000D01*
X165907090Y-57644062D01*
X165814528Y-57420596D01*
X165771432Y-57377500D01*
X165814528Y-57334404D01*
X165907090Y-57110938D01*
X165907090Y-56446000D01*
X165755090Y-56294000D01*
X165003090Y-56294000D01*
X164695090Y-56294000D01*
X164675090Y-56294000D01*
X164675090Y-55986000D01*
X164695090Y-55986000D01*
X164695090Y-55966000D01*
X165003090Y-55966000D01*
X165003090Y-55986000D01*
X165755090Y-55986000D01*
X165907090Y-55834000D01*
X165907090Y-55225000D01*
X166904417Y-55225000D01*
X166891254Y-55290000D01*
X166891254Y-56990000D01*
X166899090Y-57031644D01*
X166899090Y-57726305D01*
X166891254Y-57765000D01*
X166891254Y-58953597D01*
X166130609Y-59714243D01*
X165875005Y-59663400D01*
X165907090Y-59585938D01*
X165907090Y-58921000D01*
X165755090Y-58769000D01*
X165003090Y-58769000D01*
X165003090Y-59921000D01*
X165024545Y-59942455D01*
X164941472Y-59997963D01*
X164681345Y-60387271D01*
X164590000Y-60846491D01*
X164590000Y-60893509D01*
X164681345Y-61352729D01*
X164941472Y-61742037D01*
X165315568Y-61992000D01*
X164706000Y-61992000D01*
X164554000Y-62144000D01*
X164554000Y-62896000D01*
X166721000Y-62896000D01*
X166721000Y-62144000D01*
X166569000Y-61992000D01*
X166264432Y-61992000D01*
X166638528Y-61742037D01*
X166898655Y-61352729D01*
X166964043Y-61024002D01*
X167082434Y-61024002D01*
X166971757Y-61241044D01*
X167217139Y-61732577D01*
X167515878Y-61992000D01*
X167181000Y-61992000D01*
X167029000Y-62144000D01*
X167029000Y-62896000D01*
X168181000Y-62896000D01*
X168333000Y-62744000D01*
X168333000Y-62479061D01*
X168240437Y-62255595D01*
X168126726Y-62141884D01*
X168176000Y-62116523D01*
X168176000Y-61024000D01*
X168156000Y-61024000D01*
X168156000Y-60716000D01*
X168176000Y-60716000D01*
X168176000Y-60696000D01*
X168484000Y-60696000D01*
X168484000Y-60716000D01*
X169577565Y-60716000D01*
X169688243Y-60498956D01*
X169442861Y-60007423D01*
X169287877Y-59872836D01*
X169764090Y-59872836D01*
X169912321Y-59844944D01*
X170048462Y-59757340D01*
X170139794Y-59623671D01*
X170171926Y-59465000D01*
X170171926Y-57765000D01*
X170164090Y-57723356D01*
X170164090Y-57028695D01*
X170171926Y-56990000D01*
X170171926Y-55290000D01*
X170144034Y-55141769D01*
X170056430Y-55005628D01*
X169922761Y-54914296D01*
X169764090Y-54882164D01*
X168864090Y-54882164D01*
X168715859Y-54910056D01*
X168579718Y-54997660D01*
X168531610Y-55068069D01*
X168491430Y-55005628D01*
X168357761Y-54914296D01*
X168199090Y-54882164D01*
X167617074Y-54882164D01*
X168076211Y-54423027D01*
X168330000Y-54473509D01*
X168628992Y-54414036D01*
X168710186Y-54430186D01*
X173171338Y-54430186D01*
X173171338Y-54480186D01*
X173179174Y-54521830D01*
X173179174Y-55216491D01*
X173171338Y-55255186D01*
X173171338Y-56955186D01*
X173193883Y-57075000D01*
X173064090Y-57075000D01*
X173064090Y-57028695D01*
X173071926Y-56990000D01*
X173071926Y-55290000D01*
X173044034Y-55141769D01*
X172956430Y-55005628D01*
X172822761Y-54914296D01*
X172664090Y-54882164D01*
X171764090Y-54882164D01*
X171615859Y-54910056D01*
X171479718Y-54997660D01*
X171388386Y-55131329D01*
X171356254Y-55290000D01*
X171356254Y-56990000D01*
X171364090Y-57031644D01*
X171364090Y-57726305D01*
X171356254Y-57765000D01*
X171356254Y-59465000D01*
X171384146Y-59613231D01*
X171471750Y-59749372D01*
X171605419Y-59840704D01*
X171764090Y-59872836D01*
X172664090Y-59872836D01*
X172812321Y-59844944D01*
X172948462Y-59757340D01*
X173039794Y-59623671D01*
X173071926Y-59465000D01*
X173071926Y-58888534D01*
X173285460Y-58675000D01*
X178630532Y-58675000D01*
X178741329Y-58750704D01*
X178821800Y-58767000D01*
X178779062Y-58767000D01*
X178555596Y-58859562D01*
X178384563Y-59030595D01*
X178292000Y-59254061D01*
X178292000Y-59569000D01*
X178444000Y-59721000D01*
X179371000Y-59721000D01*
X179371000Y-59701000D01*
X179679000Y-59701000D01*
X179679000Y-59721000D01*
X180606000Y-59721000D01*
X180758000Y-59569000D01*
X180758000Y-59254061D01*
X180665437Y-59030595D01*
X180644139Y-59009297D01*
X180741329Y-59075704D01*
X180900000Y-59107836D01*
X181301466Y-59107836D01*
X181404364Y-59210734D01*
X181349296Y-59291329D01*
X181317164Y-59450000D01*
X181317164Y-60450000D01*
X181345056Y-60598231D01*
X181432660Y-60734372D01*
X181566329Y-60825704D01*
X181646800Y-60842000D01*
X181604062Y-60842000D01*
X181380596Y-60934562D01*
X181209563Y-61105595D01*
X181117000Y-61329061D01*
X181117000Y-61644000D01*
X181269000Y-61796000D01*
X182196000Y-61796000D01*
X182196000Y-61776000D01*
X182504000Y-61776000D01*
X182504000Y-61796000D01*
X183431000Y-61796000D01*
X183583000Y-61644000D01*
X183583000Y-61329061D01*
X183490437Y-61105595D01*
X183319404Y-60934562D01*
X183095938Y-60842000D01*
X183059160Y-60842000D01*
X183123231Y-60829944D01*
X183259372Y-60742340D01*
X183350704Y-60608671D01*
X183382836Y-60450000D01*
X183382836Y-59450000D01*
X183354944Y-59301769D01*
X183267340Y-59165628D01*
X183246000Y-59151047D01*
X183246000Y-58229000D01*
X183554000Y-58229000D01*
X183554000Y-59156000D01*
X183706000Y-59308000D01*
X184020939Y-59308000D01*
X184028186Y-59304998D01*
X184549231Y-59304998D01*
X184724025Y-59728034D01*
X185047403Y-60051977D01*
X185146255Y-60093024D01*
X185049106Y-60133165D01*
X184725163Y-60456543D01*
X184549630Y-60879273D01*
X184549231Y-61336998D01*
X184724025Y-61760034D01*
X185047403Y-62083977D01*
X185470133Y-62259510D01*
X185927858Y-62259909D01*
X186350894Y-62085115D01*
X186674837Y-61761737D01*
X186850370Y-61339007D01*
X186850769Y-60881282D01*
X186675975Y-60458246D01*
X186352597Y-60134303D01*
X186253745Y-60093256D01*
X186350894Y-60053115D01*
X186674837Y-59729737D01*
X186850370Y-59307007D01*
X186850769Y-58849282D01*
X186675975Y-58426246D01*
X186352597Y-58102303D01*
X185929867Y-57926770D01*
X185472142Y-57926371D01*
X185049106Y-58101165D01*
X184725163Y-58424543D01*
X184549630Y-58847273D01*
X184549231Y-59304998D01*
X184028186Y-59304998D01*
X184244405Y-59215437D01*
X184415438Y-59044404D01*
X184508000Y-58820938D01*
X184508000Y-58381000D01*
X184356000Y-58229000D01*
X183554000Y-58229000D01*
X183246000Y-58229000D01*
X183226000Y-58229000D01*
X183226000Y-57921000D01*
X183246000Y-57921000D01*
X183246000Y-56994000D01*
X183554000Y-56994000D01*
X183554000Y-57921000D01*
X184356000Y-57921000D01*
X184508000Y-57769000D01*
X184508000Y-57511202D01*
X184943727Y-57511202D01*
X185015444Y-57741351D01*
X185528384Y-57911654D01*
X186067452Y-57872700D01*
X186384556Y-57741351D01*
X186456273Y-57511202D01*
X185700000Y-56754929D01*
X184943727Y-57511202D01*
X184508000Y-57511202D01*
X184508000Y-57329062D01*
X184415438Y-57105596D01*
X184244405Y-56934563D01*
X184020939Y-56842000D01*
X183706000Y-56842000D01*
X183554000Y-56994000D01*
X183246000Y-56994000D01*
X183094000Y-56842000D01*
X182779061Y-56842000D01*
X182555595Y-56934563D01*
X182384562Y-57105596D01*
X182292000Y-57329062D01*
X182292000Y-57365840D01*
X182279944Y-57301769D01*
X182192340Y-57165628D01*
X182058671Y-57074296D01*
X181900000Y-57042164D01*
X180900000Y-57042164D01*
X180751769Y-57070056D01*
X180744086Y-57075000D01*
X180419468Y-57075000D01*
X180308671Y-56999296D01*
X180150000Y-56967164D01*
X179748535Y-56967164D01*
X179250000Y-56468630D01*
X179250000Y-56273555D01*
X179380720Y-56143063D01*
X179548309Y-55739464D01*
X179548657Y-55340582D01*
X179914239Y-54975000D01*
X180351647Y-54975000D01*
X180464310Y-55087860D01*
X180795118Y-55225223D01*
X181153311Y-55225535D01*
X181479455Y-55090776D01*
X181344777Y-55415118D01*
X181344465Y-55773311D01*
X181481250Y-56104358D01*
X181734310Y-56357860D01*
X182065118Y-56495223D01*
X182423311Y-56495535D01*
X182737963Y-56365524D01*
X184325486Y-56365524D01*
X184364440Y-56904592D01*
X184495789Y-57221696D01*
X184725938Y-57293413D01*
X185482211Y-56537140D01*
X185917789Y-56537140D01*
X186674062Y-57293413D01*
X186904211Y-57221696D01*
X187074514Y-56708756D01*
X187035560Y-56169688D01*
X186904211Y-55852584D01*
X186674062Y-55780867D01*
X185917789Y-56537140D01*
X185482211Y-56537140D01*
X184725938Y-55780867D01*
X184495789Y-55852584D01*
X184325486Y-56365524D01*
X182737963Y-56365524D01*
X182754358Y-56358750D01*
X183007860Y-56105690D01*
X183145223Y-55774882D01*
X183145363Y-55613875D01*
X183196160Y-55563078D01*
X184943727Y-55563078D01*
X185700000Y-56319351D01*
X186456273Y-55563078D01*
X186384556Y-55332929D01*
X185871616Y-55162626D01*
X185332548Y-55201580D01*
X185015444Y-55332929D01*
X184943727Y-55563078D01*
X183196160Y-55563078D01*
X184893848Y-53865390D01*
X186466801Y-53865390D01*
X186755429Y-54563924D01*
X187289405Y-55098833D01*
X187987434Y-55388680D01*
X188743250Y-55389339D01*
X189441784Y-55100711D01*
X189976693Y-54566735D01*
X190050437Y-54389140D01*
X191666348Y-54389140D01*
X192350000Y-55072792D01*
X192350000Y-65277208D01*
X191322068Y-66305140D01*
X190050790Y-66305140D01*
X189978571Y-66130356D01*
X189444595Y-65595447D01*
X188746566Y-65305600D01*
X187990750Y-65304941D01*
X187292216Y-65593569D01*
X186757307Y-66127545D01*
X186467460Y-66825574D01*
X186466801Y-67581390D01*
X186755429Y-68279924D01*
X187289405Y-68814833D01*
X187987434Y-69104680D01*
X188743250Y-69105339D01*
X189441784Y-68816711D01*
X189976693Y-68282735D01*
X190050437Y-68105140D01*
X191694860Y-68105140D01*
X192039275Y-68036632D01*
X192331256Y-67841536D01*
X193886396Y-66286396D01*
X194081492Y-65994416D01*
X194150000Y-65650000D01*
X194150000Y-54700000D01*
X194081492Y-54355585D01*
X193886396Y-54063604D01*
X192675536Y-52852744D01*
X192383555Y-52657648D01*
X192039140Y-52589140D01*
X190050790Y-52589140D01*
X189978571Y-52414356D01*
X189444595Y-51879447D01*
X188746566Y-51589600D01*
X187990750Y-51588941D01*
X187292216Y-51877569D01*
X186757307Y-52411545D01*
X186467460Y-53109574D01*
X186466801Y-53865390D01*
X184893848Y-53865390D01*
X187709239Y-51050000D01*
X189511289Y-51050000D01*
X189514330Y-51057360D01*
X189840920Y-51384521D01*
X190267850Y-51561798D01*
X190730122Y-51562201D01*
X191157360Y-51385670D01*
X191484521Y-51059080D01*
X191661798Y-50632150D01*
X191662201Y-50169878D01*
X191485670Y-49742640D01*
X191159080Y-49415479D01*
X190732150Y-49238202D01*
X190269878Y-49237799D01*
X189842640Y-49414330D01*
X189515479Y-49740920D01*
X189511709Y-49750000D01*
X187440000Y-49750000D01*
X187191256Y-49799478D01*
X187191254Y-49799479D01*
X187191255Y-49799479D01*
X186980380Y-49940381D01*
X182226158Y-54694604D01*
X182066689Y-54694465D01*
X181740545Y-54829224D01*
X181875223Y-54504882D01*
X181875535Y-54146689D01*
X181854009Y-54094592D01*
X182133392Y-54179570D01*
X182572241Y-54136678D01*
X182778468Y-54051256D01*
X182819096Y-53846885D01*
X182245000Y-53272789D01*
X182230858Y-53286931D01*
X182013069Y-53069142D01*
X182027211Y-53055000D01*
X182462789Y-53055000D01*
X183036885Y-53629096D01*
X183241256Y-53588468D01*
X183369570Y-53166608D01*
X183326678Y-52727759D01*
X183241256Y-52521532D01*
X183036885Y-52480904D01*
X182462789Y-53055000D01*
X182027211Y-53055000D01*
X182013069Y-53040858D01*
X182230858Y-52823069D01*
X182245000Y-52837211D01*
X182819096Y-52263115D01*
X182778468Y-52058744D01*
X182356608Y-51930430D01*
X182142923Y-51951315D01*
X182487935Y-51606303D01*
X182516329Y-51625704D01*
X182675000Y-51657836D01*
X183575000Y-51657836D01*
X183723231Y-51629944D01*
X183859372Y-51542340D01*
X183950704Y-51408671D01*
X183982836Y-51250000D01*
X183982836Y-49550000D01*
X183975000Y-49508356D01*
X183975000Y-48842368D01*
X194815421Y-48842368D01*
X194888551Y-49073698D01*
X195405647Y-49245917D01*
X195949287Y-49207142D01*
X196271449Y-49073698D01*
X196344579Y-48842368D01*
X195580000Y-48077789D01*
X194815421Y-48842368D01*
X183975000Y-48842368D01*
X183975000Y-48662351D01*
X184118521Y-48519080D01*
X184295798Y-48092150D01*
X184296201Y-47629878D01*
X184119670Y-47202640D01*
X183992253Y-47075000D01*
X194577208Y-47075000D01*
X194597630Y-47095422D01*
X194366302Y-47168551D01*
X194194083Y-47685647D01*
X194232858Y-48229287D01*
X194366302Y-48551449D01*
X194597632Y-48624579D01*
X195362211Y-47860000D01*
X195348069Y-47845858D01*
X195565858Y-47628069D01*
X195580000Y-47642211D01*
X195594142Y-47628069D01*
X195811931Y-47845858D01*
X195797789Y-47860000D01*
X196562368Y-48624579D01*
X196793698Y-48551449D01*
X196965917Y-48034353D01*
X196927142Y-47490713D01*
X196793698Y-47168551D01*
X196562370Y-47095422D01*
X196582792Y-47075000D01*
X198650000Y-47075000D01*
X198650000Y-70350000D01*
X160078255Y-70350000D01*
X160268170Y-70065772D01*
X160350000Y-69654387D01*
X160350000Y-68745613D01*
X160268170Y-68334228D01*
X160035140Y-67985473D01*
X159686385Y-67752443D01*
X159275000Y-67670613D01*
X158863615Y-67752443D01*
X158514860Y-67985473D01*
X158281830Y-68334228D01*
X158200000Y-68745613D01*
X158200000Y-69654387D01*
X158281830Y-70065772D01*
X158471745Y-70350000D01*
X154578255Y-70350000D01*
X154768170Y-70065772D01*
X154850000Y-69654387D01*
X154850000Y-68745613D01*
X154768170Y-68334228D01*
X154535140Y-67985473D01*
X154186385Y-67752443D01*
X153775000Y-67670613D01*
X153363615Y-67752443D01*
X153014860Y-67985473D01*
X152781830Y-68334228D01*
X152700000Y-68745613D01*
X152700000Y-69654387D01*
X152781830Y-70065772D01*
X152971745Y-70350000D01*
X151150000Y-70350000D01*
X151150000Y-66477470D01*
X152874100Y-66477470D01*
X152874100Y-66522530D01*
X152961639Y-66962616D01*
X153210927Y-67335703D01*
X153584014Y-67584991D01*
X154024100Y-67672530D01*
X154464186Y-67584991D01*
X154837273Y-67335703D01*
X155086561Y-66962616D01*
X155174100Y-66522530D01*
X155174100Y-66477470D01*
X157874100Y-66477470D01*
X157874100Y-66522530D01*
X157961639Y-66962616D01*
X158210927Y-67335703D01*
X158584014Y-67584991D01*
X159024100Y-67672530D01*
X159464186Y-67584991D01*
X159837273Y-67335703D01*
X160086561Y-66962616D01*
X160174100Y-66522530D01*
X160174100Y-66477470D01*
X160086561Y-66037384D01*
X159837273Y-65664297D01*
X159464186Y-65415009D01*
X159024100Y-65327470D01*
X158584014Y-65415009D01*
X158210927Y-65664297D01*
X157961639Y-66037384D01*
X157874100Y-66477470D01*
X155174100Y-66477470D01*
X155086561Y-66037384D01*
X154837273Y-65664297D01*
X154464186Y-65415009D01*
X154024100Y-65327470D01*
X153584014Y-65415009D01*
X153210927Y-65664297D01*
X152961639Y-66037384D01*
X152874100Y-66477470D01*
X151150000Y-66477470D01*
X151150000Y-63746250D01*
X152182801Y-63746250D01*
X152471429Y-64444784D01*
X153005405Y-64979693D01*
X153703434Y-65269540D01*
X154459250Y-65270199D01*
X155157784Y-64981571D01*
X155692693Y-64447595D01*
X155982540Y-63749566D01*
X155983199Y-62993750D01*
X155694571Y-62295216D01*
X155160595Y-61760307D01*
X154462566Y-61470460D01*
X153706750Y-61469801D01*
X153008216Y-61758429D01*
X152473307Y-62292405D01*
X152183460Y-62990434D01*
X152182801Y-63746250D01*
X151150000Y-63746250D01*
X151150000Y-61296062D01*
X155993727Y-61296062D01*
X156065444Y-61526211D01*
X156578384Y-61696514D01*
X157117452Y-61657560D01*
X157434556Y-61526211D01*
X157506273Y-61296062D01*
X156750000Y-60539789D01*
X155993727Y-61296062D01*
X151150000Y-61296062D01*
X151150000Y-60150384D01*
X155375486Y-60150384D01*
X155414440Y-60689452D01*
X155545789Y-61006556D01*
X155775938Y-61078273D01*
X156532211Y-60322000D01*
X156967789Y-60322000D01*
X157724062Y-61078273D01*
X157954211Y-61006556D01*
X158124514Y-60493616D01*
X158085560Y-59954548D01*
X157954211Y-59637444D01*
X157724062Y-59565727D01*
X156967789Y-60322000D01*
X156532211Y-60322000D01*
X155775938Y-59565727D01*
X155545789Y-59637444D01*
X155375486Y-60150384D01*
X151150000Y-60150384D01*
X151150000Y-59347938D01*
X155993727Y-59347938D01*
X156750000Y-60104211D01*
X157506273Y-59347938D01*
X157434556Y-59117789D01*
X156921616Y-58947486D01*
X156382548Y-58986440D01*
X156065444Y-59117789D01*
X155993727Y-59347938D01*
X151150000Y-59347938D01*
X151150000Y-55977858D01*
X155599231Y-55977858D01*
X155774025Y-56400894D01*
X156097403Y-56724837D01*
X156196255Y-56765884D01*
X156099106Y-56806025D01*
X155775163Y-57129403D01*
X155599630Y-57552133D01*
X155599231Y-58009858D01*
X155774025Y-58432894D01*
X156097403Y-58756837D01*
X156520133Y-58932370D01*
X156977858Y-58932769D01*
X157400894Y-58757975D01*
X157724837Y-58434597D01*
X157900370Y-58011867D01*
X157900769Y-57554142D01*
X157725975Y-57131106D01*
X157402597Y-56807163D01*
X157303745Y-56766116D01*
X157400894Y-56725975D01*
X157724837Y-56402597D01*
X157900370Y-55979867D01*
X157900769Y-55522142D01*
X157725975Y-55099106D01*
X157402597Y-54775163D01*
X156979867Y-54599630D01*
X156522142Y-54599231D01*
X156099106Y-54774025D01*
X155775163Y-55097403D01*
X155599630Y-55520133D01*
X155599231Y-55977858D01*
X151150000Y-55977858D01*
X151150000Y-50030250D01*
X152182801Y-50030250D01*
X152471429Y-50728784D01*
X153005405Y-51263693D01*
X153703434Y-51553540D01*
X154459250Y-51554199D01*
X155157784Y-51265571D01*
X155692693Y-50731595D01*
X155982540Y-50033566D01*
X155983199Y-49277750D01*
X155757423Y-48731328D01*
X157165000Y-48731328D01*
X157165000Y-49396266D01*
X157257562Y-49619732D01*
X157300658Y-49662828D01*
X157257562Y-49705924D01*
X157165000Y-49929390D01*
X157165000Y-50594328D01*
X157317000Y-50746328D01*
X158069000Y-50746328D01*
X158069000Y-48579328D01*
X158377000Y-48579328D01*
X158377000Y-50746328D01*
X159129000Y-50746328D01*
X159281000Y-50594328D01*
X159281000Y-49929390D01*
X159188438Y-49705924D01*
X159145342Y-49662828D01*
X159188438Y-49619732D01*
X159281000Y-49396266D01*
X159281000Y-48731328D01*
X159129000Y-48579328D01*
X158377000Y-48579328D01*
X158069000Y-48579328D01*
X157317000Y-48579328D01*
X157165000Y-48731328D01*
X155757423Y-48731328D01*
X155694571Y-48579216D01*
X155160595Y-48044307D01*
X154462566Y-47754460D01*
X153706750Y-47753801D01*
X153008216Y-48042429D01*
X152473307Y-48576405D01*
X152183460Y-49274434D01*
X152182801Y-50030250D01*
X151150000Y-50030250D01*
X151150000Y-47075000D01*
X157413486Y-47075000D01*
X157257562Y-47230924D01*
X157257562Y-47230924D01*
G37*
X157257562Y-47230924D02*
X157165000Y-47454390D01*
X157165000Y-48119328D01*
X157317000Y-48271328D01*
X158069000Y-48271328D01*
X158069000Y-48251328D01*
X158377000Y-48251328D01*
X158377000Y-48271328D01*
X159129000Y-48271328D01*
X159281000Y-48119328D01*
X159281000Y-47454390D01*
X159188438Y-47230924D01*
X159032514Y-47075000D01*
X182275619Y-47075000D01*
X182149479Y-47200920D01*
X181972202Y-47627850D01*
X181971834Y-48050000D01*
X173196632Y-48050000D01*
X173142340Y-47965628D01*
X173008671Y-47874296D01*
X172850000Y-47842164D01*
X171150000Y-47842164D01*
X171108356Y-47850000D01*
X170413695Y-47850000D01*
X170375000Y-47842164D01*
X168675000Y-47842164D01*
X168526769Y-47870056D01*
X168390628Y-47957660D01*
X168299296Y-48091329D01*
X168267164Y-48250000D01*
X168267164Y-49150000D01*
X168295056Y-49298231D01*
X168382660Y-49434372D01*
X168516329Y-49525704D01*
X168636305Y-49550000D01*
X167300000Y-49550000D01*
X167051256Y-49599478D01*
X166840381Y-49740380D01*
X166482836Y-50097925D01*
X166482836Y-50075000D01*
X166454944Y-49926769D01*
X166367340Y-49790628D01*
X166233671Y-49699296D01*
X166075000Y-49667164D01*
X165175000Y-49667164D01*
X165026769Y-49695056D01*
X164890628Y-49782660D01*
X164825000Y-49878710D01*
X164825000Y-49875000D01*
X164775522Y-49626256D01*
X164771163Y-49619732D01*
X164634620Y-49415381D01*
X163184947Y-47965709D01*
X162974073Y-47824806D01*
X162932804Y-47816597D01*
X162725328Y-47775328D01*
X161980836Y-47775328D01*
X161980836Y-47575328D01*
X161952944Y-47427097D01*
X161865340Y-47290956D01*
X161731671Y-47199624D01*
X161573000Y-47167492D01*
X160673000Y-47167492D01*
X160524769Y-47195384D01*
X160388628Y-47282988D01*
X160297296Y-47416657D01*
X160265164Y-47575328D01*
X160265164Y-49275328D01*
X160273000Y-49316972D01*
X160273000Y-50011633D01*
X160265164Y-50050328D01*
X160265164Y-51750328D01*
X160293056Y-51898559D01*
X160380660Y-52034700D01*
X160445614Y-52079081D01*
X160250780Y-52117836D01*
X159963186Y-52310000D01*
X158910613Y-52310000D01*
X159017405Y-52265765D01*
X159188438Y-52094732D01*
X159281000Y-51871266D01*
X159281000Y-51206328D01*
X159129000Y-51054328D01*
X158377000Y-51054328D01*
X158377000Y-51074328D01*
X158069000Y-51074328D01*
X158069000Y-51054328D01*
X157317000Y-51054328D01*
X157165000Y-51206328D01*
X157165000Y-51871266D01*
X157257562Y-52094732D01*
X157394724Y-52231894D01*
X156979867Y-52059630D01*
X156522142Y-52059231D01*
X156099106Y-52234025D01*
X155775163Y-52557403D01*
X155599630Y-52980133D01*
X155599231Y-53437858D01*
X155774025Y-53860894D01*
X156097403Y-54184837D01*
X156520133Y-54360370D01*
X156977858Y-54360769D01*
X157400894Y-54185975D01*
X157477002Y-54110000D01*
X159853429Y-54110000D01*
X159861472Y-54122037D01*
X160250780Y-54382164D01*
X160710000Y-54473509D01*
X161169220Y-54382164D01*
X161518739Y-54148623D01*
X161420672Y-54295390D01*
X161375000Y-54525000D01*
X161375000Y-59875334D01*
X161169220Y-59737836D01*
X160710000Y-59646491D01*
X160250780Y-59737836D01*
X159861472Y-59997963D01*
X159601345Y-60387271D01*
X159510000Y-60846491D01*
X159510000Y-60893509D01*
X159601345Y-61352729D01*
X159861472Y-61742037D01*
X160110000Y-61908098D01*
X160110000Y-63710000D01*
X160155672Y-63939610D01*
X160285736Y-64134264D01*
X162525736Y-66374264D01*
X162720389Y-66504328D01*
X162950000Y-66550000D01*
X163171194Y-66550000D01*
X163257660Y-66684372D01*
X163391329Y-66775704D01*
X163550000Y-66807836D01*
X163801559Y-66807836D01*
X163845672Y-67029610D01*
X163975736Y-67224264D01*
X164150736Y-67399264D01*
X164345389Y-67529328D01*
X164575000Y-67575000D01*
X170781277Y-67575000D01*
X170772164Y-67620000D01*
X170772164Y-68520000D01*
X170800056Y-68668231D01*
X170887660Y-68804372D01*
X171021329Y-68895704D01*
X171180000Y-68927836D01*
X172880000Y-68927836D01*
X173028231Y-68899944D01*
X173164372Y-68812340D01*
X173255704Y-68678671D01*
X173287836Y-68520000D01*
X173287836Y-67620000D01*
X173279369Y-67575000D01*
X173356277Y-67575000D01*
X173347164Y-67620000D01*
X173347164Y-68520000D01*
X173375056Y-68668231D01*
X173462660Y-68804372D01*
X173596329Y-68895704D01*
X173755000Y-68927836D01*
X175455000Y-68927836D01*
X175603231Y-68899944D01*
X175739372Y-68812340D01*
X175830704Y-68678671D01*
X175862836Y-68520000D01*
X175862836Y-67620000D01*
X175922164Y-67620000D01*
X175922164Y-68520000D01*
X175950056Y-68668231D01*
X176037660Y-68804372D01*
X176171329Y-68895704D01*
X176330000Y-68927836D01*
X178030000Y-68927836D01*
X178178231Y-68899944D01*
X178314372Y-68812340D01*
X178405704Y-68678671D01*
X178437836Y-68520000D01*
X178437836Y-67620000D01*
X178409944Y-67471769D01*
X178322340Y-67335628D01*
X178188671Y-67244296D01*
X178030000Y-67212164D01*
X176330000Y-67212164D01*
X176181769Y-67240056D01*
X176045628Y-67327660D01*
X175954296Y-67461329D01*
X175922164Y-67620000D01*
X175862836Y-67620000D01*
X175835593Y-67475217D01*
X175949264Y-67399264D01*
X176324264Y-67024264D01*
X176454328Y-66829610D01*
X176500000Y-66600000D01*
X176500000Y-66027836D01*
X178030000Y-66027836D01*
X178178231Y-65999944D01*
X178314372Y-65912340D01*
X178405704Y-65778671D01*
X178437836Y-65620000D01*
X178437836Y-64720000D01*
X178409944Y-64571769D01*
X178322340Y-64435628D01*
X178188671Y-64344296D01*
X178030000Y-64312164D01*
X177977353Y-64312164D01*
X177983646Y-64281090D01*
X177983646Y-63480990D01*
X177955754Y-63332759D01*
X177868150Y-63196618D01*
X177845240Y-63180965D01*
X177860182Y-63171350D01*
X177951514Y-63037681D01*
X177983646Y-62879010D01*
X177983646Y-62115016D01*
X180083455Y-64214826D01*
X180342993Y-64388244D01*
X180649140Y-64449140D01*
X184872871Y-64449140D01*
X185047403Y-64623977D01*
X185470133Y-64799510D01*
X185927858Y-64799909D01*
X186350894Y-64625115D01*
X186427002Y-64549140D01*
X190399787Y-64549140D01*
X190578236Y-64549296D01*
X190909143Y-64412568D01*
X191162538Y-64159615D01*
X191299843Y-63828946D01*
X191300156Y-63470904D01*
X191163428Y-63139997D01*
X190910475Y-62886602D01*
X190744416Y-62817649D01*
X190744415Y-62817648D01*
X190744414Y-62817648D01*
X190579806Y-62749297D01*
X190221764Y-62748984D01*
X190221386Y-62749140D01*
X186427303Y-62749140D01*
X186352597Y-62674303D01*
X185929867Y-62498770D01*
X185472142Y-62498371D01*
X185049106Y-62673165D01*
X184872824Y-62849140D01*
X183435702Y-62849140D01*
X183490437Y-62794405D01*
X183583000Y-62570939D01*
X183583000Y-62256000D01*
X183431000Y-62104000D01*
X182504000Y-62104000D01*
X182504000Y-62124000D01*
X182196000Y-62124000D01*
X182196000Y-62104000D01*
X181269000Y-62104000D01*
X181117000Y-62256000D01*
X181117000Y-62570939D01*
X181209563Y-62794405D01*
X181264298Y-62849140D01*
X180980511Y-62849140D01*
X179114370Y-60983000D01*
X179219000Y-60983000D01*
X179371000Y-60831000D01*
X179371000Y-60029000D01*
X179679000Y-60029000D01*
X179679000Y-60831000D01*
X179831000Y-60983000D01*
X180270938Y-60983000D01*
X180494404Y-60890438D01*
X180665437Y-60719405D01*
X180758000Y-60495939D01*
X180758000Y-60181000D01*
X180606000Y-60029000D01*
X179679000Y-60029000D01*
X179371000Y-60029000D01*
X178444000Y-60029000D01*
X178292000Y-60181000D01*
X178292000Y-60226557D01*
X178231147Y-60185896D01*
X178206533Y-60181000D01*
X177925000Y-60125000D01*
X171125690Y-60125000D01*
X170844157Y-60181000D01*
X170819543Y-60185896D01*
X170560004Y-60359315D01*
X169684877Y-61234443D01*
X169577565Y-61024000D01*
X168484000Y-61024000D01*
X168484000Y-62116523D01*
X168701042Y-62228231D01*
X169028056Y-62092791D01*
X169256553Y-61894365D01*
X169231780Y-62018910D01*
X169231780Y-62779968D01*
X169223894Y-62818910D01*
X169223894Y-63619010D01*
X169251786Y-63767241D01*
X169339390Y-63903382D01*
X169444207Y-63975000D01*
X168109842Y-63975000D01*
X168240437Y-63844405D01*
X168333000Y-63620939D01*
X168333000Y-63356000D01*
X168181000Y-63204000D01*
X167029000Y-63204000D01*
X167029000Y-63224000D01*
X166721000Y-63224000D01*
X166721000Y-63204000D01*
X164554000Y-63204000D01*
X164554000Y-63224000D01*
X164246000Y-63224000D01*
X164246000Y-63204000D01*
X163094000Y-63204000D01*
X163035764Y-63262236D01*
X162575000Y-62801472D01*
X162575000Y-61857985D01*
X162790780Y-62002164D01*
X163205501Y-62084657D01*
X163034563Y-62255595D01*
X162942000Y-62479061D01*
X162942000Y-62744000D01*
X163094000Y-62896000D01*
X164246000Y-62896000D01*
X164246000Y-62144000D01*
X164094000Y-61992000D01*
X163724432Y-61992000D01*
X164098528Y-61742037D01*
X164358655Y-61352729D01*
X164450000Y-60893509D01*
X164450000Y-60846491D01*
X164358655Y-60387271D01*
X164099114Y-59998840D01*
X164278151Y-60073000D01*
X164543090Y-60073000D01*
X164695090Y-59921000D01*
X164695090Y-58769000D01*
X164675090Y-58769000D01*
X164675090Y-58461000D01*
X164695090Y-58461000D01*
X164695090Y-56294000D01*
X165003090Y-56294000D01*
X165003090Y-58461000D01*
X165755090Y-58461000D01*
X165907090Y-58309000D01*
X165907090Y-57644062D01*
X165814528Y-57420596D01*
X165771432Y-57377500D01*
X165814528Y-57334404D01*
X165907090Y-57110938D01*
X165907090Y-56446000D01*
X165755090Y-56294000D01*
X165003090Y-56294000D01*
X164695090Y-56294000D01*
X164675090Y-56294000D01*
X164675090Y-55986000D01*
X164695090Y-55986000D01*
X164695090Y-55966000D01*
X165003090Y-55966000D01*
X165003090Y-55986000D01*
X165755090Y-55986000D01*
X165907090Y-55834000D01*
X165907090Y-55225000D01*
X166904417Y-55225000D01*
X166891254Y-55290000D01*
X166891254Y-56990000D01*
X166899090Y-57031644D01*
X166899090Y-57726305D01*
X166891254Y-57765000D01*
X166891254Y-58953597D01*
X166130609Y-59714243D01*
X165875005Y-59663400D01*
X165907090Y-59585938D01*
X165907090Y-58921000D01*
X165755090Y-58769000D01*
X165003090Y-58769000D01*
X165003090Y-59921000D01*
X165024545Y-59942455D01*
X164941472Y-59997963D01*
X164681345Y-60387271D01*
X164590000Y-60846491D01*
X164590000Y-60893509D01*
X164681345Y-61352729D01*
X164941472Y-61742037D01*
X165315568Y-61992000D01*
X164706000Y-61992000D01*
X164554000Y-62144000D01*
X164554000Y-62896000D01*
X166721000Y-62896000D01*
X166721000Y-62144000D01*
X166569000Y-61992000D01*
X166264432Y-61992000D01*
X166638528Y-61742037D01*
X166898655Y-61352729D01*
X166964043Y-61024002D01*
X167082434Y-61024002D01*
X166971757Y-61241044D01*
X167217139Y-61732577D01*
X167515878Y-61992000D01*
X167181000Y-61992000D01*
X167029000Y-62144000D01*
X167029000Y-62896000D01*
X168181000Y-62896000D01*
X168333000Y-62744000D01*
X168333000Y-62479061D01*
X168240437Y-62255595D01*
X168126726Y-62141884D01*
X168176000Y-62116523D01*
X168176000Y-61024000D01*
X168156000Y-61024000D01*
X168156000Y-60716000D01*
X168176000Y-60716000D01*
X168176000Y-60696000D01*
X168484000Y-60696000D01*
X168484000Y-60716000D01*
X169577565Y-60716000D01*
X169688243Y-60498956D01*
X169442861Y-60007423D01*
X169287877Y-59872836D01*
X169764090Y-59872836D01*
X169912321Y-59844944D01*
X170048462Y-59757340D01*
X170139794Y-59623671D01*
X170171926Y-59465000D01*
X170171926Y-57765000D01*
X170164090Y-57723356D01*
X170164090Y-57028695D01*
X170171926Y-56990000D01*
X170171926Y-55290000D01*
X170144034Y-55141769D01*
X170056430Y-55005628D01*
X169922761Y-54914296D01*
X169764090Y-54882164D01*
X168864090Y-54882164D01*
X168715859Y-54910056D01*
X168579718Y-54997660D01*
X168531610Y-55068069D01*
X168491430Y-55005628D01*
X168357761Y-54914296D01*
X168199090Y-54882164D01*
X167617074Y-54882164D01*
X168076211Y-54423027D01*
X168330000Y-54473509D01*
X168628992Y-54414036D01*
X168710186Y-54430186D01*
X173171338Y-54430186D01*
X173171338Y-54480186D01*
X173179174Y-54521830D01*
X173179174Y-55216491D01*
X173171338Y-55255186D01*
X173171338Y-56955186D01*
X173193883Y-57075000D01*
X173064090Y-57075000D01*
X173064090Y-57028695D01*
X173071926Y-56990000D01*
X173071926Y-55290000D01*
X173044034Y-55141769D01*
X172956430Y-55005628D01*
X172822761Y-54914296D01*
X172664090Y-54882164D01*
X171764090Y-54882164D01*
X171615859Y-54910056D01*
X171479718Y-54997660D01*
X171388386Y-55131329D01*
X171356254Y-55290000D01*
X171356254Y-56990000D01*
X171364090Y-57031644D01*
X171364090Y-57726305D01*
X171356254Y-57765000D01*
X171356254Y-59465000D01*
X171384146Y-59613231D01*
X171471750Y-59749372D01*
X171605419Y-59840704D01*
X171764090Y-59872836D01*
X172664090Y-59872836D01*
X172812321Y-59844944D01*
X172948462Y-59757340D01*
X173039794Y-59623671D01*
X173071926Y-59465000D01*
X173071926Y-58888534D01*
X173285460Y-58675000D01*
X178630532Y-58675000D01*
X178741329Y-58750704D01*
X178821800Y-58767000D01*
X178779062Y-58767000D01*
X178555596Y-58859562D01*
X178384563Y-59030595D01*
X178292000Y-59254061D01*
X178292000Y-59569000D01*
X178444000Y-59721000D01*
X179371000Y-59721000D01*
X179371000Y-59701000D01*
X179679000Y-59701000D01*
X179679000Y-59721000D01*
X180606000Y-59721000D01*
X180758000Y-59569000D01*
X180758000Y-59254061D01*
X180665437Y-59030595D01*
X180644139Y-59009297D01*
X180741329Y-59075704D01*
X180900000Y-59107836D01*
X181301466Y-59107836D01*
X181404364Y-59210734D01*
X181349296Y-59291329D01*
X181317164Y-59450000D01*
X181317164Y-60450000D01*
X181345056Y-60598231D01*
X181432660Y-60734372D01*
X181566329Y-60825704D01*
X181646800Y-60842000D01*
X181604062Y-60842000D01*
X181380596Y-60934562D01*
X181209563Y-61105595D01*
X181117000Y-61329061D01*
X181117000Y-61644000D01*
X181269000Y-61796000D01*
X182196000Y-61796000D01*
X182196000Y-61776000D01*
X182504000Y-61776000D01*
X182504000Y-61796000D01*
X183431000Y-61796000D01*
X183583000Y-61644000D01*
X183583000Y-61329061D01*
X183490437Y-61105595D01*
X183319404Y-60934562D01*
X183095938Y-60842000D01*
X183059160Y-60842000D01*
X183123231Y-60829944D01*
X183259372Y-60742340D01*
X183350704Y-60608671D01*
X183382836Y-60450000D01*
X183382836Y-59450000D01*
X183354944Y-59301769D01*
X183267340Y-59165628D01*
X183246000Y-59151047D01*
X183246000Y-58229000D01*
X183554000Y-58229000D01*
X183554000Y-59156000D01*
X183706000Y-59308000D01*
X184020939Y-59308000D01*
X184028186Y-59304998D01*
X184549231Y-59304998D01*
X184724025Y-59728034D01*
X185047403Y-60051977D01*
X185146255Y-60093024D01*
X185049106Y-60133165D01*
X184725163Y-60456543D01*
X184549630Y-60879273D01*
X184549231Y-61336998D01*
X184724025Y-61760034D01*
X185047403Y-62083977D01*
X185470133Y-62259510D01*
X185927858Y-62259909D01*
X186350894Y-62085115D01*
X186674837Y-61761737D01*
X186850370Y-61339007D01*
X186850769Y-60881282D01*
X186675975Y-60458246D01*
X186352597Y-60134303D01*
X186253745Y-60093256D01*
X186350894Y-60053115D01*
X186674837Y-59729737D01*
X186850370Y-59307007D01*
X186850769Y-58849282D01*
X186675975Y-58426246D01*
X186352597Y-58102303D01*
X185929867Y-57926770D01*
X185472142Y-57926371D01*
X185049106Y-58101165D01*
X184725163Y-58424543D01*
X184549630Y-58847273D01*
X184549231Y-59304998D01*
X184028186Y-59304998D01*
X184244405Y-59215437D01*
X184415438Y-59044404D01*
X184508000Y-58820938D01*
X184508000Y-58381000D01*
X184356000Y-58229000D01*
X183554000Y-58229000D01*
X183246000Y-58229000D01*
X183226000Y-58229000D01*
X183226000Y-57921000D01*
X183246000Y-57921000D01*
X183246000Y-56994000D01*
X183554000Y-56994000D01*
X183554000Y-57921000D01*
X184356000Y-57921000D01*
X184508000Y-57769000D01*
X184508000Y-57511202D01*
X184943727Y-57511202D01*
X185015444Y-57741351D01*
X185528384Y-57911654D01*
X186067452Y-57872700D01*
X186384556Y-57741351D01*
X186456273Y-57511202D01*
X185700000Y-56754929D01*
X184943727Y-57511202D01*
X184508000Y-57511202D01*
X184508000Y-57329062D01*
X184415438Y-57105596D01*
X184244405Y-56934563D01*
X184020939Y-56842000D01*
X183706000Y-56842000D01*
X183554000Y-56994000D01*
X183246000Y-56994000D01*
X183094000Y-56842000D01*
X182779061Y-56842000D01*
X182555595Y-56934563D01*
X182384562Y-57105596D01*
X182292000Y-57329062D01*
X182292000Y-57365840D01*
X182279944Y-57301769D01*
X182192340Y-57165628D01*
X182058671Y-57074296D01*
X181900000Y-57042164D01*
X180900000Y-57042164D01*
X180751769Y-57070056D01*
X180744086Y-57075000D01*
X180419468Y-57075000D01*
X180308671Y-56999296D01*
X180150000Y-56967164D01*
X179748535Y-56967164D01*
X179250000Y-56468630D01*
X179250000Y-56273555D01*
X179380720Y-56143063D01*
X179548309Y-55739464D01*
X179548657Y-55340582D01*
X179914239Y-54975000D01*
X180351647Y-54975000D01*
X180464310Y-55087860D01*
X180795118Y-55225223D01*
X181153311Y-55225535D01*
X181479455Y-55090776D01*
X181344777Y-55415118D01*
X181344465Y-55773311D01*
X181481250Y-56104358D01*
X181734310Y-56357860D01*
X182065118Y-56495223D01*
X182423311Y-56495535D01*
X182737963Y-56365524D01*
X184325486Y-56365524D01*
X184364440Y-56904592D01*
X184495789Y-57221696D01*
X184725938Y-57293413D01*
X185482211Y-56537140D01*
X185917789Y-56537140D01*
X186674062Y-57293413D01*
X186904211Y-57221696D01*
X187074514Y-56708756D01*
X187035560Y-56169688D01*
X186904211Y-55852584D01*
X186674062Y-55780867D01*
X185917789Y-56537140D01*
X185482211Y-56537140D01*
X184725938Y-55780867D01*
X184495789Y-55852584D01*
X184325486Y-56365524D01*
X182737963Y-56365524D01*
X182754358Y-56358750D01*
X183007860Y-56105690D01*
X183145223Y-55774882D01*
X183145363Y-55613875D01*
X183196160Y-55563078D01*
X184943727Y-55563078D01*
X185700000Y-56319351D01*
X186456273Y-55563078D01*
X186384556Y-55332929D01*
X185871616Y-55162626D01*
X185332548Y-55201580D01*
X185015444Y-55332929D01*
X184943727Y-55563078D01*
X183196160Y-55563078D01*
X184893848Y-53865390D01*
X186466801Y-53865390D01*
X186755429Y-54563924D01*
X187289405Y-55098833D01*
X187987434Y-55388680D01*
X188743250Y-55389339D01*
X189441784Y-55100711D01*
X189976693Y-54566735D01*
X190050437Y-54389140D01*
X191666348Y-54389140D01*
X192350000Y-55072792D01*
X192350000Y-65277208D01*
X191322068Y-66305140D01*
X190050790Y-66305140D01*
X189978571Y-66130356D01*
X189444595Y-65595447D01*
X188746566Y-65305600D01*
X187990750Y-65304941D01*
X187292216Y-65593569D01*
X186757307Y-66127545D01*
X186467460Y-66825574D01*
X186466801Y-67581390D01*
X186755429Y-68279924D01*
X187289405Y-68814833D01*
X187987434Y-69104680D01*
X188743250Y-69105339D01*
X189441784Y-68816711D01*
X189976693Y-68282735D01*
X190050437Y-68105140D01*
X191694860Y-68105140D01*
X192039275Y-68036632D01*
X192331256Y-67841536D01*
X193886396Y-66286396D01*
X194081492Y-65994416D01*
X194150000Y-65650000D01*
X194150000Y-54700000D01*
X194081492Y-54355585D01*
X193886396Y-54063604D01*
X192675536Y-52852744D01*
X192383555Y-52657648D01*
X192039140Y-52589140D01*
X190050790Y-52589140D01*
X189978571Y-52414356D01*
X189444595Y-51879447D01*
X188746566Y-51589600D01*
X187990750Y-51588941D01*
X187292216Y-51877569D01*
X186757307Y-52411545D01*
X186467460Y-53109574D01*
X186466801Y-53865390D01*
X184893848Y-53865390D01*
X187709239Y-51050000D01*
X189511289Y-51050000D01*
X189514330Y-51057360D01*
X189840920Y-51384521D01*
X190267850Y-51561798D01*
X190730122Y-51562201D01*
X191157360Y-51385670D01*
X191484521Y-51059080D01*
X191661798Y-50632150D01*
X191662201Y-50169878D01*
X191485670Y-49742640D01*
X191159080Y-49415479D01*
X190732150Y-49238202D01*
X190269878Y-49237799D01*
X189842640Y-49414330D01*
X189515479Y-49740920D01*
X189511709Y-49750000D01*
X187440000Y-49750000D01*
X187191256Y-49799478D01*
X187191254Y-49799479D01*
X187191255Y-49799479D01*
X186980380Y-49940381D01*
X182226158Y-54694604D01*
X182066689Y-54694465D01*
X181740545Y-54829224D01*
X181875223Y-54504882D01*
X181875535Y-54146689D01*
X181854009Y-54094592D01*
X182133392Y-54179570D01*
X182572241Y-54136678D01*
X182778468Y-54051256D01*
X182819096Y-53846885D01*
X182245000Y-53272789D01*
X182230858Y-53286931D01*
X182013069Y-53069142D01*
X182027211Y-53055000D01*
X182462789Y-53055000D01*
X183036885Y-53629096D01*
X183241256Y-53588468D01*
X183369570Y-53166608D01*
X183326678Y-52727759D01*
X183241256Y-52521532D01*
X183036885Y-52480904D01*
X182462789Y-53055000D01*
X182027211Y-53055000D01*
X182013069Y-53040858D01*
X182230858Y-52823069D01*
X182245000Y-52837211D01*
X182819096Y-52263115D01*
X182778468Y-52058744D01*
X182356608Y-51930430D01*
X182142923Y-51951315D01*
X182487935Y-51606303D01*
X182516329Y-51625704D01*
X182675000Y-51657836D01*
X183575000Y-51657836D01*
X183723231Y-51629944D01*
X183859372Y-51542340D01*
X183950704Y-51408671D01*
X183982836Y-51250000D01*
X183982836Y-49550000D01*
X183975000Y-49508356D01*
X183975000Y-48842368D01*
X194815421Y-48842368D01*
X194888551Y-49073698D01*
X195405647Y-49245917D01*
X195949287Y-49207142D01*
X196271449Y-49073698D01*
X196344579Y-48842368D01*
X195580000Y-48077789D01*
X194815421Y-48842368D01*
X183975000Y-48842368D01*
X183975000Y-48662351D01*
X184118521Y-48519080D01*
X184295798Y-48092150D01*
X184296201Y-47629878D01*
X184119670Y-47202640D01*
X183992253Y-47075000D01*
X194577208Y-47075000D01*
X194597630Y-47095422D01*
X194366302Y-47168551D01*
X194194083Y-47685647D01*
X194232858Y-48229287D01*
X194366302Y-48551449D01*
X194597632Y-48624579D01*
X195362211Y-47860000D01*
X195348069Y-47845858D01*
X195565858Y-47628069D01*
X195580000Y-47642211D01*
X195594142Y-47628069D01*
X195811931Y-47845858D01*
X195797789Y-47860000D01*
X196562368Y-48624579D01*
X196793698Y-48551449D01*
X196965917Y-48034353D01*
X196927142Y-47490713D01*
X196793698Y-47168551D01*
X196562370Y-47095422D01*
X196582792Y-47075000D01*
X198650000Y-47075000D01*
X198650000Y-70350000D01*
X160078255Y-70350000D01*
X160268170Y-70065772D01*
X160350000Y-69654387D01*
X160350000Y-68745613D01*
X160268170Y-68334228D01*
X160035140Y-67985473D01*
X159686385Y-67752443D01*
X159275000Y-67670613D01*
X158863615Y-67752443D01*
X158514860Y-67985473D01*
X158281830Y-68334228D01*
X158200000Y-68745613D01*
X158200000Y-69654387D01*
X158281830Y-70065772D01*
X158471745Y-70350000D01*
X154578255Y-70350000D01*
X154768170Y-70065772D01*
X154850000Y-69654387D01*
X154850000Y-68745613D01*
X154768170Y-68334228D01*
X154535140Y-67985473D01*
X154186385Y-67752443D01*
X153775000Y-67670613D01*
X153363615Y-67752443D01*
X153014860Y-67985473D01*
X152781830Y-68334228D01*
X152700000Y-68745613D01*
X152700000Y-69654387D01*
X152781830Y-70065772D01*
X152971745Y-70350000D01*
X151150000Y-70350000D01*
X151150000Y-66477470D01*
X152874100Y-66477470D01*
X152874100Y-66522530D01*
X152961639Y-66962616D01*
X153210927Y-67335703D01*
X153584014Y-67584991D01*
X154024100Y-67672530D01*
X154464186Y-67584991D01*
X154837273Y-67335703D01*
X155086561Y-66962616D01*
X155174100Y-66522530D01*
X155174100Y-66477470D01*
X157874100Y-66477470D01*
X157874100Y-66522530D01*
X157961639Y-66962616D01*
X158210927Y-67335703D01*
X158584014Y-67584991D01*
X159024100Y-67672530D01*
X159464186Y-67584991D01*
X159837273Y-67335703D01*
X160086561Y-66962616D01*
X160174100Y-66522530D01*
X160174100Y-66477470D01*
X160086561Y-66037384D01*
X159837273Y-65664297D01*
X159464186Y-65415009D01*
X159024100Y-65327470D01*
X158584014Y-65415009D01*
X158210927Y-65664297D01*
X157961639Y-66037384D01*
X157874100Y-66477470D01*
X155174100Y-66477470D01*
X155086561Y-66037384D01*
X154837273Y-65664297D01*
X154464186Y-65415009D01*
X154024100Y-65327470D01*
X153584014Y-65415009D01*
X153210927Y-65664297D01*
X152961639Y-66037384D01*
X152874100Y-66477470D01*
X151150000Y-66477470D01*
X151150000Y-63746250D01*
X152182801Y-63746250D01*
X152471429Y-64444784D01*
X153005405Y-64979693D01*
X153703434Y-65269540D01*
X154459250Y-65270199D01*
X155157784Y-64981571D01*
X155692693Y-64447595D01*
X155982540Y-63749566D01*
X155983199Y-62993750D01*
X155694571Y-62295216D01*
X155160595Y-61760307D01*
X154462566Y-61470460D01*
X153706750Y-61469801D01*
X153008216Y-61758429D01*
X152473307Y-62292405D01*
X152183460Y-62990434D01*
X152182801Y-63746250D01*
X151150000Y-63746250D01*
X151150000Y-61296062D01*
X155993727Y-61296062D01*
X156065444Y-61526211D01*
X156578384Y-61696514D01*
X157117452Y-61657560D01*
X157434556Y-61526211D01*
X157506273Y-61296062D01*
X156750000Y-60539789D01*
X155993727Y-61296062D01*
X151150000Y-61296062D01*
X151150000Y-60150384D01*
X155375486Y-60150384D01*
X155414440Y-60689452D01*
X155545789Y-61006556D01*
X155775938Y-61078273D01*
X156532211Y-60322000D01*
X156967789Y-60322000D01*
X157724062Y-61078273D01*
X157954211Y-61006556D01*
X158124514Y-60493616D01*
X158085560Y-59954548D01*
X157954211Y-59637444D01*
X157724062Y-59565727D01*
X156967789Y-60322000D01*
X156532211Y-60322000D01*
X155775938Y-59565727D01*
X155545789Y-59637444D01*
X155375486Y-60150384D01*
X151150000Y-60150384D01*
X151150000Y-59347938D01*
X155993727Y-59347938D01*
X156750000Y-60104211D01*
X157506273Y-59347938D01*
X157434556Y-59117789D01*
X156921616Y-58947486D01*
X156382548Y-58986440D01*
X156065444Y-59117789D01*
X155993727Y-59347938D01*
X151150000Y-59347938D01*
X151150000Y-55977858D01*
X155599231Y-55977858D01*
X155774025Y-56400894D01*
X156097403Y-56724837D01*
X156196255Y-56765884D01*
X156099106Y-56806025D01*
X155775163Y-57129403D01*
X155599630Y-57552133D01*
X155599231Y-58009858D01*
X155774025Y-58432894D01*
X156097403Y-58756837D01*
X156520133Y-58932370D01*
X156977858Y-58932769D01*
X157400894Y-58757975D01*
X157724837Y-58434597D01*
X157900370Y-58011867D01*
X157900769Y-57554142D01*
X157725975Y-57131106D01*
X157402597Y-56807163D01*
X157303745Y-56766116D01*
X157400894Y-56725975D01*
X157724837Y-56402597D01*
X157900370Y-55979867D01*
X157900769Y-55522142D01*
X157725975Y-55099106D01*
X157402597Y-54775163D01*
X156979867Y-54599630D01*
X156522142Y-54599231D01*
X156099106Y-54774025D01*
X155775163Y-55097403D01*
X155599630Y-55520133D01*
X155599231Y-55977858D01*
X151150000Y-55977858D01*
X151150000Y-50030250D01*
X152182801Y-50030250D01*
X152471429Y-50728784D01*
X153005405Y-51263693D01*
X153703434Y-51553540D01*
X154459250Y-51554199D01*
X155157784Y-51265571D01*
X155692693Y-50731595D01*
X155982540Y-50033566D01*
X155983199Y-49277750D01*
X155757423Y-48731328D01*
X157165000Y-48731328D01*
X157165000Y-49396266D01*
X157257562Y-49619732D01*
X157300658Y-49662828D01*
X157257562Y-49705924D01*
X157165000Y-49929390D01*
X157165000Y-50594328D01*
X157317000Y-50746328D01*
X158069000Y-50746328D01*
X158069000Y-48579328D01*
X158377000Y-48579328D01*
X158377000Y-50746328D01*
X159129000Y-50746328D01*
X159281000Y-50594328D01*
X159281000Y-49929390D01*
X159188438Y-49705924D01*
X159145342Y-49662828D01*
X159188438Y-49619732D01*
X159281000Y-49396266D01*
X159281000Y-48731328D01*
X159129000Y-48579328D01*
X158377000Y-48579328D01*
X158069000Y-48579328D01*
X157317000Y-48579328D01*
X157165000Y-48731328D01*
X155757423Y-48731328D01*
X155694571Y-48579216D01*
X155160595Y-48044307D01*
X154462566Y-47754460D01*
X153706750Y-47753801D01*
X153008216Y-48042429D01*
X152473307Y-48576405D01*
X152183460Y-49274434D01*
X152182801Y-50030250D01*
X151150000Y-50030250D01*
X151150000Y-47075000D01*
X157413486Y-47075000D01*
X157257562Y-47230924D01*
G36*
X177531915Y-49377964D02*
X177425122Y-49635150D01*
X177425068Y-49697186D01*
X177235174Y-49697186D01*
X177083174Y-49849186D01*
X177083174Y-51001186D01*
X177835174Y-51001186D01*
X177987174Y-50849186D01*
X177987174Y-50556413D01*
X178290380Y-50859619D01*
X178362988Y-50908134D01*
X178501256Y-51000522D01*
X178750000Y-51050000D01*
X179367164Y-51050000D01*
X179367164Y-51250000D01*
X179395056Y-51398231D01*
X179482660Y-51534372D01*
X179616329Y-51625704D01*
X179775000Y-51657836D01*
X180597926Y-51657836D01*
X180515381Y-51740381D01*
X180374478Y-51951255D01*
X180374478Y-51951256D01*
X180325000Y-52200000D01*
X180325000Y-53675000D01*
X179645000Y-53675000D01*
X179470958Y-53709619D01*
X179409613Y-53721821D01*
X179386215Y-53698423D01*
X179610981Y-53633148D01*
X179772556Y-53139141D01*
X179732783Y-52620908D01*
X179610981Y-52326852D01*
X179386213Y-52261576D01*
X178667789Y-52980000D01*
X178681931Y-52994142D01*
X178464142Y-53211931D01*
X178450000Y-53197789D01*
X178435858Y-53211931D01*
X178218069Y-52994142D01*
X178232211Y-52980000D01*
X178218069Y-52965858D01*
X178435858Y-52748069D01*
X178450000Y-52762211D01*
X179168424Y-52043787D01*
X179103148Y-51819019D01*
X178609141Y-51657444D01*
X178090908Y-51697217D01*
X177987174Y-51740185D01*
X177987174Y-51461186D01*
X177835174Y-51309186D01*
X177083174Y-51309186D01*
X177083174Y-53476186D01*
X177224003Y-53476186D01*
X177289019Y-53633148D01*
X177513785Y-53698423D01*
X177428022Y-53784186D01*
X177083174Y-53784186D01*
X177083174Y-55951186D01*
X177103174Y-55951186D01*
X177103174Y-56259186D01*
X177083174Y-56259186D01*
X177083174Y-56279186D01*
X176775174Y-56279186D01*
X176775174Y-56259186D01*
X176023174Y-56259186D01*
X175871174Y-56411186D01*
X175871174Y-57075000D01*
X174862747Y-57075000D01*
X174887010Y-56955186D01*
X174887010Y-55255186D01*
X174879174Y-55213542D01*
X174879174Y-54518881D01*
X174887010Y-54480186D01*
X174887010Y-54280186D01*
X174979174Y-54280186D01*
X175186650Y-54238917D01*
X175227919Y-54230708D01*
X175438793Y-54089805D01*
X175871174Y-53657425D01*
X175871174Y-53784188D01*
X176023172Y-53784188D01*
X175871174Y-53936186D01*
X175871174Y-54601124D01*
X175963736Y-54824590D01*
X176006832Y-54867686D01*
X175963736Y-54910782D01*
X175871174Y-55134248D01*
X175871174Y-55799186D01*
X176023174Y-55951186D01*
X176775174Y-55951186D01*
X176775174Y-53784186D01*
X176755174Y-53784186D01*
X176755174Y-53476186D01*
X176775174Y-53476186D01*
X176775174Y-51309186D01*
X176755174Y-51309186D01*
X176755174Y-51001186D01*
X176775174Y-51001186D01*
X176775174Y-49849186D01*
X176623174Y-49697186D01*
X176358235Y-49697186D01*
X176220842Y-49754096D01*
X176175522Y-49526256D01*
X176114127Y-49434372D01*
X176057751Y-49350000D01*
X177559928Y-49350000D01*
X177531915Y-49377964D01*
X177531915Y-49377964D01*
G37*
X177531915Y-49377964D02*
X177425122Y-49635150D01*
X177425068Y-49697186D01*
X177235174Y-49697186D01*
X177083174Y-49849186D01*
X177083174Y-51001186D01*
X177835174Y-51001186D01*
X177987174Y-50849186D01*
X177987174Y-50556413D01*
X178290380Y-50859619D01*
X178362988Y-50908134D01*
X178501256Y-51000522D01*
X178750000Y-51050000D01*
X179367164Y-51050000D01*
X179367164Y-51250000D01*
X179395056Y-51398231D01*
X179482660Y-51534372D01*
X179616329Y-51625704D01*
X179775000Y-51657836D01*
X180597926Y-51657836D01*
X180515381Y-51740381D01*
X180374478Y-51951255D01*
X180374478Y-51951256D01*
X180325000Y-52200000D01*
X180325000Y-53675000D01*
X179645000Y-53675000D01*
X179470958Y-53709619D01*
X179409613Y-53721821D01*
X179386215Y-53698423D01*
X179610981Y-53633148D01*
X179772556Y-53139141D01*
X179732783Y-52620908D01*
X179610981Y-52326852D01*
X179386213Y-52261576D01*
X178667789Y-52980000D01*
X178681931Y-52994142D01*
X178464142Y-53211931D01*
X178450000Y-53197789D01*
X178435858Y-53211931D01*
X178218069Y-52994142D01*
X178232211Y-52980000D01*
X178218069Y-52965858D01*
X178435858Y-52748069D01*
X178450000Y-52762211D01*
X179168424Y-52043787D01*
X179103148Y-51819019D01*
X178609141Y-51657444D01*
X178090908Y-51697217D01*
X177987174Y-51740185D01*
X177987174Y-51461186D01*
X177835174Y-51309186D01*
X177083174Y-51309186D01*
X177083174Y-53476186D01*
X177224003Y-53476186D01*
X177289019Y-53633148D01*
X177513785Y-53698423D01*
X177428022Y-53784186D01*
X177083174Y-53784186D01*
X177083174Y-55951186D01*
X177103174Y-55951186D01*
X177103174Y-56259186D01*
X177083174Y-56259186D01*
X177083174Y-56279186D01*
X176775174Y-56279186D01*
X176775174Y-56259186D01*
X176023174Y-56259186D01*
X175871174Y-56411186D01*
X175871174Y-57075000D01*
X174862747Y-57075000D01*
X174887010Y-56955186D01*
X174887010Y-55255186D01*
X174879174Y-55213542D01*
X174879174Y-54518881D01*
X174887010Y-54480186D01*
X174887010Y-54280186D01*
X174979174Y-54280186D01*
X175186650Y-54238917D01*
X175227919Y-54230708D01*
X175438793Y-54089805D01*
X175871174Y-53657425D01*
X175871174Y-53784188D01*
X176023172Y-53784188D01*
X175871174Y-53936186D01*
X175871174Y-54601124D01*
X175963736Y-54824590D01*
X176006832Y-54867686D01*
X175963736Y-54910782D01*
X175871174Y-55134248D01*
X175871174Y-55799186D01*
X176023174Y-55951186D01*
X176775174Y-55951186D01*
X176775174Y-53784186D01*
X176755174Y-53784186D01*
X176755174Y-53476186D01*
X176775174Y-53476186D01*
X176775174Y-51309186D01*
X176755174Y-51309186D01*
X176755174Y-51001186D01*
X176775174Y-51001186D01*
X176775174Y-49849186D01*
X176623174Y-49697186D01*
X176358235Y-49697186D01*
X176220842Y-49754096D01*
X176175522Y-49526256D01*
X176114127Y-49434372D01*
X176057751Y-49350000D01*
X177559928Y-49350000D01*
X177531915Y-49377964D01*
M02*
