G04 #@! TF.FileFunction,Copper,L2,Bot,Signal*
%FSLAX46Y46*%
G04 Gerber Fmt 4.6, Leading zero omitted, Abs format (unit mm)*
G04 Created by KiCad (PCBNEW 4.0.1-stable) date Fri 18 Dec 2015 10:46:47 AM EET*
%MOMM*%
G01*
G04 APERTURE LIST*
%ADD10C,0.100000*%
%ADD11R,0.800100X0.800100*%
%ADD12C,1.397000*%
%ADD13R,1.250000X1.000000*%
%ADD14R,1.000000X1.250000*%
%ADD15C,1.000760*%
%ADD16C,1.800000*%
%ADD17C,2.999740*%
%ADD18R,0.900000X1.700000*%
%ADD19R,1.700000X0.900000*%
%ADD20C,1.524000*%
%ADD21O,1.600000X1.600000*%
%ADD22O,1.500000X1.500000*%
%ADD23O,1.800000X2.200000*%
%ADD24C,0.600000*%
%ADD25C,1.000000*%
%ADD26C,0.400000*%
%ADD27C,0.300000*%
%ADD28C,0.900000*%
%ADD29C,0.600000*%
%ADD30C,0.800000*%
%ADD31C,0.500000*%
%ADD32C,1.000000*%
%ADD33C,0.200000*%
G04 APERTURE END LIST*
D10*
D11*
X172030760Y-61898960D03*
X172030760Y-63301040D03*
X170031780Y-62600000D03*
D12*
X178320000Y-48550000D03*
X175780000Y-48550000D03*
D13*
X179525000Y-57875000D03*
X179525000Y-59875000D03*
X182350000Y-59950000D03*
X182350000Y-61950000D03*
D14*
X181400000Y-58075000D03*
X183400000Y-58075000D03*
D15*
X180975000Y-54325000D03*
X182245000Y-53055000D03*
X182245000Y-55595000D03*
D16*
X156750000Y-60322000D03*
X156750000Y-57782000D03*
X156750000Y-55750000D03*
X156750000Y-53210000D03*
D17*
X154083000Y-63370000D03*
X154083000Y-49654000D03*
D16*
X185700000Y-56537140D03*
X185700000Y-59077140D03*
X185700000Y-61109140D03*
X185700000Y-63649140D03*
D17*
X188367000Y-53489140D03*
X188367000Y-67205140D03*
D11*
X177175760Y-61898960D03*
X177175760Y-63301040D03*
X175176780Y-62600000D03*
D18*
X172214090Y-56140000D03*
X169314090Y-56140000D03*
X172214090Y-58615000D03*
X169314090Y-58615000D03*
X180225000Y-50400000D03*
X183125000Y-50400000D03*
D19*
X174605000Y-67450000D03*
X174605000Y-64550000D03*
D18*
X167749090Y-56140000D03*
X164849090Y-56140000D03*
X167749090Y-58615000D03*
X164849090Y-58615000D03*
D19*
X164400000Y-65950000D03*
X164400000Y-63050000D03*
X177180000Y-67450000D03*
X177180000Y-64550000D03*
D18*
X165625000Y-50925000D03*
X162725000Y-50925000D03*
X174029174Y-51155186D03*
X176929174Y-51155186D03*
X174029174Y-53630186D03*
X176929174Y-53630186D03*
X174029174Y-56105186D03*
X176929174Y-56105186D03*
D19*
X169525000Y-48700000D03*
X169525000Y-51600000D03*
X172000000Y-48700000D03*
X172000000Y-51600000D03*
X166875000Y-65950000D03*
X166875000Y-63050000D03*
D18*
X161123000Y-48425328D03*
X158223000Y-48425328D03*
X161123000Y-50900328D03*
X158223000Y-50900328D03*
D19*
X172030000Y-67450000D03*
X172030000Y-64550000D03*
D20*
X195580000Y-47860000D03*
X190500000Y-50400000D03*
X183134000Y-47860000D03*
D21*
X160710000Y-60870000D03*
X163250000Y-60870000D03*
X165790000Y-60870000D03*
X168330000Y-60870000D03*
X168330000Y-53250000D03*
X165790000Y-53250000D03*
X163250000Y-53250000D03*
X160710000Y-53250000D03*
D22*
X154024100Y-66500000D03*
X159024100Y-66500000D03*
D23*
X153775000Y-69200000D03*
X159275000Y-69200000D03*
D13*
X159575000Y-55775000D03*
X159575000Y-57775000D03*
D24*
X177180000Y-68263628D03*
D25*
X156550000Y-67950000D03*
D24*
X175900000Y-68375000D03*
X173325000Y-68375000D03*
X174605000Y-68263628D03*
X172030000Y-68263628D03*
X179225000Y-52500000D03*
D25*
X190400000Y-63649140D03*
D26*
X177180000Y-67450000D02*
X177180000Y-68258628D01*
X177180000Y-68258628D02*
X177175000Y-68263628D01*
D27*
X166875000Y-63050000D02*
X164400000Y-63050000D01*
D28*
X164849090Y-58615000D02*
X164849090Y-56140000D01*
X176929174Y-53630186D02*
X176929174Y-51155186D01*
X176929174Y-56105186D02*
X176929174Y-53630186D01*
D27*
X168330000Y-61420000D02*
X168330000Y-60870000D01*
D26*
X174605000Y-67450000D02*
X174605000Y-68243628D01*
X174605000Y-68243628D02*
X174625000Y-68263628D01*
D29*
X175780000Y-48550000D02*
X172150000Y-48550000D01*
X172150000Y-48550000D02*
X172000000Y-48700000D01*
D30*
X182350000Y-59950000D02*
X182350000Y-59025000D01*
X182350000Y-59025000D02*
X181400000Y-58075000D01*
X179525000Y-57875000D02*
X181200000Y-57875000D01*
X181200000Y-57875000D02*
X181400000Y-58075000D01*
X178450000Y-55520000D02*
X178450000Y-56800000D01*
X179645000Y-54325000D02*
X178450000Y-55520000D01*
X180975000Y-54325000D02*
X179645000Y-54325000D01*
X178450000Y-56800000D02*
X179525000Y-57875000D01*
X179525000Y-57875000D02*
X172954090Y-57875000D01*
X172954090Y-57875000D02*
X172214090Y-58615000D01*
D28*
X172000000Y-48700000D02*
X169525000Y-48700000D01*
D27*
X183125000Y-50400000D02*
X182775000Y-50400000D01*
D31*
X182775000Y-50400000D02*
X180975000Y-52200000D01*
X180975000Y-53617356D02*
X180975000Y-54325000D01*
X180975000Y-52200000D02*
X180975000Y-53617356D01*
D28*
X183125000Y-50400000D02*
X183125000Y-47869000D01*
X183125000Y-47869000D02*
X183134000Y-47860000D01*
X172214090Y-58615000D02*
X172214090Y-56140000D01*
D31*
X182245000Y-55595000D02*
X187440000Y-50400000D01*
X187440000Y-50400000D02*
X190500000Y-50400000D01*
D26*
X172030000Y-67450000D02*
X172030000Y-68258628D01*
X172030000Y-68258628D02*
X172025000Y-68263628D01*
D30*
X153775000Y-69200000D02*
X152275000Y-67700000D01*
X152275000Y-67700000D02*
X152275000Y-65178000D01*
X152275000Y-65178000D02*
X154083000Y-63370000D01*
D29*
X188367000Y-67205140D02*
X186245864Y-67205140D01*
X186245864Y-67205140D02*
X184251004Y-69200000D01*
X184251004Y-69200000D02*
X160550000Y-69200000D01*
X160550000Y-69200000D02*
X159275000Y-69200000D01*
D32*
X188367000Y-53489140D02*
X192039140Y-53489140D01*
X192039140Y-53489140D02*
X193250000Y-54700000D01*
X193250000Y-54700000D02*
X193250000Y-65650000D01*
X193250000Y-65650000D02*
X191694860Y-67205140D01*
X191694860Y-67205140D02*
X188367000Y-67205140D01*
D26*
X179550000Y-65350000D02*
X179550000Y-63473150D01*
X179550000Y-63473150D02*
X177975810Y-61898960D01*
X177975810Y-61898960D02*
X177175760Y-61898960D01*
X178925000Y-65975000D02*
X179550000Y-65350000D01*
X170100000Y-65975000D02*
X178925000Y-65975000D01*
X168650000Y-67425000D02*
X170100000Y-65975000D01*
X165025000Y-67425000D02*
X168650000Y-67425000D01*
X164400000Y-65950000D02*
X164400000Y-66800000D01*
X164400000Y-66800000D02*
X165025000Y-67425000D01*
X160710000Y-63085000D02*
X160710000Y-63710000D01*
X160710000Y-60870000D02*
X160710000Y-63085000D01*
X162950000Y-65950000D02*
X164400000Y-65950000D01*
X160710000Y-63710000D02*
X162950000Y-65950000D01*
D30*
X177175760Y-63301040D02*
X177175760Y-64545760D01*
X177175760Y-64545760D02*
X177180000Y-64550000D01*
X178025000Y-60725000D02*
X175200000Y-60725000D01*
X175200000Y-60725000D02*
X170706730Y-60725000D01*
X175176780Y-60748220D02*
X175200000Y-60725000D01*
X175176780Y-62600000D02*
X175176780Y-60748220D01*
X170706730Y-60725000D02*
X170031780Y-61399950D01*
X178025000Y-60725000D02*
X180949140Y-63649140D01*
X180949140Y-63649140D02*
X185700000Y-63649140D01*
X170031780Y-61399950D02*
X170031780Y-62600000D01*
D29*
X180225000Y-50400000D02*
X180225000Y-51500000D01*
X180225000Y-51500000D02*
X179225000Y-52500000D01*
D30*
X159575000Y-55775000D02*
X159575000Y-54385000D01*
X159575000Y-54385000D02*
X160710000Y-53250000D01*
X175176780Y-62600000D02*
X174605000Y-63171780D01*
X174605000Y-63171780D02*
X174605000Y-64550000D01*
D32*
X190400000Y-63649140D02*
X185700000Y-63649140D01*
X156750000Y-53210000D02*
X160670000Y-53210000D01*
X160670000Y-53210000D02*
X160710000Y-53250000D01*
D31*
X162725000Y-50925000D02*
X162725000Y-51675000D01*
X162725000Y-51675000D02*
X161150000Y-53250000D01*
X161150000Y-53250000D02*
X160710000Y-53250000D01*
D27*
X160710000Y-53250000D02*
X160710000Y-52765000D01*
D26*
X172030760Y-61898960D02*
X171230710Y-61898960D01*
X171230710Y-61898960D02*
X171075000Y-62054670D01*
X171075000Y-62054670D02*
X171075000Y-63600000D01*
X171075000Y-63600000D02*
X170100000Y-64575000D01*
X170100000Y-64575000D02*
X166975000Y-64575000D01*
X163250000Y-53250000D02*
X161975000Y-54525000D01*
X161975000Y-54525000D02*
X161975000Y-63050000D01*
X163500000Y-64575000D02*
X166975000Y-64575000D01*
X161975000Y-63050000D02*
X163500000Y-64575000D01*
D27*
X166875000Y-64675000D02*
X166975000Y-64575000D01*
X166875000Y-65950000D02*
X166875000Y-64675000D01*
D30*
X172030760Y-63301040D02*
X172030760Y-64549240D01*
X172030760Y-64549240D02*
X172030000Y-64550000D01*
D27*
X167749090Y-58615000D02*
X167749090Y-59015000D01*
D31*
X167749090Y-59015000D02*
X165894090Y-60870000D01*
D27*
X165894090Y-60870000D02*
X165790000Y-60870000D01*
X165790000Y-60699090D02*
X165790000Y-60870000D01*
D28*
X169314090Y-58615000D02*
X167749090Y-58615000D01*
X169314090Y-56140000D02*
X167749090Y-56140000D01*
X167749090Y-58615000D02*
X167749090Y-56140000D01*
X169314090Y-58615000D02*
X169314090Y-56140000D01*
D31*
X165625000Y-50925000D02*
X166575000Y-50925000D01*
X166575000Y-50925000D02*
X167300000Y-50200000D01*
X167300000Y-50200000D02*
X172725000Y-50200000D01*
X172725000Y-50200000D02*
X173250000Y-49675000D01*
X173250000Y-49675000D02*
X175475000Y-49675000D01*
X175475000Y-49675000D02*
X175575000Y-49775000D01*
X175575000Y-49775000D02*
X175575000Y-53034360D01*
X175575000Y-53034360D02*
X174979174Y-53630186D01*
X174979174Y-53630186D02*
X174029174Y-53630186D01*
X174029174Y-50755186D02*
X174029174Y-51155186D01*
D30*
X174029174Y-53630186D02*
X168710186Y-53630186D01*
X168710186Y-53630186D02*
X168330000Y-53250000D01*
D28*
X174029174Y-53630186D02*
X174029174Y-51155186D01*
X174029174Y-56105186D02*
X174029174Y-53630186D01*
D31*
X163556554Y-54575000D02*
X167005000Y-54575000D01*
X163250000Y-54881554D02*
X163556554Y-54575000D01*
X163250000Y-60870000D02*
X163250000Y-54881554D01*
X167005000Y-54575000D02*
X168330000Y-53250000D01*
D28*
X168325000Y-53245000D02*
X168330000Y-53250000D01*
D31*
X164175000Y-49875000D02*
X162725328Y-48425328D01*
X162725328Y-48425328D02*
X161123000Y-48425328D01*
X164175000Y-51635000D02*
X164175000Y-49875000D01*
X165790000Y-53250000D02*
X164175000Y-51635000D01*
D28*
X161123000Y-48425328D02*
X161123000Y-50900328D01*
D31*
X169525000Y-51600000D02*
X167440000Y-51600000D01*
X167440000Y-51600000D02*
X165790000Y-53250000D01*
D28*
X172000000Y-51600000D02*
X169525000Y-51600000D01*
D33*
G36*
X182149479Y-47200920D02*
X181972202Y-47627850D01*
X181971799Y-48090122D01*
X182148330Y-48517360D01*
X182275000Y-48644251D01*
X182275000Y-49511305D01*
X182267164Y-49550000D01*
X182267164Y-49988597D01*
X181082836Y-51172926D01*
X181082836Y-49550000D01*
X181054944Y-49401769D01*
X180967340Y-49265628D01*
X180833671Y-49174296D01*
X180675000Y-49142164D01*
X179775000Y-49142164D01*
X179626769Y-49170056D01*
X179490628Y-49257660D01*
X179399296Y-49391329D01*
X179367164Y-49550000D01*
X179367164Y-51250000D01*
X179385833Y-51349217D01*
X178730025Y-52005025D01*
X178631915Y-52102964D01*
X178525122Y-52360150D01*
X178524879Y-52638628D01*
X178631223Y-52896000D01*
X178827964Y-53093085D01*
X178957120Y-53146715D01*
X178957121Y-53146716D01*
X178957122Y-53146716D01*
X179085150Y-53199878D01*
X179363628Y-53200121D01*
X179492877Y-53146716D01*
X179492879Y-53146716D01*
X179492881Y-53146715D01*
X179621000Y-53093777D01*
X179818085Y-52897036D01*
X179818206Y-52896743D01*
X180325000Y-52389949D01*
X180325000Y-53525000D01*
X179645000Y-53525000D01*
X179392219Y-53575281D01*
X179338853Y-53585896D01*
X179079314Y-53759315D01*
X177884315Y-54954315D01*
X177710896Y-55213853D01*
X177650000Y-55520000D01*
X177650000Y-56800000D01*
X177704701Y-57075000D01*
X174862747Y-57075000D01*
X174887010Y-56955186D01*
X174887010Y-55255186D01*
X174879174Y-55213542D01*
X174879174Y-54518881D01*
X174887010Y-54480186D01*
X174887010Y-54280186D01*
X174979174Y-54280186D01*
X175186650Y-54238917D01*
X175227919Y-54230708D01*
X175438793Y-54089805D01*
X176034619Y-53493980D01*
X176175522Y-53283105D01*
X176192052Y-53200000D01*
X176225000Y-53034360D01*
X176225000Y-49775000D01*
X176184509Y-49571439D01*
X176401437Y-49481806D01*
X176710720Y-49173063D01*
X176878309Y-48769464D01*
X176878690Y-48332453D01*
X176711806Y-47928563D01*
X176403063Y-47619280D01*
X175999464Y-47451691D01*
X175562453Y-47451310D01*
X175158563Y-47618194D01*
X174926352Y-47850000D01*
X172888695Y-47850000D01*
X172850000Y-47842164D01*
X171150000Y-47842164D01*
X171108356Y-47850000D01*
X170413695Y-47850000D01*
X170375000Y-47842164D01*
X168675000Y-47842164D01*
X168526769Y-47870056D01*
X168390628Y-47957660D01*
X168299296Y-48091329D01*
X168267164Y-48250000D01*
X168267164Y-49150000D01*
X168295056Y-49298231D01*
X168382660Y-49434372D01*
X168516329Y-49525704D01*
X168636305Y-49550000D01*
X167300000Y-49550000D01*
X167051256Y-49599478D01*
X166840381Y-49740380D01*
X166482836Y-50097925D01*
X166482836Y-50075000D01*
X166454944Y-49926769D01*
X166367340Y-49790628D01*
X166233671Y-49699296D01*
X166075000Y-49667164D01*
X165175000Y-49667164D01*
X165026769Y-49695056D01*
X164890628Y-49782660D01*
X164825000Y-49878710D01*
X164825000Y-49875000D01*
X164775522Y-49626256D01*
X164634620Y-49415381D01*
X163184947Y-47965709D01*
X162974073Y-47824806D01*
X162932804Y-47816597D01*
X162725328Y-47775328D01*
X161980836Y-47775328D01*
X161980836Y-47575328D01*
X161952944Y-47427097D01*
X161865340Y-47290956D01*
X161731671Y-47199624D01*
X161573000Y-47167492D01*
X160673000Y-47167492D01*
X160524769Y-47195384D01*
X160388628Y-47282988D01*
X160297296Y-47416657D01*
X160265164Y-47575328D01*
X160265164Y-49275328D01*
X160273000Y-49316972D01*
X160273000Y-50011633D01*
X160265164Y-50050328D01*
X160265164Y-51750328D01*
X160293056Y-51898559D01*
X160380660Y-52034700D01*
X160445614Y-52079081D01*
X160250780Y-52117836D01*
X159963186Y-52310000D01*
X157688445Y-52310000D01*
X157487353Y-52108556D01*
X157009721Y-51910226D01*
X156492548Y-51909774D01*
X156014571Y-52107271D01*
X155648556Y-52472647D01*
X155450226Y-52950279D01*
X155449774Y-53467452D01*
X155647271Y-53945429D01*
X156012647Y-54311444D01*
X156418985Y-54480170D01*
X156014571Y-54647271D01*
X155648556Y-55012647D01*
X155450226Y-55490279D01*
X155449774Y-56007452D01*
X155647271Y-56485429D01*
X155927521Y-56766169D01*
X155648556Y-57044647D01*
X155450226Y-57522279D01*
X155449774Y-58039452D01*
X155647271Y-58517429D01*
X156012647Y-58883444D01*
X156490279Y-59081774D01*
X157007452Y-59082226D01*
X157485429Y-58884729D01*
X157851444Y-58519353D01*
X158049774Y-58041721D01*
X158050226Y-57524548D01*
X157852729Y-57046571D01*
X157572479Y-56765831D01*
X157851444Y-56487353D01*
X158049774Y-56009721D01*
X158050226Y-55492548D01*
X157852729Y-55014571D01*
X157487353Y-54648556D01*
X157081015Y-54479830D01*
X157485429Y-54312729D01*
X157688513Y-54110000D01*
X158829701Y-54110000D01*
X158775000Y-54385000D01*
X158775000Y-54912281D01*
X158665628Y-54982660D01*
X158574296Y-55116329D01*
X158542164Y-55275000D01*
X158542164Y-56275000D01*
X158570056Y-56423231D01*
X158657660Y-56559372D01*
X158791329Y-56650704D01*
X158950000Y-56682836D01*
X160200000Y-56682836D01*
X160348231Y-56654944D01*
X160484372Y-56567340D01*
X160575704Y-56433671D01*
X160607836Y-56275000D01*
X160607836Y-55275000D01*
X160579944Y-55126769D01*
X160492340Y-54990628D01*
X160375000Y-54910453D01*
X160375000Y-54716370D01*
X160633148Y-54458222D01*
X160710000Y-54473509D01*
X161169220Y-54382164D01*
X161518739Y-54148623D01*
X161420672Y-54295390D01*
X161375000Y-54525000D01*
X161375000Y-59875334D01*
X161169220Y-59737836D01*
X160710000Y-59646491D01*
X160250780Y-59737836D01*
X159861472Y-59997963D01*
X159601345Y-60387271D01*
X159510000Y-60846491D01*
X159510000Y-60893509D01*
X159601345Y-61352729D01*
X159861472Y-61742037D01*
X160110000Y-61908098D01*
X160110000Y-63710000D01*
X160155672Y-63939610D01*
X160285736Y-64134264D01*
X162525736Y-66374264D01*
X162720389Y-66504328D01*
X162950000Y-66550000D01*
X163171194Y-66550000D01*
X163257660Y-66684372D01*
X163391329Y-66775704D01*
X163550000Y-66807836D01*
X163801559Y-66807836D01*
X163845672Y-67029610D01*
X163975736Y-67224264D01*
X164600736Y-67849264D01*
X164795389Y-67979328D01*
X165025000Y-68025000D01*
X168650000Y-68025000D01*
X168879610Y-67979328D01*
X169074264Y-67849264D01*
X170348528Y-66575000D01*
X178925000Y-66575000D01*
X179154610Y-66529328D01*
X179349264Y-66399264D01*
X179974264Y-65774264D01*
X180104328Y-65579611D01*
X180150000Y-65350000D01*
X180150000Y-63981371D01*
X180383454Y-64214825D01*
X180490111Y-64286091D01*
X180642993Y-64388244D01*
X180949140Y-64449140D01*
X184661729Y-64449140D01*
X184962647Y-64750584D01*
X185440279Y-64948914D01*
X185957452Y-64949366D01*
X186435429Y-64751869D01*
X186638513Y-64549140D01*
X190399787Y-64549140D01*
X190578236Y-64549296D01*
X190909143Y-64412568D01*
X191162538Y-64159615D01*
X191299843Y-63828946D01*
X191300156Y-63470904D01*
X191163428Y-63139997D01*
X190910475Y-62886602D01*
X190744416Y-62817649D01*
X190744415Y-62817648D01*
X190744414Y-62817648D01*
X190579806Y-62749297D01*
X190221764Y-62748984D01*
X190221386Y-62749140D01*
X186638445Y-62749140D01*
X186437353Y-62547696D01*
X186031015Y-62378970D01*
X186435429Y-62211869D01*
X186801444Y-61846493D01*
X186999774Y-61368861D01*
X187000226Y-60851688D01*
X186802729Y-60373711D01*
X186522479Y-60092971D01*
X186801444Y-59814493D01*
X186999774Y-59336861D01*
X187000226Y-58819688D01*
X186802729Y-58341711D01*
X186437353Y-57975696D01*
X185959721Y-57777366D01*
X185442548Y-57776914D01*
X184964571Y-57974411D01*
X184598556Y-58339787D01*
X184400226Y-58817419D01*
X184399774Y-59334592D01*
X184597271Y-59812569D01*
X184877521Y-60093309D01*
X184598556Y-60371787D01*
X184400226Y-60849419D01*
X184399774Y-61366592D01*
X184597271Y-61844569D01*
X184962647Y-62210584D01*
X185368985Y-62379310D01*
X184964571Y-62546411D01*
X184661313Y-62849140D01*
X181280511Y-62849140D01*
X178590685Y-60159315D01*
X178331147Y-59985896D01*
X178025000Y-59925000D01*
X170706730Y-59925000D01*
X170400583Y-59985896D01*
X170141044Y-60159315D01*
X169466095Y-60834265D01*
X169292676Y-61093803D01*
X169231780Y-61399950D01*
X169231780Y-62161008D01*
X169223894Y-62199950D01*
X169223894Y-63000050D01*
X169251786Y-63148281D01*
X169339390Y-63284422D01*
X169473059Y-63375754D01*
X169631730Y-63407886D01*
X170418586Y-63407886D01*
X169851472Y-63975000D01*
X163748528Y-63975000D01*
X162575000Y-62801472D01*
X162575000Y-61857985D01*
X162790780Y-62002164D01*
X163250000Y-62093509D01*
X163709220Y-62002164D01*
X164098528Y-61742037D01*
X164358655Y-61352729D01*
X164450000Y-60893509D01*
X164450000Y-60846491D01*
X164358655Y-60387271D01*
X164098528Y-59997963D01*
X163900000Y-59865311D01*
X163900000Y-55225000D01*
X166904417Y-55225000D01*
X166891254Y-55290000D01*
X166891254Y-56990000D01*
X166899090Y-57031644D01*
X166899090Y-57726305D01*
X166891254Y-57765000D01*
X166891254Y-58953597D01*
X166130609Y-59714243D01*
X165790000Y-59646491D01*
X165330780Y-59737836D01*
X164941472Y-59997963D01*
X164681345Y-60387271D01*
X164590000Y-60846491D01*
X164590000Y-60893509D01*
X164681345Y-61352729D01*
X164941472Y-61742037D01*
X165330780Y-62002164D01*
X165790000Y-62093509D01*
X166249220Y-62002164D01*
X166638528Y-61742037D01*
X166898655Y-61352729D01*
X166990000Y-60893509D01*
X166990000Y-60846491D01*
X166964589Y-60718740D01*
X167810493Y-59872836D01*
X168199090Y-59872836D01*
X168347321Y-59844944D01*
X168483462Y-59757340D01*
X168531570Y-59686931D01*
X168571750Y-59749372D01*
X168705419Y-59840704D01*
X168864090Y-59872836D01*
X169764090Y-59872836D01*
X169912321Y-59844944D01*
X170048462Y-59757340D01*
X170139794Y-59623671D01*
X170171926Y-59465000D01*
X170171926Y-57765000D01*
X170164090Y-57723356D01*
X170164090Y-57028695D01*
X170171926Y-56990000D01*
X170171926Y-55290000D01*
X170144034Y-55141769D01*
X170056430Y-55005628D01*
X169922761Y-54914296D01*
X169764090Y-54882164D01*
X168864090Y-54882164D01*
X168715859Y-54910056D01*
X168579718Y-54997660D01*
X168531610Y-55068069D01*
X168491430Y-55005628D01*
X168357761Y-54914296D01*
X168199090Y-54882164D01*
X167617074Y-54882164D01*
X168076211Y-54423027D01*
X168330000Y-54473509D01*
X168628992Y-54414036D01*
X168710186Y-54430186D01*
X173171338Y-54430186D01*
X173171338Y-54480186D01*
X173179174Y-54521830D01*
X173179174Y-55216491D01*
X173171338Y-55255186D01*
X173171338Y-56955186D01*
X173193883Y-57075000D01*
X173064090Y-57075000D01*
X173064090Y-57028695D01*
X173071926Y-56990000D01*
X173071926Y-55290000D01*
X173044034Y-55141769D01*
X172956430Y-55005628D01*
X172822761Y-54914296D01*
X172664090Y-54882164D01*
X171764090Y-54882164D01*
X171615859Y-54910056D01*
X171479718Y-54997660D01*
X171388386Y-55131329D01*
X171356254Y-55290000D01*
X171356254Y-56990000D01*
X171364090Y-57031644D01*
X171364090Y-57726305D01*
X171356254Y-57765000D01*
X171356254Y-59465000D01*
X171384146Y-59613231D01*
X171471750Y-59749372D01*
X171605419Y-59840704D01*
X171764090Y-59872836D01*
X172664090Y-59872836D01*
X172812321Y-59844944D01*
X172948462Y-59757340D01*
X173039794Y-59623671D01*
X173071926Y-59465000D01*
X173071926Y-58888534D01*
X173285460Y-58675000D01*
X178630532Y-58675000D01*
X178741329Y-58750704D01*
X178900000Y-58782836D01*
X180150000Y-58782836D01*
X180298231Y-58754944D01*
X180422468Y-58675000D01*
X180492164Y-58675000D01*
X180492164Y-58700000D01*
X180520056Y-58848231D01*
X180607660Y-58984372D01*
X180741329Y-59075704D01*
X180900000Y-59107836D01*
X181301466Y-59107836D01*
X181404364Y-59210734D01*
X181349296Y-59291329D01*
X181317164Y-59450000D01*
X181317164Y-60450000D01*
X181345056Y-60598231D01*
X181432660Y-60734372D01*
X181566329Y-60825704D01*
X181725000Y-60857836D01*
X182975000Y-60857836D01*
X183123231Y-60829944D01*
X183259372Y-60742340D01*
X183350704Y-60608671D01*
X183382836Y-60450000D01*
X183382836Y-59450000D01*
X183354944Y-59301769D01*
X183267340Y-59165628D01*
X183150000Y-59085453D01*
X183150000Y-59025000D01*
X183089104Y-58718853D01*
X183036874Y-58640686D01*
X182915686Y-58459315D01*
X182307836Y-57851466D01*
X182307836Y-57450000D01*
X182279944Y-57301769D01*
X182192340Y-57165628D01*
X182058671Y-57074296D01*
X181900000Y-57042164D01*
X180900000Y-57042164D01*
X180751769Y-57070056D01*
X180744086Y-57075000D01*
X180419468Y-57075000D01*
X180308671Y-56999296D01*
X180150000Y-56967164D01*
X179748535Y-56967164D01*
X179250000Y-56468630D01*
X179250000Y-55851370D01*
X179976371Y-55125000D01*
X180553753Y-55125000D01*
X180795118Y-55225223D01*
X181153311Y-55225535D01*
X181479455Y-55090776D01*
X181344777Y-55415118D01*
X181344465Y-55773311D01*
X181481250Y-56104358D01*
X181734310Y-56357860D01*
X182065118Y-56495223D01*
X182423311Y-56495535D01*
X182754358Y-56358750D01*
X183007860Y-56105690D01*
X183145223Y-55774882D01*
X183145363Y-55613875D01*
X187709239Y-51050000D01*
X189511289Y-51050000D01*
X189514330Y-51057360D01*
X189840920Y-51384521D01*
X190267850Y-51561798D01*
X190730122Y-51562201D01*
X191157360Y-51385670D01*
X191484521Y-51059080D01*
X191661798Y-50632150D01*
X191662201Y-50169878D01*
X191485670Y-49742640D01*
X191159080Y-49415479D01*
X190732150Y-49238202D01*
X190269878Y-49237799D01*
X189842640Y-49414330D01*
X189515479Y-49740920D01*
X189511709Y-49750000D01*
X187440000Y-49750000D01*
X187191256Y-49799478D01*
X187191254Y-49799479D01*
X187191255Y-49799479D01*
X186980380Y-49940381D01*
X182226158Y-54694604D01*
X182066689Y-54694465D01*
X181740545Y-54829224D01*
X181875223Y-54504882D01*
X181875535Y-54146689D01*
X181738750Y-53815642D01*
X181625000Y-53701693D01*
X181625000Y-52469238D01*
X182487935Y-51606303D01*
X182516329Y-51625704D01*
X182675000Y-51657836D01*
X183575000Y-51657836D01*
X183723231Y-51629944D01*
X183859372Y-51542340D01*
X183950704Y-51408671D01*
X183982836Y-51250000D01*
X183982836Y-49550000D01*
X183975000Y-49508356D01*
X183975000Y-48662351D01*
X184118521Y-48519080D01*
X184295798Y-48092150D01*
X184296201Y-47629878D01*
X184119670Y-47202640D01*
X183992253Y-47075000D01*
X198650000Y-47075000D01*
X198650000Y-70350000D01*
X160192183Y-70350000D01*
X160194239Y-70348626D01*
X160476043Y-69926875D01*
X160481389Y-69900000D01*
X184251004Y-69900000D01*
X184518883Y-69846716D01*
X184745979Y-69694975D01*
X186535814Y-67905140D01*
X186600572Y-67905140D01*
X186755429Y-68279924D01*
X187289405Y-68814833D01*
X187987434Y-69104680D01*
X188743250Y-69105339D01*
X189441784Y-68816711D01*
X189976693Y-68282735D01*
X190050437Y-68105140D01*
X191694860Y-68105140D01*
X192039275Y-68036632D01*
X192331256Y-67841536D01*
X193886396Y-66286396D01*
X194081492Y-65994416D01*
X194150000Y-65650000D01*
X194150000Y-54700000D01*
X194081492Y-54355585D01*
X193886396Y-54063604D01*
X192675536Y-52852744D01*
X192383555Y-52657648D01*
X192039140Y-52589140D01*
X190050790Y-52589140D01*
X189978571Y-52414356D01*
X189444595Y-51879447D01*
X188746566Y-51589600D01*
X187990750Y-51588941D01*
X187292216Y-51877569D01*
X186757307Y-52411545D01*
X186467460Y-53109574D01*
X186466801Y-53865390D01*
X186755429Y-54563924D01*
X187289405Y-55098833D01*
X187987434Y-55388680D01*
X188743250Y-55389339D01*
X189441784Y-55100711D01*
X189976693Y-54566735D01*
X190050437Y-54389140D01*
X191666348Y-54389140D01*
X192350000Y-55072792D01*
X192350000Y-65277208D01*
X191322068Y-66305140D01*
X190050790Y-66305140D01*
X189978571Y-66130356D01*
X189444595Y-65595447D01*
X188746566Y-65305600D01*
X187990750Y-65304941D01*
X187292216Y-65593569D01*
X186757307Y-66127545D01*
X186600516Y-66505140D01*
X186245864Y-66505140D01*
X185977985Y-66558424D01*
X185750889Y-66710165D01*
X183961054Y-68500000D01*
X177839799Y-68500000D01*
X177879878Y-68403478D01*
X177879961Y-68307836D01*
X178030000Y-68307836D01*
X178178231Y-68279944D01*
X178314372Y-68192340D01*
X178405704Y-68058671D01*
X178437836Y-67900000D01*
X178437836Y-67000000D01*
X178409944Y-66851769D01*
X178322340Y-66715628D01*
X178188671Y-66624296D01*
X178030000Y-66592164D01*
X176330000Y-66592164D01*
X176181769Y-66620056D01*
X176045628Y-66707660D01*
X175954296Y-66841329D01*
X175922164Y-67000000D01*
X175922164Y-67900000D01*
X175950056Y-68048231D01*
X176037660Y-68184372D01*
X176171329Y-68275704D01*
X176330000Y-68307836D01*
X176479961Y-68307836D01*
X176479879Y-68402256D01*
X176520266Y-68500000D01*
X175264799Y-68500000D01*
X175304878Y-68403478D01*
X175304961Y-68307836D01*
X175455000Y-68307836D01*
X175603231Y-68279944D01*
X175739372Y-68192340D01*
X175830704Y-68058671D01*
X175862836Y-67900000D01*
X175862836Y-67000000D01*
X175834944Y-66851769D01*
X175747340Y-66715628D01*
X175613671Y-66624296D01*
X175455000Y-66592164D01*
X173755000Y-66592164D01*
X173606769Y-66620056D01*
X173470628Y-66707660D01*
X173379296Y-66841329D01*
X173347164Y-67000000D01*
X173347164Y-67900000D01*
X173375056Y-68048231D01*
X173462660Y-68184372D01*
X173596329Y-68275704D01*
X173755000Y-68307836D01*
X173904961Y-68307836D01*
X173904879Y-68402256D01*
X173945266Y-68500000D01*
X172689799Y-68500000D01*
X172729878Y-68403478D01*
X172729961Y-68307836D01*
X172880000Y-68307836D01*
X173028231Y-68279944D01*
X173164372Y-68192340D01*
X173255704Y-68058671D01*
X173287836Y-67900000D01*
X173287836Y-67000000D01*
X173259944Y-66851769D01*
X173172340Y-66715628D01*
X173038671Y-66624296D01*
X172880000Y-66592164D01*
X171180000Y-66592164D01*
X171031769Y-66620056D01*
X170895628Y-66707660D01*
X170804296Y-66841329D01*
X170772164Y-67000000D01*
X170772164Y-67900000D01*
X170800056Y-68048231D01*
X170887660Y-68184372D01*
X171021329Y-68275704D01*
X171180000Y-68307836D01*
X171329961Y-68307836D01*
X171329879Y-68402256D01*
X171370266Y-68500000D01*
X160481389Y-68500000D01*
X160476043Y-68473125D01*
X160194239Y-68051374D01*
X159772488Y-67769570D01*
X159275000Y-67670613D01*
X158777512Y-67769570D01*
X158355761Y-68051374D01*
X158073957Y-68473125D01*
X157975000Y-68970613D01*
X157975000Y-69429387D01*
X158073957Y-69926875D01*
X158355761Y-70348626D01*
X158357817Y-70350000D01*
X154692183Y-70350000D01*
X154694239Y-70348626D01*
X154976043Y-69926875D01*
X155075000Y-69429387D01*
X155075000Y-68970613D01*
X154976043Y-68473125D01*
X154694239Y-68051374D01*
X154272488Y-67769570D01*
X153775000Y-67670613D01*
X153443019Y-67736648D01*
X153075000Y-67368630D01*
X153075000Y-67132273D01*
X153210927Y-67335703D01*
X153584014Y-67584991D01*
X154024100Y-67672530D01*
X154464186Y-67584991D01*
X154837273Y-67335703D01*
X155086561Y-66962616D01*
X155174100Y-66522530D01*
X155174100Y-66477470D01*
X157874100Y-66477470D01*
X157874100Y-66522530D01*
X157961639Y-66962616D01*
X158210927Y-67335703D01*
X158584014Y-67584991D01*
X159024100Y-67672530D01*
X159464186Y-67584991D01*
X159837273Y-67335703D01*
X160086561Y-66962616D01*
X160174100Y-66522530D01*
X160174100Y-66477470D01*
X160086561Y-66037384D01*
X159837273Y-65664297D01*
X159464186Y-65415009D01*
X159024100Y-65327470D01*
X158584014Y-65415009D01*
X158210927Y-65664297D01*
X157961639Y-66037384D01*
X157874100Y-66477470D01*
X155174100Y-66477470D01*
X155086561Y-66037384D01*
X154837273Y-65664297D01*
X154464186Y-65415009D01*
X154024100Y-65327470D01*
X153584014Y-65415009D01*
X153210927Y-65664297D01*
X153075000Y-65867727D01*
X153075000Y-65509370D01*
X153428848Y-65155522D01*
X153703434Y-65269540D01*
X154459250Y-65270199D01*
X155157784Y-64981571D01*
X155692693Y-64447595D01*
X155982540Y-63749566D01*
X155983199Y-62993750D01*
X155694571Y-62295216D01*
X155160595Y-61760307D01*
X154462566Y-61470460D01*
X153706750Y-61469801D01*
X153008216Y-61758429D01*
X152473307Y-62292405D01*
X152183460Y-62990434D01*
X152182801Y-63746250D01*
X152297584Y-64024046D01*
X151709315Y-64612315D01*
X151535896Y-64871853D01*
X151475000Y-65178000D01*
X151475000Y-67700000D01*
X151515805Y-67905140D01*
X151535896Y-68006147D01*
X151709315Y-68265685D01*
X152475000Y-69031371D01*
X152475000Y-69429387D01*
X152573957Y-69926875D01*
X152855761Y-70348626D01*
X152857817Y-70350000D01*
X151150000Y-70350000D01*
X151150000Y-50030250D01*
X152182801Y-50030250D01*
X152471429Y-50728784D01*
X153005405Y-51263693D01*
X153703434Y-51553540D01*
X154459250Y-51554199D01*
X155157784Y-51265571D01*
X155692693Y-50731595D01*
X155982540Y-50033566D01*
X155983199Y-49277750D01*
X155694571Y-48579216D01*
X155160595Y-48044307D01*
X154462566Y-47754460D01*
X153706750Y-47753801D01*
X153008216Y-48042429D01*
X152473307Y-48576405D01*
X152183460Y-49274434D01*
X152182801Y-50030250D01*
X151150000Y-50030250D01*
X151150000Y-47075000D01*
X182275619Y-47075000D01*
X182149479Y-47200920D01*
X182149479Y-47200920D01*
G37*
X182149479Y-47200920D02*
X181972202Y-47627850D01*
X181971799Y-48090122D01*
X182148330Y-48517360D01*
X182275000Y-48644251D01*
X182275000Y-49511305D01*
X182267164Y-49550000D01*
X182267164Y-49988597D01*
X181082836Y-51172926D01*
X181082836Y-49550000D01*
X181054944Y-49401769D01*
X180967340Y-49265628D01*
X180833671Y-49174296D01*
X180675000Y-49142164D01*
X179775000Y-49142164D01*
X179626769Y-49170056D01*
X179490628Y-49257660D01*
X179399296Y-49391329D01*
X179367164Y-49550000D01*
X179367164Y-51250000D01*
X179385833Y-51349217D01*
X178730025Y-52005025D01*
X178631915Y-52102964D01*
X178525122Y-52360150D01*
X178524879Y-52638628D01*
X178631223Y-52896000D01*
X178827964Y-53093085D01*
X178957120Y-53146715D01*
X178957121Y-53146716D01*
X178957122Y-53146716D01*
X179085150Y-53199878D01*
X179363628Y-53200121D01*
X179492877Y-53146716D01*
X179492879Y-53146716D01*
X179492881Y-53146715D01*
X179621000Y-53093777D01*
X179818085Y-52897036D01*
X179818206Y-52896743D01*
X180325000Y-52389949D01*
X180325000Y-53525000D01*
X179645000Y-53525000D01*
X179392219Y-53575281D01*
X179338853Y-53585896D01*
X179079314Y-53759315D01*
X177884315Y-54954315D01*
X177710896Y-55213853D01*
X177650000Y-55520000D01*
X177650000Y-56800000D01*
X177704701Y-57075000D01*
X174862747Y-57075000D01*
X174887010Y-56955186D01*
X174887010Y-55255186D01*
X174879174Y-55213542D01*
X174879174Y-54518881D01*
X174887010Y-54480186D01*
X174887010Y-54280186D01*
X174979174Y-54280186D01*
X175186650Y-54238917D01*
X175227919Y-54230708D01*
X175438793Y-54089805D01*
X176034619Y-53493980D01*
X176175522Y-53283105D01*
X176192052Y-53200000D01*
X176225000Y-53034360D01*
X176225000Y-49775000D01*
X176184509Y-49571439D01*
X176401437Y-49481806D01*
X176710720Y-49173063D01*
X176878309Y-48769464D01*
X176878690Y-48332453D01*
X176711806Y-47928563D01*
X176403063Y-47619280D01*
X175999464Y-47451691D01*
X175562453Y-47451310D01*
X175158563Y-47618194D01*
X174926352Y-47850000D01*
X172888695Y-47850000D01*
X172850000Y-47842164D01*
X171150000Y-47842164D01*
X171108356Y-47850000D01*
X170413695Y-47850000D01*
X170375000Y-47842164D01*
X168675000Y-47842164D01*
X168526769Y-47870056D01*
X168390628Y-47957660D01*
X168299296Y-48091329D01*
X168267164Y-48250000D01*
X168267164Y-49150000D01*
X168295056Y-49298231D01*
X168382660Y-49434372D01*
X168516329Y-49525704D01*
X168636305Y-49550000D01*
X167300000Y-49550000D01*
X167051256Y-49599478D01*
X166840381Y-49740380D01*
X166482836Y-50097925D01*
X166482836Y-50075000D01*
X166454944Y-49926769D01*
X166367340Y-49790628D01*
X166233671Y-49699296D01*
X166075000Y-49667164D01*
X165175000Y-49667164D01*
X165026769Y-49695056D01*
X164890628Y-49782660D01*
X164825000Y-49878710D01*
X164825000Y-49875000D01*
X164775522Y-49626256D01*
X164634620Y-49415381D01*
X163184947Y-47965709D01*
X162974073Y-47824806D01*
X162932804Y-47816597D01*
X162725328Y-47775328D01*
X161980836Y-47775328D01*
X161980836Y-47575328D01*
X161952944Y-47427097D01*
X161865340Y-47290956D01*
X161731671Y-47199624D01*
X161573000Y-47167492D01*
X160673000Y-47167492D01*
X160524769Y-47195384D01*
X160388628Y-47282988D01*
X160297296Y-47416657D01*
X160265164Y-47575328D01*
X160265164Y-49275328D01*
X160273000Y-49316972D01*
X160273000Y-50011633D01*
X160265164Y-50050328D01*
X160265164Y-51750328D01*
X160293056Y-51898559D01*
X160380660Y-52034700D01*
X160445614Y-52079081D01*
X160250780Y-52117836D01*
X159963186Y-52310000D01*
X157688445Y-52310000D01*
X157487353Y-52108556D01*
X157009721Y-51910226D01*
X156492548Y-51909774D01*
X156014571Y-52107271D01*
X155648556Y-52472647D01*
X155450226Y-52950279D01*
X155449774Y-53467452D01*
X155647271Y-53945429D01*
X156012647Y-54311444D01*
X156418985Y-54480170D01*
X156014571Y-54647271D01*
X155648556Y-55012647D01*
X155450226Y-55490279D01*
X155449774Y-56007452D01*
X155647271Y-56485429D01*
X155927521Y-56766169D01*
X155648556Y-57044647D01*
X155450226Y-57522279D01*
X155449774Y-58039452D01*
X155647271Y-58517429D01*
X156012647Y-58883444D01*
X156490279Y-59081774D01*
X157007452Y-59082226D01*
X157485429Y-58884729D01*
X157851444Y-58519353D01*
X158049774Y-58041721D01*
X158050226Y-57524548D01*
X157852729Y-57046571D01*
X157572479Y-56765831D01*
X157851444Y-56487353D01*
X158049774Y-56009721D01*
X158050226Y-55492548D01*
X157852729Y-55014571D01*
X157487353Y-54648556D01*
X157081015Y-54479830D01*
X157485429Y-54312729D01*
X157688513Y-54110000D01*
X158829701Y-54110000D01*
X158775000Y-54385000D01*
X158775000Y-54912281D01*
X158665628Y-54982660D01*
X158574296Y-55116329D01*
X158542164Y-55275000D01*
X158542164Y-56275000D01*
X158570056Y-56423231D01*
X158657660Y-56559372D01*
X158791329Y-56650704D01*
X158950000Y-56682836D01*
X160200000Y-56682836D01*
X160348231Y-56654944D01*
X160484372Y-56567340D01*
X160575704Y-56433671D01*
X160607836Y-56275000D01*
X160607836Y-55275000D01*
X160579944Y-55126769D01*
X160492340Y-54990628D01*
X160375000Y-54910453D01*
X160375000Y-54716370D01*
X160633148Y-54458222D01*
X160710000Y-54473509D01*
X161169220Y-54382164D01*
X161518739Y-54148623D01*
X161420672Y-54295390D01*
X161375000Y-54525000D01*
X161375000Y-59875334D01*
X161169220Y-59737836D01*
X160710000Y-59646491D01*
X160250780Y-59737836D01*
X159861472Y-59997963D01*
X159601345Y-60387271D01*
X159510000Y-60846491D01*
X159510000Y-60893509D01*
X159601345Y-61352729D01*
X159861472Y-61742037D01*
X160110000Y-61908098D01*
X160110000Y-63710000D01*
X160155672Y-63939610D01*
X160285736Y-64134264D01*
X162525736Y-66374264D01*
X162720389Y-66504328D01*
X162950000Y-66550000D01*
X163171194Y-66550000D01*
X163257660Y-66684372D01*
X163391329Y-66775704D01*
X163550000Y-66807836D01*
X163801559Y-66807836D01*
X163845672Y-67029610D01*
X163975736Y-67224264D01*
X164600736Y-67849264D01*
X164795389Y-67979328D01*
X165025000Y-68025000D01*
X168650000Y-68025000D01*
X168879610Y-67979328D01*
X169074264Y-67849264D01*
X170348528Y-66575000D01*
X178925000Y-66575000D01*
X179154610Y-66529328D01*
X179349264Y-66399264D01*
X179974264Y-65774264D01*
X180104328Y-65579611D01*
X180150000Y-65350000D01*
X180150000Y-63981371D01*
X180383454Y-64214825D01*
X180490111Y-64286091D01*
X180642993Y-64388244D01*
X180949140Y-64449140D01*
X184661729Y-64449140D01*
X184962647Y-64750584D01*
X185440279Y-64948914D01*
X185957452Y-64949366D01*
X186435429Y-64751869D01*
X186638513Y-64549140D01*
X190399787Y-64549140D01*
X190578236Y-64549296D01*
X190909143Y-64412568D01*
X191162538Y-64159615D01*
X191299843Y-63828946D01*
X191300156Y-63470904D01*
X191163428Y-63139997D01*
X190910475Y-62886602D01*
X190744416Y-62817649D01*
X190744415Y-62817648D01*
X190744414Y-62817648D01*
X190579806Y-62749297D01*
X190221764Y-62748984D01*
X190221386Y-62749140D01*
X186638445Y-62749140D01*
X186437353Y-62547696D01*
X186031015Y-62378970D01*
X186435429Y-62211869D01*
X186801444Y-61846493D01*
X186999774Y-61368861D01*
X187000226Y-60851688D01*
X186802729Y-60373711D01*
X186522479Y-60092971D01*
X186801444Y-59814493D01*
X186999774Y-59336861D01*
X187000226Y-58819688D01*
X186802729Y-58341711D01*
X186437353Y-57975696D01*
X185959721Y-57777366D01*
X185442548Y-57776914D01*
X184964571Y-57974411D01*
X184598556Y-58339787D01*
X184400226Y-58817419D01*
X184399774Y-59334592D01*
X184597271Y-59812569D01*
X184877521Y-60093309D01*
X184598556Y-60371787D01*
X184400226Y-60849419D01*
X184399774Y-61366592D01*
X184597271Y-61844569D01*
X184962647Y-62210584D01*
X185368985Y-62379310D01*
X184964571Y-62546411D01*
X184661313Y-62849140D01*
X181280511Y-62849140D01*
X178590685Y-60159315D01*
X178331147Y-59985896D01*
X178025000Y-59925000D01*
X170706730Y-59925000D01*
X170400583Y-59985896D01*
X170141044Y-60159315D01*
X169466095Y-60834265D01*
X169292676Y-61093803D01*
X169231780Y-61399950D01*
X169231780Y-62161008D01*
X169223894Y-62199950D01*
X169223894Y-63000050D01*
X169251786Y-63148281D01*
X169339390Y-63284422D01*
X169473059Y-63375754D01*
X169631730Y-63407886D01*
X170418586Y-63407886D01*
X169851472Y-63975000D01*
X163748528Y-63975000D01*
X162575000Y-62801472D01*
X162575000Y-61857985D01*
X162790780Y-62002164D01*
X163250000Y-62093509D01*
X163709220Y-62002164D01*
X164098528Y-61742037D01*
X164358655Y-61352729D01*
X164450000Y-60893509D01*
X164450000Y-60846491D01*
X164358655Y-60387271D01*
X164098528Y-59997963D01*
X163900000Y-59865311D01*
X163900000Y-55225000D01*
X166904417Y-55225000D01*
X166891254Y-55290000D01*
X166891254Y-56990000D01*
X166899090Y-57031644D01*
X166899090Y-57726305D01*
X166891254Y-57765000D01*
X166891254Y-58953597D01*
X166130609Y-59714243D01*
X165790000Y-59646491D01*
X165330780Y-59737836D01*
X164941472Y-59997963D01*
X164681345Y-60387271D01*
X164590000Y-60846491D01*
X164590000Y-60893509D01*
X164681345Y-61352729D01*
X164941472Y-61742037D01*
X165330780Y-62002164D01*
X165790000Y-62093509D01*
X166249220Y-62002164D01*
X166638528Y-61742037D01*
X166898655Y-61352729D01*
X166990000Y-60893509D01*
X166990000Y-60846491D01*
X166964589Y-60718740D01*
X167810493Y-59872836D01*
X168199090Y-59872836D01*
X168347321Y-59844944D01*
X168483462Y-59757340D01*
X168531570Y-59686931D01*
X168571750Y-59749372D01*
X168705419Y-59840704D01*
X168864090Y-59872836D01*
X169764090Y-59872836D01*
X169912321Y-59844944D01*
X170048462Y-59757340D01*
X170139794Y-59623671D01*
X170171926Y-59465000D01*
X170171926Y-57765000D01*
X170164090Y-57723356D01*
X170164090Y-57028695D01*
X170171926Y-56990000D01*
X170171926Y-55290000D01*
X170144034Y-55141769D01*
X170056430Y-55005628D01*
X169922761Y-54914296D01*
X169764090Y-54882164D01*
X168864090Y-54882164D01*
X168715859Y-54910056D01*
X168579718Y-54997660D01*
X168531610Y-55068069D01*
X168491430Y-55005628D01*
X168357761Y-54914296D01*
X168199090Y-54882164D01*
X167617074Y-54882164D01*
X168076211Y-54423027D01*
X168330000Y-54473509D01*
X168628992Y-54414036D01*
X168710186Y-54430186D01*
X173171338Y-54430186D01*
X173171338Y-54480186D01*
X173179174Y-54521830D01*
X173179174Y-55216491D01*
X173171338Y-55255186D01*
X173171338Y-56955186D01*
X173193883Y-57075000D01*
X173064090Y-57075000D01*
X173064090Y-57028695D01*
X173071926Y-56990000D01*
X173071926Y-55290000D01*
X173044034Y-55141769D01*
X172956430Y-55005628D01*
X172822761Y-54914296D01*
X172664090Y-54882164D01*
X171764090Y-54882164D01*
X171615859Y-54910056D01*
X171479718Y-54997660D01*
X171388386Y-55131329D01*
X171356254Y-55290000D01*
X171356254Y-56990000D01*
X171364090Y-57031644D01*
X171364090Y-57726305D01*
X171356254Y-57765000D01*
X171356254Y-59465000D01*
X171384146Y-59613231D01*
X171471750Y-59749372D01*
X171605419Y-59840704D01*
X171764090Y-59872836D01*
X172664090Y-59872836D01*
X172812321Y-59844944D01*
X172948462Y-59757340D01*
X173039794Y-59623671D01*
X173071926Y-59465000D01*
X173071926Y-58888534D01*
X173285460Y-58675000D01*
X178630532Y-58675000D01*
X178741329Y-58750704D01*
X178900000Y-58782836D01*
X180150000Y-58782836D01*
X180298231Y-58754944D01*
X180422468Y-58675000D01*
X180492164Y-58675000D01*
X180492164Y-58700000D01*
X180520056Y-58848231D01*
X180607660Y-58984372D01*
X180741329Y-59075704D01*
X180900000Y-59107836D01*
X181301466Y-59107836D01*
X181404364Y-59210734D01*
X181349296Y-59291329D01*
X181317164Y-59450000D01*
X181317164Y-60450000D01*
X181345056Y-60598231D01*
X181432660Y-60734372D01*
X181566329Y-60825704D01*
X181725000Y-60857836D01*
X182975000Y-60857836D01*
X183123231Y-60829944D01*
X183259372Y-60742340D01*
X183350704Y-60608671D01*
X183382836Y-60450000D01*
X183382836Y-59450000D01*
X183354944Y-59301769D01*
X183267340Y-59165628D01*
X183150000Y-59085453D01*
X183150000Y-59025000D01*
X183089104Y-58718853D01*
X183036874Y-58640686D01*
X182915686Y-58459315D01*
X182307836Y-57851466D01*
X182307836Y-57450000D01*
X182279944Y-57301769D01*
X182192340Y-57165628D01*
X182058671Y-57074296D01*
X181900000Y-57042164D01*
X180900000Y-57042164D01*
X180751769Y-57070056D01*
X180744086Y-57075000D01*
X180419468Y-57075000D01*
X180308671Y-56999296D01*
X180150000Y-56967164D01*
X179748535Y-56967164D01*
X179250000Y-56468630D01*
X179250000Y-55851370D01*
X179976371Y-55125000D01*
X180553753Y-55125000D01*
X180795118Y-55225223D01*
X181153311Y-55225535D01*
X181479455Y-55090776D01*
X181344777Y-55415118D01*
X181344465Y-55773311D01*
X181481250Y-56104358D01*
X181734310Y-56357860D01*
X182065118Y-56495223D01*
X182423311Y-56495535D01*
X182754358Y-56358750D01*
X183007860Y-56105690D01*
X183145223Y-55774882D01*
X183145363Y-55613875D01*
X187709239Y-51050000D01*
X189511289Y-51050000D01*
X189514330Y-51057360D01*
X189840920Y-51384521D01*
X190267850Y-51561798D01*
X190730122Y-51562201D01*
X191157360Y-51385670D01*
X191484521Y-51059080D01*
X191661798Y-50632150D01*
X191662201Y-50169878D01*
X191485670Y-49742640D01*
X191159080Y-49415479D01*
X190732150Y-49238202D01*
X190269878Y-49237799D01*
X189842640Y-49414330D01*
X189515479Y-49740920D01*
X189511709Y-49750000D01*
X187440000Y-49750000D01*
X187191256Y-49799478D01*
X187191254Y-49799479D01*
X187191255Y-49799479D01*
X186980380Y-49940381D01*
X182226158Y-54694604D01*
X182066689Y-54694465D01*
X181740545Y-54829224D01*
X181875223Y-54504882D01*
X181875535Y-54146689D01*
X181738750Y-53815642D01*
X181625000Y-53701693D01*
X181625000Y-52469238D01*
X182487935Y-51606303D01*
X182516329Y-51625704D01*
X182675000Y-51657836D01*
X183575000Y-51657836D01*
X183723231Y-51629944D01*
X183859372Y-51542340D01*
X183950704Y-51408671D01*
X183982836Y-51250000D01*
X183982836Y-49550000D01*
X183975000Y-49508356D01*
X183975000Y-48662351D01*
X184118521Y-48519080D01*
X184295798Y-48092150D01*
X184296201Y-47629878D01*
X184119670Y-47202640D01*
X183992253Y-47075000D01*
X198650000Y-47075000D01*
X198650000Y-70350000D01*
X160192183Y-70350000D01*
X160194239Y-70348626D01*
X160476043Y-69926875D01*
X160481389Y-69900000D01*
X184251004Y-69900000D01*
X184518883Y-69846716D01*
X184745979Y-69694975D01*
X186535814Y-67905140D01*
X186600572Y-67905140D01*
X186755429Y-68279924D01*
X187289405Y-68814833D01*
X187987434Y-69104680D01*
X188743250Y-69105339D01*
X189441784Y-68816711D01*
X189976693Y-68282735D01*
X190050437Y-68105140D01*
X191694860Y-68105140D01*
X192039275Y-68036632D01*
X192331256Y-67841536D01*
X193886396Y-66286396D01*
X194081492Y-65994416D01*
X194150000Y-65650000D01*
X194150000Y-54700000D01*
X194081492Y-54355585D01*
X193886396Y-54063604D01*
X192675536Y-52852744D01*
X192383555Y-52657648D01*
X192039140Y-52589140D01*
X190050790Y-52589140D01*
X189978571Y-52414356D01*
X189444595Y-51879447D01*
X188746566Y-51589600D01*
X187990750Y-51588941D01*
X187292216Y-51877569D01*
X186757307Y-52411545D01*
X186467460Y-53109574D01*
X186466801Y-53865390D01*
X186755429Y-54563924D01*
X187289405Y-55098833D01*
X187987434Y-55388680D01*
X188743250Y-55389339D01*
X189441784Y-55100711D01*
X189976693Y-54566735D01*
X190050437Y-54389140D01*
X191666348Y-54389140D01*
X192350000Y-55072792D01*
X192350000Y-65277208D01*
X191322068Y-66305140D01*
X190050790Y-66305140D01*
X189978571Y-66130356D01*
X189444595Y-65595447D01*
X188746566Y-65305600D01*
X187990750Y-65304941D01*
X187292216Y-65593569D01*
X186757307Y-66127545D01*
X186600516Y-66505140D01*
X186245864Y-66505140D01*
X185977985Y-66558424D01*
X185750889Y-66710165D01*
X183961054Y-68500000D01*
X177839799Y-68500000D01*
X177879878Y-68403478D01*
X177879961Y-68307836D01*
X178030000Y-68307836D01*
X178178231Y-68279944D01*
X178314372Y-68192340D01*
X178405704Y-68058671D01*
X178437836Y-67900000D01*
X178437836Y-67000000D01*
X178409944Y-66851769D01*
X178322340Y-66715628D01*
X178188671Y-66624296D01*
X178030000Y-66592164D01*
X176330000Y-66592164D01*
X176181769Y-66620056D01*
X176045628Y-66707660D01*
X175954296Y-66841329D01*
X175922164Y-67000000D01*
X175922164Y-67900000D01*
X175950056Y-68048231D01*
X176037660Y-68184372D01*
X176171329Y-68275704D01*
X176330000Y-68307836D01*
X176479961Y-68307836D01*
X176479879Y-68402256D01*
X176520266Y-68500000D01*
X175264799Y-68500000D01*
X175304878Y-68403478D01*
X175304961Y-68307836D01*
X175455000Y-68307836D01*
X175603231Y-68279944D01*
X175739372Y-68192340D01*
X175830704Y-68058671D01*
X175862836Y-67900000D01*
X175862836Y-67000000D01*
X175834944Y-66851769D01*
X175747340Y-66715628D01*
X175613671Y-66624296D01*
X175455000Y-66592164D01*
X173755000Y-66592164D01*
X173606769Y-66620056D01*
X173470628Y-66707660D01*
X173379296Y-66841329D01*
X173347164Y-67000000D01*
X173347164Y-67900000D01*
X173375056Y-68048231D01*
X173462660Y-68184372D01*
X173596329Y-68275704D01*
X173755000Y-68307836D01*
X173904961Y-68307836D01*
X173904879Y-68402256D01*
X173945266Y-68500000D01*
X172689799Y-68500000D01*
X172729878Y-68403478D01*
X172729961Y-68307836D01*
X172880000Y-68307836D01*
X173028231Y-68279944D01*
X173164372Y-68192340D01*
X173255704Y-68058671D01*
X173287836Y-67900000D01*
X173287836Y-67000000D01*
X173259944Y-66851769D01*
X173172340Y-66715628D01*
X173038671Y-66624296D01*
X172880000Y-66592164D01*
X171180000Y-66592164D01*
X171031769Y-66620056D01*
X170895628Y-66707660D01*
X170804296Y-66841329D01*
X170772164Y-67000000D01*
X170772164Y-67900000D01*
X170800056Y-68048231D01*
X170887660Y-68184372D01*
X171021329Y-68275704D01*
X171180000Y-68307836D01*
X171329961Y-68307836D01*
X171329879Y-68402256D01*
X171370266Y-68500000D01*
X160481389Y-68500000D01*
X160476043Y-68473125D01*
X160194239Y-68051374D01*
X159772488Y-67769570D01*
X159275000Y-67670613D01*
X158777512Y-67769570D01*
X158355761Y-68051374D01*
X158073957Y-68473125D01*
X157975000Y-68970613D01*
X157975000Y-69429387D01*
X158073957Y-69926875D01*
X158355761Y-70348626D01*
X158357817Y-70350000D01*
X154692183Y-70350000D01*
X154694239Y-70348626D01*
X154976043Y-69926875D01*
X155075000Y-69429387D01*
X155075000Y-68970613D01*
X154976043Y-68473125D01*
X154694239Y-68051374D01*
X154272488Y-67769570D01*
X153775000Y-67670613D01*
X153443019Y-67736648D01*
X153075000Y-67368630D01*
X153075000Y-67132273D01*
X153210927Y-67335703D01*
X153584014Y-67584991D01*
X154024100Y-67672530D01*
X154464186Y-67584991D01*
X154837273Y-67335703D01*
X155086561Y-66962616D01*
X155174100Y-66522530D01*
X155174100Y-66477470D01*
X157874100Y-66477470D01*
X157874100Y-66522530D01*
X157961639Y-66962616D01*
X158210927Y-67335703D01*
X158584014Y-67584991D01*
X159024100Y-67672530D01*
X159464186Y-67584991D01*
X159837273Y-67335703D01*
X160086561Y-66962616D01*
X160174100Y-66522530D01*
X160174100Y-66477470D01*
X160086561Y-66037384D01*
X159837273Y-65664297D01*
X159464186Y-65415009D01*
X159024100Y-65327470D01*
X158584014Y-65415009D01*
X158210927Y-65664297D01*
X157961639Y-66037384D01*
X157874100Y-66477470D01*
X155174100Y-66477470D01*
X155086561Y-66037384D01*
X154837273Y-65664297D01*
X154464186Y-65415009D01*
X154024100Y-65327470D01*
X153584014Y-65415009D01*
X153210927Y-65664297D01*
X153075000Y-65867727D01*
X153075000Y-65509370D01*
X153428848Y-65155522D01*
X153703434Y-65269540D01*
X154459250Y-65270199D01*
X155157784Y-64981571D01*
X155692693Y-64447595D01*
X155982540Y-63749566D01*
X155983199Y-62993750D01*
X155694571Y-62295216D01*
X155160595Y-61760307D01*
X154462566Y-61470460D01*
X153706750Y-61469801D01*
X153008216Y-61758429D01*
X152473307Y-62292405D01*
X152183460Y-62990434D01*
X152182801Y-63746250D01*
X152297584Y-64024046D01*
X151709315Y-64612315D01*
X151535896Y-64871853D01*
X151475000Y-65178000D01*
X151475000Y-67700000D01*
X151515805Y-67905140D01*
X151535896Y-68006147D01*
X151709315Y-68265685D01*
X152475000Y-69031371D01*
X152475000Y-69429387D01*
X152573957Y-69926875D01*
X152855761Y-70348626D01*
X152857817Y-70350000D01*
X151150000Y-70350000D01*
X151150000Y-50030250D01*
X152182801Y-50030250D01*
X152471429Y-50728784D01*
X153005405Y-51263693D01*
X153703434Y-51553540D01*
X154459250Y-51554199D01*
X155157784Y-51265571D01*
X155692693Y-50731595D01*
X155982540Y-50033566D01*
X155983199Y-49277750D01*
X155694571Y-48579216D01*
X155160595Y-48044307D01*
X154462566Y-47754460D01*
X153706750Y-47753801D01*
X153008216Y-48042429D01*
X152473307Y-48576405D01*
X152183460Y-49274434D01*
X152182801Y-50030250D01*
X151150000Y-50030250D01*
X151150000Y-47075000D01*
X182275619Y-47075000D01*
X182149479Y-47200920D01*
M02*
