G04 #@! TF.FileFunction,Legend,Top*
%FSLAX46Y46*%
G04 Gerber Fmt 4.6, Leading zero omitted, Abs format (unit mm)*
G04 Created by KiCad (PCBNEW 4.0.1-stable) date Fri 18 Dec 2015 10:46:47 AM EET*
%MOMM*%
G01*
G04 APERTURE LIST*
%ADD10C,0.100000*%
%ADD11C,0.180000*%
%ADD12C,0.200000*%
%ADD13C,0.152400*%
%ADD14C,0.300000*%
%ADD15C,0.250000*%
%ADD16C,0.150000*%
%ADD17C,1.777000*%
%ADD18R,2.180860X1.977660*%
%ADD19C,1.380760*%
%ADD20C,2.180000*%
%ADD21C,3.379740*%
%ADD22C,1.904000*%
%ADD23O,1.980000X1.980000*%
%ADD24R,0.780000X1.730000*%
%ADD25O,1.880000X1.880000*%
%ADD26O,2.180000X2.580000*%
%ADD27R,2.880000X1.580000*%
G04 APERTURE END LIST*
D10*
D11*
X161091667Y-55913571D02*
X161234524Y-55961190D01*
X161282143Y-56008810D01*
X161329762Y-56104048D01*
X161329762Y-56246905D01*
X161282143Y-56342143D01*
X161234524Y-56389762D01*
X161139286Y-56437381D01*
X160758333Y-56437381D01*
X160758333Y-55437381D01*
X161091667Y-55437381D01*
X161186905Y-55485000D01*
X161234524Y-55532619D01*
X161282143Y-55627857D01*
X161282143Y-55723095D01*
X161234524Y-55818333D01*
X161186905Y-55865952D01*
X161091667Y-55913571D01*
X160758333Y-55913571D01*
X161901190Y-56437381D02*
X161805952Y-56389762D01*
X161758333Y-56342143D01*
X161710714Y-56246905D01*
X161710714Y-55961190D01*
X161758333Y-55865952D01*
X161805952Y-55818333D01*
X161901190Y-55770714D01*
X162044048Y-55770714D01*
X162139286Y-55818333D01*
X162186905Y-55865952D01*
X162234524Y-55961190D01*
X162234524Y-56246905D01*
X162186905Y-56342143D01*
X162139286Y-56389762D01*
X162044048Y-56437381D01*
X161901190Y-56437381D01*
X163091667Y-56437381D02*
X163091667Y-55913571D01*
X163044048Y-55818333D01*
X162948810Y-55770714D01*
X162758333Y-55770714D01*
X162663095Y-55818333D01*
X163091667Y-56389762D02*
X162996429Y-56437381D01*
X162758333Y-56437381D01*
X162663095Y-56389762D01*
X162615476Y-56294524D01*
X162615476Y-56199286D01*
X162663095Y-56104048D01*
X162758333Y-56056429D01*
X162996429Y-56056429D01*
X163091667Y-56008810D01*
X163567857Y-56437381D02*
X163567857Y-55770714D01*
X163567857Y-55961190D02*
X163615476Y-55865952D01*
X163663095Y-55818333D01*
X163758333Y-55770714D01*
X163853572Y-55770714D01*
X164615477Y-56437381D02*
X164615477Y-55437381D01*
X164615477Y-56389762D02*
X164520239Y-56437381D01*
X164329762Y-56437381D01*
X164234524Y-56389762D01*
X164186905Y-56342143D01*
X164139286Y-56246905D01*
X164139286Y-55961190D01*
X164186905Y-55865952D01*
X164234524Y-55818333D01*
X164329762Y-55770714D01*
X164520239Y-55770714D01*
X164615477Y-55818333D01*
X165853572Y-56437381D02*
X165853572Y-55770714D01*
X165853572Y-55961190D02*
X165901191Y-55865952D01*
X165948810Y-55818333D01*
X166044048Y-55770714D01*
X166139287Y-55770714D01*
X166853573Y-56389762D02*
X166758335Y-56437381D01*
X166567858Y-56437381D01*
X166472620Y-56389762D01*
X166425001Y-56294524D01*
X166425001Y-55913571D01*
X166472620Y-55818333D01*
X166567858Y-55770714D01*
X166758335Y-55770714D01*
X166853573Y-55818333D01*
X166901192Y-55913571D01*
X166901192Y-56008810D01*
X166425001Y-56104048D01*
X167234525Y-55770714D02*
X167472620Y-56437381D01*
X167710716Y-55770714D01*
X168091668Y-56342143D02*
X168139287Y-56389762D01*
X168091668Y-56437381D01*
X168044049Y-56389762D01*
X168091668Y-56342143D01*
X168091668Y-56437381D01*
X168091668Y-55818333D02*
X168139287Y-55865952D01*
X168091668Y-55913571D01*
X168044049Y-55865952D01*
X168091668Y-55818333D01*
X168091668Y-55913571D01*
X163901190Y-57017381D02*
X163996429Y-57017381D01*
X164091667Y-57065000D01*
X164139286Y-57112619D01*
X164186905Y-57207857D01*
X164234524Y-57398333D01*
X164234524Y-57636429D01*
X164186905Y-57826905D01*
X164139286Y-57922143D01*
X164091667Y-57969762D01*
X163996429Y-58017381D01*
X163901190Y-58017381D01*
X163805952Y-57969762D01*
X163758333Y-57922143D01*
X163710714Y-57826905D01*
X163663095Y-57636429D01*
X163663095Y-57398333D01*
X163710714Y-57207857D01*
X163758333Y-57112619D01*
X163805952Y-57065000D01*
X163901190Y-57017381D01*
X164615476Y-57112619D02*
X164663095Y-57065000D01*
X164758333Y-57017381D01*
X164996429Y-57017381D01*
X165091667Y-57065000D01*
X165139286Y-57112619D01*
X165186905Y-57207857D01*
X165186905Y-57303095D01*
X165139286Y-57445952D01*
X164567857Y-58017381D01*
X165186905Y-58017381D01*
D12*
X190473810Y-68977381D02*
X190473810Y-67977381D01*
X190711905Y-67977381D01*
X190854763Y-68025000D01*
X190950001Y-68120238D01*
X190997620Y-68215476D01*
X191045239Y-68405952D01*
X191045239Y-68548810D01*
X190997620Y-68739286D01*
X190950001Y-68834524D01*
X190854763Y-68929762D01*
X190711905Y-68977381D01*
X190473810Y-68977381D01*
X191854763Y-68929762D02*
X191759525Y-68977381D01*
X191569048Y-68977381D01*
X191473810Y-68929762D01*
X191426191Y-68834524D01*
X191426191Y-68453571D01*
X191473810Y-68358333D01*
X191569048Y-68310714D01*
X191759525Y-68310714D01*
X191854763Y-68358333D01*
X191902382Y-68453571D01*
X191902382Y-68548810D01*
X191426191Y-68644048D01*
X192283334Y-68929762D02*
X192378572Y-68977381D01*
X192569048Y-68977381D01*
X192664287Y-68929762D01*
X192711906Y-68834524D01*
X192711906Y-68786905D01*
X192664287Y-68691667D01*
X192569048Y-68644048D01*
X192426191Y-68644048D01*
X192330953Y-68596429D01*
X192283334Y-68501190D01*
X192283334Y-68453571D01*
X192330953Y-68358333D01*
X192426191Y-68310714D01*
X192569048Y-68310714D01*
X192664287Y-68358333D01*
X193140477Y-68977381D02*
X193140477Y-68310714D01*
X193140477Y-67977381D02*
X193092858Y-68025000D01*
X193140477Y-68072619D01*
X193188096Y-68025000D01*
X193140477Y-67977381D01*
X193140477Y-68072619D01*
X194045239Y-68310714D02*
X194045239Y-69120238D01*
X193997620Y-69215476D01*
X193950001Y-69263095D01*
X193854762Y-69310714D01*
X193711905Y-69310714D01*
X193616667Y-69263095D01*
X194045239Y-68929762D02*
X193950001Y-68977381D01*
X193759524Y-68977381D01*
X193664286Y-68929762D01*
X193616667Y-68882143D01*
X193569048Y-68786905D01*
X193569048Y-68501190D01*
X193616667Y-68405952D01*
X193664286Y-68358333D01*
X193759524Y-68310714D01*
X193950001Y-68310714D01*
X194045239Y-68358333D01*
X194521429Y-68310714D02*
X194521429Y-68977381D01*
X194521429Y-68405952D02*
X194569048Y-68358333D01*
X194664286Y-68310714D01*
X194807144Y-68310714D01*
X194902382Y-68358333D01*
X194950001Y-68453571D01*
X194950001Y-68977381D01*
X195426191Y-68882143D02*
X195473810Y-68929762D01*
X195426191Y-68977381D01*
X195378572Y-68929762D01*
X195426191Y-68882143D01*
X195426191Y-68977381D01*
X195426191Y-68358333D02*
X195473810Y-68405952D01*
X195426191Y-68453571D01*
X195378572Y-68405952D01*
X195426191Y-68358333D01*
X195426191Y-68453571D01*
X158484525Y-62639286D02*
X158484525Y-63372619D01*
X158484525Y-62744048D02*
X158536906Y-62691667D01*
X158641668Y-62639286D01*
X158798810Y-62639286D01*
X158903572Y-62691667D01*
X158955953Y-62796429D01*
X158955953Y-63372619D01*
X159479763Y-63372619D02*
X159479763Y-62639286D01*
X159479763Y-62272619D02*
X159427382Y-62325000D01*
X159479763Y-62377381D01*
X159532144Y-62325000D01*
X159479763Y-62272619D01*
X159479763Y-62377381D01*
X160003573Y-63372619D02*
X160003573Y-62272619D01*
X160108335Y-62953571D02*
X160422620Y-63372619D01*
X160422620Y-62639286D02*
X160003573Y-63058333D01*
X161051192Y-63372619D02*
X160946430Y-63320238D01*
X160894049Y-63267857D01*
X160841668Y-63163095D01*
X160841668Y-62848810D01*
X160894049Y-62744048D01*
X160946430Y-62691667D01*
X161051192Y-62639286D01*
X161208334Y-62639286D01*
X161313096Y-62691667D01*
X161365477Y-62744048D01*
X161417858Y-62848810D01*
X161417858Y-63163095D01*
X161365477Y-63267857D01*
X161313096Y-63320238D01*
X161208334Y-63372619D01*
X161051192Y-63372619D01*
X161889287Y-63372619D02*
X161889287Y-62639286D01*
X161889287Y-62744048D02*
X161941668Y-62691667D01*
X162046430Y-62639286D01*
X162203572Y-62639286D01*
X162308334Y-62691667D01*
X162360715Y-62796429D01*
X162360715Y-63372619D01*
X162360715Y-62796429D02*
X162413096Y-62691667D01*
X162517858Y-62639286D01*
X162675001Y-62639286D01*
X162779763Y-62691667D01*
X162832144Y-62796429D01*
X162832144Y-63372619D01*
X163513097Y-63372619D02*
X163408335Y-63320238D01*
X163355954Y-63267857D01*
X163303573Y-63163095D01*
X163303573Y-62848810D01*
X163355954Y-62744048D01*
X163408335Y-62691667D01*
X163513097Y-62639286D01*
X163670239Y-62639286D01*
X163775001Y-62691667D01*
X163827382Y-62744048D01*
X163879763Y-62848810D01*
X163879763Y-63163095D01*
X163827382Y-63267857D01*
X163775001Y-63320238D01*
X163670239Y-63372619D01*
X163513097Y-63372619D01*
X165032144Y-62848810D02*
X164979763Y-62796429D01*
X164875001Y-62744048D01*
X164770239Y-62744048D01*
X164665477Y-62796429D01*
X164613097Y-62848810D01*
X164560716Y-62953571D01*
X164560716Y-63058333D01*
X164613097Y-63163095D01*
X164665477Y-63215476D01*
X164770239Y-63267857D01*
X164875001Y-63267857D01*
X164979763Y-63215476D01*
X165032144Y-63163095D01*
X165032144Y-62744048D02*
X165032144Y-63163095D01*
X165084525Y-63215476D01*
X165136906Y-63215476D01*
X165241668Y-63163095D01*
X165294049Y-63058333D01*
X165294049Y-62796429D01*
X165189287Y-62639286D01*
X165032144Y-62534524D01*
X164822620Y-62482143D01*
X164613097Y-62534524D01*
X164455954Y-62639286D01*
X164351192Y-62796429D01*
X164298811Y-63005952D01*
X164351192Y-63215476D01*
X164455954Y-63372619D01*
X164613097Y-63477381D01*
X164822620Y-63529762D01*
X165032144Y-63477381D01*
X165189287Y-63372619D01*
X165608335Y-62639286D02*
X166027383Y-62639286D01*
X165765478Y-63372619D02*
X165765478Y-62429762D01*
X165817859Y-62325000D01*
X165922621Y-62272619D01*
X166027383Y-62272619D01*
X166394049Y-63372619D02*
X166394049Y-62639286D01*
X166394049Y-62848810D02*
X166446430Y-62744048D01*
X166498811Y-62691667D01*
X166603573Y-62639286D01*
X166708334Y-62639286D01*
X167494048Y-63320238D02*
X167389286Y-63372619D01*
X167179763Y-63372619D01*
X167075001Y-63320238D01*
X167022620Y-63215476D01*
X167022620Y-62796429D01*
X167075001Y-62691667D01*
X167179763Y-62639286D01*
X167389286Y-62639286D01*
X167494048Y-62691667D01*
X167546429Y-62796429D01*
X167546429Y-62901190D01*
X167022620Y-63005952D01*
X168436905Y-63320238D02*
X168332143Y-63372619D01*
X168122620Y-63372619D01*
X168017858Y-63320238D01*
X167965477Y-63215476D01*
X167965477Y-62796429D01*
X168017858Y-62691667D01*
X168122620Y-62639286D01*
X168332143Y-62639286D01*
X168436905Y-62691667D01*
X168489286Y-62796429D01*
X168489286Y-62901190D01*
X167965477Y-63005952D01*
X168960715Y-62639286D02*
X168960715Y-63372619D01*
X168960715Y-62744048D02*
X169013096Y-62691667D01*
X169117858Y-62639286D01*
X169275000Y-62639286D01*
X169379762Y-62691667D01*
X169432143Y-62796429D01*
X169432143Y-63372619D01*
X170113096Y-63372619D02*
X170008334Y-63320238D01*
X169955953Y-63267857D01*
X169903572Y-63163095D01*
X169903572Y-62848810D01*
X169955953Y-62744048D01*
X170008334Y-62691667D01*
X170113096Y-62639286D01*
X170270238Y-62639286D01*
X170375000Y-62691667D01*
X170427381Y-62744048D01*
X170479762Y-62848810D01*
X170479762Y-63163095D01*
X170427381Y-63267857D01*
X170375000Y-63320238D01*
X170270238Y-63372619D01*
X170113096Y-63372619D01*
X171422619Y-63372619D02*
X171422619Y-62272619D01*
X171422619Y-63320238D02*
X171317857Y-63372619D01*
X171108334Y-63372619D01*
X171003572Y-63320238D01*
X170951191Y-63267857D01*
X170898810Y-63163095D01*
X170898810Y-62848810D01*
X170951191Y-62744048D01*
X171003572Y-62691667D01*
X171108334Y-62639286D01*
X171317857Y-62639286D01*
X171422619Y-62691667D01*
X172365476Y-63320238D02*
X172260714Y-63372619D01*
X172051191Y-63372619D01*
X171946429Y-63320238D01*
X171894048Y-63215476D01*
X171894048Y-62796429D01*
X171946429Y-62691667D01*
X172051191Y-62639286D01*
X172260714Y-62639286D01*
X172365476Y-62691667D01*
X172417857Y-62796429D01*
X172417857Y-62901190D01*
X171894048Y-63005952D01*
D13*
X171823810Y-59235714D02*
X171785715Y-59273810D01*
X171671429Y-59311905D01*
X171595239Y-59311905D01*
X171480953Y-59273810D01*
X171404762Y-59197619D01*
X171366667Y-59121429D01*
X171328572Y-58969048D01*
X171328572Y-58854762D01*
X171366667Y-58702381D01*
X171404762Y-58626190D01*
X171480953Y-58550000D01*
X171595239Y-58511905D01*
X171671429Y-58511905D01*
X171785715Y-58550000D01*
X171823810Y-58588095D01*
X172623810Y-59235714D02*
X172585715Y-59273810D01*
X172471429Y-59311905D01*
X172395239Y-59311905D01*
X172280953Y-59273810D01*
X172204762Y-59197619D01*
X172166667Y-59121429D01*
X172128572Y-58969048D01*
X172128572Y-58854762D01*
X172166667Y-58702381D01*
X172204762Y-58626190D01*
X172280953Y-58550000D01*
X172395239Y-58511905D01*
X172471429Y-58511905D01*
X172585715Y-58550000D01*
X172623810Y-58588095D01*
X173842858Y-58892857D02*
X173957144Y-58930952D01*
X173995239Y-58969048D01*
X174033334Y-59045238D01*
X174033334Y-59159524D01*
X173995239Y-59235714D01*
X173957144Y-59273810D01*
X173880953Y-59311905D01*
X173576191Y-59311905D01*
X173576191Y-58511905D01*
X173842858Y-58511905D01*
X173919048Y-58550000D01*
X173957144Y-58588095D01*
X173995239Y-58664286D01*
X173995239Y-58740476D01*
X173957144Y-58816667D01*
X173919048Y-58854762D01*
X173842858Y-58892857D01*
X173576191Y-58892857D01*
X174528572Y-58930952D02*
X174528572Y-59311905D01*
X174261905Y-58511905D02*
X174528572Y-58930952D01*
X174795239Y-58511905D01*
X175061905Y-59007143D02*
X175671429Y-59007143D01*
X176014286Y-59273810D02*
X176128572Y-59311905D01*
X176319048Y-59311905D01*
X176395238Y-59273810D01*
X176433334Y-59235714D01*
X176471429Y-59159524D01*
X176471429Y-59083333D01*
X176433334Y-59007143D01*
X176395238Y-58969048D01*
X176319048Y-58930952D01*
X176166667Y-58892857D01*
X176090476Y-58854762D01*
X176052381Y-58816667D01*
X176014286Y-58740476D01*
X176014286Y-58664286D01*
X176052381Y-58588095D01*
X176090476Y-58550000D01*
X176166667Y-58511905D01*
X176357143Y-58511905D01*
X176471429Y-58550000D01*
X176776191Y-59083333D02*
X177157143Y-59083333D01*
X176700000Y-59311905D02*
X176966667Y-58511905D01*
X177233334Y-59311905D01*
X178452381Y-58778571D02*
X178452381Y-59311905D01*
X178261905Y-58473810D02*
X178071429Y-59045238D01*
X178566667Y-59045238D01*
X178871429Y-59235714D02*
X178909524Y-59273810D01*
X178871429Y-59311905D01*
X178833334Y-59273810D01*
X178871429Y-59235714D01*
X178871429Y-59311905D01*
X179404762Y-58511905D02*
X179480953Y-58511905D01*
X179557143Y-58550000D01*
X179595238Y-58588095D01*
X179633334Y-58664286D01*
X179671429Y-58816667D01*
X179671429Y-59007143D01*
X179633334Y-59159524D01*
X179595238Y-59235714D01*
X179557143Y-59273810D01*
X179480953Y-59311905D01*
X179404762Y-59311905D01*
X179328572Y-59273810D01*
X179290476Y-59235714D01*
X179252381Y-59159524D01*
X179214286Y-59007143D01*
X179214286Y-58816667D01*
X179252381Y-58664286D01*
X179290476Y-58588095D01*
X179328572Y-58550000D01*
X179404762Y-58511905D01*
X173957143Y-59738800D02*
X173880952Y-59700705D01*
X173766667Y-59700705D01*
X173652381Y-59738800D01*
X173576190Y-59814990D01*
X173538095Y-59891181D01*
X173500000Y-60043562D01*
X173500000Y-60157848D01*
X173538095Y-60310229D01*
X173576190Y-60386419D01*
X173652381Y-60462610D01*
X173766667Y-60500705D01*
X173842857Y-60500705D01*
X173957143Y-60462610D01*
X173995238Y-60424514D01*
X173995238Y-60157848D01*
X173842857Y-60157848D01*
X174338095Y-60500705D02*
X174338095Y-59967371D01*
X174338095Y-59700705D02*
X174300000Y-59738800D01*
X174338095Y-59776895D01*
X174376190Y-59738800D01*
X174338095Y-59700705D01*
X174338095Y-59776895D01*
X174604761Y-59967371D02*
X174909523Y-59967371D01*
X174719047Y-59700705D02*
X174719047Y-60386419D01*
X174757142Y-60462610D01*
X174833333Y-60500705D01*
X174909523Y-60500705D01*
X175176190Y-60500705D02*
X175176190Y-59700705D01*
X175176190Y-60081657D02*
X175633333Y-60081657D01*
X175633333Y-60500705D02*
X175633333Y-59700705D01*
X176357142Y-59967371D02*
X176357142Y-60500705D01*
X176014285Y-59967371D02*
X176014285Y-60386419D01*
X176052380Y-60462610D01*
X176128571Y-60500705D01*
X176242857Y-60500705D01*
X176319047Y-60462610D01*
X176357142Y-60424514D01*
X176738095Y-60500705D02*
X176738095Y-59700705D01*
X176738095Y-60005467D02*
X176814286Y-59967371D01*
X176966667Y-59967371D01*
X177042857Y-60005467D01*
X177080952Y-60043562D01*
X177119048Y-60119752D01*
X177119048Y-60348324D01*
X177080952Y-60424514D01*
X177042857Y-60462610D01*
X176966667Y-60500705D01*
X176814286Y-60500705D01*
X176738095Y-60462610D01*
X177461905Y-60424514D02*
X177500000Y-60462610D01*
X177461905Y-60500705D01*
X177423810Y-60462610D01*
X177461905Y-60424514D01*
X177461905Y-60500705D01*
X177461905Y-60005467D02*
X177500000Y-60043562D01*
X177461905Y-60081657D01*
X177423810Y-60043562D01*
X177461905Y-60005467D01*
X177461905Y-60081657D01*
X172376190Y-60973105D02*
X172833333Y-60973105D01*
X172604762Y-61773105D02*
X172604762Y-60973105D01*
X173100000Y-61773105D02*
X173100000Y-60973105D01*
X173442857Y-61773105D02*
X173442857Y-61354057D01*
X173404762Y-61277867D01*
X173328572Y-61239771D01*
X173214286Y-61239771D01*
X173138095Y-61277867D01*
X173100000Y-61315962D01*
X174128572Y-61735010D02*
X174052382Y-61773105D01*
X173900001Y-61773105D01*
X173823810Y-61735010D01*
X173785715Y-61658819D01*
X173785715Y-61354057D01*
X173823810Y-61277867D01*
X173900001Y-61239771D01*
X174052382Y-61239771D01*
X174128572Y-61277867D01*
X174166667Y-61354057D01*
X174166667Y-61430248D01*
X173785715Y-61506438D01*
X174509524Y-61773105D02*
X174509524Y-60973105D01*
X174966667Y-61773105D01*
X174966667Y-60973105D01*
X175347619Y-61773105D02*
X175347619Y-61239771D01*
X175347619Y-60973105D02*
X175309524Y-61011200D01*
X175347619Y-61049295D01*
X175385714Y-61011200D01*
X175347619Y-60973105D01*
X175347619Y-61049295D01*
X175728571Y-61773105D02*
X175728571Y-60973105D01*
X175804762Y-61468343D02*
X176033333Y-61773105D01*
X176033333Y-61239771D02*
X175728571Y-61544533D01*
X176490476Y-61773105D02*
X176414285Y-61735010D01*
X176376190Y-61696914D01*
X176338095Y-61620724D01*
X176338095Y-61392152D01*
X176376190Y-61315962D01*
X176414285Y-61277867D01*
X176490476Y-61239771D01*
X176604762Y-61239771D01*
X176680952Y-61277867D01*
X176719047Y-61315962D01*
X176757143Y-61392152D01*
X176757143Y-61620724D01*
X176719047Y-61696914D01*
X176680952Y-61735010D01*
X176604762Y-61773105D01*
X176490476Y-61773105D01*
X177100000Y-61773105D02*
X177100000Y-61239771D01*
X177100000Y-61315962D02*
X177138095Y-61277867D01*
X177214286Y-61239771D01*
X177328572Y-61239771D01*
X177404762Y-61277867D01*
X177442857Y-61354057D01*
X177442857Y-61773105D01*
X177442857Y-61354057D02*
X177480953Y-61277867D01*
X177557143Y-61239771D01*
X177671429Y-61239771D01*
X177747619Y-61277867D01*
X177785714Y-61354057D01*
X177785714Y-61773105D01*
X178280953Y-61773105D02*
X178204762Y-61735010D01*
X178166667Y-61696914D01*
X178128572Y-61620724D01*
X178128572Y-61392152D01*
X178166667Y-61315962D01*
X178204762Y-61277867D01*
X178280953Y-61239771D01*
X178395239Y-61239771D01*
X178471429Y-61277867D01*
X178509524Y-61315962D01*
X178547620Y-61392152D01*
X178547620Y-61620724D01*
X178509524Y-61696914D01*
X178471429Y-61735010D01*
X178395239Y-61773105D01*
X178280953Y-61773105D01*
D12*
X181116667Y-70452381D02*
X181116667Y-69452381D01*
X181688096Y-70452381D01*
X181688096Y-69452381D01*
X182164286Y-70452381D02*
X182164286Y-69785714D01*
X182164286Y-69452381D02*
X182116667Y-69500000D01*
X182164286Y-69547619D01*
X182211905Y-69500000D01*
X182164286Y-69452381D01*
X182164286Y-69547619D01*
X182640476Y-70452381D02*
X182640476Y-69452381D01*
X182735714Y-70071429D02*
X183021429Y-70452381D01*
X183021429Y-69785714D02*
X182640476Y-70166667D01*
X183592857Y-70452381D02*
X183497619Y-70404762D01*
X183450000Y-70357143D01*
X183402381Y-70261905D01*
X183402381Y-69976190D01*
X183450000Y-69880952D01*
X183497619Y-69833333D01*
X183592857Y-69785714D01*
X183735715Y-69785714D01*
X183830953Y-69833333D01*
X183878572Y-69880952D01*
X183926191Y-69976190D01*
X183926191Y-70261905D01*
X183878572Y-70357143D01*
X183830953Y-70404762D01*
X183735715Y-70452381D01*
X183592857Y-70452381D01*
X185164286Y-69452381D02*
X185069048Y-69642857D01*
X185592857Y-69785714D02*
X185592857Y-70452381D01*
X185592857Y-69880952D02*
X185640476Y-69833333D01*
X185735714Y-69785714D01*
X185878572Y-69785714D01*
X185973810Y-69833333D01*
X186021429Y-69928571D01*
X186021429Y-70452381D01*
X186497619Y-70452381D02*
X186497619Y-69785714D01*
X186497619Y-69452381D02*
X186450000Y-69500000D01*
X186497619Y-69547619D01*
X186545238Y-69500000D01*
X186497619Y-69452381D01*
X186497619Y-69547619D01*
X186973809Y-70452381D02*
X186973809Y-69452381D01*
X187069047Y-70071429D02*
X187354762Y-70452381D01*
X187354762Y-69785714D02*
X186973809Y-70166667D01*
X187926190Y-70452381D02*
X187830952Y-70404762D01*
X187783333Y-70357143D01*
X187735714Y-70261905D01*
X187735714Y-69976190D01*
X187783333Y-69880952D01*
X187830952Y-69833333D01*
X187926190Y-69785714D01*
X188069048Y-69785714D01*
X188164286Y-69833333D01*
X188211905Y-69880952D01*
X188259524Y-69976190D01*
X188259524Y-70261905D01*
X188211905Y-70357143D01*
X188164286Y-70404762D01*
X188069048Y-70452381D01*
X187926190Y-70452381D01*
X188688095Y-70452381D02*
X188688095Y-69785714D01*
X188688095Y-69880952D02*
X188735714Y-69833333D01*
X188830952Y-69785714D01*
X188973810Y-69785714D01*
X189069048Y-69833333D01*
X189116667Y-69928571D01*
X189116667Y-70452381D01*
X189116667Y-69928571D02*
X189164286Y-69833333D01*
X189259524Y-69785714D01*
X189402381Y-69785714D01*
X189497619Y-69833333D01*
X189545238Y-69928571D01*
X189545238Y-70452381D01*
X190164285Y-70452381D02*
X190069047Y-70404762D01*
X190021428Y-70357143D01*
X189973809Y-70261905D01*
X189973809Y-69976190D01*
X190021428Y-69880952D01*
X190069047Y-69833333D01*
X190164285Y-69785714D01*
X190307143Y-69785714D01*
X190402381Y-69833333D01*
X190450000Y-69880952D01*
X190497619Y-69976190D01*
X190497619Y-70261905D01*
X190450000Y-70357143D01*
X190402381Y-70404762D01*
X190307143Y-70452381D01*
X190164285Y-70452381D01*
X190973809Y-69452381D02*
X190878571Y-69642857D01*
X192164285Y-70452381D02*
X192164285Y-69452381D01*
X192497619Y-70166667D01*
X192830952Y-69452381D01*
X192830952Y-70452381D01*
X193449999Y-70452381D02*
X193354761Y-70404762D01*
X193307142Y-70357143D01*
X193259523Y-70261905D01*
X193259523Y-69976190D01*
X193307142Y-69880952D01*
X193354761Y-69833333D01*
X193449999Y-69785714D01*
X193592857Y-69785714D01*
X193688095Y-69833333D01*
X193735714Y-69880952D01*
X193783333Y-69976190D01*
X193783333Y-70261905D01*
X193735714Y-70357143D01*
X193688095Y-70404762D01*
X193592857Y-70452381D01*
X193449999Y-70452381D01*
X194211904Y-69785714D02*
X194211904Y-70452381D01*
X194211904Y-69880952D02*
X194259523Y-69833333D01*
X194354761Y-69785714D01*
X194497619Y-69785714D01*
X194592857Y-69833333D01*
X194640476Y-69928571D01*
X194640476Y-70452381D01*
X194973809Y-69785714D02*
X195354761Y-69785714D01*
X195116666Y-69452381D02*
X195116666Y-70309524D01*
X195164285Y-70404762D01*
X195259523Y-70452381D01*
X195354761Y-70452381D01*
X195830952Y-70452381D02*
X195735714Y-70404762D01*
X195688095Y-70357143D01*
X195640476Y-70261905D01*
X195640476Y-69976190D01*
X195688095Y-69880952D01*
X195735714Y-69833333D01*
X195830952Y-69785714D01*
X195973810Y-69785714D01*
X196069048Y-69833333D01*
X196116667Y-69880952D01*
X196164286Y-69976190D01*
X196164286Y-70261905D01*
X196116667Y-70357143D01*
X196069048Y-70404762D01*
X195973810Y-70452381D01*
X195830952Y-70452381D01*
X196592857Y-69785714D02*
X196592857Y-70452381D01*
X196592857Y-69880952D02*
X196640476Y-69833333D01*
X196735714Y-69785714D01*
X196878572Y-69785714D01*
X196973810Y-69833333D01*
X197021429Y-69928571D01*
X197021429Y-70452381D01*
X197878572Y-70404762D02*
X197783334Y-70452381D01*
X197592857Y-70452381D01*
X197497619Y-70404762D01*
X197450000Y-70309524D01*
X197450000Y-69928571D01*
X197497619Y-69833333D01*
X197592857Y-69785714D01*
X197783334Y-69785714D01*
X197878572Y-69833333D01*
X197926191Y-69928571D01*
X197926191Y-70023810D01*
X197450000Y-70119048D01*
X198354762Y-69785714D02*
X198354762Y-70452381D01*
X198354762Y-69880952D02*
X198402381Y-69833333D01*
X198497619Y-69785714D01*
X198640477Y-69785714D01*
X198735715Y-69833333D01*
X198783334Y-69928571D01*
X198783334Y-70452381D01*
D14*
X158342858Y-47653571D02*
X158342858Y-48867857D01*
X158414286Y-49010714D01*
X158485715Y-49082143D01*
X158628572Y-49153571D01*
X158914286Y-49153571D01*
X159057144Y-49082143D01*
X159128572Y-49010714D01*
X159200001Y-48867857D01*
X159200001Y-47653571D01*
X159842858Y-49082143D02*
X160057144Y-49153571D01*
X160414287Y-49153571D01*
X160557144Y-49082143D01*
X160628573Y-49010714D01*
X160700001Y-48867857D01*
X160700001Y-48725000D01*
X160628573Y-48582143D01*
X160557144Y-48510714D01*
X160414287Y-48439286D01*
X160128573Y-48367857D01*
X159985715Y-48296429D01*
X159914287Y-48225000D01*
X159842858Y-48082143D01*
X159842858Y-47939286D01*
X159914287Y-47796429D01*
X159985715Y-47725000D01*
X160128573Y-47653571D01*
X160485715Y-47653571D01*
X160700001Y-47725000D01*
X161842858Y-48367857D02*
X162057144Y-48439286D01*
X162128572Y-48510714D01*
X162200001Y-48653571D01*
X162200001Y-48867857D01*
X162128572Y-49010714D01*
X162057144Y-49082143D01*
X161914286Y-49153571D01*
X161342858Y-49153571D01*
X161342858Y-47653571D01*
X161842858Y-47653571D01*
X161985715Y-47725000D01*
X162057144Y-47796429D01*
X162128572Y-47939286D01*
X162128572Y-48082143D01*
X162057144Y-48225000D01*
X161985715Y-48296429D01*
X161842858Y-48367857D01*
X161342858Y-48367857D01*
X163771429Y-47653571D02*
X164271429Y-49153571D01*
X164771429Y-47653571D01*
X165485715Y-49153571D02*
X165342857Y-49082143D01*
X165271429Y-49010714D01*
X165200000Y-48867857D01*
X165200000Y-48439286D01*
X165271429Y-48296429D01*
X165342857Y-48225000D01*
X165485715Y-48153571D01*
X165700000Y-48153571D01*
X165842857Y-48225000D01*
X165914286Y-48296429D01*
X165985715Y-48439286D01*
X165985715Y-48867857D01*
X165914286Y-49010714D01*
X165842857Y-49082143D01*
X165700000Y-49153571D01*
X165485715Y-49153571D01*
X166842858Y-49153571D02*
X166700000Y-49082143D01*
X166628572Y-48939286D01*
X166628572Y-47653571D01*
X167200000Y-48153571D02*
X167771429Y-48153571D01*
X167414286Y-47653571D02*
X167414286Y-48939286D01*
X167485714Y-49082143D01*
X167628572Y-49153571D01*
X167771429Y-49153571D01*
X168914286Y-49153571D02*
X168914286Y-48367857D01*
X168842857Y-48225000D01*
X168700000Y-48153571D01*
X168414286Y-48153571D01*
X168271429Y-48225000D01*
X168914286Y-49082143D02*
X168771429Y-49153571D01*
X168414286Y-49153571D01*
X168271429Y-49082143D01*
X168200000Y-48939286D01*
X168200000Y-48796429D01*
X168271429Y-48653571D01*
X168414286Y-48582143D01*
X168771429Y-48582143D01*
X168914286Y-48510714D01*
X170271429Y-48153571D02*
X170271429Y-49367857D01*
X170200000Y-49510714D01*
X170128572Y-49582143D01*
X169985715Y-49653571D01*
X169771429Y-49653571D01*
X169628572Y-49582143D01*
X170271429Y-49082143D02*
X170128572Y-49153571D01*
X169842858Y-49153571D01*
X169700000Y-49082143D01*
X169628572Y-49010714D01*
X169557143Y-48867857D01*
X169557143Y-48439286D01*
X169628572Y-48296429D01*
X169700000Y-48225000D01*
X169842858Y-48153571D01*
X170128572Y-48153571D01*
X170271429Y-48225000D01*
X171557143Y-49082143D02*
X171414286Y-49153571D01*
X171128572Y-49153571D01*
X170985715Y-49082143D01*
X170914286Y-48939286D01*
X170914286Y-48367857D01*
X170985715Y-48225000D01*
X171128572Y-48153571D01*
X171414286Y-48153571D01*
X171557143Y-48225000D01*
X171628572Y-48367857D01*
X171628572Y-48510714D01*
X170914286Y-48653571D01*
X159842857Y-50053571D02*
X160200000Y-51553571D01*
X160485714Y-50482143D01*
X160771428Y-51553571D01*
X161128571Y-50053571D01*
X162342857Y-51553571D02*
X162342857Y-50767857D01*
X162271428Y-50625000D01*
X162128571Y-50553571D01*
X161842857Y-50553571D01*
X161700000Y-50625000D01*
X162342857Y-51482143D02*
X162200000Y-51553571D01*
X161842857Y-51553571D01*
X161700000Y-51482143D01*
X161628571Y-51339286D01*
X161628571Y-51196429D01*
X161700000Y-51053571D01*
X161842857Y-50982143D01*
X162200000Y-50982143D01*
X162342857Y-50910714D01*
X162842857Y-50553571D02*
X163414286Y-50553571D01*
X163057143Y-50053571D02*
X163057143Y-51339286D01*
X163128571Y-51482143D01*
X163271429Y-51553571D01*
X163414286Y-51553571D01*
X164557143Y-51482143D02*
X164414286Y-51553571D01*
X164128572Y-51553571D01*
X163985714Y-51482143D01*
X163914286Y-51410714D01*
X163842857Y-51267857D01*
X163842857Y-50839286D01*
X163914286Y-50696429D01*
X163985714Y-50625000D01*
X164128572Y-50553571D01*
X164414286Y-50553571D01*
X164557143Y-50625000D01*
X165200000Y-51553571D02*
X165200000Y-50053571D01*
X165842857Y-51553571D02*
X165842857Y-50767857D01*
X165771428Y-50625000D01*
X165628571Y-50553571D01*
X165414286Y-50553571D01*
X165271428Y-50625000D01*
X165200000Y-50696429D01*
X167200000Y-51553571D02*
X167200000Y-50053571D01*
X167200000Y-51482143D02*
X167057143Y-51553571D01*
X166771429Y-51553571D01*
X166628571Y-51482143D01*
X166557143Y-51410714D01*
X166485714Y-51267857D01*
X166485714Y-50839286D01*
X166557143Y-50696429D01*
X166628571Y-50625000D01*
X166771429Y-50553571D01*
X167057143Y-50553571D01*
X167200000Y-50625000D01*
X168128572Y-51553571D02*
X167985714Y-51482143D01*
X167914286Y-51410714D01*
X167842857Y-51267857D01*
X167842857Y-50839286D01*
X167914286Y-50696429D01*
X167985714Y-50625000D01*
X168128572Y-50553571D01*
X168342857Y-50553571D01*
X168485714Y-50625000D01*
X168557143Y-50696429D01*
X168628572Y-50839286D01*
X168628572Y-51267857D01*
X168557143Y-51410714D01*
X168485714Y-51482143D01*
X168342857Y-51553571D01*
X168128572Y-51553571D01*
X169914286Y-50553571D02*
X169914286Y-51767857D01*
X169842857Y-51910714D01*
X169771429Y-51982143D01*
X169628572Y-52053571D01*
X169414286Y-52053571D01*
X169271429Y-51982143D01*
X169914286Y-51482143D02*
X169771429Y-51553571D01*
X169485715Y-51553571D01*
X169342857Y-51482143D01*
X169271429Y-51410714D01*
X169200000Y-51267857D01*
X169200000Y-50839286D01*
X169271429Y-50696429D01*
X169342857Y-50625000D01*
X169485715Y-50553571D01*
X169771429Y-50553571D01*
X169914286Y-50625000D01*
D12*
X173271667Y-65202381D02*
X173271667Y-64202381D01*
X173652620Y-64202381D01*
X173747858Y-64250000D01*
X173795477Y-64297619D01*
X173843096Y-64392857D01*
X173843096Y-64535714D01*
X173795477Y-64630952D01*
X173747858Y-64678571D01*
X173652620Y-64726190D01*
X173271667Y-64726190D01*
X174176429Y-64202381D02*
X174414524Y-65202381D01*
X174605001Y-64488095D01*
X174795477Y-65202381D01*
X175033572Y-64202381D01*
X175985953Y-65202381D02*
X175652619Y-64726190D01*
X175414524Y-65202381D02*
X175414524Y-64202381D01*
X175795477Y-64202381D01*
X175890715Y-64250000D01*
X175938334Y-64297619D01*
X175985953Y-64392857D01*
X175985953Y-64535714D01*
X175938334Y-64630952D01*
X175890715Y-64678571D01*
X175795477Y-64726190D01*
X175414524Y-64726190D01*
D15*
X163378572Y-67014286D02*
X163378572Y-68471429D01*
X163464287Y-68642857D01*
X163550001Y-68728571D01*
X163721430Y-68814286D01*
X164064287Y-68814286D01*
X164235715Y-68728571D01*
X164321430Y-68642857D01*
X164407144Y-68471429D01*
X164407144Y-67014286D01*
X165264286Y-67614286D02*
X165264286Y-68814286D01*
X165264286Y-67785714D02*
X165350001Y-67700000D01*
X165521429Y-67614286D01*
X165778572Y-67614286D01*
X165950001Y-67700000D01*
X166035715Y-67871429D01*
X166035715Y-68814286D01*
X167664286Y-68814286D02*
X167664286Y-67014286D01*
X167664286Y-68728571D02*
X167492857Y-68814286D01*
X167150000Y-68814286D01*
X166978572Y-68728571D01*
X166892857Y-68642857D01*
X166807143Y-68471429D01*
X166807143Y-67957143D01*
X166892857Y-67785714D01*
X166978572Y-67700000D01*
X167150000Y-67614286D01*
X167492857Y-67614286D01*
X167664286Y-67700000D01*
X169207143Y-68728571D02*
X169035714Y-68814286D01*
X168692857Y-68814286D01*
X168521428Y-68728571D01*
X168435714Y-68557143D01*
X168435714Y-67871429D01*
X168521428Y-67700000D01*
X168692857Y-67614286D01*
X169035714Y-67614286D01*
X169207143Y-67700000D01*
X169292857Y-67871429D01*
X169292857Y-68042857D01*
X168435714Y-68214286D01*
X170064285Y-68814286D02*
X170064285Y-67614286D01*
X170064285Y-67957143D02*
X170150000Y-67785714D01*
X170235714Y-67700000D01*
X170407143Y-67614286D01*
X170578571Y-67614286D01*
X179139286Y-67014286D02*
X179482143Y-67014286D01*
X179653571Y-67100000D01*
X179825000Y-67271429D01*
X179910714Y-67614286D01*
X179910714Y-68214286D01*
X179825000Y-68557143D01*
X179653571Y-68728571D01*
X179482143Y-68814286D01*
X179139286Y-68814286D01*
X178967857Y-68728571D01*
X178796428Y-68557143D01*
X178710714Y-68214286D01*
X178710714Y-67614286D01*
X178796428Y-67271429D01*
X178967857Y-67100000D01*
X179139286Y-67014286D01*
X180510714Y-67614286D02*
X180939285Y-68814286D01*
X181367857Y-67614286D01*
X182739286Y-68728571D02*
X182567857Y-68814286D01*
X182225000Y-68814286D01*
X182053571Y-68728571D01*
X181967857Y-68557143D01*
X181967857Y-67871429D01*
X182053571Y-67700000D01*
X182225000Y-67614286D01*
X182567857Y-67614286D01*
X182739286Y-67700000D01*
X182825000Y-67871429D01*
X182825000Y-68042857D01*
X181967857Y-68214286D01*
X183596428Y-68814286D02*
X183596428Y-67614286D01*
X183596428Y-67957143D02*
X183682143Y-67785714D01*
X183767857Y-67700000D01*
X183939286Y-67614286D01*
X184110714Y-67614286D01*
D16*
X178955000Y-49439000D02*
X175272000Y-49439000D01*
X175272000Y-49439000D02*
X174764000Y-48931000D01*
X174764000Y-48931000D02*
X174764000Y-48169000D01*
X174764000Y-48169000D02*
X175272000Y-47661000D01*
X175272000Y-47661000D02*
X178955000Y-47661000D01*
X178955000Y-47661000D02*
X179463000Y-48169000D01*
X179463000Y-48169000D02*
X179463000Y-48931000D01*
X179463000Y-48931000D02*
X178955000Y-49439000D01*
X178230000Y-70245000D02*
X178230000Y-66645000D01*
X176130000Y-70245000D02*
X176130000Y-66645000D01*
X176880000Y-68195000D02*
X177480000Y-68195000D01*
X177480000Y-68195000D02*
X177180000Y-68495000D01*
X177180000Y-68495000D02*
X176980000Y-68295000D01*
X176980000Y-68295000D02*
X177230000Y-68295000D01*
X177230000Y-68295000D02*
X177180000Y-68345000D01*
X176680000Y-68595000D02*
X177680000Y-68595000D01*
X177180000Y-68095000D02*
X177180000Y-67595000D01*
X177180000Y-68595000D02*
X176680000Y-68095000D01*
X176680000Y-68095000D02*
X177680000Y-68095000D01*
X177680000Y-68095000D02*
X177180000Y-68595000D01*
X175655000Y-70245000D02*
X175655000Y-66645000D01*
X173555000Y-70245000D02*
X173555000Y-66645000D01*
X174305000Y-68195000D02*
X174905000Y-68195000D01*
X174905000Y-68195000D02*
X174605000Y-68495000D01*
X174605000Y-68495000D02*
X174405000Y-68295000D01*
X174405000Y-68295000D02*
X174655000Y-68295000D01*
X174655000Y-68295000D02*
X174605000Y-68345000D01*
X174105000Y-68595000D02*
X175105000Y-68595000D01*
X174605000Y-68095000D02*
X174605000Y-67595000D01*
X174605000Y-68595000D02*
X174105000Y-68095000D01*
X174105000Y-68095000D02*
X175105000Y-68095000D01*
X175105000Y-68095000D02*
X174605000Y-68595000D01*
X183945000Y-56025000D02*
X183945000Y-52625000D01*
X183942056Y-56022056D02*
G75*
G02X179845000Y-54325000I-1697056J1697056D01*
G01*
X183942056Y-52627944D02*
G75*
G03X179845000Y-54325000I-1697056J-1697056D01*
G01*
X173080000Y-70245000D02*
X173080000Y-66645000D01*
X170980000Y-70245000D02*
X170980000Y-66645000D01*
X171730000Y-68195000D02*
X172330000Y-68195000D01*
X172330000Y-68195000D02*
X172030000Y-68495000D01*
X172030000Y-68495000D02*
X171830000Y-68295000D01*
X171830000Y-68295000D02*
X172080000Y-68295000D01*
X172080000Y-68295000D02*
X172030000Y-68345000D01*
X171530000Y-68595000D02*
X172530000Y-68595000D01*
X172030000Y-68095000D02*
X172030000Y-67595000D01*
X172030000Y-68595000D02*
X171530000Y-68095000D01*
X171530000Y-68095000D02*
X172530000Y-68095000D01*
X172530000Y-68095000D02*
X172030000Y-68595000D01*
X157893000Y-64259000D02*
X150796000Y-64259000D01*
X150796000Y-49273000D02*
X157893000Y-49273000D01*
X157893000Y-64259000D02*
X157893000Y-49273000D01*
X150796000Y-64259000D02*
X150796000Y-49273000D01*
X184557000Y-52600140D02*
X198654000Y-52600140D01*
X198654000Y-67586140D02*
X184557000Y-67586140D01*
X184557000Y-52600140D02*
X184557000Y-67586140D01*
X198654000Y-52600140D02*
X198654000Y-67586140D01*
X200406000Y-50400000D02*
X200660000Y-50146000D01*
X200660000Y-50146000D02*
X200660000Y-49130000D01*
X200660000Y-49130000D02*
X200660000Y-48114000D01*
X200660000Y-48114000D02*
X200406000Y-47860000D01*
X199009000Y-50400000D02*
X200279000Y-50400000D01*
X199009000Y-47860000D02*
X200279000Y-47860000D01*
X200533000Y-49130000D02*
X200025000Y-49130000D01*
X198882000Y-47098000D02*
X198882000Y-51162000D01*
X180086000Y-47098000D02*
X180086000Y-51162000D01*
X198882000Y-47098000D02*
X180086000Y-47098000D01*
X180086000Y-51162000D02*
X198882000Y-51162000D01*
X158415000Y-60735000D02*
X159685000Y-60735000D01*
X158415000Y-53385000D02*
X159685000Y-53385000D01*
X170625000Y-53385000D02*
X169355000Y-53385000D01*
X170625000Y-60735000D02*
X169355000Y-60735000D01*
X158415000Y-60735000D02*
X158415000Y-53385000D01*
X170625000Y-60735000D02*
X170625000Y-53385000D01*
X159685000Y-60735000D02*
X159685000Y-61670000D01*
X152174100Y-71880000D02*
X160874100Y-71880000D01*
X152174100Y-65475000D02*
X160874100Y-65475000D01*
X160874100Y-65475000D02*
X160874100Y-71880000D01*
X160874100Y-70650000D02*
X152174100Y-70650000D01*
X152174100Y-71880000D02*
X152174100Y-65475000D01*
X177168780Y-56689860D02*
X177529460Y-58160520D01*
X177529460Y-58160520D02*
X177808860Y-57098800D01*
X177808860Y-57098800D02*
X178118740Y-58170680D01*
X178118740Y-58170680D02*
X178459100Y-56720340D01*
X175748920Y-57380740D02*
X176538860Y-57370580D01*
X176538860Y-57370580D02*
X176549020Y-57380740D01*
X176549020Y-57380740D02*
X176549020Y-57370580D01*
X176589660Y-56659380D02*
X176589660Y-58201160D01*
X175700660Y-56649220D02*
X175700660Y-58218940D01*
X175700660Y-58218940D02*
X175710820Y-58208780D01*
X175149480Y-56750820D02*
X174798960Y-56669540D01*
X174798960Y-56669540D02*
X174478920Y-56659380D01*
X174478920Y-56659380D02*
X174240160Y-56860040D01*
X174240160Y-56860040D02*
X174209680Y-57129280D01*
X174209680Y-57129280D02*
X174450980Y-57370580D01*
X174450980Y-57370580D02*
X174839600Y-57500120D01*
X174839600Y-57500120D02*
X175019940Y-57660140D01*
X175019940Y-57660140D02*
X175060580Y-57959860D01*
X175060580Y-57959860D02*
X174829440Y-58180840D01*
X174829440Y-58180840D02*
X174509400Y-58208780D01*
X174509400Y-58208780D02*
X174158880Y-58099560D01*
X173120020Y-56649220D02*
X172871100Y-56669540D01*
X172871100Y-56669540D02*
X172629800Y-56910840D01*
X172629800Y-56910840D02*
X172540900Y-57401060D01*
X172540900Y-57401060D02*
X172568840Y-57749040D01*
X172568840Y-57749040D02*
X172769500Y-58069080D01*
X172769500Y-58069080D02*
X173020960Y-58191000D01*
X173020960Y-58191000D02*
X173330840Y-58119880D01*
X173330840Y-58119880D02*
X173549280Y-57939540D01*
X173549280Y-57939540D02*
X173620400Y-57479800D01*
X173620400Y-57479800D02*
X173569600Y-57070860D01*
X173569600Y-57070860D02*
X173460380Y-56788920D01*
X173460380Y-56788920D02*
X173099700Y-56659380D01*
X173719460Y-54929640D02*
X173460380Y-55490980D01*
X173460380Y-55490980D02*
X173998860Y-56009140D01*
X173998860Y-56009140D02*
X174519560Y-55739900D01*
X174519560Y-55739900D02*
X174798960Y-55899920D01*
X176239140Y-55879600D02*
X176569340Y-55689100D01*
X176569340Y-55689100D02*
X177008760Y-56019300D01*
X177008760Y-56019300D02*
X177481200Y-55529080D01*
X177481200Y-55529080D02*
X177199260Y-55049020D01*
X177199260Y-55049020D02*
X177389760Y-54579120D01*
X177389760Y-54579120D02*
X177999360Y-54391160D01*
X177999360Y-54391160D02*
X177999360Y-53710440D01*
X177999360Y-53710440D02*
X177440560Y-53570740D01*
X177440560Y-53570740D02*
X177239900Y-52999240D01*
X177239900Y-52999240D02*
X177509140Y-52529340D01*
X177509140Y-52529340D02*
X177039240Y-52018800D01*
X177039240Y-52018800D02*
X176521080Y-52280420D01*
X176521080Y-52280420D02*
X176051180Y-52079760D01*
X176051180Y-52079760D02*
X175881000Y-51538740D01*
X175881000Y-51538740D02*
X175190120Y-51520960D01*
X175190120Y-51520960D02*
X174979300Y-52069600D01*
X174979300Y-52069600D02*
X174560200Y-52239780D01*
X174560200Y-52239780D02*
X174009020Y-51970540D01*
X174009020Y-51970540D02*
X173490860Y-52498860D01*
X173490860Y-52498860D02*
X173739780Y-53039880D01*
X173739780Y-53039880D02*
X173569600Y-53519940D01*
X173569600Y-53519940D02*
X173020960Y-53619000D01*
X173020960Y-53619000D02*
X173010800Y-54320040D01*
X173010800Y-54320040D02*
X173569600Y-54520700D01*
X173569600Y-54520700D02*
X173709300Y-54919480D01*
X175850520Y-54899160D02*
X176150240Y-54749300D01*
X176150240Y-54749300D02*
X176350900Y-54551180D01*
X176350900Y-54551180D02*
X176500760Y-54149860D01*
X176500760Y-54149860D02*
X176500760Y-53751080D01*
X176500760Y-53751080D02*
X176350900Y-53400560D01*
X176350900Y-53400560D02*
X175898780Y-53050040D01*
X175898780Y-53050040D02*
X175449200Y-52999240D01*
X175449200Y-52999240D02*
X175050420Y-53100840D01*
X175050420Y-53100840D02*
X174649100Y-53448820D01*
X174649100Y-53448820D02*
X174499240Y-53900940D01*
X174499240Y-53900940D02*
X174550040Y-54398780D01*
X174550040Y-54398780D02*
X174798960Y-54701040D01*
X174798960Y-54701040D02*
X175149480Y-54899160D01*
X175149480Y-54899160D02*
X174798960Y-55899920D01*
X175850520Y-54899160D02*
X176249300Y-55899920D01*
%LPC*%
D17*
X178320000Y-48550000D03*
X175780000Y-48550000D03*
D18*
X177180000Y-66675140D03*
X177180000Y-69514860D03*
X174605000Y-66675140D03*
X174605000Y-69514860D03*
D19*
X180975000Y-54325000D03*
X182245000Y-53055000D03*
X182245000Y-55595000D03*
D18*
X172030000Y-66675140D03*
X172030000Y-69514860D03*
D20*
X156750000Y-60322000D03*
X156750000Y-57782000D03*
X156750000Y-55750000D03*
X156750000Y-53210000D03*
D21*
X154083000Y-63370000D03*
X154083000Y-49654000D03*
D20*
X185700000Y-56537140D03*
X185700000Y-59077140D03*
X185700000Y-61109140D03*
X185700000Y-63649140D03*
D21*
X188367000Y-53489140D03*
X188367000Y-67205140D03*
D22*
X195580000Y-47860000D03*
X190500000Y-50400000D03*
X183134000Y-47860000D03*
D23*
X160710000Y-60870000D03*
X163250000Y-60870000D03*
X165790000Y-60870000D03*
X168330000Y-60870000D03*
X168330000Y-53250000D03*
X165790000Y-53250000D03*
X163250000Y-53250000D03*
X160710000Y-53250000D03*
D24*
X155224100Y-66500000D03*
X155874100Y-66500000D03*
X156524100Y-66500000D03*
X157174100Y-66500000D03*
X157824100Y-66500000D03*
D25*
X154024100Y-66500000D03*
X159024100Y-66500000D03*
D26*
X153775000Y-69200000D03*
X159275000Y-69200000D03*
D27*
X156525000Y-69262540D03*
M02*
