M48
;DRILL file {KiCad 4.0.1-stable} date Fri 18 Dec 2015 10:45:25 AM EET
;FORMAT={-:-/ absolute / inch / decimal}
FMAT,2
INCH,TZ
T1C0.012
T2C0.016
T3C0.020
T4C0.024
T5C0.030
T6C0.031
T7C0.032
T8C0.039
T9C0.039
T10C0.047
T11C0.091
%
G90
G05
M72
T1
X6.7728Y-2.6875
X6.8238Y-2.6919
X6.8742Y-2.6875
X6.9252Y-2.6919
X6.9756Y-2.6875
X7.0561Y-2.0669
T2
X6.1634Y-2.6752
T3
X7.4961Y-2.5059
T4
X7.125Y-2.1388
X7.175Y-2.0888
X7.175Y-2.1888
T5
X7.21Y-1.8843
X7.5Y-1.9843
X7.7Y-1.8843
T6
X6.3272Y-2.0965
X6.3272Y-2.3965
X6.4272Y-2.0965
X6.4272Y-2.3965
X6.5272Y-2.0965
X6.5272Y-2.3965
X6.6272Y-2.0965
X6.6272Y-2.3965
T7
X6.9205Y-1.9114
X7.0205Y-1.9114
T9
X6.1713Y-2.0949
X6.1713Y-2.1949
X6.1713Y-2.2749
X6.1713Y-2.3749
X7.311Y-2.2259
X7.311Y-2.3259
X7.311Y-2.4059
X7.311Y-2.5059
T10
X6.0639Y-2.6181
X6.2608Y-2.6181
T11
X6.0663Y-1.9549
X6.0663Y-2.4949
X7.416Y-2.1059
X7.416Y-2.6459
T8
X6.0541Y-2.7402G85X6.0541Y-2.7087
G05
X6.2707Y-2.7402G85X6.2707Y-2.7087
G05
T0
M30
